0
SECTION
2
HEADER
9
$INSUNITS
70
4
9
$ACADVER
1
AC1014
9
$HANDSEED
5
FFFF
0
ENDSEC
0
SECTION
2
TABLES
0
TABLE
2
VPORT
5
8
100
AcDbSymbolTable
0
ENDTAB
0
TABLE
2
LTYPE
5
5
100
AcDbSymbolTable
0
LTYPE
5
14
100
AcDbSymbolTableRecord
100
AcDbLinetypeTableRecord
2
BYBLOCK
70
0
0
LTYPE
5
15
100
AcDbSymbolTableRecord
100
AcDbLinetypeTableRecord
2
BYLAYER
70
0
0
ENDTAB
0
TABLE
2
LAYER
5
2
100
AcDbSymbolTable
70
2
0
LAYER
5
50
100
AcDbSymbolTableRecord
100
AcDbLayerTableRecord
2
0
70
0
6
CONTINUOUS
0
ENDTAB
0
TABLE
2
STYLE
5
3
100
AcDbSymbolTable
70
1
0
STYLE
5
11
100
AcDbSymbolTableRecord
100
AcDbTextStyleTableRecord
2
STANDARD
70
0
0
ENDTAB
0
TABLE
2
VIEW
5
6
100
AcDbSymbolTable
70
0
0
ENDTAB
0
TABLE
2
UCS
5
7
100
AcDbSymbolTable
70
0
0
ENDTAB
0
TABLE
2
APPID
5
9
100
AcDbSymbolTable
70
2
0
APPID
5
12
100
AcDbSymbolTableRecord
100
AcDbRegAppTableRecord
2
ACAD
70
0
0
ENDTAB
0
TABLE
2
DIMSTYLE
5
A
100
AcDbSymbolTable
70
1
0
ENDTAB
0
TABLE
2
BLOCK_RECORD
5
1
100
AcDbSymbolTable
70
1
0
BLOCK_RECORD
5
1F
100
AcDbSymbolTableRecord
100
AcDbBlockTableRecord
2
*MODEL_SPACE
0
BLOCK_RECORD
5
1B
100
AcDbSymbolTableRecord
100
AcDbBlockTableRecord
2
*PAPER_SPACE
0
ENDTAB
0
ENDSEC
0
SECTION
2
BLOCKS
0
BLOCK
5
20
100
AcDbEntity
100
AcDbBlockBegin
2
*MODEL_SPACE
0
ENDBLK
5
21
100
AcDbEntity
100
AcDbBlockEnd
0
BLOCK
5
1C
100
AcDbEntity
100
AcDbBlockBegin
2
*PAPER_SPACE
0
ENDBLK
5
1D
100
AcDbEntity
100
AcDbBlockEnd
0
ENDSEC
0
SECTION
2
ENTITIES
0
CIRCLE
5
100
100
AcDbEntity
8
0
100
AcDbCircle
10
137.04423300307363
20
-0.69029648286831202
30
0
40
1.0000000149013211
210
-1.0343089540846281e-32
220
1.3086138768390362e-41
230
1
0
CIRCLE
5
101
100
AcDbEntity
8
0
100
AcDbCircle
10
130.33742415757345
20
-4.258922363020762
30
0
40
1.000000000000032
210
-1.0343089535106562e-32
220
1.3086138761128438e-41
230
1
0
LINE
5
102
100
AcDbEntity
8
0
100
AcDbLine
10
138.85955489178062
20
-2.440166573933134
30
0
11
138.92475648089015
21
-2.4354999678126439
31
8.1250169528836513e-34
0
LINE
5
103
100
AcDbEntity
8
0
100
AcDbLine
10
138.92475648089015
20
-2.4354999678126439
30
8.1250169528836513e-34
11
138.90288201888868
21
-0.6673030331719898
31
0
0
SPLINE
5
104
100
AcDbEntity
8
0
100
AcDbSpline
70
0
71
3
72
11
73
7
74
0
42
0.000000001
43
0.0000000001
44
0.0000000001
40
4
40
4
40
4
40
4
40
5
40
5
40
5
40
6
40
6
40
6
40
6
10
138.90288201888868
20
-0.66730303317198969
30
0
10
138.89018308727552
20
0.35920047355105267
30
0
10
138.04774306009949
20
1.1810514645600962
30
0
10
137.02123955337731
20
1.1683525329468631
30
0
10
136.66321074441169
20
1.163923338764012
30
0
10
136.31408049051541
20
1.0561818069865021
30
0
10
136.01581903081308
20
0.85807994564616119
30
0
0
LINE
5
105
100
AcDbEntity
8
0
100
AcDbLine
10
136.01581903081308
20
0.85807994564616119
30
0
11
129.46841725965371
21
-2.6257270252345526
31
1.0785207688568521e-31
0
SPLINE
5
106
100
AcDbEntity
8
0
100
AcDbSpline
70
0
71
3
72
8
73
4
74
0
42
0.000000001
43
0.0000000001
44
0.0000000001
40
7
40
7
40
7
40
7
40
7.2782031051121399
40
7.2782031051121399
40
7.2782031051121399
40
7.2782031051121399
10
129.46841725965371
20
-2.6257270252345535
30
0
10
129.21748115286323
20
-2.7592476168579965
30
0
10
129.00987574308189
20
-2.9423281836163815
30
0
10
128.85124734406733
20
-3.156480852400219
30
0
0
SPLINE
5
107
100
AcDbEntity
8
0
100
AcDbSpline
70
0
71
3
72
10
73
6
74
0
42
0.000000001
43
0.0000000001
44
0.0000000001
40
7.2782031051121407
40
7.2782031051121407
40
7.2782031051121407
40
7.2782031051121407
40
8
40
8
40
9
40
9
40
9
40
9
10
128.85124734406733
20
-3.1564808524002212
30
0
10
128.43968656798043
20
-3.7120991345822816
30
0
10
128.35781015419136
20
-4.4768764891767567
30
0
10
129.18416807700555
20
-6.0299181394946588
30
0
10
130.30444217693872
20
-6.3720569580261399
30
0
10
131.20643105549314
20
-5.8921177008073089
30
0
0
LINE
5
108
100
AcDbEntity
8
0
100
AcDbLine
10
131.20643105549314
20
-5.8921177008073098
30
0
11
134.78840653343852
21
-3.9861843892827098
31
5.3926038442842604e-32
0
SPLINE
5
109
100
AcDbEntity
8
0
100
AcDbSpline
70
0
71
3
72
11
73
7
74
0
42
0.000000001
43
0.0000000001
44
0.0000000001
40
10
40
10
40
10
40
10
40
11
40
11
40
11
40
11.926758998666589
40
11.926758998666589
40
11.926758998666589
40
11.926758998666589
10
134.78840653343852
20
-3.9861843892827098
30
0
10
134.83068306919802
20
-3.9636894676126606
30
0
10
134.87773050879412
20
-3.9516422186547691
30
0
10
134.92561553832158
20
-3.9510498303079662
30
0
10
135.07915424827769
20
-3.9491503944417365
30
0
10
135.20717817463162
20
-4.0629358338874733
30
0
10
135.22673914834215
20
-4.2114852133506195
30
0
0
SPLINE
5
110
100
AcDbEntity
8
0
100
AcDbSpline
70
0
71
3
72
8
73
4
74
0
42
0.000000001
43
0.0000000001
44
0.0000000001
40
11.926758998666694
40
11.926758998666694
40
11.926758998666694
40
11.926758998666694
40
12
40
12
40
12
40
12
10
135.22673914834218
20
-4.2114852133506711
30
0
10
135.22828503600408
20
-4.2232249486162319
30
0
10
135.22915350626843
20
-4.2351818059239381
30
0
10
135.22930361712258
20
-4.2473158438742367
30
0
0
LINE
5
111
100
AcDbEntity
8
0
100
AcDbLine
10
135.22930361712258
20
-4.2473158438742367
30
0
11
135.9730712122649
21
-14.639199769651343
31
0
0
ARC
5
112
100
AcDbEntity
8
0
100
AcDbCircle
10
137.7186061309867
20
-14.514268398399766
30
0
40
1.7499999999999756
210
-7.3269868309499895e-50
220
1.0237229636008237e-48
230
1
100
AcDbArc
50
184.09379107152355
51
274.09379107152324
0
LINE
5
113
100
AcDbEntity
8
0
100
AcDbLine
10
137.84353750223826
20
-16.259803317121552
30
2.9635615105501609e-47
11
138.09289963348425
21
-16.241955978371347
31
-7.2222372914521344e-34
0
ARC
5
114
100
AcDbEntity
8
0
100
AcDbCircle
10
137.96796826223269
20
-14.496421059649546
30
0
40
1.7499999999999793
210
-3.0322590184605889e-32
220
-2.5840024467171264e-33
230
1
100
AcDbArc
50
-85.906208928476815
51
4.0937910715240076
0
LINE
5
115
100
AcDbEntity
8
0
100
AcDbLine
10
139.71350318095449
20
-14.371489688397956
30
5.3251962962306513e-32
11
138.85955489178062
21
-2.440166573933134
31
0
0
ENDSEC
0
SECTION
2
OBJECTS
0
DICTIONARY
5
C
100
AcDbDictionary
3
ACAD_GROUP
350
D
3
ACAD_MLINESTYLE
350
17
0
DICTIONARY
5
D
100
AcDbDictionary
0
DICTIONARY
5
1A
330
C
100
AcDbDictionary
0
DICTIONARY
5
17
100
AcDbDictionary
0
ENDSEC
0
EOF
