0
SECTION
2
HEADER
9
$INSUNITS
70
4
9
$ACADVER
1
AC1014
9
$HANDSEED
5
FFFF
0
ENDSEC
0
SECTION
2
TABLES
0
TABLE
2
VPORT
5
8
100
AcDbSymbolTable
0
ENDTAB
0
TABLE
2
LTYPE
5
5
100
AcDbSymbolTable
0
LTYPE
5
14
100
AcDbSymbolTableRecord
100
AcDbLinetypeTableRecord
2
BYBLOCK
70
0
0
LTYPE
5
15
100
AcDbSymbolTableRecord
100
AcDbLinetypeTableRecord
2
BYLAYER
70
0
0
ENDTAB
0
TABLE
2
LAYER
5
2
100
AcDbSymbolTable
70
2
0
LAYER
5
50
100
AcDbSymbolTableRecord
100
AcDbLayerTableRecord
2
0
70
0
6
CONTINUOUS
0
ENDTAB
0
TABLE
2
STYLE
5
3
100
AcDbSymbolTable
70
1
0
STYLE
5
11
100
AcDbSymbolTableRecord
100
AcDbTextStyleTableRecord
2
STANDARD
70
0
0
ENDTAB
0
TABLE
2
VIEW
5
6
100
AcDbSymbolTable
70
0
0
ENDTAB
0
TABLE
2
UCS
5
7
100
AcDbSymbolTable
70
0
0
ENDTAB
0
TABLE
2
APPID
5
9
100
AcDbSymbolTable
70
2
0
APPID
5
12
100
AcDbSymbolTableRecord
100
AcDbRegAppTableRecord
2
ACAD
70
0
0
ENDTAB
0
TABLE
2
DIMSTYLE
5
A
100
AcDbSymbolTable
70
1
0
ENDTAB
0
TABLE
2
BLOCK_RECORD
5
1
100
AcDbSymbolTable
70
1
0
BLOCK_RECORD
5
1F
100
AcDbSymbolTableRecord
100
AcDbBlockTableRecord
2
*MODEL_SPACE
0
BLOCK_RECORD
5
1B
100
AcDbSymbolTableRecord
100
AcDbBlockTableRecord
2
*PAPER_SPACE
0
ENDTAB
0
ENDSEC
0
SECTION
2
BLOCKS
0
BLOCK
5
20
100
AcDbEntity
100
AcDbBlockBegin
2
*MODEL_SPACE
0
ENDBLK
5
21
100
AcDbEntity
100
AcDbBlockEnd
0
BLOCK
5
1C
100
AcDbEntity
100
AcDbBlockBegin
2
*PAPER_SPACE
0
ENDBLK
5
1D
100
AcDbEntity
100
AcDbBlockEnd
0
ENDSEC
0
SECTION
2
ENTITIES
0
LWPOLYLINE
5
100
100
AcDbEntity
8
0
100
AcDbPolyline
90
16
70
1
43
0.0
10
-17.615935944161468
20
53.419927815486773
10
-9.3449319069804879
20
11.732513741008477
10
-4.4154212736320728
20
11.731204801567523
10
-4.415495346832655
20
17.731204801110426
10
-2.9154953469469511
20
17.731223319410571
10
-2.915557074614104
20
22.731223319029645
10
-4.4155570744998087
20
22.731204800729504
10
-4.4156572977554536
20
30.849384238156588
10
-2.9156572978697461
20
30.849402756456733
10
-2.9157190255368977
20
35.849402756075712
10
-4.415719025422602
20
35.849384237775581
10
-4.4158192486782468
20
43.967563675202669
10
-2.9158192487925447
20
43.967582193502814
10
-2.9158809764596989
20
48.967582193121885
10
-4.4158809763454014
20
48.967563674821747
10
-4.4159359598436518
20
53.421279552764808
0
LWPOLYLINE
5
101
100
AcDbEntity
8
0
100
AcDbPolyline
90
16
70
1
43
0.0
10
8.6140893252774209
20
11.732735454705479
10
16.884064053209144
20
53.420353736390148
10
3.6840640395391788
20
53.421379551585638
10
3.6841190230374581
20
48.967663673642576
10
2.1841190231517555
20
48.967645155342439
10
2.1841807508189017
20
43.967645155723353
10
3.684180750704606
20
43.967663674023498
10
3.6842809739602451
20
35.849484236596396
10
2.1842809740745421
20
35.849465718296251
10
2.1843427017416897
20
30.849465718677255
10
3.6843427016273909
20
30.849484236977403
10
3.684442924883033
20
22.731304799550301
10
2.1844429249973309
20
22.731286281250156
10
2.1845046526644776
20
17.731286281631068
10
3.6845046525501801
20
17.731304799931216
10
3.6845787257507578
20
11.731304800388306
0
ENDSEC
0
SECTION
2
OBJECTS
0
DICTIONARY
5
C
100
AcDbDictionary
3
ACAD_GROUP
350
D
3
ACAD_MLINESTYLE
350
17
0
DICTIONARY
5
D
100
AcDbDictionary
0
DICTIONARY
5
1A
330
C
100
AcDbDictionary
0
DICTIONARY
5
17
100
AcDbDictionary
0
ENDSEC
0
EOF
