0
SECTION
2
HEADER
9
$INSUNITS
70
4
9
$ACADVER
1
AC1014
9
$HANDSEED
5
FFFF
0
ENDSEC
0
SECTION
2
TABLES
0
TABLE
2
VPORT
5
8
100
AcDbSymbolTable
0
ENDTAB
0
TABLE
2
LTYPE
5
5
100
AcDbSymbolTable
0
LTYPE
5
14
100
AcDbSymbolTableRecord
100
AcDbLinetypeTableRecord
2
BYBLOCK
70
0
0
LTYPE
5
15
100
AcDbSymbolTableRecord
100
AcDbLinetypeTableRecord
2
BYLAYER
70
0
0
ENDTAB
0
TABLE
2
LAYER
5
2
100
AcDbSymbolTable
70
2
0
LAYER
5
50
100
AcDbSymbolTableRecord
100
AcDbLayerTableRecord
2
0
70
0
6
CONTINUOUS
0
ENDTAB
0
TABLE
2
STYLE
5
3
100
AcDbSymbolTable
70
1
0
STYLE
5
11
100
AcDbSymbolTableRecord
100
AcDbTextStyleTableRecord
2
STANDARD
70
0
0
ENDTAB
0
TABLE
2
VIEW
5
6
100
AcDbSymbolTable
70
0
0
ENDTAB
0
TABLE
2
UCS
5
7
100
AcDbSymbolTable
70
0
0
ENDTAB
0
TABLE
2
APPID
5
9
100
AcDbSymbolTable
70
2
0
APPID
5
12
100
AcDbSymbolTableRecord
100
AcDbRegAppTableRecord
2
ACAD
70
0
0
ENDTAB
0
TABLE
2
DIMSTYLE
5
A
100
AcDbSymbolTable
70
1
0
ENDTAB
0
TABLE
2
BLOCK_RECORD
5
1
100
AcDbSymbolTable
70
1
0
BLOCK_RECORD
5
1F
100
AcDbSymbolTableRecord
100
AcDbBlockTableRecord
2
*MODEL_SPACE
0
BLOCK_RECORD
5
1B
100
AcDbSymbolTableRecord
100
AcDbBlockTableRecord
2
*PAPER_SPACE
0
ENDTAB
0
ENDSEC
0
SECTION
2
BLOCKS
0
BLOCK
5
20
100
AcDbEntity
100
AcDbBlockBegin
2
*MODEL_SPACE
0
ENDBLK
5
21
100
AcDbEntity
100
AcDbBlockEnd
0
BLOCK
5
1C
100
AcDbEntity
100
AcDbBlockBegin
2
*PAPER_SPACE
0
ENDBLK
5
1D
100
AcDbEntity
100
AcDbBlockEnd
0
ENDSEC
0
SECTION
2
ENTITIES
0
CIRCLE
5
100
100
AcDbEntity
8
0
100
AcDbCircle
10
-6.0044979196892045
20
9.9985746613992976
30
0
40
1.0000000000000233
210
7.4509037930443339e-22
220
2.9617364678873447e-21
230
1
0
CIRCLE
5
101
100
AcDbEntity
8
0
100
AcDbCircle
10
-7.5771367994316554
20
3.1775185148831806
30
0
40
1.0000000149011847
210
1.762420219926393e-22
220
3.5893321658633418e-21
230
1
0
LWPOLYLINE
5
102
100
AcDbEntity
8
0
100
AcDbPolyline
90
10
70
1
43
0.0
10
-10.905634347706956
20
8.379792771480135
10
-43.852733413583593
20
35.747101232337243
42
0.60318460613588232
10
-46.917700801321296
20
34.478743649170809
10
-46.905198614497827
20
34.02767424782887
42
0.18437615263914631
10
-46.248843441165199
20
32.862459705955949
10
-8.775191813222456
20
1.7351977516925388
42
0.55848874613145216
10
-5.7500681887577318
20
2.756275957809283
10
-4.1774293090152756
20
9.5773321043254143
42
0.99999999999999989
10
-7.8315665303631299
20
10.419817218473195
10
-8.0821856315398559
20
9.3327990971891133
42
-0.55848874613145416
0
CIRCLE
5
103
100
AcDbEntity
8
0
100
AcDbCircle
10
-45.050788427374428
20
34.304780469146657
30
-1.2871663141504048e-34
40
1.0000000000000202
210
-1.6477977312711687e-21
220
3.0792311492157729e-21
230
1
0
LWPOLYLINE
5
104
100
AcDbEntity
8
0
100
AcDbPolyline
90
4
70
1
43
0.0
10
-53.451613760338944
20
58.135547616260723
10
-51.912935616325377
20
54.991908074402367
10
-53.260209705693235
20
54.33247458411082
10
-54.798887849706787
20
57.476114125969175
0
LWPOLYLINE
5
105
100
AcDbEntity
8
0
100
AcDbPolyline
90
4
70
1
43
0.0
10
-46.417656530562617
20
43.76462399633678
10
-44.878978386549051
20
40.620984454478418
10
-46.226252475916915
20
39.96155096418687
10
-47.764930619930482
20
43.105190506045233
0
LWPOLYLINE
5
106
100
AcDbEntity
8
0
100
AcDbPolyline
90
4
70
1
43
0.0
10
-48.395957001437196
20
47.806446264440375
10
-49.743231090805054
20
47.147012774148834
10
-51.281909234818627
20
50.290652316007211
10
-49.934635145450777
20
50.950085806298738
0
LWPOLYLINE
5
107
100
AcDbEntity
8
0
100
AcDbPolyline
90
4
70
1
43
0.0
10
-55.42991423121353
20
62.177369884364317
10
-56.777188320581395
20
61.517936394072791
10
-58.315866464594961
20
64.66157593593114
10
-56.96859237522709
20
65.321009426222673
0
CIRCLE
5
108
100
AcDbEntity
8
0
100
AcDbCircle
10
-40.883674151167106
20
35.81524175932163
30
0
40
1.000000000000014
210
1.6667404181281092e-21
220
3.4016573391898402e-21
230
1
0
LWPOLYLINE
5
109
100
AcDbEntity
8
0
100
AcDbPolyline
90
2
70
1
43
0.0
10
-46.904306173760901
20
34.587794539165948
42
0.060385069297332346
10
-46.918245672947279
20
34.136767267413219
0
CIRCLE
5
110
100
AcDbEntity
8
0
100
AcDbCircle
10
-45.05078842737413
20
34.304780469145783
30
0
40
1.000000000000014
210
1.6667404181281092e-21
220
3.4016573391898402e-21
230
1
0
LWPOLYLINE
5
111
100
AcDbEntity
8
0
100
AcDbPolyline
90
12
70
1
43
0.0
10
-39.334444959214999
20
36.875792003857441
10
-58.376709947512744
20
68.00187638900637
42
0.44456839056751291
10
-59.252378825732976
20
68.165844630809133
10
-59.362201837701392
20
68.082087766173942
42
0.33154686273454248
10
-59.559608393073987
20
67.392894639468764
10
-46.804720762447118
20
33.641948390874454
42
0.41024188424899033
10
-44.411833678119592
20
32.542009403917739
10
-41.539439660890935
20
33.583171149332053
10
-41.554546197866713
20
33.602979022971049
10
-41.535057597878904
20
33.584759523471085
10
-40.244719401912555
20
34.052470694093593
42
0.50627008542442098
10
-39.392777708484807
20
36.952278608855259
0
CIRCLE
5
112
100
AcDbEntity
8
0
100
AcDbCircle
10
-3.411636415772286
20
-11.506985441192635
30
-1.1102230246251565e-15
40
1.0000000000000107
210
1.2154728889990713e-21
220
1.7147066993781281e-21
230
1
0
CIRCLE
5
113
100
AcDbEntity
8
0
100
AcDbCircle
10
-8.3504874575003836
20
-1.7486289480659936
30
-5.5511151231257827e-16
40
1.000000000000038
210
-5.3325198708251414e-22
220
3.3796582207735232e-21
230
1
0
LWPOLYLINE
5
114
100
AcDbEntity
8
0
100
AcDbPolyline
90
4
70
1
43
0.0
10
-7.0121446557612765
20
-1.0712735199040564
42
0.99999999999999989
10
-9.6888302592394915
20
-2.4259843762279312
10
-4.7499792175113935
20
-12.184340869354566
42
0.99999999999999989
10
-2.0732936140331741
20
-10.829630013030691
0
CIRCLE
5
115
100
AcDbEntity
8
0
100
AcDbCircle
10
-8.3504874575001899
20
-1.7486289480667951
30
-1.1102230246251565e-15
40
1.0000000000000007
210
-2.4199984067667228e-21
220
2.9142587369574164e-21
230
1
0
LWPOLYLINE
5
116
100
AcDbEntity
8
0
100
AcDbPolyline
90
15
70
1
43
0.0
10
-8.2982653689032393
20
-3.3879192986340021
42
0.41421356237309725
10
-7.9493154451369392
20
-3.3310514632303718
10
-3.7141251638782462
20
2.5533060447335956
42
0.41421356237309637
10
-3.7709929992818751
20
2.9022559684998943
10
-5.3942640359615872
20
4.0705843219505713
42
0.28713225857998492
10
-5.6589729224848293
20
4.0877162185729183
42
-0.39494711811414757
10
-5.9893461806625758
20
4.1747877618510572
42
0.35624922831053379
10
-8.235797277817209
20
4.933021683268052
10
-12.159044100505003
20
3.4610291083795368
10
-12.157881417743916
20
3.4604200467399049
42
1.0162875316377147
10
-10.897616836053395
20
-0.070948404511386814
10
-9.4099914241132758
20
0.48720499739237744
42
-0.74205596918082239
10
-8.8285308707071284
20
-0.27301126920650376
10
-9.9784042409865865
20
-1.8706410214170279
42
0.41421356237309293
10
-9.9215364055829554
20
-2.2195909451833269
0
CIRCLE
5
117
100
AcDbEntity
8
0
100
AcDbCircle
10
-11.556277314439205
20
1.6845547638744132
30
-1.1102230246251565e-15
40
1.0000000000000007
210
1.9792252171681783e-21
220
2.7499281007827226e-21
230
1
0
CIRCLE
5
118
100
AcDbEntity
8
0
100
AcDbCircle
10
-7.5771367994313987
20
3.177518514882252
30
0
40
1.0000000149011614
210
1.6770946337797703e-21
220
8.8015774609931701e-22
230
1
0
ENDSEC
0
SECTION
2
OBJECTS
0
DICTIONARY
5
C
100
AcDbDictionary
3
ACAD_GROUP
350
D
3
ACAD_MLINESTYLE
350
17
0
DICTIONARY
5
D
100
AcDbDictionary
0
DICTIONARY
5
1A
330
C
100
AcDbDictionary
0
DICTIONARY
5
17
100
AcDbDictionary
0
ENDSEC
0
EOF
