0
SECTION
2
HEADER
9
$INSUNITS
70
4
9
$ACADVER
1
AC1014
9
$HANDSEED
5
FFFF
0
ENDSEC
0
SECTION
2
TABLES
0
TABLE
2
VPORT
5
8
100
AcDbSymbolTable
0
ENDTAB
0
TABLE
2
LTYPE
5
5
100
AcDbSymbolTable
0
LTYPE
5
14
100
AcDbSymbolTableRecord
100
AcDbLinetypeTableRecord
2
BYBLOCK
70
0
0
LTYPE
5
15
100
AcDbSymbolTableRecord
100
AcDbLinetypeTableRecord
2
BYLAYER
70
0
0
ENDTAB
0
TABLE
2
LAYER
5
2
100
AcDbSymbolTable
70
2
0
LAYER
5
50
100
AcDbSymbolTableRecord
100
AcDbLayerTableRecord
2
0
70
0
6
CONTINUOUS
0
ENDTAB
0
TABLE
2
STYLE
5
3
100
AcDbSymbolTable
70
1
0
STYLE
5
11
100
AcDbSymbolTableRecord
100
AcDbTextStyleTableRecord
2
STANDARD
70
0
0
ENDTAB
0
TABLE
2
VIEW
5
6
100
AcDbSymbolTable
70
0
0
ENDTAB
0
TABLE
2
UCS
5
7
100
AcDbSymbolTable
70
0
0
ENDTAB
0
TABLE
2
APPID
5
9
100
AcDbSymbolTable
70
2
0
APPID
5
12
100
AcDbSymbolTableRecord
100
AcDbRegAppTableRecord
2
ACAD
70
0
0
ENDTAB
0
TABLE
2
DIMSTYLE
5
A
100
AcDbSymbolTable
70
1
0
ENDTAB
0
TABLE
2
BLOCK_RECORD
5
1
100
AcDbSymbolTable
70
1
0
BLOCK_RECORD
5
1F
100
AcDbSymbolTableRecord
100
AcDbBlockTableRecord
2
*MODEL_SPACE
0
BLOCK_RECORD
5
1B
100
AcDbSymbolTableRecord
100
AcDbBlockTableRecord
2
*PAPER_SPACE
0
ENDTAB
0
ENDSEC
0
SECTION
2
BLOCKS
0
BLOCK
5
20
100
AcDbEntity
100
AcDbBlockBegin
2
*MODEL_SPACE
0
ENDBLK
5
21
100
AcDbEntity
100
AcDbBlockEnd
0
BLOCK
5
1C
100
AcDbEntity
100
AcDbBlockBegin
2
*PAPER_SPACE
0
ENDBLK
5
1D
100
AcDbEntity
100
AcDbBlockEnd
0
ENDSEC
0
SECTION
2
ENTITIES
0
LINE
5
100
100
AcDbEntity
8
0
100
AcDbLine
10
100.5106543714801
20
194.31912750469314
30
0
11
98.110654371480152
21
192.51912750469319
31
0
0
LINE
5
101
100
AcDbEntity
8
0
100
AcDbLine
10
100.5106543714801
20
194.31912750469314
30
0
11
98.110654371480166
21
197.51912750469324
31
0
0
LINE
5
102
100
AcDbEntity
8
0
100
AcDbLine
10
95.710654371480146
20
195.71912750469323
30
0
11
98.110654371480166
21
197.51912750469324
31
0
0
LINE
5
103
100
AcDbEntity
8
0
100
AcDbLine
10
98.110654371480152
20
192.51912750469319
30
0
11
100.21065437148013
21
189.71912750469318
31
0
0
LINE
5
104
100
AcDbEntity
8
0
100
AcDbLine
10
100.21065437148013
20
189.71912750469318
30
0
11
102.61065437148007
21
191.51912750469313
31
0
0
LINE
5
105
100
AcDbEntity
8
0
100
AcDbLine
10
105.01065437148006
20
188.31912750469314
30
0
11
102.61065437148007
21
191.51912750469313
31
0
0
LINE
5
106
100
AcDbEntity
8
0
100
AcDbLine
10
105.01065437148006
20
188.31912750469314
30
0
11
102.61065437148004
21
186.5191275046931
31
0
0
LINE
5
107
100
AcDbEntity
8
0
100
AcDbLine
10
102.61065437148004
20
186.5191275046931
30
0
11
104.71065437148012
21
183.7191275046932
31
0
0
LINE
5
108
100
AcDbEntity
8
0
100
AcDbLine
10
104.71065437148012
20
183.7191275046932
30
0
11
107.11065437148002
21
185.51912750469316
31
0
0
LINE
5
109
100
AcDbEntity
8
0
100
AcDbLine
10
109.5106543714801
20
182.31912750469323
30
0
11
107.11065437148002
21
185.51912750469316
31
0
0
LINE
5
110
100
AcDbEntity
8
0
100
AcDbLine
10
107.11065437148008
20
180.51912750469324
30
0
11
109.5106543714801
21
182.31912750469323
31
0
0
LINE
5
111
100
AcDbEntity
8
0
100
AcDbLine
10
109.21065437148013
20
177.71912750469326
30
0
11
107.11065437148008
21
180.51912750469324
31
0
0
LINE
5
112
100
AcDbEntity
8
0
100
AcDbLine
10
111.61065437148018
20
179.51912750469322
30
0
11
109.21065437148013
21
177.71912750469326
31
0
0
LINE
5
113
100
AcDbEntity
8
0
100
AcDbLine
10
114.01065437148014
20
176.31912750469326
30
0
11
111.61065437148018
21
179.51912750469322
31
0
0
LINE
5
114
100
AcDbEntity
8
0
100
AcDbLine
10
114.01065437148014
20
176.31912750469326
30
0
11
111.61065437148019
21
174.5191275046933
31
0
0
LINE
5
115
100
AcDbEntity
8
0
100
AcDbLine
10
113.7106543714801
20
171.71912750469329
30
0
11
111.61065437148019
21
174.5191275046933
31
0
0
LINE
5
116
100
AcDbEntity
8
0
100
AcDbLine
10
113.7106543714801
20
171.71912750469329
30
0
11
116.11065437148014
21
173.51912750469336
31
0
0
LINE
5
117
100
AcDbEntity
8
0
100
AcDbLine
10
118.51065437147993
20
170.31912750469314
30
0
11
116.11065437148014
21
173.51912750469336
31
0
0
LINE
5
118
100
AcDbEntity
8
0
100
AcDbLine
10
116.1106545030745
20
168.51912760338911
30
0
11
118.51065437147993
21
170.31912750469314
31
0
0
LINE
5
119
100
AcDbEntity
8
0
100
AcDbLine
10
94.791454371480071
20
196.94472750469328
30
0
11
95.710654371480146
21
195.71912750469323
31
0
0
LWPOLYLINE
5
120
100
AcDbEntity
8
0
100
AcDbPolyline
90
44
70
1
43
0.0
10
-50.68882458587494
20
-186.11383685082666
42
0.152957296638531
10
88.361889393821485
20
-185.34038779386816
10
89.426674720575676
20
-188.67448920323301
10
88.361889393821514
20
-185.34038779386816
10
89.426674720575676
20
-188.67448920323301
10
92.28447592860276
20
-187.76181606601514
10
93.349261255356907
20
-191.09591747538005
10
90.491460047329866
20
-192.00859061259791
10
91.556245374084071
20
-195.34269202196285
10
94.414046582111126
20
-194.43001888474498
10
95.478831908865288
20
-197.76412029410989
10
92.621030700838247
20
-198.67679343132775
10
93.685816027592423
20
-202.01089484069263
10
96.543617235619479
20
-201.09822170347479
10
97.608402562373612
20
-204.43232311283964
10
94.750601354346585
20
-205.34499625005751
10
95.815386681100733
20
-208.67909765942244
10
98.673187889127831
20
-207.76642452220457
10
99.737973215881993
20
-211.10052593156948
10
96.880172007854952
20
-212.01319906878734
10
97.944957334609114
20
-215.34730047815225
10
100.80275854263617
20
-214.43462734093436
10
102.02939123905686
20
-218.27551216452278
10
99.171590031029808
20
-219.18818530174065
42
-0.15295729663853092
10
-61.121321246756679
20
-220.07979094342787
10
-59.937491838429665
20
-216.22549828043762
10
-62.805269117440233
20
-215.34467282781335
10
-61.777639422711943
20
-211.99893266896768
10
-58.909862143701375
20
-212.87975812159198
10
-57.882232448973056
20
-209.5340179627463
10
-60.750009727983631
20
-208.65319251012204
10
-59.72238003325532
20
-205.30745235127631
10
-56.854602754244752
20
-206.1882778039006
10
-55.826973059516462
20
-202.84253764505496
10
-58.694750338527022
20
-201.9617121924307
10
-57.667120643798725
20
-198.61597203358502
10
-54.799343364788157
20
-199.49679748620929
10
-53.771713670059853
20
-196.15105732736365
10
-56.639490949070421
20
-195.27023187473935
10
-55.611861254342102
20
-191.92449171589368
10
-52.744083975331534
20
-192.80531716851794
10
-51.71645428060323
20
-189.45957700967227
10
-54.584231559613805
20
-188.57875155704801
10
-53.556601864885501
20
-185.23301139820236
0
LINE
5
121
100
AcDbEntity
8
0
100
AcDbLine
10
18.836532403973276
20
-185.72711232234738
30
0
11
18.709309646225346
21
-162.85499794046274
31
0
0
LINE
5
122
100
AcDbEntity
8
0
100
AcDbLine
10
99.17159003102995
20
-219.18818530174065
30
0
11
102.02939123905701
21
-218.27551216452275
31
0
0
LINE
5
123
100
AcDbEntity
8
0
100
AcDbLine
10
-51.71645428060323
20
-189.45957700967227
30
0
11
-52.744083975331534
21
-192.80531716851794
31
0
0
LINE
5
124
100
AcDbEntity
8
0
100
AcDbLine
10
-53.771713670059853
20
-196.15105732736365
30
0
11
-54.799343364788157
21
-199.49679748620929
31
0
0
LINE
5
125
100
AcDbEntity
8
0
100
AcDbLine
10
-55.826973059516462
20
-202.84253764505496
30
0
11
-56.854602754244752
21
-206.1882778039006
31
0
0
LINE
5
126
100
AcDbEntity
8
0
100
AcDbLine
10
-57.882232448973056
20
-209.5340179627463
30
0
11
-58.909862143701375
21
-212.87975812159198
31
0
0
LINE
5
127
100
AcDbEntity
8
0
100
AcDbLine
10
-59.937491838429665
20
-216.22549828043762
30
0
11
-61.121321246756679
21
-220.07979094342787
31
0
0
LINE
5
128
100
AcDbEntity
8
0
100
AcDbLine
10
102.02939123905701
20
-218.27551216452275
30
0
11
100.80275854263617
21
-214.43462734093436
31
0
0
LINE
5
129
100
AcDbEntity
8
0
100
AcDbLine
10
99.737973215881993
20
-211.10052593156948
30
0
11
98.673187889127831
21
-207.76642452220457
31
0
0
LINE
5
130
100
AcDbEntity
8
0
100
AcDbLine
10
97.608402562373612
20
-204.43232311283964
30
0
11
96.543617235619479
21
-201.09822170347479
31
0
0
LINE
5
131
100
AcDbEntity
8
0
100
AcDbLine
10
95.478831908865288
20
-197.76412029410989
30
0
11
94.414046582111126
21
-194.43001888474498
31
0
0
LINE
5
132
100
AcDbEntity
8
0
100
AcDbLine
10
93.349261255356907
20
-191.09591747538005
30
0
11
92.28447592860276
21
-187.76181606601514
31
0
0
LINE
5
133
100
AcDbEntity
8
0
100
AcDbLine
10
88.361889393821485
20
-185.34038779386816
30
0
11
89.426674720575676
21
-188.67448920323301
31
0
0
LWPOLYLINE
5
134
100
AcDbEntity
8
0
100
AcDbPolyline
90
2
70
1
43
0.0
10
90.491460047329866
20
-192.00859061259791
10
91.556245374084071
20
-195.34269202196285
0
LINE
5
135
100
AcDbEntity
8
0
100
AcDbLine
10
90.491460047329866
20
-192.00859061259791
30
0
11
91.556245374084071
21
-195.34269202196285
31
0
0
LWPOLYLINE
5
136
100
AcDbEntity
8
0
100
AcDbPolyline
90
2
70
1
43
0.0
10
92.621030700838247
20
-198.67679343132775
10
93.685816027592423
20
-202.01089484069263
0
LINE
5
137
100
AcDbEntity
8
0
100
AcDbLine
10
92.621030700838247
20
-198.67679343132775
30
0
11
93.685816027592423
21
-202.01089484069263
31
0
0
LWPOLYLINE
5
138
100
AcDbEntity
8
0
100
AcDbPolyline
90
2
70
1
43
0.0
10
94.750601354346585
20
-205.34499625005751
10
95.815386681100733
20
-208.67909765942244
0
LWPOLYLINE
5
139
100
AcDbEntity
8
0
100
AcDbPolyline
90
2
70
1
43
0.0
10
96.880172007854952
20
-212.01319906878734
10
97.944957334609114
20
-215.34730047815225
0
LINE
5
140
100
AcDbEntity
8
0
100
AcDbLine
10
96.880172007854952
20
-212.01319906878734
30
0
11
97.944957334609114
21
-215.34730047815225
31
0
0
LINE
5
141
100
AcDbEntity
8
0
100
AcDbLine
10
94.750601354346585
20
-205.34499625005751
30
0
11
95.815386681100733
21
-208.67909765942244
31
0
0
LINE
5
142
100
AcDbEntity
8
0
100
AcDbLine
10
18.836532403973276
20
-198.50086438401291
30
0
11
18.836532403973276
21
-229.54198852349663
31
0
0
LINE
5
143
100
AcDbEntity
8
0
100
AcDbLine
10
20.396422387841319
20
-231.89297331226931
30
0
11
20.221636096635443
21
-215.12288414278646
31
0
0
LINE
5
144
100
AcDbEntity
8
0
100
AcDbLine
10
20.026001612584921
20
-196.35248905334234
30
0
11
20.200787903790793
21
-213.12257822282518
31
0
0
LINE
5
145
100
AcDbEntity
8
0
100
AcDbLine
10
21.377918580501792
20
-198.47373823568344
30
0
11
21.714009957209932
21
-229.51304284176859
31
0
0
LINE
5
146
100
AcDbEntity
8
0
100
AcDbLine
10
22.544056974859792
20
-196.31261010323192
30
0
11
22.900407706247343
21
-213.07982380009403
31
0
0
LINE
5
147
100
AcDbEntity
8
0
100
AcDbLine
10
23.2992633086808
20
-231.84700043574134
30
0
11
22.942912577293253
21
-215.07978673887922
31
0
0
LINE
5
148
100
AcDbEntity
8
0
100
AcDbLine
10
23.918862086155947
20
-198.419097342139
30
0
11
24.591005438326174
21
-229.45294356133928
31
0
0
LINE
5
149
100
AcDbEntity
8
0
100
AcDbLine
10
25.061532955505498
20
-196.24546976502072
30
0
11
25.599406350748932
21
-213.007842306242
31
0
0
LINE
5
150
100
AcDbEntity
8
0
100
AcDbLine
10
26.201436312234918
20
-231.76960034195525
30
0
11
25.663562916991481
21
-215.007227800734
31
0
0
LINE
5
151
100
AcDbEntity
8
0
100
AcDbLine
10
26.459065036648358
20
-198.33694810913542
30
0
11
27.467181566407742
21
-229.3616977278715
31
0
0
LINE
5
152
100
AcDbEntity
8
0
100
AcDbLine
10
27.578134421420128
20
-196.15107590982097
30
0
11
28.297467423614538
21
-212.90664217992816
31
0
0
LINE
5
153
100
AcDbEntity
8
0
100
AcDbLine
10
29.102601165934502
20
-231.66078210481294
30
0
11
28.383268163740091
21
-214.90521583470576
31
0
0
LINE
5
154
100
AcDbEntity
8
0
100
AcDbLine
10
28.998229634509649
20
-198.22730016733379
30
0
11
30.342201156596126
21
-229.23931603845477
31
0
0
LINE
5
155
100
AcDbEntity
8
0
100
AcDbLine
10
30.093566342024431
20
-196.02943960377667
30
0
11
30.994274621078127
21
-212.77623528522099
31
0
0
LINE
5
156
100
AcDbEntity
8
0
100
AcDbLine
10
32.002417755399506
20
-231.52055848148228
30
0
11
31.101709476345807
21
-214.77376280003793
31
0
0
LINE
5
157
100
AcDbEntity
8
0
100
AcDbLine
10
31.536058204000398
20
-198.09016637117139
30
0
11
33.215727159618091
21
-229.08581284035111
31
0
0
LINE
5
158
100
AcDbEntity
8
0
100
AcDbLine
10
32.60753382384928
20
-195.88057510676555
30
0
11
33.689511786370183
21
-212.61663691020721
31
0
0
LINE
5
159
100
AcDbEntity
8
0
100
AcDbLine
10
34.900546124311973
20
-231.34894591090182
30
0
11
33.818568161791063
21
-214.61288410746019
31
0
0
LINE
5
160
100
AcDbEntity
8
0
100
AcDbLine
10
34.072253226008804
20
-197.9255627973549
30
0
11
36.087422701299218
21
-228.90120612931327
31
0
0
LINE
5
161
100
AcDbEntity
8
0
100
AcDbLine
10
35.119742145107196
20
-195.70449987072828
30
0
11
36.382862946781913
21
-212.42786576519987
31
0
0
LINE
5
162
100
AcDbEntity
8
0
100
AcDbLine
10
37.796646514270307
20
-231.14596451185355
30
0
11
36.533525712595598
21
-214.42259861738196
31
0
0
LINE
5
163
100
AcDbEntity
8
0
100
AcDbLine
10
36.606517372929915
20
-197.73350874297529
30
0
11
38.956951122056871
21
-228.6855175474746
31
0
0
LINE
5
164
100
AcDbEntity
8
0
100
AcDbLine
10
37.629896790243663
20
-195.50123453762154
30
0
11
39.074012350707918
21
-212.20994398054455
31
0
0
LINE
5
165
100
AcDbEntity
8
0
100
AcDbLine
10
40.690379404620494
20
-230.91163808060412
30
0
11
39.246263844156239
21
-214.20292863768111
31
0
0
LINE
5
166
100
AcDbEntity
8
0
100
AcDbLine
10
39.138553543522448
20
-197.51402672324588
30
0
11
41.823976016368093
21
-228.43877238081234
31
0
0
LINE
5
167
100
AcDbEntity
8
0
100
AcDbLine
10
40.137703484464247
20
-195.27080293699868
30
0
11
41.762644504662887
21
-211.9628971040251
31
0
0
LINE
5
168
100
AcDbEntity
8
0
100
AcDbLine
10
43.581405552259262
20
-230.6459940881154
30
0
11
41.956464532060608
21
-213.95389992108903
31
0
0
LINE
5
169
100
AcDbEntity
8
0
100
AcDbLine
10
41.668064897739143
20
-197.26714246886289
30
0
11
44.688161272207687
21
-228.16099955618301
31
0
0
LINE
5
170
100
AcDbEntity
8
0
100
AcDbLine
10
42.642868228233581
20
-195.01323208321617
30
0
11
44.448444210268178
21
-211.6867540978686
31
0
0
LINE
5
171
100
AcDbEntity
8
0
100
AcDbLine
10
46.469386031404952
20
-230.34906367682368
30
0
11
44.663810049370348
21
-213.67554166217121
31
0
0
LINE
5
172
100
AcDbEntity
8
0
100
AcDbLine
10
44.19475489152633
20
-196.99288492298845
30
0
11
47.549171110451844
21
-227.85223163793117
31
0
0
LINE
5
173
100
AcDbEntity
8
0
100
AcDbLine
10
45.145097331741994
20
-194.72855217226601
30
0
11
47.131096601203595
21
-211.38154733534998
31
0
0
LINE
5
174
100
AcDbEntity
8
0
100
AcDbLine
10
49.353982273330956
20
-230.02088165698896
30
0
11
47.367983003869369
21
-213.36788649390502
31
0
0
LINE
5
175
100
AcDbEntity
8
0
100
AcDbLine
10
46.718327311589007
20
-196.69128623785792
30
0
11
50.406670124242851
21
-227.51250482407193
31
0
0
LINE
5
176
100
AcDbEntity
8
0
100
AcDbLine
10
47.644097449335916
20
-194.41679657823644
30
0
11
49.810287180120405
21
-211.04731259699673
31
0
0
LINE
5
177
100
AcDbEntity
8
0
100
AcDbLine
10
52.234856106057457
20
-229.66148650261391
30
0
11
50.068666375272969
21
-213.03097048385357
31
0
0
LINE
5
178
100
AcDbEntity
8
0
100
AcDbLine
10
49.238486310116905
20
-196.36238177101049
30
0
11
53.260323318309972
21
-227.14185894204718
31
0
0
LINE
5
179
100
AcDbEntity
8
0
100
AcDbLine
10
50.139575613907766
20
-194.07800184939873
30
0
11
52.485701855510968
21
-210.68408906639428
31
0
0
LINE
5
180
100
AcDbEntity
8
0
100
AcDbLine
10
55.111669793996469
20
-229.27092034693331
30
0
11
52.765543552393268
21
-212.66483312993785
31
0
0
LINE
5
181
100
AcDbEntity
8
0
100
AcDbLine
10
51.754936439467976
20
-196.00621008114391
30
0
11
56.109796148242353
21
-226.74033744405651
31
0
0
LINE
5
182
100
AcDbEntity
8
0
100
AcDbLine
10
52.63123927124176
20
-193.71220770392318
30
0
11
55.157026978530979
21
-210.29191932559218
31
0
0
LINE
5
183
100
AcDbEntity
8
0
100
AcDbLine
10
57.984086077546024
20
-228.84922897747475
30
0
11
55.458298370256799
21
-212.26951735580576
31
0
0
LINE
5
184
100
AcDbEntity
8
0
100
AcDbLine
10
54.26738268680468
20
-195.6228129235943
30
0
11
58.954754559708753
21
-226.30798740196326
31
0
0
LINE
5
185
100
AcDbEntity
8
0
100
AcDbLine
10
55.118796314310927
20
-193.31945702522211
30
0
11
57.823949379769559
21
-209.87084935011245
31
0
0
LINE
5
186
100
AcDbEntity
8
0
100
AcDbLine
10
60.851768212628258
20
-228.39646183069095
30
0
11
58.146615147169612
21
-211.84506950580061
31
0
0
LINE
5
187
100
AcDbEntity
8
0
100
AcDbLine
10
56.775530508679523
20
-195.21223524544081
30
0
11
61.794865027620091
21
-225.84485950177591
31
0
0
LINE
5
188
100
AcDbEntity
8
0
100
AcDbLine
10
57.601955117522067
20
-192.89979585692299
30
0
11
60.486156405963342
21
-209.42092850355934
31
0
0
LINE
5
189
100
AcDbEntity
8
0
100
AcDbLine
10
63.714380010167126
20
-227.91267198616364
30
0
11
60.830178721725844
21
-211.39153933952736
31
0
0
LINE
5
190
100
AcDbEntity
8
0
100
AcDbLine
10
59.279085865565463
20
-194.77452518023657
30
0
11
64.629794595229768
21
-225.35100803770618
31
0
0
LINE
5
191
100
AcDbEntity
8
0
100
AcDbLine
10
60.080424570904007
20
-192.4532733974703
30
0
11
63.143335956649963
21
-208.94220953183225
31
0
0
LINE
5
192
100
AcDbEntity
8
0
100
AcDbLine
10
66.571585875501228
20
-227.39791616038144
30
0
11
63.508674489755293
21
-210.90898002601949
31
0
0
LINE
5
193
100
AcDbEntity
8
0
100
AcDbLine
10
61.777755256327268
20
-194.30973404236556
30
0
11
67.459210913167482
21
-224.82649090580367
31
0
0
LINE
5
194
100
AcDbEntity
8
0
100
AcDbLine
10
62.553914114235631
20
-191.97994199435797
30
0
11
65.795176520756797
21
-208.4347485569424
31
0
0
LINE
5
195
100
AcDbEntity
8
0
100
AcDbLine
10
69.423050847726827
20
-226.8522547000903
30
0
11
66.181788441205654
21
-210.39744813750585
31
0
0
LINE
5
196
100
AcDbEntity
8
0
100
AcDbLine
10
64.271245752629767
20
-193.81791632102707
30
0
11
70.282782278401783
21
-224.27136959716881
31
0
0
LINE
5
197
100
AcDbEntity
8
0
100
AcDbLine
10
65.022133771109168
20
-191.47985713799233
30
0
11
68.441367213120515
21
-207.89860507043318
31
0
0
LINE
5
198
100
AcDbEntity
8
0
100
AcDbLine
10
72.268440638966354
20
-226.27575157521903
30
0
11
68.849207196955021
21
-209.85700364277818
31
0
0
LINE
5
199
100
AcDbEntity
8
0
100
AcDbLine
10
66.759265033278851
20
-193.2991296738476
30
0
11
73.100177673126751
21
-223.68570919074381
31
0
0
LINE
5
200
100
AcDbEntity
8
0
100
AcDbLine
10
67.484794182925341
20
-190.95307745518696
30
0
11
71.081597810933317
21
-207.33384192640588
31
0
0
LINE
5
201
100
AcDbEntity
8
0
100
AcDbLine
10
75.107421673558477
20
-225.66847437137994
30
0
11
71.510618045550515
21
-209.28770990016105
31
0
0
LINE
5
202
100
AcDbEntity
8
0
100
AcDbLine
10
69.241521418491502
20
-192.75343492012121
30
0
11
75.911066803568616
21
-223.069578345683
31
0
0
LINE
5
203
100
AcDbEntity
8
0
100
AcDbLine
10
69.941606642815913
20
-190.39966470228944
30
0
11
73.715558790111558
21
-206.74052533415096
31
0
0
LINE
5
204
100
AcDbEntity
8
0
100
AcDbLine
10
77.939661127164314
20
-225.03049428194538
30
0
11
74.165708979868668
21
-208.68963365008383
31
0
0
LINE
5
205
100
AcDbEntity
8
0
100
AcDbLine
10
71.717723904090349
20
-192.18089603367997
30
0
11
78.715120138707192
21
-222.42304929330433
31
0
0
LINE
5
206
100
AcDbEntity
8
0
100
AcDbLine
10
72.39228312948984
20
-189.81968375794162
30
0
11
76.342941361582376
21
-206.11872485038623
31
0
0
LINE
5
207
100
AcDbEntity
8
0
100
AcDbLine
10
80.764826965785645
20
-224.36188609970151
30
0
11
76.814168733693137
21
-208.0628450072569
31
0
0
LINE
5
208
100
AcDbEntity
8
0
100
AcDbLine
10
74.187582195619385
20
-191.58158013539364
30
0
11
81.512008948908118
21
-221.74619782862069
31
0
0
LINE
5
209
100
AcDbEntity
8
0
100
AcDbLine
10
74.836536340999174
20
-189.21320261547339
30
0
11
78.963437507484144
21
-205.46851337110229
31
0
0
LINE
5
210
100
AcDbEntity
8
0
100
AcDbLine
10
83.582587984690548
20
-223.66272820808007
30
0
11
79.455686818205592
21
-207.40741745245117
31
0
0
LINE
5
211
100
AcDbEntity
8
0
100
AcDbLine
10
76.65080674237602
20
-190.95555748530106
30
0
11
84.301405344460974
21
-221.03910330145467
31
0
0
LINE
5
212
100
AcDbEntity
8
0
100
AcDbLine
10
77.274079728420418
20
-188.58029237493201
30
0
11
81.576740017276634
21
-204.78996712301688
31
0
0
LINE
5
213
100
AcDbEntity
8
0
100
AcDbLine
10
86.392613847241719
20
-222.93310257196933
30
0
11
82.089953558385503
21
-206.72342782388449
31
0
0
LINE
5
214
100
AcDbEntity
8
0
100
AcDbLine
10
79.107108771356408
20
-190.30290147437316
30
0
11
87.082982314019134
21
-220.30184860713587
31
0
0
LINE
5
215
100
AcDbEntity
8
0
100
AcDbLine
10
79.704627529447805
20
-187.9210272347463
30
0
11
84.182542523756439
21
-204.08316565463821
31
0
0
LINE
5
216
100
AcDbEntity
8
0
100
AcDbLine
10
89.194575123623125
20
-222.17309472810479
30
0
11
84.716660129314491
21
-206.01095630821291
31
0
0
LINE
5
217
100
AcDbEntity
8
0
100
AcDbLine
10
81.556200321109202
20
-189.62368861590917
30
0
11
89.856413762936398
21
-219.53452017678273
31
0
0
LINE
5
218
100
AcDbEntity
8
0
100
AcDbLine
10
82.127894801894271
20
-187.23548448302836
30
0
11
86.780539538973457
21
-203.34819182693951
31
0
0
LINE
5
219
100
AcDbEntity
8
0
100
AcDbLine
10
91.9881433294602
20
-221.38279377504159
30
0
11
87.335498592380986
21
-205.27008643113044
31
0
0
LINE
5
220
100
AcDbEntity
8
0
100
AcDbLine
10
83.997794275494527
20
-188.91799853656664
30
0
11
92.621374551496359
21
-218.73720796717012
31
0
0
LINE
5
221
100
AcDbEntity
8
0
100
AcDbLine
10
84.543597457096268
20
-186.52374448851273
30
0
11
89.370426490044537
21
-202.58513180364488
31
0
0
LINE
5
222
100
AcDbEntity
8
0
100
AcDbLine
10
94.772990964329438
20
-220.56229236270909
30
0
11
89.946161931381198
21
-204.50090504757691
31
0
0
LINE
5
223
100
AcDbEntity
8
0
100
AcDbLine
10
86.431604397343506
20
-188.18591396702647
30
0
11
95.377540533029702
21
-217.91000545018306
31
0
0
LINE
5
224
100
AcDbEntity
8
0
100
AcDbLine
10
86.951452293218594
20
-185.78589069113448
30
0
11
91.951899754859483
21
-201.79407504112771
31
0
0
LINE
5
225
100
AcDbEntity
8
0
100
AcDbLine
10
97.54879155015233
20
-219.71168668154903
30
0
11
92.548344088511442
21
-203.70350233155577
31
0
0
LINE
5
226
100
AcDbEntity
8
0
100
AcDbLine
10
16.349191377005681
20
-198.50076807872509
30
0
11
16.020265856583325
21
-229.54014944892725
31
0
0
LINE
5
227
100
AcDbEntity
8
0
100
AcDbLine
10
17.555156184510704
20
-231.90753153047797
30
0
11
17.558083010104099
21
-215.1365317858685
31
0
0
LINE
5
228
100
AcDbEntity
8
0
100
AcDbLine
10
17.561358942163281
20
-196.3651175095427
30
0
11
17.558432116569886
21
-213.13611725415217
31
0
0
LINE
5
229
100
AcDbEntity
8
0
100
AcDbLine
10
13.861991019518419
20
-198.47431481000228
30
0
11
13.204176912986419
21
-229.50846806805149
31
0
0
LINE
5
230
100
AcDbEntity
8
0
100
AcDbLine
10
14.713895235563225
20
-231.89198161432898
30
0
11
14.894534849309174
21
-215.12195447273061
31
0
0
LINE
5
231
100
AcDbEntity
8
0
100
AcDbLine
10
15.096720829630968
20
-196.35162880974494
30
0
11
14.91608121588502
21
-213.12165595134329
31
0
0
LINE
5
232
100
AcDbEntity
8
0
100
AcDbLine
10
11.375210613689571
20
-198.42150754822299
30
0
11
10.388581785526069
21
-229.44694793830084
31
0
0
LINE
5
233
100
AcDbEntity
8
0
100
AcDbLine
10
11.872958579850723
20
-231.84632530988767
30
0
11
12.23129069813008
21
-215.07915384022684
31
0
0
LINE
5
234
100
AcDbEntity
8
0
100
AcDbLine
10
12.632364023701918
20
-196.31202446856494
30
0
11
12.274031905422563
21
-213.07919593822584
31
0
0
LINE
5
235
100
AcDbEntity
8
0
100
AcDbLine
10
8.889129394541806
20
-198.34235222299685
30
0
11
7.5737966310963145
21
-229.35559596763352
31
0
0
LINE
5
236
100
AcDbEntity
8
0
100
AcDbLine
10
9.0326652198108786
20
-231.77056774379867
30
0
11
9.568649606309684
21
-215.00813469434465
31
0
0
LINE
5
237
100
AcDbEntity
8
0
100
AcDbLine
10
10.168565241502808
20
-196.24630893308597
30
0
11
9.632580855004008
21
-213.00874198254002
31
0
0
LINE
5
238
100
AcDbEntity
8
0
100
AcDbLine
10
6.4040265185876644
20
-198.23685772249857
30
0
11
4.7601375156410981
21
-229.23442241375827
31
0
0
LINE
5
239
100
AcDbEntity
8
0
100
AcDbLine
10
6.1933340856471331
20
-231.66471742270997
30
0
11
6.9069105558746413
21
-214.90890500966543
31
0
0
LINE
5
240
100
AcDbEntity
8
0
100
AcDbLine
10
7.7056011375010609
20
-196.15448958235874
30
0
11
6.9920246672735509
21
-212.91030199540327
31
0
0
LINE
5
241
100
AcDbEntity
8
0
100
AcDbLine
10
3.9201810324837205
20
-198.10503589247045
30
0
11
1.9479203786639743
21
-229.08344088298333
31
0
0
LINE
5
242
100
AcDbEntity
8
0
100
AcDbLine
10
3.3552839995167294
20
-231.52878623231797
30
0
11
4.2463724275634114
21
-214.78147592846912
31
0
0
LINE
5
243
100
AcDbEntity
8
0
100
AcDbLine
10
5.2437482724399453
20
-196.03657672657329
30
0
11
4.3526598443932656
21
-212.78388703042211
31
0
0
LINE
5
244
100
AcDbEntity
8
0
100
AcDbLine
10
1.4378718416970515
20
-197.94690153489137
30
0
11
-0.86253900224804836
21
-228.90266832868761
31
0
0
LINE
5
245
100
AcDbEntity
8
0
100
AcDbLine
10
0.51883363973089791
20
-231.36278943603264
30
0
11
1.5873339672655784
21
-214.6258617594828
31
0
0
LINE
5
246
100
AcDbEntity
8
0
100
AcDbLine
10
2.7832830822841936
20
-195.89258360590108
30
0
11
1.7147827547495109
21
-212.62951128245084
31
0
0
LINE
5
247
100
AcDbEntity
8
0
100
AcDbLine
10
-1.0426223208124452
20
-197.7624724063156
30
0
11
-3.6709250468824695
21
-228.692125049418
31
0
0
LINE
5
248
100
AcDbEntity
8
0
100
AcDbLine
10
-2.3156984950288484
20
-231.16674567326388
30
0
11
-1.0699062475236465
21
-214.44207997627441
31
0
0
LINE
5
249
100
AcDbEntity
8
0
100
AcDbLine
10
0.32448184717961626
20
-195.72252638900829
30
0
11
-0.92131040032558342
21
-212.44719208599776
31
0
0
LINE
5
250
100
AcDbEntity
8
0
100
AcDbLine
10
-3.5210229258903514
20
-197.55176921587847
30
0
11
-6.4769224078370975
21
-228.45183468660949
31
0
0
LINE
5
251
100
AcDbEntity
8
0
100
AcDbLine
10
-5.1479941214741975
20
-230.94067695732835
30
0
11
-3.7250498412300326
21
-214.23015121529019
31
0
0
LINE
5
252
100
AcDbEntity
8
0
100
AcDbLine
10
-2.1323793395697765
20
-195.52642417124042
30
0
11
-3.5553236198139393
21
-212.23694991327852
31
0
0
LINE
5
253
100
AcDbEntity
8
0
100
AcDbLine
10
-5.9970516794631283
20
-197.31481562297094
30
0
11
-9.2802160059296952
21
-228.18182422193073
31
0
0
LINE
5
254
100
AcDbEntity
8
0
100
AcDbLine
10
-7.977735207449359
20
-230.6846086729777
30
0
11
-6.3777986737042403
21
-213.99009927353777
31
0
0
LINE
5
255
100
AcDbEntity
8
0
100
AcDbLine
10
-4.5870246025036687
20
-195.3042989724778
30
0
11
-6.1869611362487831
21
-211.99880837191768
31
0
0
LINE
5
256
100
AcDbEntity
8
0
100
AcDbLine
10
-8.4704305537871516
20
-197.05163823458338
30
0
11
-12.080491065577519
21
-227.88212397425428
31
0
0
LINE
5
257
100
AcDbEntity
8
0
100
AcDbLine
10
-10.804604007642196
20
-230.39856957354814
30
0
11
-9.0278548736993258
21
-213.72195110591412
31
0
0
LINE
5
258
100
AcDbEntity
8
0
100
AcDbLine
10
-7.0391783149828768
20
-195.05617573466341
30
0
11
-8.8159274489257466
21
-211.73279420229747
31
0
0
LINE
5
259
100
AcDbEntity
8
0
100
AcDbLine
10
-10.94088181866784
20
-196.76226660231742
30
0
11
-14.877433150142782
21
-227.55276759625218
31
0
0
LINE
5
260
100
AcDbEntity
8
0
100
AcDbLine
10
-13.62828309926314
20
-230.08259177773198
30
0
11
-11.67492087231806
21
-213.42573682217852
31
0
0
LINE
5
261
100
AcDbEntity
8
0
100
AcDbLine
10
-9.4885651301388929
20
-194.78208231900192
30
0
11
-11.441927357083976
21
-211.43893727455534
31
0
0
LINE
5
262
100
AcDbEntity
8
0
100
AcDbLine
10
-13.408128072645333
20
-196.44673321906777
30
0
11
-17.670728197240038
21
-227.19379207061721
31
0
0
LINE
5
263
100
AcDbEntity
8
0
100
AcDbLine
10
-16.448455417687882
20
-229.73671076597068
30
0
11
-14.318699436426229
21
-213.10148968357203
31
0
0
LINE
5
264
100
AcDbEntity
8
0
100
AcDbLine
10
-11.934910011791906
20
-194.48204950283139
30
0
11
-14.064665993053556
21
-211.11727058523002
31
0
0
LINE
5
265
100
AcDbEntity
8
0
100
AcDbLine
10
-15.871892274143292
20
-196.1050735153741
30
0
11
-20.460062554001517
21
-226.80523770591003
31
0
0
LINE
5
266
100
AcDbEntity
8
0
100
AcDbLine
10
-19.264804292059825
20
-229.36096537647128
30
0
11
-16.958893702028309
21
-212.7492460990822
31
0
0
LINE
5
267
100
AcDbEntity
8
0
100
AcDbLine
10
-14.377938265334029
20
-194.15611097616718
30
0
11
-16.683848855365547
21
-210.76783025355624
31
0
0
LINE
5
268
100
AcDbEntity
8
0
100
AcDbLine
10
-18.331897772577275
20
-195.73732585544212
30
0
11
-23.245123012296546
21
-226.3871481320333
31
0
0
LINE
5
269
100
AcDbEntity
8
0
100
AcDbLine
10
-22.077013480848397
20
-228.95539780084516
30
0
11
-19.595207207601664
21
-212.36904562135518
31
0
0
LINE
5
270
100
AcDbEntity
8
0
100
AcDbLine
10
-16.817375568574153
20
-193.80430333791921
30
0
11
-19.299181841820893
21
-210.39065551740919
31
0
0
LINE
5
271
100
AcDbEntity
8
0
100
AcDbLine
10
-20.787868339419248
20
-195.34353153283593
30
0
11
-26.025596843900981
21
-225.93957029533229
31
0
0
LINE
5
272
100
AcDbEntity
8
0
100
AcDbLine
10
-24.884767207359101
20
-228.52005357937037
30
0
11
-22.227343927385554
21
-211.96093094225418
31
0
0
LINE
5
273
100
AcDbEntity
8
0
100
AcDbLine
10
-19.252948002540982
20
-193.42666609178207
30
0
11
-21.910371282514532
21
-209.98578872889823
31
0
0
LINE
5
274
100
AcDbEntity
8
0
100
AcDbLine
10
-23.239528199214593
20
-194.92373476584132
30
0
11
-28.80117183561272
21
-225.46255445332349
31
0
0
LINE
5
275
100
AcDbEntity
8
0
100
AcDbLine
10
-27.687750195191288
20
-228.05498159587808
30
0
11
-24.855008304621151
21
-211.52494788806587
31
0
0
LINE
5
276
100
AcDbEntity
8
0
100
AcDbLine
10
-21.684382082240727
20
-193.0232416417995
30
0
11
-24.517123972810868
21
-209.55327534961171
31
0
0
LINE
5
277
100
AcDbEntity
8
0
100
AcDbLine
10
-25.686602060548417
20
-194.4779826925004
30
0
11
-31.571536324309506
21
-224.95615416905144
31
0
0
LINE
5
278
100
AcDbEntity
8
0
100
AcDbLine
10
-30.485647703639991
20
-227.56023407226351
30
0
11
-27.477905284739045
21
-211.06114541435443
31
0
0
LINE
5
279
100
AcDbEntity
8
0
100
AcDbLine
10
-24.111404787366197
20
-192.59407528760272
30
0
11
-27.119147206267151
21
-209.09316394551178
31
0
0
LINE
5
280
100
AcDbEntity
8
0
100
AcDbLine
10
-28.128815146957336
20
-194.00632536531896
30
0
11
-34.336379231944797
21
-224.42042630507405
31
0
0
LINE
5
281
100
AcDbEntity
8
0
100
AcDbLine
10
-33.278145563037327
20
-227.03586656262212
30
0
11
-30.095740348490175
21
-210.56957560046482
31
0
0
LINE
5
282
100
AcDbEntity
8
0
100
AcDbLine
10
-26.533743592953606
20
-192.139215219324
30
0
11
-29.716148807500751
21
-208.60550618148127
31
0
0
LINE
5
283
100
AcDbEntity
8
0
100
AcDbLine
10
-30.565893227783533
20
-193.50881574564571
30
0
11
-37.095390100478099
21
-223.85543101707771
31
0
0
LINE
5
284
100
AcDbEntity
8
0
100
AcDbLine
10
-36.064930210029956
20
-226.48193794701146
30
0
11
-32.708219545016789
21
-210.05029364367448
31
0
0
LINE
5
285
100
AcDbEntity
8
0
100
AcDbLine
10
-28.951126499983779
20
-191.65871251218547
30
0
11
-32.30783716499694
21
-208.09035681552243
31
0
0
LINE
5
286
100
AcDbEntity
8
0
100
AcDbLine
10
-32.997562648967516
20
-192.98550969772566
30
0
11
-39.848259126735563
21
-223.26123174712254
31
0
0
LINE
5
287
100
AcDbEntity
8
0
100
AcDbLine
10
-38.845688722788424
20
-225.89851042483971
30
0
11
-35.315049524859518
21
-209.50335785299555
31
0
0
LINE
5
288
100
AcDbEntity
8
0
100
AcDbLine
10
-31.363282065924341
20
-191.15262112076383
30
0
11
-34.893921263853244
21
-207.54777369260793
31
0
0
LINE
5
289
100
AcDbEntity
8
0
100
AcDbLine
10
-35.423550363776101
20
-192.43646598242725
30
0
11
-42.594677197197093
21
-222.63789521651861
31
0
0
LINE
5
290
100
AcDbEntity
8
0
100
AcDbLine
10
-41.620108856144441
20
-225.28564950788143
30
0
11
-37.915937572896894
21
-208.92882964262759
31
0
0
LINE
5
291
100
AcDbEntity
8
0
100
AcDbLine
10
-33.769939435209373
20
-190.62099787293215
30
0
11
-37.474110718456913
21
-206.97781773818605
31
0
0
LINE
5
292
100
AcDbEntity
8
0
100
AcDbLine
10
-37.843583963462279
20
-191.86174625064413
30
0
11
-45.33433592270606
21
-221.98549141833411
31
0
0
LINE
5
293
100
AcDbEntity
8
0
100
AcDbLine
10
-44.387879076652226
20
-224.64342401292154
30
0
11
-40.510591641213779
21
-208.32677352506124
31
0
0
LINE
5
294
100
AcDbEntity
8
0
100
AcDbLine
10
-36.170828369653229
20
-190.06390246347863
30
0
11
-40.048115805091683
21
-206.38055295133887
31
0
0
LINE
5
295
100
AcDbEntity
8
0
100
AcDbLine
10
-40.25739170785328
20
-191.26141503637245
30
0
11
-48.066927673097524
21
-221.30409360953558
31
0
0
LINE
5
296
100
AcDbEntity
8
0
100
AcDbLine
10
-47.148688597569773
20
-223.97190605402758
30
0
11
-43.098720381894616
21
-207.69725710383454
31
0
0
LINE
5
297
100
AcDbEntity
8
0
100
AcDbLine
10
-38.565679278794867
20
-189.48139744740362
30
0
11
-42.615647494470039
21
-205.75604639759672
31
0
0
LINE
5
298
100
AcDbEntity
8
0
100
AcDbLine
10
-42.664702555863798
20
-190.63553974946473
30
0
11
-50.792145611741518
21
-220.59377830276262
31
0
0
LINE
5
299
100
AcDbEntity
8
0
100
AcDbLine
10
-49.902227413756648
20
-223.27117103445286
30
0
11
-45.68003317973843
21
-207.04035106594162
31
0
0
LINE
5
300
100
AcDbEntity
8
0
100
AcDbLine
10
-40.954223250169719
20
-188.87354823289564
30
0
11
-45.176417484187937
21
-205.10436820140686
31
0
0
LINE
5
301
100
AcDbEntity
8
0
100
AcDbLine
10
-45.065246195930456
20
-189.98419066806031
30
0
11
-53.509683729996844
21
-219.8546252577359
31
0
0
LINE
5
302
100
AcDbEntity
8
0
100
AcDbLine
10
-52.648186336483498
20
-222.541297638169
30
0
11
-48.254240184891174
21
-206.35612917389574
31
0
0
LINE
5
303
100
AcDbEntity
8
0
100
AcDbLine
10
-43.336192079505111
20
-188.24042307398653
30
0
11
-47.730138231097442
21
-204.42559153825982
31
0
0
LINE
5
304
100
AcDbEntity
8
0
100
AcDbLine
10
-47.458753076364601
20
-189.30744093069404
30
0
11
-56.219236881572243
21
-219.08671747230147
31
0
0
LINE
5
305
100
AcDbEntity
8
0
100
AcDbLine
10
-55.386257028150382
20
-221.78236782103102
30
0
11
-50.821052345392452
21
-205.64466825744626
31
0
0
LINE
5
306
100
AcDbEntity
8
0
100
AcDbLine
10
-45.711318300836439
20
-187.58209306288762
30
0
11
-50.276522983594361
21
-203.71979262647241
31
0
0
LINE
5
307
100
AcDbEntity
8
0
100
AcDbLine
10
-49.844954435619613
20
-188.60536652808378
30
0
11
-58.920500816790558
21
-218.29014117311104
31
0
0
LINE
5
308
100
AcDbEntity
8
0
100
AcDbLine
10
-58.116132036909143
20
-220.99446680157456
30
0
11
-53.380181439632452
21
-204.90604820495193
31
0
0
LINE
5
309
100
AcDbEntity
8
0
100
AcDbLine
10
-48.079335216540287
20
-186.89863212200686
30
0
11
-52.815285813816963
21
-202.98705071862955
31
0
0
CIRCLE
5
310
100
AcDbEntity
8
0
100
AcDbCircle
10
-18.000000268220901
20
-155.00000230967999
30
0
40
26.38549999999999
210
0
220
0
230
1
0
CIRCLE
5
311
100
AcDbEntity
8
0
100
AcDbCircle
10
-18.000000268220901
20
-155.00000230967999
30
0
40
27.88549999999999
210
0
220
0
230
1
0
CIRCLE
5
312
100
AcDbEntity
8
0
100
AcDbCircle
10
-18.000000268220901
20
-155.00000230967999
30
0
40
22.952000000000012
210
0
220
0
230
1
0
CIRCLE
5
313
100
AcDbEntity
8
0
100
AcDbCircle
10
-18.000000268220901
20
-155.00000230967999
30
0
40
24.452000000000012
210
0
220
0
230
1
0
CIRCLE
5
314
100
AcDbEntity
8
0
100
AcDbCircle
10
36.999999731779099
20
-155.00000230967999
30
0
40
22.952000000000012
210
0
220
0
230
1
0
CIRCLE
5
315
100
AcDbEntity
8
0
100
AcDbCircle
10
36.999999731779099
20
-155.00000230967999
30
0
40
24.452000000000012
210
0
220
0
230
1
0
ENDSEC
0
SECTION
2
OBJECTS
0
DICTIONARY
5
C
100
AcDbDictionary
3
ACAD_GROUP
350
D
3
ACAD_MLINESTYLE
350
17
0
DICTIONARY
5
D
100
AcDbDictionary
0
DICTIONARY
5
1A
330
C
100
AcDbDictionary
0
DICTIONARY
5
17
100
AcDbDictionary
0
ENDSEC
0
EOF
