0
SECTION
2
HEADER
9
$INSUNITS
70
4
9
$ACADVER
1
AC1014
9
$HANDSEED
5
FFFF
0
ENDSEC
0
SECTION
2
TABLES
0
TABLE
2
VPORT
5
8
100
AcDbSymbolTable
0
ENDTAB
0
TABLE
2
LTYPE
5
5
100
AcDbSymbolTable
0
LTYPE
5
14
100
AcDbSymbolTableRecord
100
AcDbLinetypeTableRecord
2
BYBLOCK
70
0
0
LTYPE
5
15
100
AcDbSymbolTableRecord
100
AcDbLinetypeTableRecord
2
BYLAYER
70
0
0
ENDTAB
0
TABLE
2
LAYER
5
2
100
AcDbSymbolTable
70
2
0
LAYER
5
50
100
AcDbSymbolTableRecord
100
AcDbLayerTableRecord
2
0
70
0
6
CONTINUOUS
0
ENDTAB
0
TABLE
2
STYLE
5
3
100
AcDbSymbolTable
70
1
0
STYLE
5
11
100
AcDbSymbolTableRecord
100
AcDbTextStyleTableRecord
2
STANDARD
70
0
0
ENDTAB
0
TABLE
2
VIEW
5
6
100
AcDbSymbolTable
70
0
0
ENDTAB
0
TABLE
2
UCS
5
7
100
AcDbSymbolTable
70
0
0
ENDTAB
0
TABLE
2
APPID
5
9
100
AcDbSymbolTable
70
2
0
APPID
5
12
100
AcDbSymbolTableRecord
100
AcDbRegAppTableRecord
2
ACAD
70
0
0
ENDTAB
0
TABLE
2
DIMSTYLE
5
A
100
AcDbSymbolTable
70
1
0
ENDTAB
0
TABLE
2
BLOCK_RECORD
5
1
100
AcDbSymbolTable
70
1
0
BLOCK_RECORD
5
1F
100
AcDbSymbolTableRecord
100
AcDbBlockTableRecord
2
*MODEL_SPACE
0
BLOCK_RECORD
5
1B
100
AcDbSymbolTableRecord
100
AcDbBlockTableRecord
2
*PAPER_SPACE
0
ENDTAB
0
ENDSEC
0
SECTION
2
BLOCKS
0
BLOCK
5
20
100
AcDbEntity
100
AcDbBlockBegin
2
*MODEL_SPACE
0
ENDBLK
5
21
100
AcDbEntity
100
AcDbBlockEnd
0
BLOCK
5
1C
100
AcDbEntity
100
AcDbBlockBegin
2
*PAPER_SPACE
0
ENDBLK
5
1D
100
AcDbEntity
100
AcDbBlockEnd
0
ENDSEC
0
SECTION
2
ENTITIES
0
CIRCLE
5
100
100
AcDbEntity
8
0
100
AcDbCircle
10
130.33742649767785
20
-4.2589229222862066
30
0
40
1.0000000000000839
210
-4.3574119684634364e-33
220
-1.3073802654632976e-32
230
1
0
CIRCLE
5
101
100
AcDbEntity
8
0
100
AcDbCircle
10
132.49104131574222
20
40.689513571274993
30
0
40
1.0000000000000839
210
-4.3574119684634364e-33
220
-1.3073802654632976e-32
230
1
0
LWPOLYLINE
5
102
100
AcDbEntity
8
0
100
AcDbPolyline
90
4
70
1
43
0.0
10
131.51162025867902
20
4.4585124338715794
10
130.01333904222702
20
4.5302995944734965
10
130.25262957756749
20
9.5245703159807942
10
131.75091079401938
20
9.4527831553782438
0
LWPOLYLINE
5
103
100
AcDbEntity
8
0
100
AcDbPolyline
90
4
70
1
43
0.0
10
132.1394314947629
20
17.561660331252124
10
130.64115027831133
20
17.633447491854447
10
130.88044081365143
20
22.627718213361412
10
132.37872203010369
20
22.55593105275927
0
LWPOLYLINE
5
104
100
AcDbEntity
8
0
100
AcDbPolyline
90
4
70
1
43
0.0
10
132.76724273084756
20
30.664808228633206
10
131.26896151439553
20
30.736595389234694
10
131.50825204973563
20
35.730866110742014
10
133.0065332661878
20
35.659078950139929
0
LINE
5
105
100
AcDbEntity
8
0
100
AcDbLine
10
130.61818979517685
20
40.779247522027681
30
0
11
128.46457497711282
21
-4.1691889715336927
31
-4.9303806576313238e-31
0
SPLINE
5
106
100
AcDbEntity
8
0
100
AcDbSpline
70
0
71
3
72
11
73
7
74
0
42
0.000000001
43
0.0000000001
44
0.0000000001
40
1
40
1
40
1
40
1
40
2
40
2
40
2
40
3
40
3
40
3
40
3
10
132.210278018243
20
-4.3486568730386601
30
0
10
132.16071931480155
20
-5.3830042060223651
30
0
10
131.28203986112032
20
-6.1813331256135662
30
0
10
130.24769252813729
20
-6.1317744221721595
30
0
10
129.21334521056667
20
-6.0822157194694153
30
0
10
128.41501629620748
20
-5.2035362901483815
30
0
10
128.46457497711282
20
-4.1691889715336812
30
0
0
LINE
5
107
100
AcDbEntity
8
0
100
AcDbLine
10
132.210278018243
20
-4.3486568730386601
30
0
11
134.36389283630669
21
40.599779620522447
31
-4.9303806576313238e-31
0
SPLINE
5
108
100
AcDbEntity
8
0
100
AcDbSpline
70
0
71
3
72
10
73
6
74
0
42
0.000000001
43
0.0000000001
44
0.0000000001
40
4
40
4
40
4
40
4
40
5
40
5
40
6
40
6
40
6
40
6
10
130.61818979517685
20
40.779247522027681
30
0
10
130.66774848771976
20
41.813594855533296
30
0
10
131.54642793298927
20
42.611923784382654
30
0
10
133.61512260000006
20
42.512806399297261
30
0
10
134.41345152884952
20
41.634126954027977
30
0
10
134.36389283630669
20
40.599779620522433
30
0
0
CIRCLE
5
109
100
AcDbEntity
8
0
100
AcDbCircle
10
126.63963446362295
20
46.900934122809531
30
0
40
1.0000000000000431
210
-1.7185940589032075e-33
220
-1.3673250870802396e-32
230
1
0
LWPOLYLINE
5
110
100
AcDbEntity
8
0
100
AcDbPolyline
90
4
70
1
43
0.0
10
146.54045252203434
20
61.961415550301957
10
147.60997737783401
20
60.90969477803047
10
145.15596224253449
20
58.414136781164515
10
144.08643738673487
20
59.465857553435981
0
LWPOLYLINE
5
111
100
AcDbEntity
8
0
100
AcDbPolyline
90
4
70
1
43
0.0
10
132.86808248250838
20
48.057592424905579
10
135.32209761780814
20
50.553150421771576
10
136.39162247360773
20
49.501429649500295
10
133.93760733830828
20
47.005871652634418
0
CIRCLE
5
112
100
AcDbEntity
8
0
100
AcDbCircle
10
132.49104131574254
20
40.689513571275228
30
0
40
1.0000000000000431
210
-1.7185940589032075e-33
220
-1.3673250870802396e-32
230
1
0
LWPOLYLINE
5
113
100
AcDbEntity
8
0
100
AcDbPolyline
90
4
70
1
43
0.0
10
142.00079992572074
20
55.205562213765383
10
139.54678479042141
20
52.710004216899492
10
138.47725993462177
20
53.761724989170972
10
140.93127506992113
20
56.25728298603687
0
LWPOLYLINE
5
114
100
AcDbEntity
8
0
100
AcDbPolyline
90
4
70
1
43
0.0
10
150.7651396946475
20
64.118269345429852
10
149.69561483884783
20
65.169990117701033
10
152.14962997414705
20
67.665548114566761
10
153.219154829947
20
66.61382734229575
0
LINE
5
115
100
AcDbEntity
8
0
100
AcDbLine
10
154.18587175683112
20
69.855137929120971
30
0
11
125.33680836440001
21
48.283917909837967
31
-4.9303806576313238e-31
0
SPLINE
5
116
100
AcDbEntity
8
0
100
AcDbSpline
70
0
71
3
72
8
73
4
74
0
42
0.000000001
43
0.0000000001
44
0.0000000001
40
0
40
0
40
0
40
0
40
1
40
1
40
1
40
1
10
125.33680836440004
20
48.283917909837953
30
0
10
124.57300750956071
20
47.564386923555482
30
0
10
124.53711969031197
20
46.361908878425481
30
0
10
125.25665067659432
20
45.598108023586185
30
0
0
LINE
5
117
100
AcDbEntity
8
0
100
AcDbLine
10
125.25665067659432
20
45.598108023586185
30
0
11
131.10805752871397
21
39.386687472052216
31
0
0
SPLINE
5
118
100
AcDbEntity
8
0
100
AcDbSpline
70
0
71
3
72
8
73
4
74
0
42
0.000000001
43
0.0000000001
44
0.0000000001
40
2
40
2
40
2
40
2
40
3
40
3
40
3
40
3
10
131.10805752871394
20
39.38668747205223
30
0
10
131.82758851499651
20
38.62288661721314
30
0
10
133.03006656012622
20
38.586998797964227
30
0
10
133.7938674149654
20
39.306529784246663
30
0
0
LINE
5
119
100
AcDbEntity
8
0
100
AcDbLine
10
133.7938674149654
20
39.306529784246663
30
0
11
155.4141641325904
21
68.635173684889338
31
1.4791141972893971e-30
0
SPLINE
5
120
100
AcDbEntity
8
0
100
AcDbSpline
70
0
71
3
72
11
73
7
74
0
42
0.000000001
43
0.0000000001
44
0.0000000001
40
4
40
4
40
4
40
4
40
5
40
5
40
5
40
6
40
6
40
6
40
6
10
155.4141641325904
20
68.635173684889352
30
0
10
155.70091058632772
20
69.024154684607851
30
0
10
155.61803311172076
20
69.571940018103291
30
0
10
155.22905211200185
20
69.858686471840514
30
0
10
154.91855682985201
20
70.08757534076517
30
0
10
154.49480266816099
20
70.086133874063918
30
0
10
154.18587175683112
20
69.855137929120971
30
0
0
ENDSEC
0
SECTION
2
OBJECTS
0
DICTIONARY
5
C
100
AcDbDictionary
3
ACAD_GROUP
350
D
3
ACAD_MLINESTYLE
350
17
0
DICTIONARY
5
D
100
AcDbDictionary
0
DICTIONARY
5
1A
330
C
100
AcDbDictionary
0
DICTIONARY
5
17
100
AcDbDictionary
0
ENDSEC
0
EOF
