0
SECTION
2
HEADER
9
$INSUNITS
70
4
9
$ACADVER
1
AC1014
9
$HANDSEED
5
FFFF
0
ENDSEC
0
SECTION
2
TABLES
0
TABLE
2
VPORT
5
8
100
AcDbSymbolTable
0
ENDTAB
0
TABLE
2
LTYPE
5
5
100
AcDbSymbolTable
0
LTYPE
5
14
100
AcDbSymbolTableRecord
100
AcDbLinetypeTableRecord
2
BYBLOCK
70
0
0
LTYPE
5
15
100
AcDbSymbolTableRecord
100
AcDbLinetypeTableRecord
2
BYLAYER
70
0
0
ENDTAB
0
TABLE
2
LAYER
5
2
100
AcDbSymbolTable
70
2
0
LAYER
5
50
100
AcDbSymbolTableRecord
100
AcDbLayerTableRecord
2
0
70
0
6
CONTINUOUS
0
ENDTAB
0
TABLE
2
STYLE
5
3
100
AcDbSymbolTable
70
1
0
STYLE
5
11
100
AcDbSymbolTableRecord
100
AcDbTextStyleTableRecord
2
STANDARD
70
0
0
ENDTAB
0
TABLE
2
VIEW
5
6
100
AcDbSymbolTable
70
0
0
ENDTAB
0
TABLE
2
UCS
5
7
100
AcDbSymbolTable
70
0
0
ENDTAB
0
TABLE
2
APPID
5
9
100
AcDbSymbolTable
70
2
0
APPID
5
12
100
AcDbSymbolTableRecord
100
AcDbRegAppTableRecord
2
ACAD
70
0
0
ENDTAB
0
TABLE
2
DIMSTYLE
5
A
100
AcDbSymbolTable
70
1
0
ENDTAB
0
TABLE
2
BLOCK_RECORD
5
1
100
AcDbSymbolTable
70
1
0
BLOCK_RECORD
5
1F
100
AcDbSymbolTableRecord
100
AcDbBlockTableRecord
2
*MODEL_SPACE
0
BLOCK_RECORD
5
1B
100
AcDbSymbolTableRecord
100
AcDbBlockTableRecord
2
*PAPER_SPACE
0
ENDTAB
0
ENDSEC
0
SECTION
2
BLOCKS
0
BLOCK
5
20
100
AcDbEntity
100
AcDbBlockBegin
2
*MODEL_SPACE
0
ENDBLK
5
21
100
AcDbEntity
100
AcDbBlockEnd
0
BLOCK
5
1C
100
AcDbEntity
100
AcDbBlockBegin
2
*PAPER_SPACE
0
ENDBLK
5
1D
100
AcDbEntity
100
AcDbBlockEnd
0
ENDSEC
0
SECTION
2
ENTITIES
0
LWPOLYLINE
5
100
100
AcDbEntity
8
0
100
AcDbPolyline
90
8
70
1
43
0.0
10
-185.45563435381794
20
-596.3007216391178
10
-185.86798455457867
20
-596.22931786194829
42
0.43213972806000878
10
-187.03249292630215
20
-597.10423072951721
42
1.5287148764814495
10
-159.43008289592041
20
-588.51795976867163
42
0.43625303341096661
10
-160.89522929351693
20
-588.4677468188446
10
-161.14539948588185
20
-588.71945792976965
42
-0.34776750178683996
10
-165.45807053214676
20
-589.235536431573
42
0.45358631670157018
10
-181.65941847069905
20
-594.27197045009007
42
-0.34378849377036858
0
LWPOLYLINE
5
101
100
AcDbEntity
8
0
100
AcDbPolyline
90
20
70
1
43
0.0
10
-178.38123412625944
20
-598.09615971643927
10
-174.02568972228454
20
-598.09615971643939
42
-0.17920460287866191
10
-172.89286417785348
20
-596.53695911803629
10
-174.23880141843631
20
-592.39459023062307
10
-172.81221664399393
20
-591.93106473906028
10
-171.46627940341068
20
-596.07343362647396
42
-0.17920460287862755
10
-169.63332916919734
20
-596.66899525978465
10
-166.10961972662682
20
-594.10887049342284
10
-165.2279418481881
20
-595.32239598498541
10
-168.75165129075856
20
-597.88252075134699
42
-0.17920460287860851
10
-168.75165129075862
20
-599.80979868153099
10
-165.2279418481881
20
-602.36992344789292
10
-166.10961972662682
20
-603.58344893945502
10
-169.63332916919745
20
-601.02332417309356
42
-0.17920460287860301
10
-171.46627940341068
20
-601.61888580640414
10
-172.81221664399393
20
-605.76125469381759
10
-174.23880141843631
20
-605.29772920225525
10
-172.89286417785323
20
-601.15536031484135
42
-0.17920460287862308
10
-174.02568972228411
20
-599.59615971643893
10
-178.38123412625944
20
-599.59615971643893
0
LWPOLYLINE
5
102
100
AcDbEntity
8
0
100
AcDbPolyline
90
8
70
1
43
0.0
10
-185.61728732707439
20
-599.42339197998376
42
1.3131592263207557
10
-159.40331088803464
20
-591.0386284158584
42
0.42457140239900582
10
-160.10994201895062
20
-590.90340353857823
10
-161.74590421143699
20
-592.05641826115527
42
0.40219092622755376
10
-161.87807652021809
20
-592.73606928265303
42
-1.3047883591803668
10
-182.61661754844033
20
-599.37363668466583
42
0.40146266638045458
10
-183.11760522445883
20
-598.89703048114416
10
-185.1192314088687
20
-598.90317604368556
42
0.42520399026283945
0
ENDSEC
0
SECTION
2
OBJECTS
0
DICTIONARY
5
C
100
AcDbDictionary
3
ACAD_GROUP
350
D
3
ACAD_MLINESTYLE
350
17
0
DICTIONARY
5
D
100
AcDbDictionary
0
DICTIONARY
5
1A
330
C
100
AcDbDictionary
0
DICTIONARY
5
17
100
AcDbDictionary
0
ENDSEC
0
EOF
