0
SECTION
2
HEADER
9
$INSUNITS
70
4
9
$ACADVER
1
AC1014
9
$HANDSEED
5
FFFF
0
ENDSEC
0
SECTION
2
TABLES
0
TABLE
2
VPORT
5
8
100
AcDbSymbolTable
0
ENDTAB
0
TABLE
2
LTYPE
5
5
100
AcDbSymbolTable
0
LTYPE
5
14
100
AcDbSymbolTableRecord
100
AcDbLinetypeTableRecord
2
BYBLOCK
70
0
0
LTYPE
5
15
100
AcDbSymbolTableRecord
100
AcDbLinetypeTableRecord
2
BYLAYER
70
0
0
ENDTAB
0
TABLE
2
LAYER
5
2
100
AcDbSymbolTable
70
2
0
LAYER
5
50
100
AcDbSymbolTableRecord
100
AcDbLayerTableRecord
2
0
70
0
6
CONTINUOUS
0
ENDTAB
0
TABLE
2
STYLE
5
3
100
AcDbSymbolTable
70
1
0
STYLE
5
11
100
AcDbSymbolTableRecord
100
AcDbTextStyleTableRecord
2
STANDARD
70
0
0
ENDTAB
0
TABLE
2
VIEW
5
6
100
AcDbSymbolTable
70
0
0
ENDTAB
0
TABLE
2
UCS
5
7
100
AcDbSymbolTable
70
0
0
ENDTAB
0
TABLE
2
APPID
5
9
100
AcDbSymbolTable
70
2
0
APPID
5
12
100
AcDbSymbolTableRecord
100
AcDbRegAppTableRecord
2
ACAD
70
0
0
ENDTAB
0
TABLE
2
DIMSTYLE
5
A
100
AcDbSymbolTable
70
1
0
ENDTAB
0
TABLE
2
BLOCK_RECORD
5
1
100
AcDbSymbolTable
70
1
0
BLOCK_RECORD
5
1F
100
AcDbSymbolTableRecord
100
AcDbBlockTableRecord
2
*MODEL_SPACE
0
BLOCK_RECORD
5
1B
100
AcDbSymbolTableRecord
100
AcDbBlockTableRecord
2
*PAPER_SPACE
0
ENDTAB
0
ENDSEC
0
SECTION
2
BLOCKS
0
BLOCK
5
20
100
AcDbEntity
100
AcDbBlockBegin
2
*MODEL_SPACE
0
ENDBLK
5
21
100
AcDbEntity
100
AcDbBlockEnd
0
BLOCK
5
1C
100
AcDbEntity
100
AcDbBlockBegin
2
*PAPER_SPACE
0
ENDBLK
5
1D
100
AcDbEntity
100
AcDbBlockEnd
0
ENDSEC
0
SECTION
2
ENTITIES
0
CIRCLE
5
100
100
AcDbEntity
8
0
100
AcDbCircle
10
-39.401805340029902
20
37.158397466492573
30
4.4408920985006262e-15
40
1.0000000000000142
210
5.6884834652884222e-22
220
-6.2759570774959014e-22
230
1
0
LWPOLYLINE
5
101
100
AcDbEntity
8
0
100
AcDbPolyline
90
4
70
1
43
0.0
10
-58.31586562537349
20
64.66157675986878
10
-56.968591524675659
20
65.321010227012337
10
-55.429913434674063
20
62.177370658717393
10
-56.777187535371894
20
61.517937191573864
0
LWPOLYLINE
5
102
100
AcDbEntity
8
0
100
AcDbPolyline
90
4
70
1
43
0.0
10
-51.28190864250908
20
50.290653019092026
10
-49.934634541811249
20
50.950086486235577
10
-48.395956451809667
20
47.806446917940633
10
-49.743230552507505
20
47.147013450797111
0
LWPOLYLINE
5
103
100
AcDbEntity
8
0
100
AcDbPolyline
90
4
70
1
43
0.0
10
-53.260209043939682
20
54.332475321185498
10
-54.798887133941278
20
57.476114889480421
10
-53.451613033243454
20
58.135548356623957
10
-51.912934943241865
20
54.991908788329042
0
LWPOLYLINE
5
104
100
AcDbEntity
8
0
100
AcDbPolyline
90
4
70
1
43
0.0
10
-46.2262520610753
20
39.961551580408724
10
-47.764930151076889
20
43.105191148703632
10
-46.417656050379051
20
43.76462461584719
10
-44.878977960377469
20
40.620985047552267
0
CIRCLE
5
105
100
AcDbEntity
8
0
100
AcDbCircle
10
-47.204234168629149
20
33.702560116197184
30
8.8817841970012523e-15
40
1.0000000000000142
210
5.6884834652884222e-22
220
-6.2759570774959014e-22
230
1
0
LWPOLYLINE
5
106
100
AcDbEntity
8
0
100
AcDbPolyline
90
6
70
1
43
0.0
10
-48.941458766427608
20
32.933111809418897
42
0.41421356237309509
10
-46.434785861850862
20
31.965335518398724
10
-38.632357033251608
20
35.421172868694107
42
0.41421356237309503
10
-37.664580742231443
20
37.92784577327086
10
-58.146021817310299
20
68.062828014793439
42
0.86304821506461304
10
-59.704725172833093
20
67.309529423905204
0
CIRCLE
5
107
100
AcDbEntity
8
0
100
AcDbCircle
10
-7.5771370165890932
20
3.1775184670600947
30
8.8817841970012523e-15
40
1.0000000149011568
210
1.7652924008072746e-21
220
-6.8634306897033778e-22
230
1
0
CIRCLE
5
108
100
AcDbEntity
8
0
100
AcDbCircle
10
-11.55627755724808
20
1.6845547844193141
30
8.8817841970012523e-15
40
0.99999999999999667
210
1.1376966930576843e-21
220
-1.2551914154991803e-21
230
1
0
CIRCLE
5
109
100
AcDbEntity
8
0
100
AcDbCircle
10
-8.3504877592957936
20
-1.7486289826016901
30
8.8817841970012523e-15
40
1.0000000000000053
210
-5.8747361220747829e-23
220
-1.1964440542784322e-21
230
1
0
CIRCLE
5
110
100
AcDbEntity
8
0
100
AcDbCircle
10
-14.78644664560658
20
0.7812233609576803
30
8.8817841970012523e-15
40
0.99999999999999667
210
1.1376966930576843e-21
220
-1.2551914154991803e-21
230
1
0
LWPOLYLINE
5
111
100
AcDbEntity
8
0
100
AcDbPolyline
90
8
70
1
43
0.0
10
-10.148635111889535
20
-1.2173182464405192
42
1.0707420193182446
10
-6.4967398267062855
20
-2.0301313847586338
10
-5.7481057231007773
20
2.8997694302652444
42
0.5601470890735244
10
-8.1606660965736726
20
4.9330792927828462
10
-15.369975725591161
20
2.5367841866804315
42
0.99999998946328772
10
-14.202917565622
20
-0.97433746476507088
10
-10.535974806932371
20
0.24451391479527931
42
-0.60590438128479762
10
-9.8987582840827102
20
-0.37164484702501915
0
CIRCLE
5
112
100
AcDbEntity
8
0
100
AcDbCircle
10
-12.796093161900075
20
-5.7780945308271185
30
4.4408920985006262e-15
40
1.0000000000000053
210
-5.8747361220747829e-23
220
-1.1964440542784322e-21
230
1
0
CIRCLE
5
113
100
AcDbEntity
8
0
100
AcDbCircle
10
-12.796093161900075
20
-5.7780945308271185
30
4.4408920985006262e-15
40
1.8749999999999998
210
1.7652924008072742e-21
220
-6.8634306897033769e-22
230
1
0
ENDSEC
0
SECTION
2
OBJECTS
0
DICTIONARY
5
C
100
AcDbDictionary
3
ACAD_GROUP
350
D
3
ACAD_MLINESTYLE
350
17
0
DICTIONARY
5
D
100
AcDbDictionary
0
DICTIONARY
5
1A
330
C
100
AcDbDictionary
0
DICTIONARY
5
17
100
AcDbDictionary
0
ENDSEC
0
EOF
