0
SECTION
2
HEADER
9
$INSUNITS
70
4
9
$ACADVER
1
AC1014
9
$HANDSEED
5
FFFF
0
ENDSEC
0
SECTION
2
TABLES
0
TABLE
2
VPORT
5
8
100
AcDbSymbolTable
0
ENDTAB
0
TABLE
2
LTYPE
5
5
100
AcDbSymbolTable
0
LTYPE
5
14
100
AcDbSymbolTableRecord
100
AcDbLinetypeTableRecord
2
BYBLOCK
70
0
0
LTYPE
5
15
100
AcDbSymbolTableRecord
100
AcDbLinetypeTableRecord
2
BYLAYER
70
0
0
ENDTAB
0
TABLE
2
LAYER
5
2
100
AcDbSymbolTable
70
2
0
LAYER
5
50
100
AcDbSymbolTableRecord
100
AcDbLayerTableRecord
2
0
70
0
6
CONTINUOUS
0
ENDTAB
0
TABLE
2
STYLE
5
3
100
AcDbSymbolTable
70
1
0
STYLE
5
11
100
AcDbSymbolTableRecord
100
AcDbTextStyleTableRecord
2
STANDARD
70
0
0
ENDTAB
0
TABLE
2
VIEW
5
6
100
AcDbSymbolTable
70
0
0
ENDTAB
0
TABLE
2
UCS
5
7
100
AcDbSymbolTable
70
0
0
ENDTAB
0
TABLE
2
APPID
5
9
100
AcDbSymbolTable
70
2
0
APPID
5
12
100
AcDbSymbolTableRecord
100
AcDbRegAppTableRecord
2
ACAD
70
0
0
ENDTAB
0
TABLE
2
DIMSTYLE
5
A
100
AcDbSymbolTable
70
1
0
ENDTAB
0
TABLE
2
BLOCK_RECORD
5
1
100
AcDbSymbolTable
70
1
0
BLOCK_RECORD
5
1F
100
AcDbSymbolTableRecord
100
AcDbBlockTableRecord
2
*MODEL_SPACE
0
BLOCK_RECORD
5
1B
100
AcDbSymbolTableRecord
100
AcDbBlockTableRecord
2
*PAPER_SPACE
0
ENDTAB
0
ENDSEC
0
SECTION
2
BLOCKS
0
BLOCK
5
20
100
AcDbEntity
100
AcDbBlockBegin
2
*MODEL_SPACE
0
ENDBLK
5
21
100
AcDbEntity
100
AcDbBlockEnd
0
BLOCK
5
1C
100
AcDbEntity
100
AcDbBlockBegin
2
*PAPER_SPACE
0
ENDBLK
5
1D
100
AcDbEntity
100
AcDbBlockEnd
0
ENDSEC
0
SECTION
2
ENTITIES
0
LWPOLYLINE
5
100
100
AcDbEntity
8
0
100
AcDbPolyline
90
4
70
1
43
0.0
10
-3.1048501118176346
20
2.9974833471506357
10
-3.9865279902563451
20
4.2110088387130586
10
-2.7730024986939235
20
5.0926867171517678
10
-1.891324620255213
20
3.8791612255893448
0
CIRCLE
5
101
100
AcDbEntity
8
0
100
AcDbCircle
10
0
20
0
30
0
40
2
210
0
220
0
230
1
0
LWPOLYLINE
5
102
100
AcDbEntity
8
0
100
AcDbPolyline
90
4
70
1
43
0.0
10
-3.8102275193324244
20
-2.0266146363384507
10
-5.2368122937751558
20
-2.4901401279008715
10
-5.7003377853375756
20
-1.063555353458141
10
-4.2737530108948452
20
-0.60002986189572005
0
LWPOLYLINE
5
103
100
AcDbEntity
8
0
100
AcDbPolyline
90
4
70
1
43
0.0
10
4.2737530108948443
20
-0.60002986189572172
10
5.7003377853375774
20
-1.0635553534581432
10
5.2368122937751549
20
-2.4901401279008728
10
3.8102275193324249
20
-2.0266146363384516
0
LWPOLYLINE
5
104
100
AcDbEntity
8
0
100
AcDbPolyline
90
4
70
1
43
0.0
10
-0.75000000000000011
20
-4.2500000745058051
10
0.75000000000000011
20
-4.2500000745058051
10
0.75000000000000011
20
-5.7500000745058069
10
-0.75000000000000011
20
-5.7500000745058069
0
LWPOLYLINE
5
105
100
AcDbEntity
8
0
100
AcDbPolyline
90
4
70
1
43
0.0
10
1.8913246202552143
20
3.8791612255893435
10
2.7730024986939243
20
5.0926867171517651
10
3.9865279902563451
20
4.2110088387130551
10
3.1048501118176346
20
2.9974833471506335
0
CIRCLE
5
106
100
AcDbEntity
8
0
100
AcDbCircle
10
0
20
0
30
0
40
7.5
210
0
220
-0
230
1
0
CIRCLE
5
107
100
AcDbEntity
8
0
100
AcDbCircle
10
50
20
0
30
0
40
2
210
0
220
0
230
1
0
CIRCLE
5
108
100
AcDbEntity
8
0
100
AcDbCircle
10
50
20
0
30
0
40
10
210
0
220
-0
230
1
0
LWPOLYLINE
5
109
100
AcDbEntity
8
0
100
AcDbPolyline
90
4
70
1
43
0.0
10
42.00000062584877
20
0.75000000186264515
10
43.50000062584877
20
0.75000000186264515
10
43.50000062584877
20
-0.74999999813735507
10
42.00000062584877
20
-0.74999999813735507
0
LWPOLYLINE
5
110
100
AcDbEntity
8
0
100
AcDbPolyline
90
4
70
1
43
0.0
10
48.704682115410634
20
-6.4136295059065684
10
48.241156623848205
20
-7.840214280349298
10
46.814571849405482
20
-7.3766887887868737
10
47.278097340967904
20
-5.9501040143441486
0
LWPOLYLINE
5
111
100
AcDbEntity
8
0
100
AcDbPolyline
90
4
70
1
43
0.0
10
55.699448895239385
20
-3.2138410277620988
10
56.912974386801807
20
-4.0955189062008079
10
56.031296508363098
20
-5.3090443977632296
10
54.81777101680067
20
-4.4273665193245204
0
LWPOLYLINE
5
112
100
AcDbEntity
8
0
100
AcDbPolyline
90
4
70
1
43
0.0
10
54.817771018990342
20
4.4273665163106957
10
56.031296510552764
20
5.3090443947494048
10
56.912974388991486
20
4.0955189031869832
10
55.699448897429058
20
3.213841024748274
0
LWPOLYLINE
5
113
100
AcDbEntity
8
0
100
AcDbPolyline
90
4
70
1
43
0.0
10
47.278097344510869
20
5.9501040154953255
10
46.814571852948447
20
7.3766887899380595
10
48.241156627391177
20
7.8402142815004749
10
48.704682118953599
20
6.4136295070577454
0
CIRCLE
5
114
100
AcDbEntity
8
0
100
AcDbCircle
10
85
20
0
30
0
40
2.4999999999999996
210
0
220
0
230
1
0
CIRCLE
5
115
100
AcDbEntity
8
0
100
AcDbCircle
10
85
20
0
30
0
40
9.5
210
0
220
0
230
1
0
LWPOLYLINE
5
116
100
AcDbEntity
8
0
100
AcDbPolyline
90
4
70
1
43
0.0
10
82.934679775887261
20
-0.75000000000000011
10
78.490591822047918
20
-0.75000000000000011
10
78.490591822047918
20
0.75000000000000011
10
82.934679775887261
20
0.75000000000000011
0
LWPOLYLINE
5
117
100
AcDbEntity
8
0
100
AcDbPolyline
90
4
70
1
43
0.0
10
85.075073339144254
20
-2.1959990031598053
10
83.701774636910926
20
-6.4225778106475051
10
82.275189862468181
20
-5.9590523190850764
10
83.648488564701523
20
-1.7324735115973766
0
LWPOLYLINE
5
118
100
AcDbEntity
8
0
100
AcDbPolyline
90
4
70
1
43
0.0
10
87.111718099352828
20
-0.60720202321363992
10
90.707060778505848
20
-3.2193713823710368
10
89.82538290006714
20
-4.4328968739334584
10
86.230040220914105
20
-1.8207275147760615
0
LWPOLYLINE
5
119
100
AcDbEntity
8
0
100
AcDbPolyline
90
4
70
1
43
0.0
10
86.230040220914105
20
1.8207275147760615
10
89.82538290006714
20
4.4328968739334584
10
90.707060778505848
20
3.2193713823710368
10
87.111718099352828
20
0.60720202321363992
0
LWPOLYLINE
5
120
100
AcDbEntity
8
0
100
AcDbPolyline
90
4
70
1
43
0.0
10
83.648488564701523
20
1.7324735115973766
10
82.275189862468181
20
5.9590523190850764
10
83.701774636910912
20
6.4225778106475051
10
85.075073339144254
20
2.1959990031598053
0
ENDSEC
0
SECTION
2
OBJECTS
0
DICTIONARY
5
C
100
AcDbDictionary
3
ACAD_GROUP
350
D
3
ACAD_MLINESTYLE
350
17
0
DICTIONARY
5
D
100
AcDbDictionary
0
DICTIONARY
5
1A
330
C
100
AcDbDictionary
0
DICTIONARY
5
17
100
AcDbDictionary
0
ENDSEC
0
EOF
