0
SECTION
2
HEADER
9
$INSUNITS
70
4
9
$ACADVER
1
AC1014
9
$HANDSEED
5
FFFF
0
ENDSEC
0
SECTION
2
TABLES
0
TABLE
2
VPORT
5
8
100
AcDbSymbolTable
0
ENDTAB
0
TABLE
2
LTYPE
5
5
100
AcDbSymbolTable
0
LTYPE
5
14
100
AcDbSymbolTableRecord
100
AcDbLinetypeTableRecord
2
BYBLOCK
70
0
0
LTYPE
5
15
100
AcDbSymbolTableRecord
100
AcDbLinetypeTableRecord
2
BYLAYER
70
0
0
ENDTAB
0
TABLE
2
LAYER
5
2
100
AcDbSymbolTable
70
2
0
LAYER
5
50
100
AcDbSymbolTableRecord
100
AcDbLayerTableRecord
2
0
70
0
6
CONTINUOUS
0
ENDTAB
0
TABLE
2
STYLE
5
3
100
AcDbSymbolTable
70
1
0
STYLE
5
11
100
AcDbSymbolTableRecord
100
AcDbTextStyleTableRecord
2
STANDARD
70
0
0
ENDTAB
0
TABLE
2
VIEW
5
6
100
AcDbSymbolTable
70
0
0
ENDTAB
0
TABLE
2
UCS
5
7
100
AcDbSymbolTable
70
0
0
ENDTAB
0
TABLE
2
APPID
5
9
100
AcDbSymbolTable
70
2
0
APPID
5
12
100
AcDbSymbolTableRecord
100
AcDbRegAppTableRecord
2
ACAD
70
0
0
ENDTAB
0
TABLE
2
DIMSTYLE
5
A
100
AcDbSymbolTable
70
1
0
ENDTAB
0
TABLE
2
BLOCK_RECORD
5
1
100
AcDbSymbolTable
70
1
0
BLOCK_RECORD
5
1F
100
AcDbSymbolTableRecord
100
AcDbBlockTableRecord
2
*MODEL_SPACE
0
BLOCK_RECORD
5
1B
100
AcDbSymbolTableRecord
100
AcDbBlockTableRecord
2
*PAPER_SPACE
0
ENDTAB
0
ENDSEC
0
SECTION
2
BLOCKS
0
BLOCK
5
20
100
AcDbEntity
100
AcDbBlockBegin
2
*MODEL_SPACE
0
ENDBLK
5
21
100
AcDbEntity
100
AcDbBlockEnd
0
BLOCK
5
1C
100
AcDbEntity
100
AcDbBlockBegin
2
*PAPER_SPACE
0
ENDBLK
5
1D
100
AcDbEntity
100
AcDbBlockEnd
0
ENDSEC
0
SECTION
2
ENTITIES
0
LWPOLYLINE
5
100
100
AcDbEntity
8
0
100
AcDbPolyline
90
4
70
1
43
0.0
10
2.0060571632781721
20
-36.39893991082144
10
3.432641937720903
20
-36.862465402383862
10
2.2274756596586078
20
-40.571585815934966
10
0.80089088521587692
20
-40.108060324372531
0
LWPOLYLINE
5
101
100
AcDbEntity
8
0
100
AcDbPolyline
90
4
70
1
43
0.0
10
8.7999999999999989
20
-44.25
10
8.7999999999999989
20
-45.75
10
4.8999999999999986
20
-45.75
10
4.8999999999999986
20
-44.25
0
LWPOLYLINE
5
102
100
AcDbEntity
8
0
100
AcDbPolyline
90
4
70
1
43
0.0
10
-7.5601884897188896
20
-40.434252525607448
10
-6.6785106112801804
20
-39.220727034045026
10
-3.523344333217886
20
-41.513089517985676
10
-4.4050222116565951
20
-42.726615009548098
0
CIRCLE
5
103
100
AcDbEntity
8
0
100
AcDbCircle
10
0
20
-45
30
0
40
2.0499999999999998
210
0
220
-0
230
1
0
LWPOLYLINE
5
104
100
AcDbEntity
8
0
100
AcDbPolyline
90
4
70
1
43
0.0
10
2.006057163278169
20
-53.60106008917856
10
0.80089088521587526
20
-49.891939675627469
10
2.2274756596586061
20
-49.428414184065034
10
3.4326419377208994
20
-53.137534597616138
0
LWPOLYLINE
5
105
100
AcDbEntity
8
0
100
AcDbPolyline
90
4
70
1
43
0.0
10
-3.5233443332178882
20
-48.486910482014324
10
-6.678510611280184
20
-50.779272965954974
10
-7.5601884897188931
20
-49.565747474392552
10
-4.4050222116565969
20
-47.273384990451902
0
CIRCLE
5
106
100
AcDbEntity
8
0
100
AcDbCircle
10
0
20
-45
30
0
40
11.050000000000001
210
0
220
0
230
1
0
LWPOLYLINE
5
107
100
AcDbEntity
8
0
100
AcDbPolyline
90
4
70
1
43
0.0
10
3.1048501118176346
20
-2.9974833471506357
10
3.9865279902563451
20
-4.2110088387130586
10
2.7730024986939235
20
-5.0926867171517678
10
1.891324620255213
20
-3.8791612255893448
0
CIRCLE
5
108
100
AcDbEntity
8
0
100
AcDbCircle
10
0
20
0
30
0
40
2
210
0
220
-0
230
1
0
LWPOLYLINE
5
109
100
AcDbEntity
8
0
100
AcDbPolyline
90
4
70
1
43
0.0
10
3.8102275193324244
20
2.0266146363384507
10
5.2368122937751558
20
2.4901401279008715
10
5.7003377853375756
20
1.063555353458141
10
4.2737530108948452
20
0.60002986189572005
0
LWPOLYLINE
5
110
100
AcDbEntity
8
0
100
AcDbPolyline
90
4
70
1
43
0.0
10
-4.2737530108948443
20
0.60002986189572172
10
-5.7003377853375774
20
1.0635553534581432
10
-5.2368122937751549
20
2.4901401279008728
10
-3.8102275193324249
20
2.0266146363384516
0
LWPOLYLINE
5
111
100
AcDbEntity
8
0
100
AcDbPolyline
90
4
70
1
43
0.0
10
0.75000000000000011
20
4.2500000745058051
10
-0.75000000000000011
20
4.2500000745058051
10
-0.75000000000000011
20
5.7500000745058069
10
0.75000000000000011
20
5.7500000745058069
0
LWPOLYLINE
5
112
100
AcDbEntity
8
0
100
AcDbPolyline
90
4
70
1
43
0.0
10
-1.8913246202552143
20
-3.8791612255893435
10
-2.7730024986939243
20
-5.0926867171517651
10
-3.9865279902563451
20
-4.2110088387130551
10
-3.1048501118176346
20
-2.9974833471506335
0
CIRCLE
5
113
100
AcDbEntity
8
0
100
AcDbCircle
10
0
20
0
30
0
40
7.5
210
0
220
0
230
1
0
CIRCLE
5
114
100
AcDbEntity
8
0
100
AcDbCircle
10
18.577137016589095
20
-3.1775184670600947
30
0
40
1.0000000149011568
210
0
220
-0
230
1
0
CIRCLE
5
115
100
AcDbEntity
8
0
100
AcDbCircle
10
20.746292869581644
20
10.639732856367864
30
0
40
1.0000000000000053
210
0
220
-0
230
1
0
CIRCLE
5
116
100
AcDbEntity
8
0
100
AcDbCircle
10
25.786446645606581
20
-0.7812233609576803
30
0
40
0.99999999999999645
210
0
220
-0
230
1
0
LWPOLYLINE
5
117
100
AcDbEntity
8
0
100
AcDbPolyline
90
8
70
1
43
0.0
10
20.96156977729396
20
0.025735475454988221
10
22.582593532664568
20
10.351453933306907
42
0.99999999999999989
10
18.909992206498725
20
10.928011779428823
10
16.740836353506172
20
-2.8892395439991381
42
0.59424581582305491
10
19.332016582691782
20
-4.8761242787187529
10
26.369975725591161
20
-2.5367841866804315
42
0.99999999999999989
10
25.202917565622002
20
0.97433746476506999
10
21.352566243714293
20
-0.30547690086093293
42
-0.5617949116906743
0
CIRCLE
5
118
100
AcDbEntity
8
0
100
AcDbCircle
10
-20.766707754519409
20
-3.5000000000000004
30
0
40
1.0000000000000009
210
0
220
-0
230
1
0
LWPOLYLINE
5
119
100
AcDbEntity
8
0
100
AcDbPolyline
90
4
70
1
43
0.0
10
-21.500000298023224
20
-1.7743386642676069
42
4.7910407657809362
10
-20.00000029802322
20
-1.7889229485049061
10
-20.000000298023224
20
0
10
-21.500000298023224
20
0
0
CIRCLE
5
120
100
AcDbEntity
8
0
100
AcDbCircle
10
-35.000000521540635
20
-17.500000260770317
30
0
40
1.0000000000000009
210
0
220
-0
230
1
0
CIRCLE
5
121
100
AcDbEntity
8
0
100
AcDbCircle
10
-35.000000521540649
20
-6.5000002607703173
30
0
40
1.0000000000000009
210
0
220
-0
230
1
0
LWPOLYLINE
5
122
100
AcDbEntity
8
0
100
AcDbPolyline
90
4
70
1
43
0.0
10
-36.850000521540636
20
-17.500000260770321
42
0.99999999999999989
10
-33.150000521540633
20
-17.500000260770317
10
-33.150000521540647
20
-6.5000002607703156
42
0.99999999999999989
10
-36.85000052154065
20
-6.5000002607703191
0
ENDSEC
0
SECTION
2
OBJECTS
0
DICTIONARY
5
C
100
AcDbDictionary
3
ACAD_GROUP
350
D
3
ACAD_MLINESTYLE
350
17
0
DICTIONARY
5
D
100
AcDbDictionary
0
DICTIONARY
5
1A
330
C
100
AcDbDictionary
0
DICTIONARY
5
17
100
AcDbDictionary
0
ENDSEC
0
EOF
