0
SECTION
2
HEADER
9
$INSUNITS
70
4
9
$ACADVER
1
AC1014
9
$HANDSEED
5
FFFF
0
ENDSEC
0
SECTION
2
TABLES
0
TABLE
2
VPORT
5
8
100
AcDbSymbolTable
0
ENDTAB
0
TABLE
2
LTYPE
5
5
100
AcDbSymbolTable
0
LTYPE
5
14
100
AcDbSymbolTableRecord
100
AcDbLinetypeTableRecord
2
BYBLOCK
70
0
0
LTYPE
5
15
100
AcDbSymbolTableRecord
100
AcDbLinetypeTableRecord
2
BYLAYER
70
0
0
ENDTAB
0
TABLE
2
LAYER
5
2
100
AcDbSymbolTable
70
2
0
LAYER
5
50
100
AcDbSymbolTableRecord
100
AcDbLayerTableRecord
2
0
70
0
6
CONTINUOUS
0
ENDTAB
0
TABLE
2
STYLE
5
3
100
AcDbSymbolTable
70
1
0
STYLE
5
11
100
AcDbSymbolTableRecord
100
AcDbTextStyleTableRecord
2
STANDARD
70
0
0
ENDTAB
0
TABLE
2
VIEW
5
6
100
AcDbSymbolTable
70
0
0
ENDTAB
0
TABLE
2
UCS
5
7
100
AcDbSymbolTable
70
0
0
ENDTAB
0
TABLE
2
APPID
5
9
100
AcDbSymbolTable
70
2
0
APPID
5
12
100
AcDbSymbolTableRecord
100
AcDbRegAppTableRecord
2
ACAD
70
0
0
ENDTAB
0
TABLE
2
DIMSTYLE
5
A
100
AcDbSymbolTable
70
1
0
ENDTAB
0
TABLE
2
BLOCK_RECORD
5
1
100
AcDbSymbolTable
70
1
0
BLOCK_RECORD
5
1F
100
AcDbSymbolTableRecord
100
AcDbBlockTableRecord
2
*MODEL_SPACE
0
BLOCK_RECORD
5
1B
100
AcDbSymbolTableRecord
100
AcDbBlockTableRecord
2
*PAPER_SPACE
0
ENDTAB
0
ENDSEC
0
SECTION
2
BLOCKS
0
BLOCK
5
20
100
AcDbEntity
100
AcDbBlockBegin
2
*MODEL_SPACE
0
ENDBLK
5
21
100
AcDbEntity
100
AcDbBlockEnd
0
BLOCK
5
1C
100
AcDbEntity
100
AcDbBlockBegin
2
*PAPER_SPACE
0
ENDBLK
5
1D
100
AcDbEntity
100
AcDbBlockEnd
0
ENDSEC
0
SECTION
2
ENTITIES
0
CIRCLE
5
100
100
AcDbEntity
8
0
100
AcDbCircle
10
-1.0705793084082525e-14
20
63.20136065460062
30
0
40
3.2499999999999996
210
7.0532340045825609e-33
220
-5.8619841779114685e-41
230
1
0
SPLINE
5
101
100
AcDbEntity
8
0
100
AcDbSpline
70
4
71
5
72
16
73
10
74
0
42
0.000000001
43
0.0000000001
44
0.0000000001
40
0.54518434344390143
40
0.54518434344390143
40
0.54518434344390143
40
0.54518434344390143
40
0.54518434344390143
40
0.54518434344390143
40
0.59999999999999998
40
0.69999999999999996
40
0.79999999999999993
40
0.89999999999999991
40
0.99975835359334175
40
0.99975835359334175
40
0.99975835359334175
40
0.99975835359334175
40
0.99975835359334175
40
0.99975835359334175
41
1
41
1
41
1
41
1
41
1
41
1
41
1
41
1
41
1
41
1
10
-17.894173360064904
20
58.22647828742204
30
0
10
-17.849579100848075
20
58.224236350243423
30
0
10
-17.72459515220708
20
58.214859030278888
30
0
10
-17.52332581593031
20
58.185208994198874
30
0
10
-17.252975021321394
20
58.111335762201087
30
0
10
-16.923042080003437
20
57.961021856710424
30
0
10
-16.647803339495862
20
57.777359472568108
30
0
10
-16.449255101431255
20
57.612392554132164
30
0
10
-16.320367979075264
20
57.490553664969738
30
0
10
-16.256856517802408
20
57.426738959129473
30
0
0
LINE
5
102
100
AcDbEntity
8
0
100
AcDbLine
10
-16.256856517802408
20
57.426738959129466
30
0
11
-16.256349779861377
21
57.42589445287274
31
6.992232708451116e-37
0
LINE
5
103
100
AcDbEntity
8
0
100
AcDbLine
10
-16.256349779861377
20
57.42589445287274
30
6.992232708451116e-37
11
-16.209039412107849
21
57.300534850280556
31
2.1613659082197783e-34
0
ARC
5
104
100
AcDbEntity
8
0
100
AcDbCircle
10
0.00017431647975558415
20
63.201240337249907
30
0
40
17.249838693245312
210
5.8631756854034116e-34
220
-1.5739830111813323e-33
230
1
100
AcDbArc
50
200.00322786145622
51
201.3495082625885
0
LINE
5
105
100
AcDbEntity
8
0
100
AcDbLine
10
-16.065928711439501
20
56.921330430311194
30
-9.2834063726934996e-33
11
-16.05672203815277
21
56.896935251005225
31
-6.6939467121410782e-37
0
LINE
5
106
100
AcDbEntity
8
0
100
AcDbLine
10
-16.05672203815277
20
56.896935251005225
30
-6.6939467121410782e-37
11
-16.052423130904238
21
56.886887628125713
31
1.3311044871252058e-35
0
ARC
5
107
100
AcDbEntity
8
0
100
AcDbCircle
10
0.00017431647975558415
20
63.201240337249907
30
0
40
17.249838693245316
210
-1.2209774251260606e-33
220
3.1061252112860987e-33
230
1
100
AcDbArc
50
201.47239159312042
51
204.85523616884484
0
LINE
5
108
100
AcDbEntity
8
0
100
AcDbLine
10
-15.651858094899168
20
55.950666819511675
30
2.0462525236932081e-31
11
-15.648307202388754
21
55.942367494411762
31
-1.2227501707788976e-35
0
LINE
5
109
100
AcDbEntity
8
0
100
AcDbLine
10
-15.648307202388754
20
55.942367494411762
30
-1.2227501707788976e-35
11
-15.644267053255339
21
55.934302249450873
31
-9.4714395469581489e-36
0
ARC
5
110
100
AcDbEntity
8
0
100
AcDbCircle
10
0.00017431647975558415
20
63.201240337249907
30
0
40
17.249838693245316
210
-6.2780477588318137e-34
220
1.3502500571556413e-33
230
1
100
AcDbArc
50
204.91515478581977
51
208.30046699443611
0
LINE
5
111
100
AcDbEntity
8
0
100
AcDbLine
10
-15.187851349022441
20
55.023171413168264
30
1.207075373902073e-31
11
-15.183286316223041
21
55.014058356554315
31
-2.2278019661546324e-35
0
LINE
5
112
100
AcDbEntity
8
0
100
AcDbLine
10
-15.183286316223041
20
55.014058356554315
30
-2.2278019661546324e-35
11
-15.171532847534568
21
54.9929374266368
31
4.032599592498165e-35
0
ARC
5
113
100
AcDbEntity
8
0
100
AcDbCircle
10
0.00017431647975558415
20
63.201240337249907
30
0
40
17.249838693245316
210
-1.1111845928238685e-33
220
2.0587560458524746e-33
230
1
100
AcDbArc
50
208.41458389152365
51
209.77592952648033
0
LINE
5
114
100
AcDbEntity
8
0
100
AcDbLine
10
-14.972239933901456
20
54.63480896485423
30
1.1838177926448936e-31
11
-14.908365270294247
21
54.520026484095247
31
-1.3364092246551334e-34
0
LINE
5
115
100
AcDbEntity
8
0
100
AcDbLine
10
-14.908365270294247
20
54.520026484095247
30
-1.3364092246551334e-34
11
-14.908197512544529
21
54.519533872632458
31
1.8775454419684066e-37
0
SPLINE
5
116
100
AcDbEntity
8
0
100
AcDbSpline
70
4
71
5
72
16
73
10
74
0
42
0.000000001
43
0.0000000001
44
0.0000000001
40
0.54462497788967956
40
0.54462497788967956
40
0.54462497788967956
40
0.54462497788967956
40
0.54462497788967956
40
0.54462497788967956
40
0.59999999999999998
40
0.69999999999999996
40
0.79999999999999993
40
0.89999999999999991
40
0.99987174175807347
40
0.99987174175807347
40
0.99987174175807347
40
0.99987174175807347
40
0.99987174175807347
40
0.99987174175807347
41
1
41
1
41
1
41
1
41
1
41
1
41
1
41
1
41
1
41
1
10
-15.356392993913177
20
52.750660610259615
30
0
10
-15.328984626878038
20
52.786499421403228
30
0
10
-15.255068374163825
20
52.888306312720992
30
0
10
-15.147384015842537
20
53.061456472497014
30
0
10
-15.028930412131508
20
53.315944625554074
30
0
10
-14.930463447975786
20
53.665435174403683
30
0
10
-14.892929481591981
20
53.994288627879413
30
0
10
-14.890666930819378
20
54.252523480583683
30
0
10
-14.900472900851307
20
54.429722833119556
30
0
10
-14.908197512544527
20
54.519533872632451
30
0
0
LINE
5
117
100
AcDbEntity
8
0
100
AcDbLine
10
-15.356392993913177
20
52.750660610259615
30
0
11
-15.403248048064482
21
52.691491593461102
31
2.0111901912118702e-35
0
LINE
5
118
100
AcDbEntity
8
0
100
AcDbLine
10
-15.403248048064482
20
52.691491593461102
30
2.0111901912118702e-35
11
-15.672866513645875
21
52.416389402416499
31
-4.6163011990641051e-34
0
LINE
5
119
100
AcDbEntity
8
0
100
AcDbLine
10
-15.672866513645875
20
52.416389402416499
30
-4.6163011990641051e-34
11
-15.949038518508043
21
52.184008458808677
31
8.5880983032180984e-34
0
SPLINE
5
120
100
AcDbEntity
8
0
100
AcDbSpline
70
4
71
5
72
15
73
9
74
0
42
0.000000001
43
0.0000000001
44
0.0000000001
40
0
40
0
40
0
40
0
40
0
40
0
40
0.10000000000000001
40
0.20000000000000001
40
0.30000000000000004
40
0.35443702873778271
40
0.35443702873778271
40
0.35443702873778271
40
0.35443702873778271
40
0.35443702873778271
40
0.35443702873778271
41
1
41
1
41
1
41
1
41
1
41
1
41
1
41
1
41
1
10
-17.591687003238526
20
51.299624629234316
30
0
10
-17.4831661229689
20
51.346288669408118
30
0
10
-17.270216737649989
20
51.440227209129141
30
0
10
-16.963069018492739
20
51.582966252775734
30
0
10
-16.622699590975913
20
51.755513536792165
30
0
10
-16.312370238284732
20
51.93544744508614
30
0
10
-16.107181131354654
20
52.070027692707647
30
0
10
-15.989599003229918
20
52.15407431928233
30
0
10
-15.949038518508951
20
52.184008458807995
30
0
0
ARC
5
121
100
AcDbEntity
8
0
100
AcDbCircle
10
-17.473178545888711
20
51.024023929785713
30
0
40
0.29999999999999261
210
-4.2122253088300341e-33
220
-1.8112592760396436e-33
230
1
100
AcDbArc
50
113.267732283684
51
138.64845654747779
0
ARC
5
122
100
AcDbEntity
8
0
100
AcDbCircle
10
-9.2497565264941475
20
43.786453342575015
30
0
40
11.254775110148117
210
2.3715694665474868e-33
220
2.5572925096301753e-33
230
1
100
AcDbArc
50
138.64845654747748
51
138.64882139759337
0
LINE
5
123
100
AcDbEntity
8
0
100
AcDbLine
10
-17.69842692254565
20
51.222173302262341
30
6.0210333191762155e-32
11
-17.698497772426411
21
51.222143231833918
31
-2.5139736209328097e-37
0
LINE
5
124
100
AcDbEntity
8
0
100
AcDbLine
10
-17.698497772426411
20
51.222143231833918
30
-2.5139736209328097e-37
11
-17.856795996722077
21
51.067798375473771
31
-7.4183502715819717e-34
0
LINE
5
125
100
AcDbEntity
8
0
100
AcDbLine
10
-17.856795996722077
20
51.067798375473771
30
-7.4183502715819717e-34
11
-18.153294475931631
21
50.733487106853595
31
-1.0232352307896652e-33
0
LINE
5
126
100
AcDbEntity
8
0
100
AcDbLine
10
-18.153294475931631
20
50.733487106853595
30
-1.0232352307896652e-33
11
-18.506834673130754
21
50.260385078783109
31
7.5224848365629219e-34
0
LINE
5
127
100
AcDbEntity
8
0
100
AcDbLine
10
-18.506834673130754
20
50.260385078783109
30
7.5224848365629219e-34
11
-18.897899520745511
21
49.634341352307047
31
-4.1473937474562099e-34
0
LINE
5
128
100
AcDbEntity
8
0
100
AcDbLine
10
-18.897899520745511
20
49.634341352307047
30
-4.1473937474562099e-34
11
-19.098657294016114
21
49.264025782189549
31
5.9188953025972015e-35
0
LINE
5
129
100
AcDbEntity
8
0
100
AcDbLine
10
-19.098657294016114
20
49.264025782189549
30
5.9188953025972015e-35
11
-19.302207890878261
21
48.848044851716715
31
-7.8256791531566789e-34
0
LINE
5
130
100
AcDbEntity
8
0
100
AcDbLine
10
-19.302207890878261
20
48.848044851716715
30
-7.8256791531566789e-34
11
-19.302716382173493
21
48.846884245186871
31
1.3775159630999277e-36
0
ARC
5
131
100
AcDbEntity
8
0
100
AcDbCircle
10
-9.2497565264941475
20
43.786453342575015
30
0
40
11.254775110148119
210
-1.2077714788819979e-33
220
-2.3996090336360197e-33
230
1
100
AcDbArc
50
153.28035804619219
51
174.70690005088807
0
LINE
5
132
100
AcDbEntity
8
0
100
AcDbLine
10
-20.456539193722435
20
44.824713921390028
30
6.9750378520577994e-33
11
-20.456792538580352
21
44.823167248603554
31
-8.2840662208979642e-37
0
ARC
5
133
100
AcDbEntity
8
0
100
AcDbCircle
10
0.00015001368863382886
20
63.201510164276627
30
0
40
27.499999762052806
210
1.6389026399223033e-33
220
-1.8243084109439551e-33
230
1
100
AcDbArc
50
221.93625387789433
51
227.83537157187564
0
LINE
5
134
100
AcDbEntity
8
0
100
AcDbLine
10
-18.459585773475045
20
42.817983933984358
30
1.3143482796222274e-31
11
-18.45855249235434
21
42.818148808838288
31
-1.7611442028218763e-37
0
ARC
5
135
100
AcDbEntity
8
0
100
AcDbCircle
10
-19.451587201220249
20
54.029029454309352
30
0
40
11.254775110148143
210
6.6734124209901438e-33
220
5.9110022269988669e-34
230
1
100
AcDbArc
50
275.06192081850406
51
296.49552888624424
0
LINE
5
136
100
AcDbEntity
8
0
100
AcDbLine
10
-14.430517172687512
20
43.956352622971018
30
-2.1286861388365161e-32
11
-14.430138394037648
21
43.956516778968712
31
1.6277582313658196e-36
0
LINE
5
137
100
AcDbEntity
8
0
100
AcDbLine
10
-14.430138394037648
20
43.956516778968712
30
1.6277582313658196e-36
11
-14.013349268945225
21
44.158407740235418
31
9.1348204101010263e-34
0
LINE
5
138
100
AcDbEntity
8
0
100
AcDbLine
10
-14.013349268945225
20
44.158407740235418
30
9.1348204101010263e-34
11
-13.642236507955905
21
44.357687633795038
31
1.3892208051433765e-34
0
LINE
5
139
100
AcDbEntity
8
0
100
AcDbLine
10
-13.642236507955905
20
44.357687633795038
30
1.3892208051433765e-34
11
-13.01463916028456
21
44.746254214860805
31
1.8870782202727839e-33
0
LINE
5
140
100
AcDbEntity
8
0
100
AcDbLine
10
-13.01463916028456
20
44.746254214860805
30
1.8870782202727839e-33
11
-12.540131249756827
21
45.097905937044288
31
-2.4590374676633341e-34
0
LINE
5
141
100
AcDbEntity
8
0
100
AcDbLine
10
-12.540131249756827
20
45.097905937044288
30
-2.4590374676633341e-34
11
-12.204640998418155
21
45.393069441316015
31
6.5364267383138602e-34
0
LINE
5
142
100
AcDbEntity
8
0
100
AcDbLine
10
-12.204640998418155
20
45.393069441316015
30
6.5364267383138602e-34
11
-12.049804319228855
21
45.550611385596937
31
9.0185440445842877e-34
0
ARC
5
143
100
AcDbEntity
8
0
100
AcDbCircle
10
-19.451587201220249
20
54.029029454309352
30
0
40
11.254775110148138
210
-2.4756502230328016e-33
220
-2.0549082266274467e-33
230
1
100
AcDbArc
50
311.12143457764722
51
311.12316426711021
0
ARC
5
144
100
AcDbEntity
8
0
100
AcDbCircle
10
-12.246852325215006
20
45.776824107834102
30
0
40
0.2999999999999996
210
-3.1260640611784496e-32
220
3.1121042653683331e-32
230
1
100
AcDbArc
50
311.12316426710942
51
336.50388853090288
0
SPLINE
5
145
100
AcDbEntity
8
0
100
AcDbSpline
70
4
71
5
72
15
73
9
74
0
42
0.000000001
43
0.0000000001
44
0.0000000001
40
0
40
0
40
0
40
0
40
0
40
0
40
0.10000000000000001
40
0.20000000000000001
40
0.30000000000000004
40
0.35460029024631567
40
0.35460029024631567
40
0.35460029024631567
40
0.35460029024631567
40
0.35460029024631567
40
0.35460029024631567
41
1
41
1
41
1
41
1
41
1
41
1
41
1
41
1
41
1
10
-11.971726184882339
20
45.657218059050422
30
0
10
-11.924629955716203
20
45.765552076321889
30
0
10
-11.829843354896459
20
45.978125334888567
30
0
10
-11.685881167201826
20
46.284701662218019
30
0
10
-11.511898452216581
20
46.624537083211244
30
0
10
-11.330642214051297
20
46.934275517715292
30
0
10
-11.195151420815376
20
47.139035269769707
30
0
10
-11.110540036057452
20
47.256383267035815
30
0
10
-11.080350528638245
20
47.296934726449237
30
0
0
LINE
5
146
100
AcDbEntity
8
0
100
AcDbLine
10
-11.080350528638247
20
47.296934726449237
30
0
11
-10.84735584874579
21
47.571606194652098
31
-1.046527754666142e-34
0
LINE
5
147
100
AcDbEntity
8
0
100
AcDbLine
10
-10.84735584874579
20
47.571606194652098
30
-1.046527754666142e-34
11
-10.571181237864451
21
47.840126109110571
31
9.0198646103204471e-34
0
LINE
5
148
100
AcDbEntity
8
0
100
AcDbLine
10
-10.571181237864451
20
47.840126109110571
30
9.0198646103204471e-34
11
-10.514147028610889
21
47.884921874741039
31
-3.9136966600448265e-35
0
SPLINE
5
149
100
AcDbEntity
8
0
100
AcDbSpline
70
4
71
5
72
16
73
10
74
0
42
0.000000001
43
0.0000000001
44
0.0000000001
40
0.5438991758087689
40
0.5438991758087689
40
0.5438991758087689
40
0.5438991758087689
40
0.5438991758087689
40
0.5438991758087689
40
0.59999999999999998
40
0.69999999999999996
40
0.79999999999999993
40
0.89999999999999991
40
0.99989167205269325
40
0.99989167205269325
40
0.99989167205269325
40
0.99989167205269325
40
0.99989167205269325
40
0.99989167205269325
41
1
41
1
41
1
41
1
41
1
41
1
41
1
41
1
41
1
41
1
10
-10.514147028610871
20
47.884921874741053
30
0
10
-10.477751477036675
20
47.912601194154789
30
0
10
-10.375223203842053
20
47.986572901478141
30
0
10
-10.201206803132033
20
48.093999165765368
30
0
10
-9.945764981311239
20
48.211762560395826
30
0
10
-9.5953115903983992
20
48.308994701546666
30
0
10
-9.2662936619965617
20
48.345216934575376
30
0
10
-9.0080331476951248
20
48.346446788899733
30
0
10
-8.8308551173522449
20
48.335930148422229
30
0
10
-8.741056661427681
20
48.327843742802301
30
0
0
LINE
5
150
100
AcDbEntity
8
0
100
AcDbLine
10
-8.741056661427681
20
48.327843742802294
30
0
11
-8.740688321406715
21
48.327716665178912
31
3.96451521968985e-37
0
LINE
5
151
100
AcDbEntity
8
0
100
AcDbLine
10
-8.740688321406715
20
48.327716665178912
30
3.96451521968985e-37
11
-8.6339442902748171
21
48.267756790954422
31
2.8045507288303954e-34
0
ARC
5
152
100
AcDbEntity
8
0
100
AcDbCircle
10
0.00017431647975558415
20
63.201240337249907
30
0
40
17.249838693245319
210
-6.1911602991137649e-33
220
3.5983343901156606e-33
230
1
100
AcDbArc
50
239.96471118193259
51
241.38801490612664
0
LINE
5
153
100
AcDbEntity
8
0
100
AcDbLine
10
-8.2603508708666791
20
48.057903235666295
30
-5.6971808178003379e-32
11
-8.247756067022479
21
48.050828527634764
31
-5.75576730092667e-35
0
LINE
5
154
100
AcDbEntity
8
0
100
AcDbLine
10
-8.247756067022479
20
48.050828527634764
30
-5.75576730092667e-35
11
-8.24223450600633
21
48.048035008145867
31
1.4855381604998032e-35
0
ARC
5
155
100
AcDbEntity
8
0
100
AcDbCircle
10
0.00017431647975558415
20
63.201240337249907
30
0
40
17.249838693245319
210
5.7884577793453853e-33
220
-3.1475835674088194e-33
230
1
100
AcDbArc
50
241.45653699080179
51
244.87109281678809
0
LINE
5
156
100
AcDbEntity
8
0
100
AcDbLine
10
-7.3250775186992447
20
47.584018417388805
30
1.457168405115441e-33
11
-7.3213076859798356
21
47.582111148567463
31
1.3749223726398291e-35
0
LINE
5
157
100
AcDbEntity
8
0
100
AcDbLine
10
-7.3213076859798356
20
47.582111148567463
30
1.3749223726398291e-35
11
-7.3174332637615302
21
47.580435164513808
31
1.08394348640837e-35
0
ARC
5
158
100
AcDbEntity
8
0
100
AcDbCircle
10
0.00017431647975558415
20
63.201240337249907
30
0
40
17.249838693245323
210
-2.4880453053134685e-33
220
1.1662253270276694e-33
230
1
100
AcDbArc
50
244.89913450683545
51
248.31651470258382
0
LINE
5
159
100
AcDbEntity
8
0
100
AcDbLine
10
-6.3732776700893172
20
47.17201562992603
30
9.9568423466678327e-32
11
-6.368375659289085
21
47.16989513518665
31
-7.1788578621376494e-36
0
LINE
5
160
100
AcDbEntity
8
0
100
AcDbLine
10
-6.368375659289085
20
47.16989513518665
30
-7.1788578621376494e-36
11
-6.3568031825705749
21
47.165474935512719
31
-8.8430775852725233e-36
0
ARC
5
161
100
AcDbEntity
8
0
100
AcDbCircle
10
0.00017431647975558415
20
63.201240337249907
30
0
40
17.249838693245323
210
-7.5921961361153482e-33
220
3.0091845146879826e-33
230
1
100
AcDbArc
50
248.37539003784494
51
249.81509956302659
0
LINE
5
162
100
AcDbEntity
8
0
100
AcDbLine
10
-5.9518973472384884
20
47.010817926054273
30
5.0485985158523238e-32
11
-5.8402164674670072
21
46.968160524327857
31
-2.7867294768290862e-34
0
SPLINE
5
163
100
AcDbEntity
8
0
100
AcDbSpline
70
4
71
5
72
16
73
10
74
0
42
0.000000001
43
0.0000000001
44
0.0000000001
40
0.54401585448246514
40
0.54401585448246514
40
0.54401585448246514
40
0.54401585448246514
40
0.54401585448246514
40
0.54401585448246514
40
0.59999999999999998
40
0.69999999999999996
40
0.79999999999999993
40
0.89999999999999991
40
1
40
1
40
1
40
1
40
1
40
1
41
1
41
1
41
1
41
1
41
1
41
1
41
1
41
1
41
1
41
1
10
-5.0460246683388421
20
45.3221412535515
30
0
10
-5.048038830346484
20
45.367724219891528
30
0
10
-5.0567876284788937
20
45.493749002480484
30
0
10
-5.0855515622012923
20
45.696123091081596
30
0
10
-5.1584425894498143
20
45.967699279194122
30
0
10
-5.3079024078782613
20
46.299254080899459
30
0
10
-5.490607769098931
20
46.575380630088077
30
0
10
-5.6549583344866319
20
46.774732954614755
30
0
10
-5.7764725880396997
20
46.904248926049391
30
0
10
-5.8402164674670072
20
46.968160524327857
30
0
0
LINE
5
164
100
AcDbEntity
8
0
100
AcDbLine
10
-5.0460246683388421
20
45.3221412535515
30
0
11
-5.0439589404748455
21
45.249316964450074
31
-3.498824783897405e-36
0
LINE
5
165
100
AcDbEntity
8
0
100
AcDbLine
10
-5.0439589404748455
20
45.249316964450074
30
-3.498824783897405e-36
11
-5.0736667096802552
21
44.865269082098358
31
2.6273044904284409e-35
0
LINE
5
166
100
AcDbEntity
8
0
100
AcDbLine
10
-5.0736667096802552
20
44.865269082098358
30
2.6273044904284409e-35
11
-5.1358480223890908
21
44.509774398140003
31
8.140938358058192e-35
0
SPLINE
5
167
100
AcDbEntity
8
0
100
AcDbSpline
70
4
71
5
72
15
73
9
74
0
42
0.000000001
43
0.0000000001
44
0.0000000001
40
0
40
0
40
0
40
0
40
0
40
0
40
0.10000000000000001
40
0.20000000000000001
40
0.30000000000000004
40
0.35447695808683971
40
0.35447695808683971
40
0.35447695808683971
40
0.35447695808683971
40
0.35447695808683971
40
0.35447695808683971
41
1
41
1
41
1
41
1
41
1
41
1
41
1
41
1
41
1
10
-5.8257621792470013
20
42.776243272348218
30
0
10
-5.7726254287957071
20
42.881745878246427
30
0
10
-5.6698792649112715
20
43.090588200967794
30
0
10
-5.5263413501087317
20
43.39736340038715
30
0
10
-5.3764976189548372
20
43.748367077315351
30
0
10
-5.254420205765598
20
44.085716772955138
30
0
10
-5.1837369755341181
20
44.320738869771361
30
0
10
-5.1476839645040258
20
44.460736773595386
30
0
10
-5.135848022389359
20
44.509774398138894
30
0
0
ARC
5
168
100
AcDbEntity
8
0
100
AcDbCircle
10
-5.5578267192050586
20
42.64129665604343
30
0
40
0.29999999999999921
210
1.2789515628535433e-33
220
2.5393484086370748e-33
230
1
100
AcDbArc
50
153.26773228368324
51
178.64845654747776
0
LINE
5
169
100
AcDbEntity
8
0
100
AcDbLine
10
-5.8577432577634312
20
42.648372664746276
30
-4.3685771601143766e-34
11
-5.8797958172252702
21
42.428385506788857
31
8.6190712592270084e-35
0
LINE
5
170
100
AcDbEntity
8
0
100
AcDbLine
10
-5.8797958172252702
20
42.428385506788857
30
8.6190712592270084e-35
11
-5.8920356206375457
21
41.98170256473972
31
4.1713748653623163e-35
0
LINE
5
171
100
AcDbEntity
8
0
100
AcDbLine
10
-5.8920356206375457
20
41.98170256473972
30
4.1713748653623163e-35
11
-5.8587593759728742
21
41.392034351862755
31
-1.83141790269372e-35
0
LINE
5
172
100
AcDbEntity
8
0
100
AcDbLine
10
-5.8587593759728742
20
41.392034351862755
30
-1.83141790269372e-35
11
-5.7559189406285336
21
40.661085361003309
31
2.2873271877641535e-34
0
LINE
5
173
100
AcDbEntity
8
0
100
AcDbLine
10
-5.7559189406285336
20
40.661085361003309
30
2.2873271877641535e-34
11
-5.6716742392132158
21
40.248362425217763
31
-3.1359204626313496e-34
0
LINE
5
174
100
AcDbEntity
8
0
100
AcDbLine
10
-5.6716742392132158
20
40.248362425217763
30
-3.1359204626313496e-34
11
-5.5602155623125764
21
39.798862639984705
31
-1.0122125605689321e-34
0
ARC
5
175
100
AcDbEntity
8
0
100
AcDbCircle
10
5.3939007198651563
20
42.38290970931962
30
0
40
11.25477511014812
210
-4.2560616224103718e-34
220
1.7650290467490309e-33
230
1
100
AcDbArc
50
193.2732653828869
51
214.71437916351309
0
ARC
5
176
100
AcDbEntity
8
0
100
AcDbCircle
10
2.0720392595438077e-05
20
63.201571446358827
30
0
40
27.50000009760539
210
3.5484309578216879e-33
220
-1.0497324655324748e-33
230
1
100
AcDbArc
50
261.93624978223431
51
267.83536708555039
0
ARC
5
177
100
AcDbEntity
8
0
100
AcDbCircle
10
-9.0049559940436694
20
43.671567869102873
30
0
40
11.254775174508092
210
4.7718258664897335e-33
220
4.5685551827101147e-33
230
1
100
AcDbArc
50
315.05724127816978
51
336.49835610730736
0
LINE
5
178
100
AcDbEntity
8
0
100
AcDbLine
10
1.3162201395204132
20
39.183440642746994
30
-7.2469778356261694e-32
11
1.5057255800524405
21
39.606005137045699
31
-5.1327754198788829e-34
0
LINE
5
179
100
AcDbEntity
8
0
100
AcDbLine
10
1.5057255800524405
20
39.606005137045699
30
-5.1327754198788829e-34
11
1.6619198412867107
21
39.997209437599423
31
1.2474417223435637e-36
0
LINE
5
180
100
AcDbEntity
8
0
100
AcDbLine
10
1.6619198412867107
20
39.997209437599423
30
1.2474417223435637e-36
11
1.8929218047437901
21
40.698280312604389
31
-1.0796800817932513e-34
0
LINE
5
181
100
AcDbEntity
8
0
100
AcDbLine
10
1.8929218047437901
20
40.698280312604389
30
-1.0796800817932513e-34
11
2.0303783925702188
21
41.272668539688965
31
1.3850480297866978e-34
0
LINE
5
182
100
AcDbEntity
8
0
100
AcDbLine
10
2.0303783925702188
20
41.272668539688965
30
1.3850480297866978e-34
11
2.0976512335667232
21
41.714426177000988
31
7.7627798738943687e-35
0
LINE
5
183
100
AcDbEntity
8
0
100
AcDbLine
10
2.0976512335667232
20
41.714426177000988
30
7.7627798738943687e-35
11
2.1150131579982463
21
41.934832835283061
31
7.922504760587155e-36
0
ARC
5
184
100
AcDbEntity
8
0
100
AcDbCircle
10
1.8186064711689478
20
41.98112612933145
30
0
40
0.2999999884516204
210
-2.8974937884287025e-35
220
-1.4383521252194038e-35
230
1
100
AcDbArc
50
-8.8768379032457183
51
16.503888530904415
0
SPLINE
5
185
100
AcDbEntity
8
0
100
AcDbSpline
70
4
71
5
72
15
73
9
74
0
42
0.000000001
43
0.0000000001
44
0.0000000001
40
0
40
0
40
0
40
0
40
0
40
0
40
0.10000000000000001
40
0.20000000000000001
40
0.30000000000000004
40
0.3544788865478723
40
0.3544788865478723
40
0.3544788865478723
40
0.3544788865478723
40
0.3544788865478723
40
0.3544788865478723
41
1
41
1
41
1
41
1
41
1
41
1
41
1
41
1
41
1
10
2.1062466083292737
20
42.066350254404021
30
0
10
2.0726886489641916
20
42.179611798906514
30
0
10
2.0086599410469317
20
42.403380014958465
30
0
10
1.9218779103190786
20
42.730768217414486
30
0
10
1.8367435616219165
20
43.102803770140376
30
0
10
1.7765099657538572
20
43.45647160767853
30
0
10
1.748683463003827
20
43.700311752707222
30
0
10
1.7380632526977053
20
43.844488446796831
30
0
10
1.735123138878899
20
43.894850202886424
30
0
0
LINE
5
186
100
AcDbEntity
8
0
100
AcDbLine
10
1.735123138878899
20
43.894850202886424
30
0
11
1.7370558510312819
21
44.255728484991799
31
4.507544438767153e-36
0
LINE
5
187
100
AcDbEntity
8
0
100
AcDbLine
10
1.7370558510312819
20
44.255728484991799
30
4.507544438767153e-36
11
1.7760168440106516
21
44.638947974793297
31
-6.2670522781099109e-35
0
LINE
5
188
100
AcDbEntity
8
0
100
AcDbLine
10
1.7760168440106516
20
44.638947974793297
30
-6.2670522781099109e-35
11
1.7909703354197744
21
44.710198347363423
31
3.0374116827478529e-35
0
SPLINE
5
189
100
AcDbEntity
8
0
100
AcDbSpline
70
4
71
5
72
16
73
10
74
0
42
0.000000001
43
0.0000000001
44
0.0000000001
40
0.54400337186564751
40
0.54400337186564751
40
0.54400337186564751
40
0.54400337186564751
40
0.54400337186564751
40
0.54400337186564751
40
0.59999999999999998
40
0.69999999999999996
40
0.79999999999999993
40
0.89999999999999991
40
1
40
1
40
1
40
1
40
1
40
1
41
1
41
1
41
1
41
1
41
1
41
1
41
1
41
1
41
1
41
1
10
1.790970335419779
20
44.710198347363452
30
0
10
1.8010480695702915
20
44.754709648945756
30
0
10
1.8320368489362882
20
44.877188888665778
30
0
10
1.8962806573961857
20
45.071249680103264
30
0
10
2.0162404398462335
20
45.325576128043522
30
0
10
2.222205563229577
20
45.62533008305568
30
0
10
2.4510397288253123
20
45.864624974020138
30
0
10
2.648177829094462
20
46.031625055037253
30
0
10
2.7907593869101213
20
46.137505176136898
30
0
10
2.8648391574444805
20
46.189081935985953
30
0
0
LINE
5
190
100
AcDbEntity
8
0
100
AcDbLine
10
2.8648391574444805
20
46.189081935985939
30
0
11
2.9749564905537982
21
46.209842338268359
31
4.5210882731687003e-34
0
ARC
5
191
100
AcDbEntity
8
0
100
AcDbCircle
10
0.00017431647975558415
20
63.201240337249907
30
0
40
17.249838693245302
210
-5.9383640081666402e-33
220
-1.0130555807339622e-33
230
1
100
AcDbArc
50
279.930458033447
51
281.42228965175201
0
LINE
5
192
100
AcDbEntity
8
0
100
AcDbLine
10
3.4163095698139445
20
46.29304839151218
30
-1.067286700683583e-32
11
3.4204266342464074
21
46.293824560748277
31
-1.9296914572538789e-36
0
LINE
5
193
100
AcDbEntity
8
0
100
AcDbLine
10
3.4204266342464074
20
46.293824560748277
30
-1.9296914572538789e-36
11
3.4222077800029087
21
46.294241138175273
31
-4.5112634848914711e-37
0
ARC
5
194
100
AcDbEntity
8
0
100
AcDbCircle
10
0.00017431647975558415
20
63.201240337249907
30
0
40
17.249838693245295
210
-1.2095712329586439e-32
220
-2.4482395128763235e-33
230
1
100
AcDbArc
50
281.44227726889341
51
288.33021509719282
0
LINE
5
195
100
AcDbEntity
8
0
100
AcDbLine
10
5.4251294683081506
20
46.826662585636484
30
1.6570100186051685e-32
11
5.4263686350797986
21
46.827032180644146
31
5.4252887425022817e-36
0
LINE
5
196
100
AcDbEntity
8
0
100
AcDbLine
10
5.4263686350797986
20
46.827032180644146
30
5.4252887425022817e-36
11
5.4291563529831759
21
46.827997256225729
31
-7.2202342821534612e-36
0
ARC
5
197
100
AcDbEntity
8
0
100
AcDbCircle
10
0.00017431647975558415
20
63.201240337249907
30
0
40
17.249838693245309
210
-1.2394454502517456e-32
220
-4.1101503683593289e-33
230
1
100
AcDbArc
50
288.34430601924112
51
289.84621314332162
0
LINE
5
198
100
AcDbEntity
8
0
100
AcDbLine
10
5.8564375869698013
20
46.975917060048559
30
1.5066366042350083e-33
11
5.9606348165446565
21
47.011988931527199
31
3.1632733423028411e-34
0
LINE
5
199
100
AcDbEntity
8
0
100
AcDbLine
10
5.9606348165446565
20
47.011988931527199
30
3.1632733423028411e-34
11
6.2354208687909711
21
47.054558652657768
31
1.3422477021966184e-34
0
LINE
5
200
100
AcDbEntity
8
0
100
AcDbLine
10
6.2354208687909711
20
47.054558652657768
30
1.3422477021966184e-34
11
6.4683581919379058
21
47.035405921908847
31
2.4116323970888469e-34
0
LINE
5
201
100
AcDbEntity
8
0
100
AcDbLine
10
6.4683581919379058
20
47.035405921908847
30
2.4116323970888469e-34
11
6.7089973752629719
21
46.968012485958866
31
-3.9711223284966762e-34
0
LINE
5
202
100
AcDbEntity
8
0
100
AcDbLine
10
6.7089973752629719
20
46.968012485958866
30
-3.9711223284966762e-34
11
6.9537199187309673
21
46.851779539334188
31
7.3704673873781578e-34
0
LINE
5
203
100
AcDbEntity
8
0
100
AcDbLine
10
6.9537199187309673
20
46.851779539334188
30
7.3704673873781578e-34
11
7.19880877674695
21
46.686287443446133
31
7.8167379631549592e-34
0
LINE
5
204
100
AcDbEntity
8
0
100
AcDbLine
10
7.19880877674695
20
46.686287443446133
30
7.8167379631549592e-34
11
7.4406411962982757
21
46.471349354484566
31
-4.3096659212236784e-34
0
LINE
5
205
100
AcDbEntity
8
0
100
AcDbLine
10
7.4406411962982757
20
46.471349354484566
30
-4.3096659212236784e-34
11
7.6697142847525255
21
46.213562385518742
31
-7.2819751337592058e-34
0
LINE
5
206
100
AcDbEntity
8
0
100
AcDbLine
10
7.6762268929874171
20
46.20602285424647
30
0
11
7.6697142847525255
21
46.213562385518742
31
-7.2819751337592058e-34
0
LINE
5
207
100
AcDbEntity
8
0
100
AcDbLine
10
7.6762268929874171
20
46.20602285424647
30
0
11
7.8995587743215578
21
45.893809412102868
31
6.6854255260413185e-34
0
LINE
5
208
100
AcDbEntity
8
0
100
AcDbLine
10
7.8995587743215578
20
45.893809412102868
30
6.6854255260413185e-34
11
8.0796793198888377
21
45.582815621777577
31
1.5659616613305365e-35
0
SPLINE
5
209
100
AcDbEntity
8
0
100
AcDbSpline
70
4
71
5
72
15
73
9
74
0
42
0.000000001
43
0.0000000001
44
0.0000000001
40
0
40
0
40
0
40
0
40
0
40
0
40
0.10000000000000001
40
0.20000000000000001
40
0.30000000000000004
40
0.35482445799956897
40
0.35482445799956897
40
0.35482445799956897
40
0.35482445799956897
40
0.35482445799956897
40
0.35482445799956897
41
1
41
1
41
1
41
1
41
1
41
1
41
1
41
1
41
1
10
8.6661830791669541
20
43.809945040686749
30
0
10
8.639072423714552
20
43.924920370478745
30
0
10
8.5835392941865649
20
44.15094683237524
30
0
10
8.4963044190520591
20
44.478214662332469
30
0
10
8.385361909801798
20
44.843774786297814
30
0
10
8.2619012695252998
20
45.180971980938367
30
0
10
8.1648231811343592
20
45.406706740537743
30
0
10
8.1022882509275931
20
45.537375529808614
30
0
10
8.0796793198893759
20
45.582815621776476
30
0
0
ARC
5
210
100
AcDbEntity
8
0
100
AcDbCircle
10
8.9581755623764519
20
43.878795529059374
30
0
40
0.29999999999999577
210
-3.6153770812136387e-34
220
1.5332686181816146e-33
230
1
100
AcDbArc
50
193.26773228368197
51
218.64845654747538
0
ARC
5
211
100
AcDbEntity
8
0
100
AcDbCircle
10
17.513773437488634
20
50.720494346845548
30
0
40
11.254775110148117
210
-7.7568115952274903e-34
220
1.0057752570873008e-33
230
1
100
AcDbArc
50
218.64845654747742
51
218.65572214443048
0
LINE
5
212
100
AcDbEntity
8
0
100
AcDbLine
10
8.7247692098606713
20
43.690318853534755
30
6.0335961506519048e-32
11
8.8484259725541143
21
43.508878312820443
31
2.9769997105017968e-35
0
LINE
5
213
100
AcDbEntity
8
0
100
AcDbLine
10
8.8484259725541143
20
43.508878312820443
30
2.9769997105017968e-35
11
9.1261720637968597
21
43.158832069635508
31
3.7279285180782987e-34
0
LINE
5
214
100
AcDbEntity
8
0
100
AcDbLine
10
9.1261720637968597
20
43.158832069635508
30
3.7279285180782987e-34
11
9.5306947440087377
21
42.728509540552444
31
7.5706760871436788e-34
0
LINE
5
215
100
AcDbEntity
8
0
100
AcDbLine
10
9.5306947440087377
20
42.728509540552444
30
7.5706760871436788e-34
11
10.079319787572739
21
42.234674666830081
31
-1.4524161964836111e-33
0
LINE
5
216
100
AcDbEntity
8
0
100
AcDbLine
10
10.079319787572739
20
42.234674666830081
30
-1.4524161964836111e-33
11
10.40914836574415
21
41.972661878226781
31
-4.6866486240507538e-34
0
LINE
5
217
100
AcDbEntity
8
0
100
AcDbLine
10
10.40914836574415
20
41.972661878226781
30
-4.6866486240507538e-34
11
10.77433804935275
21
41.706617632071186
31
1.8182820403092064e-33
0
ARC
5
218
100
AcDbEntity
8
0
100
AcDbCircle
10
17.513773437488634
20
50.720494346845548
30
0
40
11.254775110148124
210
1.3882631869780038e-33
220
-8.362470719952987e-34
230
1
100
AcDbArc
50
233.21551435024503
51
254.71437916351306
0
LINE
5
219
100
AcDbEntity
8
0
100
AcDbLine
10
14.546666127520002
20
39.863872543027355
30
-7.5751839623124866e-32
11
14.548256207762584
21
39.864981213036302
31
-6.0407883817656548e-36
0
ARC
5
220
100
AcDbEntity
8
0
100
AcDbCircle
10
-0.00012039647150534948
20
63.201534645806291
30
0
40
27.499999780711903
210
2.2560978391609267e-33
220
1.406228230157074e-33
230
1
100
AcDbArc
50
301.94006622087346
51
307.83155459371523
0
LINE
5
221
100
AcDbEntity
8
0
100
AcDbLine
10
16.866787878486715
20
41.481557822998674
30
4.6296145603778664e-32
11
16.868197455289284
21
41.482540638509739
31
9.8366959510596899e-37
0
ARC
5
222
100
AcDbEntity
8
0
100
AcDbCircle
10
5.6552757663022497
20
42.452257079875011
30
0
40
11.254775110148135
210
-2.5509632624456013e-35
220
-2.9395587326169128e-34
230
1
100
AcDbArc
50
355.05724165107472
51
355.05785450458683
0
ARC
5
223
100
AcDbEntity
8
0
100
AcDbCircle
10
-0.00012039647150534948
20
63.201534645806291
30
0
40
27.499999780711896
210
-1.4846646200357158e-33
220
5.9208747143537473e-34
230
1
100
AcDbArc
50
307.83530041375241
51
307.8353693350187
0
LINE
5
224
100
AcDbEntity
8
0
100
AcDbLine
10
16.868233952724115
20
41.48268086644844
30
-1.6347024085965839e-32
11
16.868239564295209
21
41.483027672093158
31
1.8711902731730007e-38
0
ARC
5
225
100
AcDbEntity
8
0
100
AcDbCircle
10
5.6552757663022497
20
42.452257079875011
30
0
40
11.254775110148129
210
-1.4041145267561086e-35
220
-1.6242196161285148e-34
230
1
100
AcDbArc
50
-4.9402697097298542
51
16.49189771857068
0
LINE
5
226
100
AcDbEntity
8
0
100
AcDbLine
10
16.447028171414377
20
45.647259866535244
30
-3.5001691122857893e-33
11
16.446704240167371
21
45.648616323504768
31
1.1977149087269019e-36
0
LINE
5
227
100
AcDbEntity
8
0
100
AcDbLine
10
16.446704240167371
20
45.648616323504768
30
1.1977149087269019e-36
11
16.320254965310383
21
46.094131411081634
31
5.9080931523616177e-35
0
LINE
5
228
100
AcDbEntity
8
0
100
AcDbLine
10
16.320254965310383
20
46.094131411081634
30
5.9080931523616177e-35
11
16.188445686348246
21
46.494211201795927
31
4.2607735640269403e-34
0
LINE
5
229
100
AcDbEntity
8
0
100
AcDbLine
10
16.188445686348246
20
46.494211201795927
30
4.2607735640269403e-34
11
15.914763289490956
21
47.179747868120508
31
4.653425698385973e-34
0
LINE
5
230
100
AcDbEntity
8
0
100
AcDbLine
10
15.914763289490956
20
47.179747868120508
30
4.653425698385973e-34
11
15.650851345321758
21
47.70811013091668
31
-1.485249739644682e-34
0
LINE
5
231
100
AcDbEntity
8
0
100
AcDbLine
10
15.650851345321758
20
47.70811013091668
30
-1.485249739644682e-34
11
15.418429345570914
21
48.089758028436208
31
4.9132007663680828e-34
0
LINE
5
232
100
AcDbEntity
8
0
100
AcDbLine
10
15.418429345570914
20
48.089758028436208
30
4.9132007663680828e-34
11
15.290054430330773
21
48.269759367041189
31
6.7313094097811059e-35
0
LINE
5
233
100
AcDbEntity
8
0
100
AcDbLine
10
15.290054430330773
20
48.269759367041189
30
6.7313094097811059e-35
11
15.289854082092919
21
48.269890600993406
31
6.2196556668939932e-37
0
ARC
5
234
100
AcDbEntity
8
0
100
AcDbCircle
10
15.033200652751553
20
48.114555424013702
30
0
40
0.29999999999999938
210
-3.9909099135966688e-34
220
6.5539633690517887e-34
230
1
100
AcDbArc
50
31.18371850393093
51
56.503888530905854
0
SPLINE
5
235
100
AcDbEntity
8
0
100
AcDbSpline
70
4
71
5
72
15
73
9
74
0
42
0.000000001
43
0.0000000001
44
0.0000000001
40
0
40
0
40
0
40
0
40
0
40
0
40
0.10000000000000001
40
0.20000000000000001
40
0.30000000000000004
40
0.35408112215176368
40
0.35408112215176368
40
0.35408112215176368
40
0.35408112215176368
40
0.35408112215176368
40
0.35408112215176368
41
1
41
1
41
1
41
1
41
1
41
1
41
1
41
1
41
1
10
15.198764769798178
20
48.364732407660412
30
0
10
15.100254764043978
20
48.42992514395938
30
0
10
14.907370491424022
20
48.56018468229918
30
0
10
14.630450518926084
20
48.755196181438023
30
0
10
14.326435502127897
20
48.985210253651076
30
0
10
14.05323284211658
20
49.217155394054004
30
0
10
13.875400360620851
20
49.385790363131939
30
0
10
13.774793346869709
20
49.489134405503378
30
0
10
13.740395081666311
20
49.525551746297239
30
0
0
LINE
5
236
100
AcDbEntity
8
0
100
AcDbLine
10
13.740395081666312
20
49.525551746297239
30
0
11
13.508679732430874
21
49.804721915485061
31
-4.2430820296639543e-34
0
LINE
5
237
100
AcDbEntity
8
0
100
AcDbLine
10
13.508679732430874
20
49.804721915485061
30
-4.2430820296639543e-34
11
13.292196428024647
21
50.123329048802248
31
9.1260775273738228e-34
0
LINE
5
238
100
AcDbEntity
8
0
100
AcDbLine
10
13.292196428024647
20
50.123329048802248
30
9.1260775273738228e-34
11
13.125438562377598
21
50.435026089304884
31
-2.4971658437525791e-34
0
LINE
5
239
100
AcDbEntity
8
0
100
AcDbLine
10
13.125438562377598
20
50.435026089304884
30
-2.4971658437525791e-34
11
13.007373836560149
21
50.736260251688414
31
3.8907267370471971e-34
0
LINE
5
240
100
AcDbEntity
8
0
100
AcDbLine
10
13.007373836560149
20
50.736260251688414
30
3.8907267370471971e-34
11
12.936831640684064
21
51.023453724088064
31
-2.8521895315045769e-35
0
LINE
5
241
100
AcDbEntity
8
0
100
AcDbLine
10
12.936831640684064
20
51.023453724088064
30
-2.8521895315045769e-35
11
12.912383174408895
21
51.293271599333195
31
-1.0869287722993718e-34
0
LINE
5
242
100
AcDbEntity
8
0
100
AcDbLine
10
12.912383174408895
20
51.293271599333195
30
-1.0869287722993718e-34
11
12.932350628186136
21
51.542370387462825
31
-6.7471338137128298e-35
0
LINE
5
243
100
AcDbEntity
8
0
100
AcDbLine
10
12.932350628186136
20
51.542370387462825
30
-6.7471338137128298e-35
11
12.994920743589013
21
51.767563134778257
31
-8.2312212603592622e-35
0
LINE
5
244
100
AcDbEntity
8
0
100
AcDbLine
10
12.994920743589013
20
51.767563134778257
30
-8.2312212603592622e-35
11
13.129875348252773
21
52.010682063106152
31
3.2542306974020622e-34
0
LINE
5
245
100
AcDbEntity
8
0
100
AcDbLine
10
13.129875348252773
20
52.010682063106152
30
3.2542306974020622e-34
11
13.197887278768395
21
52.093706519699722
31
2.6099884771489635e-35
0
ARC
5
246
100
AcDbEntity
8
0
100
AcDbCircle
10
0.00017431647975558415
20
63.201240337249907
30
0
40
17.249838693245295
210
1.3537492424908156e-33
220
1.6108430641741877e-33
230
1
100
AcDbArc
50
319.91517422129721
51
321.43664410538508
0
ARC
5
247
100
AcDbEntity
8
0
100
AcDbCircle
10
0.00017431647975558415
20
63.201240337249907
30
0
40
17.249838693245302
210
-6.7478222609035544e-34
220
2.1727696652803278e-33
230
1
100
AcDbArc
50
321.43664410538508
51
328.33496861620648
0
ARC
5
248
100
AcDbEntity
8
0
100
AcDbCircle
10
0.00017431647975558415
20
63.201240337249907
30
0
40
17.249838693245295
210
-7.6811251800226316e-34
220
-2.6913969737999065e-34
230
1
100
AcDbArc
50
328.33496861620648
51
329.85654061963896
0
LINE
5
249
100
AcDbEntity
8
0
100
AcDbLine
10
14.917330626010056
20
54.538943726072084
30
-1.2996473209834256e-32
11
14.972438414867904
21
54.631004802649272
31
1.9068159212366514e-34
0
LINE
5
250
100
AcDbEntity
8
0
100
AcDbLine
10
14.972438414867904
20
54.631004802649272
30
1.9068159212366514e-34
11
15.155573693689249
21
54.840243895990554
31
5.119420816821958e-34
0
LINE
5
251
100
AcDbEntity
8
0
100
AcDbLine
10
15.155573693689249
20
54.840243895990554
30
5.119420816821958e-34
11
15.346325478373501
21
54.975301741096906
31
-1.0923512278686129e-34
0
LINE
5
252
100
AcDbEntity
8
0
100
AcDbLine
10
15.346325478373501
20
54.975301741096906
30
-1.0923512278686129e-34
11
15.573985051071213
21
55.078355126374127
31
-1.3895956087620713e-34
0
LINE
5
253
100
AcDbEntity
8
0
100
AcDbLine
10
15.573985051071213
20
55.078355126374127
30
-1.3895956087620713e-34
11
15.836166639884556
21
55.146619546039943
31
-2.5977323844683472e-34
0
LINE
5
254
100
AcDbEntity
8
0
100
AcDbLine
10
15.836166639884556
20
55.146619546039943
30
-2.5977323844683472e-34
11
16.130292049848425
21
55.1773854833991
31
-8.6918967718070548e-34
0
LINE
5
255
100
AcDbEntity
8
0
100
AcDbLine
10
16.130292049848425
20
55.1773854833991
30
-8.6918967718070548e-34
11
16.453705906505061
21
55.168179901302821
31
-1.7534718912700958e-33
0
LINE
5
256
100
AcDbEntity
8
0
100
AcDbLine
10
16.453705906505061
20
55.168179901302821
30
-1.7534718912700958e-33
11
16.777316111927185
21
55.120536830932146
31
7.1390191575521839e-34
0
SPLINE
5
257
100
AcDbEntity
8
0
100
AcDbSpline
70
4
71
5
72
12
73
6
74
0
42
0.000000001
43
0.0000000001
44
0.0000000001
40
0.5255165334545322
40
0.5255165334545322
40
0.5255165334545322
40
0.5255165334545322
40
0.5255165334545322
40
0.5255165334545322
40
0.53266379435082789
40
0.53266379435082789
40
0.53266379435082789
40
0.53266379435082789
40
0.53266379435082789
40
0.53266379435082789
41
1
41
1
41
1
41
1
41
1
41
1
10
16.806297787736419
20
55.115955529427396
30
0
10
16.800496442821512
20
55.116909756875707
30
0
10
16.794697610039858
20
55.117845016163862
30
0
10
16.788901282139395
20
55.11876129119122
30
0
10
16.78310745185825
20
55.119658567238055
30
0
10
16.777316111927185
20
55.120536830932139
30
0
0
LINE
5
258
100
AcDbEntity
8
0
100
AcDbLine
10
16.806297787736419
20
55.115955529427396
30
0
11
17.176492440920047
21
55.020745528014658
31
-7.0665092577436993e-34
0
LINE
5
259
100
AcDbEntity
8
0
100
AcDbLine
10
17.176492440920047
20
55.020745528014658
30
-7.0665092577436993e-34
11
17.512237417840822
21
54.899064993171109
31
2.712175125160625e-34
0
SPLINE
5
260
100
AcDbEntity
8
0
100
AcDbSpline
70
4
71
5
72
15
73
9
74
0
42
0.000000001
43
0.0000000001
44
0.0000000001
40
0
40
0
40
0
40
0
40
0
40
0
40
0.10000000000000001
40
0.20000000000000001
40
0.30000000000000004
40
0.35531983749542512
40
0.35531983749542512
40
0.35531983749542512
40
0.35531983749542512
40
0.35531983749542512
40
0.35531983749542512
41
1
41
1
41
1
41
1
41
1
41
1
41
1
41
1
41
1
10
19.103206525560331
20
53.917049388528831
30
0
10
19.008533841191774
20
53.987699207596478
30
0
10
18.820705986739505
20
54.125149515142432
30
0
10
18.543516489251026
20
54.319777720823765
30
0
10
18.223105367760642
20
54.528791955359793
30
0
10
17.911360288288833
20
54.707949232116107
30
0
10
17.691484046527599
20
54.818616248043703
30
0
10
17.559179120646714
20
54.878639508733436
30
0
10
17.51223741784203
20
54.899064993170569
30
0
0
ARC
5
261
100
AcDbEntity
8
0
100
AcDbCircle
10
19.282629503908677
20
54.157481072881389
30
0
40
0.29999999999999893
210
-8.1114474413051981e-34
220
6.0531957863796177e-34
230
1
100
AcDbArc
50
233.26773228368489
51
258.64845654747609
0
ARC
5
262
100
AcDbEntity
8
0
100
AcDbCircle
10
21.438838484418902
20
64.897958741322753
30
0
40
11.25477511014811
210
-5.5089862759632149e-33
220
1.1708344634477724e-33
230
1
100
AcDbArc
50
258.64845654747751
51
258.66536749882079
0
LINE
5
263
100
AcDbEntity
8
0
100
AcDbLine
10
19.226838016261748
20
53.86269631993548
30
1.0519613578490029e-32
11
19.43637136266506
21
53.803702831773975
31
4.8567114612446377e-34
0
LINE
5
264
100
AcDbEntity
8
0
100
AcDbLine
10
19.43637136266506
20
53.803702831773975
30
4.8567114612446377e-34
11
19.874142493255093
21
53.714083514541684
31
1.033181244612316e-33
0
LINE
5
265
100
AcDbEntity
8
0
100
AcDbLine
10
19.874142493255093
20
53.714083514541684
30
1.033181244612316e-33
11
20.460630943624029
21
53.644459731205181
31
-3.7543139610203027e-33
0
LINE
5
266
100
AcDbEntity
8
0
100
AcDbLine
10
20.460630943624029
20
53.644459731205181
30
-3.7543139610203027e-33
11
21.198332864144227
21
53.618809269497454
31
2.3302057548921706e-34
0
LINE
5
267
100
AcDbEntity
8
0
100
AcDbLine
10
21.198332864144227
20
53.618809269497454
30
2.3302057548921706e-34
11
21.619414906247844
21
53.630105701515461
31
1.1725518285246773e-33
0
LINE
5
268
100
AcDbEntity
8
0
100
AcDbLine
10
21.619414906247844
20
53.630105701515461
30
1.1725518285246773e-33
11
22.059512088405889
21
53.660310986684621
31
7.1212217253826907e-34
0
ARC
5
269
100
AcDbEntity
8
0
100
AcDbCircle
10
21.438838484418902
20
64.897958741322753
30
0
40
11.254775110148126
210
4.1544500803304807e-34
220
8.6315031767409077e-35
230
1
100
AcDbArc
50
273.16132733346558
51
294.71437916351306
0
LINE
5
270
100
AcDbEntity
8
0
100
AcDbLine
10
26.144404396026793
20
54.674084122005311
30
-6.6898362891363027e-33
11
26.144957181877849
21
54.67613082198352
31
-1.2992357314547976e-36
0
ARC
5
271
100
AcDbEntity
8
0
100
AcDbCircle
10
-0.00020409004958659479
20
63.201419208009249
30
0
40
27.499999999999986
210
-1.161105215139293e-33
220
-3.5610035654613985e-33
230
1
100
AcDbArc
50
341.94013752717359
51
347.83148328741493
0
LINE
5
272
100
AcDbEntity
8
0
100
AcDbLine
10
26.881922251223816
20
57.404757809254406
30
2.5872100227476597e-31
11
26.882340773220086
21
57.406307394792783
31
8.6653606540795184e-38
0
ARC
5
273
100
AcDbEntity
8
0
100
AcDbCircle
10
17.669422708824381
20
50.941626156035447
30
0
40
11.254775110148126
210
1.3418028684888375e-33
220
-1.9122376004329641e-33
230
1
100
AcDbArc
50
35.05724165107469
51
35.057814067326376
0
ARC
5
274
100
AcDbEntity
8
0
100
AcDbCircle
10
-0.00020409004958659479
20
63.201419208009249
30
0
40
27.5
210
3.438395900234672e-33
220
-7.4799025627392769e-34
230
1
100
AcDbArc
50
347.83498218093507
51
347.8353639855506
0
LINE
5
275
100
AcDbEntity
8
0
100
AcDbLine
10
26.882314803002707
20
57.406578574766087
30
-3.0950001214203082e-31
11
26.881102624515023
21
57.408071540547063
31
-6.2014622726200327e-36
0
ARC
5
276
100
AcDbEntity
8
0
100
AcDbCircle
10
17.669422708824381
20
50.941626156035447
30
0
40
11.254775110148129
210
1.6798075828458928e-36
220
-1.4339234230162189e-36
230
1
100
AcDbArc
50
35.068213733718359
51
56.479069287274207
0
LINE
5
277
100
AcDbEntity
8
0
100
AcDbLine
10
23.884777443983623
20
60.324553646757273
30
-2.1365659794607001e-34
11
23.881592793957264
21
60.326916095039429
31
-5.1918892830374494e-38
0
LINE
5
278
100
AcDbEntity
8
0
100
AcDbLine
10
23.881592793957264
20
60.326916095039429
30
-5.1918892830374494e-38
11
23.498355783024959
21
60.586920538733509
31
9.8688404374263263e-34
0
LINE
5
279
100
AcDbEntity
8
0
100
AcDbLine
10
23.498355783024959
20
60.586920538733509
30
9.8688404374263263e-34
11
23.140217357624277
21
60.808673534104535
31
4.7385221910415207e-34
0
LINE
5
280
100
AcDbEntity
8
0
100
AcDbLine
10
23.140217357624277
20
60.808673534104535
30
4.7385221910415207e-34
11
22.489910321627153
21
61.157905888952477
31
-1.3101232940827944e-33
0
LINE
5
281
100
AcDbEntity
8
0
100
AcDbLine
10
22.489910321627153
20
61.157905888952477
30
-1.3101232940827944e-33
11
21.948117533341531
21
61.39301578346128
31
1.8735246211751217e-33
0
LINE
5
282
100
AcDbEntity
8
0
100
AcDbLine
10
21.948117533341531
20
61.39301578346128
30
1.8735246211751217e-33
11
21.52475321461268
21
61.53597704132423
31
6.6606313770082884e-34
0
LINE
5
283
100
AcDbEntity
8
0
100
AcDbLine
10
21.52475321461268
20
61.53597704132423
30
6.6606313770082884e-34
11
21.310709259121126
21
61.591347712087561
31
-9.5750277624834404e-34
0
LINE
5
284
100
AcDbEntity
8
0
100
AcDbLine
10
21.310709259121126
20
61.591347712087561
30
-9.5750277624834404e-34
11
21.310139688204103
21
61.591280056622267
31
-1.0307849068655612e-36
0
ARC
5
285
100
AcDbEntity
8
0
100
AcDbCircle
10
21.213674738115085
20
61.307212259425334
30
0
40
0.29999999999999449
210
1.4504057435333799e-32
220
-4.9217208197366016e-33
230
1
100
AcDbArc
50
71.243321825716038
51
96.503888530902742
0
SPLINE
5
286
100
AcDbEntity
8
0
100
AcDbSpline
70
4
71
5
72
15
73
9
74
0
42
0.000000001
43
0.0000000001
44
0.0000000001
40
0
40
0
40
0
40
0
40
0
40
0
40
0.10000000000000001
40
0.20000000000000001
40
0.30000000000000004
40
0.35359622830697529
40
0.35359622830697529
40
0.35359622830697529
40
0.35359622830697529
40
0.35359622830697529
40
0.35359622830697529
41
1
41
1
41
1
41
1
41
1
41
1
41
1
41
1
41
1
10
21.179693544641705
20
61.60528151059043
30
0
10
21.062325419007536
20
61.591901032835025
30
0
10
20.830838276513678
20
61.567702007799959
30
0
10
20.493354295000124
20
61.539088755863169
30
0
10
20.113136485656295
20
61.519898987092709
30
0
10
19.755219838272492
20
61.521936046050129
30
0
10
19.511014864539376
20
61.536730030488698
30
0
10
19.367923115781004
20
61.551130060279476
30
0
10
19.318588466291779
20
61.556839898448814
30
0
0
LINE
5
287
100
AcDbEntity
8
0
100
AcDbLine
10
19.318588466291779
20
61.556839898448814
30
0
11
18.959442220730111
21
61.622151940257915
31
-6.3049944720799919e-34
0
LINE
5
288
100
AcDbEntity
8
0
100
AcDbLine
10
18.959442220730111
20
61.622151940257915
30
-6.3049944720799919e-34
11
18.58881023698801
21
61.727066337312834
31
1.4758759470588731e-33
0
LINE
5
289
100
AcDbEntity
8
0
100
AcDbLine
10
18.58881023698801
20
61.727066337312834
30
1.4758759470588731e-33
11
18.509282752198597
21
61.758960710813696
31
2.4663938137647554e-34
0
SPLINE
5
290
100
AcDbEntity
8
0
100
AcDbSpline
70
4
71
5
72
16
73
10
74
0
42
0.000000001
43
0.0000000001
44
0.0000000001
40
0.5471980283901714
40
0.5471980283901714
40
0.5471980283901714
40
0.5471980283901714
40
0.5471980283901714
40
0.5471980283901714
40
0.59999999999999998
40
0.69999999999999996
40
0.79999999999999993
40
0.89999999999999991
40
0.9999759607174703
40
0.9999759607174703
40
0.9999759607174703
40
0.9999759607174703
40
0.9999759607174703
40
0.9999759607174703
41
1
41
1
41
1
41
1
41
1
41
1
41
1
41
1
41
1
41
1
10
18.509282752198565
20
61.758960710813696
30
0
10
18.469753443233078
20
61.775808835888448
30
0
10
18.357211568306514
20
61.826974047812712
30
0
10
18.179865911282324
20
61.923216598108468
30
0
10
17.952535661643005
20
62.084387084167638
30
0
10
17.694932354674474
20
62.337475712803034
30
0
10
17.49901939907511
20
62.604367850617876
30
0
10
17.368796853813173
20
62.827488680090788
30
0
10
17.289291239715659
20
62.986267286608822
30
0
10
17.251369225581136
20
63.068155725769302
30
0
0
LINE
5
291
100
AcDbEntity
8
0
100
AcDbLine
10
17.251369225581133
20
63.068155725769294
30
0
11
17.251297800644892
21
63.068524360626263
31
1.8487184904797022e-37
0
LINE
5
292
100
AcDbEntity
8
0
100
AcDbLine
10
17.251297800644892
20
63.068524360626263
30
1.8487184904797022e-37
11
17.249998170551009
21
63.178614102541097
31
-7.1170070142076492e-36
0
ARC
5
293
100
AcDbEntity
8
0
100
AcDbCircle
10
0.00017431647975558415
20
63.201240337249907
30
0
40
17.249838693245302
210
4.1147154612754337e-37
220
-8.4836574853066282e-37
230
1
100
AcDbArc
50
-0.075153637657489725
51
1.4278656918028121
0
LINE
5
294
100
AcDbEntity
8
0
100
AcDbLine
10
17.244656745183963
20
63.631078340565637
30
1.3156427663663632e-31
11
17.244623903048002
21
63.633860349278251
31
-9.1271165240438321e-38
0
LINE
5
295
100
AcDbEntity
8
0
100
AcDbLine
10
17.244623903048002
20
63.633860349278251
30
-9.1271165240438321e-38
11
17.244556575323479
21
63.635078387515804
31
1.8311719916288126e-37
0
ARC
5
296
100
AcDbEntity
8
0
100
AcDbCircle
10
0.00017431647975558415
20
63.201240337249907
30
0
40
17.249838693245298
210
-9.124809511780453e-37
220
3.5847600544334121e-35
230
1
100
AcDbArc
50
1.4411561151992012
51
8.3295745299564832
0
LINE
5
297
100
AcDbEntity
8
0
100
AcDbLine
10
17.068046953748784
20
65.700171825095467
30
-4.3768288356885031e-32
11
17.067844618676972
21
65.7019184762907
31
-8.2576769682177993e-37
0
LINE
5
298
100
AcDbEntity
8
0
100
AcDbLine
10
17.067844618676972
20
65.7019184762907
30
-8.2576769682177993e-37
11
17.067208224044961
21
65.705893714666075
31
-3.2326354728607885e-36
0
ARC
5
299
100
AcDbEntity
8
0
100
AcDbCircle
10
0.00017431647975558415
20
63.201240337249907
30
0
40
17.249838693245302
210
-4.1576282727961854e-35
220
2.8459685039406661e-34
230
1
100
AcDbArc
50
8.3487830266742797
51
9.8417905291851611
0
LINE
5
300
100
AcDbEntity
8
0
100
AcDbLine
10
16.996155561525864
20
66.149724093525933
30
7.3672567909648734e-32
11
16.978471915944702
21
66.260184966344383
31
3.7595629766454717e-35
0
LINE
5
301
100
AcDbEntity
8
0
100
AcDbLine
10
16.978471915944702
20
66.260184966344383
30
3.7595629766454717e-35
11
16.984265336463437
21
66.538188520892149
31
2.2223386509642491e-35
0
LINE
5
302
100
AcDbEntity
8
0
100
AcDbLine
10
16.984265336463437
20
66.538188520892149
30
2.2223386509642491e-35
11
17.043576406209326
21
66.764261562138969
31
-3.5212197305933077e-35
0
LINE
5
303
100
AcDbEntity
8
0
100
AcDbLine
10
17.043576406209326
20
66.764261562138969
30
-3.5212197305933077e-35
11
17.151731900556491
21
66.989541768049349
31
-1.7000696103419021e-34
0
LINE
5
304
100
AcDbEntity
8
0
100
AcDbLine
10
17.151731900556491
20
66.989541768049349
30
-1.7000696103419021e-34
11
17.308695249342943
21
67.210362825915198
31
8.0218581400493797e-34
0
LINE
5
305
100
AcDbEntity
8
0
100
AcDbLine
10
17.308695249342943
20
67.210362825915198
30
8.0218581400493797e-34
11
17.514232391299821
21
67.4229910619663
31
8.6587639955961197e-34
0
LINE
5
306
100
AcDbEntity
8
0
100
AcDbLine
10
17.514232391299821
20
67.4229910619663
30
8.6587639955961197e-34
11
17.767898850605004
21
67.623825586903664
31
-2.1659573960417523e-34
0
LINE
5
307
100
AcDbEntity
8
0
100
AcDbLine
10
17.767898850605004
20
67.623825586903664
30
-2.1659573960417523e-34
11
18.068905558926708
21
67.809186132575704
31
-5.3074803979105904e-35
0
LINE
5
308
100
AcDbEntity
8
0
100
AcDbLine
10
18.068905558926708
20
67.809186132575704
30
-5.3074803979105904e-35
11
18.416354458462564
21
67.975482422748769
31
-1.1457184418072044e-33
0
LINE
5
309
100
AcDbEntity
8
0
100
AcDbLine
10
18.416354458462564
20
67.975482422748769
30
-1.1457184418072044e-33
11
18.749902132902569
21
68.097401327733223
31
3.6237305292078144e-34
0
SPLINE
5
310
100
AcDbEntity
8
0
100
AcDbSpline
70
4
71
5
72
15
73
9
74
0
42
0.000000001
43
0.0000000001
44
0.0000000001
40
0
40
0
40
0
40
0
40
0
40
0
40
0.10000000000000001
40
0.20000000000000001
40
0.30000000000000004
40
0.35573154595679629
40
0.35573154595679629
40
0.35573154595679629
40
0.35573154595679629
40
0.35573154595679629
40
0.35573154595679629
41
1
41
1
41
1
41
1
41
1
41
1
41
1
41
1
41
1
10
20.601708894770606
20
68.368329863566501
30
0
10
20.483772582671644
20
68.36159633638276
30
0
10
20.251536743867376
20
68.346155963087398
30
0
10
19.914092670517913
20
68.317075844002972
30
0
10
19.533851676531604
20
68.271180620835878
30
0
10
19.179500832023116
20
68.207943948233961
30
0
10
18.939591906862056
20
68.151258739124032
30
0
10
18.799333614668797
20
68.112054565963774
30
0
10
18.74990213290393
20
68.097401327733621
30
0
0
ARC
5
311
100
AcDbEntity
8
0
100
AcDbCircle
10
20.58460836262433
20
68.667842086689873
30
0
40
0.29999999999998261
210
-9.8637883870542265e-33
220
-5.6316910421194208e-34
230
1
100
AcDbArc
50
273.26773228368387
51
298.6484565474783
0
ARC
5
312
100
AcDbEntity
8
0
100
AcDbCircle
10
15.332514302958344
20
78.281509737609696
30
0
40
11.254775110148119
210
8.8238010462560477e-33
220
4.9191685186595298e-33
230
1
100
AcDbArc
50
298.64845654747751
51
298.67288864635003
0
LINE
5
313
100
AcDbEntity
8
0
100
AcDbLine
10
20.732649868694043
20
68.406870571964902
30
4.2616183996197946e-32
11
20.929822159533984
21
68.495795786049186
31
8.7800330552586726e-34
0
LINE
5
314
100
AcDbEntity
8
0
100
AcDbLine
10
20.929822159533984
20
68.495795786049186
30
8.7800330552586726e-34
11
21.322780653466911
21
68.708537017521749
31
-8.6554803026366205e-34
0
LINE
5
315
100
AcDbEntity
8
0
100
AcDbLine
10
21.322780653466911
20
68.708537017521749
30
-8.6554803026366205e-34
11
21.81681058963937
21
69.032189553038904
31
-1.7582403947014075e-33
0
LINE
5
316
100
AcDbEntity
8
0
100
AcDbLine
10
21.81681058963937
20
69.032189553038904
30
-1.7582403947014075e-33
11
22.398410490846071
21
69.486726343366001
31
2.4308695694873848e-33
0
LINE
5
317
100
AcDbEntity
8
0
100
AcDbLine
10
22.398410490846071
20
69.486726343366001
30
2.4308695694873848e-33
11
22.713716395961047
21
69.766045911423134
31
3.7706874120753849e-34
0
LINE
5
318
100
AcDbEntity
8
0
100
AcDbLine
10
22.713716395961047
20
69.766045911423134
30
3.7706874120753849e-34
11
23.027336484986801
21
70.068125881550571
31
1.14604867651167e-33
0
ARC
5
319
100
AcDbEntity
8
0
100
AcDbCircle
10
15.332514302958344
20
78.281509737609696
30
0
40
11.254775110148127
210
-2.8177255419081244e-33
220
-2.5002908284971421e-33
230
1
100
AcDbArc
50
313.13298379012292
51
334.714379163513
0
LINE
5
320
100
AcDbEntity
8
0
100
AcDbLine
10
25.508966849561602
20
73.474246862881287
30
-2.1981203793222814e-32
11
25.508811453661696
21
73.474581851900567
31
2.7047008166334381e-37
0
ARC
5
321
100
AcDbEntity
8
0
100
AcDbCircle
10
-0.00019186185353530546
20
63.201271653032308
30
0
40
27.500002774420544
210
-5.1519924637171947e-34
220
1.2792321617245856e-33
230
1
100
AcDbArc
50
21.936258992544545
51
27.835371485550557
0
LINE
5
322
100
AcDbEntity
8
0
100
AcDbLine
10
24.317862431530266
20
76.041919432020606
30
-2.7294907477242633e-31
11
24.313926625360853
21
76.042679192755941
31
-1.1902065553732645e-35
0
ARC
5
323
100
AcDbEntity
8
0
100
AcDbCircle
10
21.415931956746345
20
65.167404958020882
30
0
40
11.254775110148142
210
8.7162153967563684e-33
220
-2.3215638649462537e-33
230
1
100
AcDbArc
50
75.078806575067972
51
96.465827953057769
0
LINE
5
324
100
AcDbEntity
8
0
100
AcDbLine
10
20.148524834914745
20
76.350590638655021
30
2.1098517582290707e-32
11
20.142018745753354
21
76.350200567227759
31
1.5282642663549017e-35
0
LINE
5
325
100
AcDbEntity
8
0
100
AcDbLine
10
20.142018745753354
20
76.350200567227759
30
1.5282642663549017e-35
11
19.681314294817515
21
76.303035076822553
31
8.2404235358066998e-34
0
LINE
5
326
100
AcDbEntity
8
0
100
AcDbLine
10
19.681314294817515
20
76.303035076822553
30
8.2404235358066998e-34
11
19.264424566579677
21
76.242701094774489
31
4.9970112033450117e-34
0
LINE
5
327
100
AcDbEntity
8
0
100
AcDbLine
10
19.264424566579677
20
76.242701094774489
30
4.9970112033450117e-34
11
18.541778430564122
21
76.092219531298127
31
-2.569679051073855e-33
0
LINE
5
328
100
AcDbEntity
8
0
100
AcDbLine
10
18.541778430564122
20
76.092219531298127
30
-2.569679051073855e-33
11
17.975615142939265
21
75.924065811960531
31
-7.6003720992771045e-34
0
LINE
5
329
100
AcDbEntity
8
0
100
AcDbLine
10
17.975615142939265
20
75.924065811960531
30
-7.6003720992771045e-34
11
17.559405567900257
21
75.761447242392535
31
2.6380374770559807e-34
0
LINE
5
330
100
AcDbEntity
8
0
100
AcDbLine
10
17.559405567900257
20
75.761447242392535
30
2.6380374770559807e-34
11
17.359846966016764
21
75.666279231126637
31
-7.1236239051987952e-34
0
LINE
5
331
100
AcDbEntity
8
0
100
AcDbLine
10
17.359846966016764
20
75.666279231126637
30
-7.1236239051987952e-34
11
17.359267314190785
21
75.665662525725466
31
1.0516857078634898e-38
0
ARC
5
332
100
AcDbEntity
8
0
100
AcDbCircle
10
17.468116214399654
20
75.386105882228449
30
0
40
0.29999999999999916
210
1.2354457387583812e-33
220
4.8099873926243735e-34
230
1
100
AcDbArc
50
111.27407761606696
51
136.50388853090453
0
SPLINE
5
333
100
AcDbEntity
8
0
100
AcDbSpline
70
4
71
5
72
15
73
9
74
0
42
0.000000001
43
0.0000000001
44
0.0000000001
40
0
40
0
40
0
40
0
40
0
40
0
40
0.10000000000000001
40
0.20000000000000001
40
0.30000000000000004
40
0.35325071568984207
40
0.35325071568984207
40
0.35325071568984207
40
0.35325071568984207
40
0.35325071568984207
40
0.35325071568984207
41
1
41
1
41
1
41
1
41
1
41
1
41
1
41
1
41
1
10
17.250489888491348
20
75.592597485621042
30
0
10
17.169181493362863
20
75.506904668060471
30
0
10
17.007406887660981
20
75.339570072406659
30
0
10
16.767271402798663
20
75.100720527976321
30
0
10
16.488615160539901
20
74.841874191620192
30
0
10
16.213391539478895
20
74.613563696184698
30
0
10
16.017075403237634
20
74.468073405335616
30
0
10
15.898470699390138
20
74.387260057789589
30
0
10
15.857274825566222
20
74.36007532475503
30
0
0
LINE
5
334
100
AcDbEntity
8
0
100
AcDbLine
10
15.857274825566222
20
74.360075324755016
30
0
11
15.538871054071002
21
74.178511312298397
31
-1.1048834727560355e-33
0
LINE
5
335
100
AcDbEntity
8
0
100
AcDbLine
10
15.538871054071002
20
74.178511312298397
30
-1.1048834727560355e-33
11
15.187512818508589
21
74.020642429308509
31
1.2235097507771981e-33
0
LINE
5
336
100
AcDbEntity
8
0
100
AcDbLine
10
15.187512818508589
20
74.020642429308509
30
1.2235097507771981e-33
11
15.100912650976799
21
73.992258853681619
31
8.65674497786379e-35
0
SPLINE
5
337
100
AcDbEntity
8
0
100
AcDbSpline
70
4
71
5
72
16
73
10
74
0
42
0.000000001
43
0.0000000001
44
0.0000000001
40
0.54851850119004686
40
0.54851850119004686
40
0.54851850119004686
40
0.54851850119004686
40
0.54851850119004686
40
0.54851850119004686
40
0.59999999999999998
40
0.69999999999999996
40
0.79999999999999993
40
0.89999999999999991
40
0.99985428756232564
40
0.99985428756232564
40
0.99985428756232564
40
0.99985428756232564
40
0.99985428756232564
40
0.99985428756232564
41
1
41
1
41
1
41
1
41
1
41
1
41
1
41
1
41
1
41
1
10
15.100912650976785
20
73.992258853681648
30
0
10
15.060825364606188
20
73.980171276702023
30
0
10
14.942743679402088
20
73.947538320499461
30
0
10
14.746044740475925
20
73.907728850815644
30
0
10
14.469330449732357
20
73.88531905916841
30
0
10
14.11045932836366
20
73.913521866841251
30
0
10
13.788925273902333
20
73.992002521234923
30
0
10
13.545849932281122
20
74.079159209691042
30
0
10
13.382984892251502
20
74.149619950926649
30
0
10
13.301398524056181
20
74.187912604822429
30
0
0
LINE
5
338
100
AcDbEntity
8
0
100
AcDbLine
10
13.301398524056181
20
74.187912604822415
30
0
11
13.30064601141774
21
74.188522729021628
31
5.0080663899679342e-37
0
LINE
5
339
100
AcDbEntity
8
0
100
AcDbLine
10
13.30064601141774
20
74.188522729021628
30
5.0080663899679342e-37
11
13.222905644317141
21
74.27897978060254
31
-3.4812799710888277e-34
0
ARC
5
340
100
AcDbEntity
8
0
100
AcDbCircle
10
0.00017431647975558415
20
63.201240337249907
30
0
40
17.249838693245305
210
1.8713468853115643e-34
220
-1.919438277394267e-34
230
1
100
AcDbArc
50
39.955600762471747
51
41.397075223936113
0
LINE
5
341
100
AcDbEntity
8
0
100
AcDbLine
10
12.940051572273637
20
74.608102813319789
30
-2.0714550671292659e-32
11
12.932142886976369
21
74.61730519273425
31
3.4820782583138291e-36
0
LINE
5
342
100
AcDbEntity
8
0
100
AcDbLine
10
12.932142886976369
20
74.61730519273425
30
3.4820782583138291e-36
11
12.928562332167715
21
74.621122922408063
31
-6.6238732690301742e-36
0
ARC
5
343
100
AcDbEntity
8
0
100
AcDbCircle
10
0.00017431647975558415
20
63.201240337249907
30
0
40
17.249838693245302
210
6.4322479135236989e-34
220
-7.2761131725149475e-34
230
1
100
AcDbArc
50
41.454751858123494
51
44.872919399830984
0
LINE
5
344
100
AcDbEntity
8
0
100
AcDbLine
10
12.224675906180609
20
75.371634571882737
30
-5.3829575152312944e-32
11
12.22187672400784
21
75.374619171033999
31
-4.5787528215302829e-36
0
LINE
5
345
100
AcDbEntity
8
0
100
AcDbLine
10
12.22187672400784
20
75.374619171033999
30
-4.5787528215302829e-36
11
12.218900896409966
21
75.377432505078474
31
1.274388377921674e-35
0
ARC
5
346
100
AcDbEntity
8
0
100
AcDbCircle
10
0.00017431647975558415
20
63.201240337249907
30
0
40
17.249838693245302
210
2.5587620918589311e-33
220
-2.5687470956588584e-33
230
1
100
AcDbArc
50
44.900100514655819
51
48.31547767802293
0
LINE
5
347
100
AcDbEntity
8
0
100
AcDbLine
10
11.471811017363233
20
76.083727921017498
30
-3.0771706530866541e-32
11
11.467399969207746
21
76.087898106130623
31
6.1292615463364065e-36
0
LINE
5
348
100
AcDbEntity
8
0
100
AcDbLine
10
11.467399969207746
20
76.087898106130623
30
6.1292615463364065e-36
11
11.456695240693245
21
76.097172380186592
31
-3.3580373809631358e-35
0
ARC
5
349
100
AcDbEntity
8
0
100
AcDbCircle
10
0.00017431647975558415
20
63.201240337249907
30
0
40
17.249838693245302
210
1.9434613646620242e-34
220
-1.7004976436399422e-34
230
1
100
AcDbArc
50
48.382671099538484
51
49.807866388423044
0
LINE
5
350
100
AcDbEntity
8
0
100
AcDbLine
10
11.132406305477677
20
76.378127142793701
30
7.8741035334985753e-32
11
11.040358758651793
21
76.457874534266764
31
-4.343169519123592e-34
0
SPLINE
5
351
100
AcDbEntity
8
0
100
AcDbSpline
70
4
71
5
72
16
73
10
74
0
42
0.000000001
43
0.0000000001
44
0.0000000001
40
0.5251438449166651
40
0.5251438449166651
40
0.5251438449166651
40
0.5251438449166651
40
0.5251438449166651
40
0.5251438449166651
40
0.59999999999999998
40
0.69999999999999996
40
0.79999999999999993
40
0.89999999999999991
40
0.99998529733425667
40
0.99998529733425667
40
0.99998529733425667
40
0.99998529733425667
40
0.99998529733425667
40
0.99998529733425667
41
1
41
1
41
1
41
1
41
1
41
1
41
1
41
1
41
1
41
1
10
10.881486371178006
20
78.349492388303887
30
0
10
10.861051601236616
20
78.291392865071231
30
0
10
10.818215665937741
20
78.155468787961553
30
0
10
10.76900993347949
20
77.940941916873186
30
0
10
10.740787297536599
20
77.646131109046777
30
0
10
10.768953734683603
20
77.268454631034686
30
0
10
10.8461949660564
20
76.946503610978311
30
0
10
10.932444465706123
20
76.702974637208968
30
0
10
11.002325573094867
20
76.539721313880335
30
0
10
11.040358758651783
20
76.457874534266764
30
0
0
LINE
5
352
100
AcDbEntity
8
0
100
AcDbLine
10
10.881486371178006
20
78.349492388303887
30
0
11
11.0389995043161
21
78.696354666486158
31
-2.043111061732686e-34
0
LINE
5
353
100
AcDbEntity
8
0
100
AcDbLine
10
11.0389995043161
20
78.696354666486158
30
-2.043111061732686e-34
11
11.215767087842499
21
79.003495362020189
31
-8.082879383415259e-34
0
SPLINE
5
354
100
AcDbEntity
8
0
100
AcDbSpline
70
4
71
5
72
15
73
9
74
0
42
0.000000001
43
0.0000000001
44
0.0000000001
40
0
40
0
40
0
40
0
40
0
40
0
40
0.10000000000000001
40
0.20000000000000001
40
0.30000000000000004
40
0.3558649473147108
40
0.3558649473147108
40
0.3558649473147108
40
0.3558649473147108
40
0.3558649473147108
40
0.3558649473147108
41
1
41
1
41
1
41
1
41
1
41
1
41
1
41
1
41
1
10
12.460524274245543
20
80.401871723437154
30
0
10
12.374508045563379
20
80.320905542206134
30
0
10
12.206529952397492
20
80.159799210334981
30
0
10
11.966725135380381
20
79.920617677393935
30
0
10
11.704846346461814
20
79.64094085600523
30
0
10
11.473970671128409
20
79.36462409960879
30
0
10
11.326568851416418
20
79.16688810507577
30
0
10
11.244273520518584
20
79.046597139527734
30
0
10
11.215767087843302
20
79.003495362021411
30
0
0
ARC
5
355
100
AcDbEntity
8
0
100
AcDbCircle
10
12.25490176064713
20
80.62031938742436
30
0
40
0.29999999999999238
210
1.1661922701604662e-33
220
1.0977246519948297e-33
230
1
100
AcDbArc
50
313.26773228368381
51
338.64845654747745
0
ARC
5
356
100
AcDbEntity
8
0
100
AcDbCircle
10
2.05201784184626
20
84.608835082942591
30
0
40
11.254775110148108
210
-1.6316866549807543e-33
220
-4.3414548701946866e-33
230
1
100
AcDbArc
50
338.64845654747745
51
338.67474685567299
0
LINE
5
357
100
AcDbEntity
8
0
100
AcDbLine
10
12.536190136831799
20
80.515902873747436
30
8.4711029949056984e-32
11
12.629976875398295
21
80.710563596375366
31
-3.3599184302117844e-34
0
LINE
5
358
100
AcDbEntity
8
0
100
AcDbLine
10
12.629976875398295
20
80.710563596375366
30
-3.3599184302117844e-34
11
12.794253210253682
21
81.126121719180077
31
-4.4442686339705951e-34
0
LINE
5
359
100
AcDbEntity
8
0
100
AcDbLine
10
12.794253210253682
20
81.126121719180077
30
-4.4442686339705951e-34
11
12.964661600883318
21
81.691610064185753
31
-3.6627967753015728e-34
0
LINE
5
360
100
AcDbEntity
8
0
100
AcDbLine
10
12.964661600883318
20
81.691610064185753
30
-3.6627967753015728e-34
11
13.118022594057091
21
82.413650841782669
31
6.0439235908977966e-38
0
LINE
5
361
100
AcDbEntity
8
0
100
AcDbLine
10
13.118022594057091
20
82.413650841782669
30
6.0439235908977966e-38
11
13.180018084760334
21
82.830297072819235
31
8.2734541091549184e-35
0
LINE
5
362
100
AcDbEntity
8
0
100
AcDbLine
10
13.180018084760334
20
82.830297072819235
30
8.2734541091549184e-35
11
13.226239668258533
21
83.264688753802403
31
-2.7275716330774377e-36
0
ARC
5
363
100
AcDbEntity
8
0
100
AcDbCircle
10
2.05201784184626
20
84.608835082942591
30
0
40
11.254775110148111
210
6.7863517857880858e-35
220
5.6213703407939398e-34
230
1
100
AcDbArc
50
-6.8591486396315515
51
14.714379163513184
0
LINE
5
364
100
AcDbEntity
8
0
100
AcDbLine
10
12.937681778217144
20
87.467555678664368
30
-3.3862034846527763e-32
11
12.93741639107318
21
87.467680075242441
31
-5.3633331054731192e-37
0
LINE
5
365
100
AcDbEntity
8
0
100
AcDbLine
10
12.93741639107318
20
87.467680075242441
30
-5.3633331054731192e-37
11
12.937384580047834
21
87.467848469610658
31
1.9369938477592298e-38
0
ARC
5
366
100
AcDbEntity
8
0
100
AcDbCircle
10
-8.707177370852789e-05
20
63.201168138351385
30
0
40
27.499999037112929
210
1.9856551409753363e-35
220
-1.0587065779003763e-35
230
1
100
AcDbArc
50
61.936259755185588
51
67.83537886299068
0
LINE
5
367
100
AcDbEntity
8
0
100
AcDbLine
10
10.374810351932094
20
88.669019451110302
30
-1.3780680957014066e-31
11
10.369908457771093
21
88.666294008764879
31
1.7484586794242708e-35
0
ARC
5
368
100
AcDbEntity
8
0
100
AcDbCircle
10
15.141770195153148
20
78.473193482461852
30
0
40
11.254775110148127
210
-2.7008858847263792e-33
220
-1.2661249208572432e-33
230
1
100
AcDbArc
50
115.08646735378744
51
136.45843734295747
0
LINE
5
369
100
AcDbEntity
8
0
100
AcDbLine
10
6.9834668405764049
20
86.226389543101106
30
5.2231340065952808e-33
11
6.9777701433027319
21
86.220996594110844
31
2.4044845821355375e-35
0
LINE
5
370
100
AcDbEntity
8
0
100
AcDbLine
10
6.9777701433027319
20
86.220996594110844
30
2.4044845821355375e-35
11
6.6551675685639999
21
85.888730861387117
31
1.7547748674595155e-34
0
LINE
5
371
100
AcDbEntity
8
0
100
AcDbLine
10
6.6551675685639999
20
85.888730861387117
30
1.7547748674595155e-34
11
6.374593122936175
21
85.574540352270219
31
6.35468974414978e-34
0
LINE
5
372
100
AcDbEntity
8
0
100
AcDbLine
10
6.374593122936175
20
85.574540352270219
30
6.35468974414978e-34
11
5.9177422790004854
21
84.994756447595151
31
5.2123365280035076e-34
0
LINE
5
373
100
AcDbEntity
8
0
100
AcDbLine
10
5.9177422790004854
20
84.994756447595151
30
5.2123365280035076e-34
11
5.5921231063048413
21
84.502020891748785
31
3.7178946291652616e-34
0
LINE
5
374
100
AcDbEntity
8
0
100
AcDbLine
10
5.5921231063048413
20
84.502020891748785
30
3.7178946291652616e-34
11
5.3778170292700462
21
84.109913648580275
31
-1.0944908514361314e-34
0
LINE
5
375
100
AcDbEntity
8
0
100
AcDbLine
10
5.3778170292700462
20
84.109913648580275
30
-1.0944908514361314e-34
11
5.2861186363933124
21
83.908736815778084
31
-3.8223841957360476e-35
0
LINE
5
376
100
AcDbEntity
8
0
100
AcDbLine
10
5.2861186363933124
20
83.908736815778084
30
-3.8223841957360476e-35
11
5.2860663385248454
21
83.907808932366208
31
1.8373130420188696e-37
0
ARC
5
377
100
AcDbEntity
8
0
100
AcDbCircle
10
5.5491135420978352
20
83.763565496839902
30
0
40
0.2999999999999996
210
3.1451248869049211e-33
220
5.734282271259058e-33
230
1
100
AcDbArc
50
151.26158737499355
51
176.5038885309045
0
SPLINE
5
378
100
AcDbEntity
8
0
100
AcDbSpline
70
4
71
5
72
15
73
9
74
0
42
0.000000001
43
0.0000000001
44
0.0000000001
40
0
40
0
40
0
40
0
40
0
40
0
40
0.10000000000000001
40
0.20000000000000001
40
0.30000000000000004
40
0.35320368819874426
40
0.35320368819874426
40
0.35320368819874426
40
0.35320368819874426
40
0.35320368819874426
40
0.35320368819874426
41
1
41
1
41
1
41
1
41
1
41
1
41
1
41
1
41
1
10
5.2496718602943062
20
83.781859736334056
30
0
10
5.2424682973942751
20
83.663951200674461
30
0
10
5.2261023644167661
20
83.431778751425213
30
0
10
5.1956774383814004
20
83.094453270857286
30
0
10
5.1486038579177995
20
82.717098936425828
30
0
10
5.0845362833028007
20
82.365336044396429
30
0
10
5.0276833723886947
20
82.127733153112132
30
0
10
4.9887887965402875
20
81.989626085345122
30
0
10
4.9747193621916557
20
81.942360492096924
30
0
0
LINE
5
379
100
AcDbEntity
8
0
100
AcDbLine
10
4.9747193621916566
20
81.942360492096924
30
0
11
4.8474893832986972
21
81.598539870478177
31
-1.1844942294457706e-34
0
LINE
5
380
100
AcDbEntity
8
0
100
AcDbLine
10
4.8474893832986972
20
81.598539870478177
30
-1.1844942294457706e-34
11
4.6798094141117339
21
81.251756298028852
31
-7.7654456861562799e-34
0
LINE
5
381
100
AcDbEntity
8
0
100
AcDbLine
10
4.6798094141117339
20
81.251756298028852
30
-7.7654456861562799e-34
11
4.6307054245657531
21
81.172723761402096
31
-1.8864239210612508e-34
0
SPLINE
5
382
100
AcDbEntity
8
0
100
AcDbSpline
70
4
71
5
72
16
73
10
74
0
42
0.000000001
43
0.0000000001
44
0.0000000001
40
0.54895483461490857
40
0.54895483461490857
40
0.54895483461490857
40
0.54895483461490857
40
0.54895483461490857
40
0.54895483461490857
40
0.59999999999999998
40
0.69999999999999996
40
0.79999999999999993
40
0.89999999999999991
40
0.99972562094274176
40
0.99972562094274176
40
0.99972562094274176
40
0.99972562094274176
40
0.99972562094274176
40
0.99972562094274176
41
1
41
1
41
1
41
1
41
1
41
1
41
1
41
1
41
1
41
1
10
4.6307054245657442
20
81.172723761402082
30
0
10
4.6079382866895173
20
81.138018148157926
30
0
10
4.5386080837237399
20
81.037463939143279
30
0
10
4.4136776733692855
20
80.880864981933996
30
0
10
4.2163142465820851
20
80.686111633368
30
0
10
3.9236414415837229
20
80.47730005343584
30
0
10
3.6269931125581421
20
80.33077633805091
30
0
10
3.3848841892897314
20
80.241317290871933
30
0
10
3.2149571304791715
20
80.190621137425282
30
0
10
3.1279676098757765
20
80.167530611192205
30
0
0
LINE
5
383
100
AcDbEntity
8
0
100
AcDbLine
10
3.1279676098757765
20
80.167530611192205
30
0
11
3.1264744316085773
21
80.16750544782299
31
-6.3285376996302799e-36
0
LINE
5
384
100
AcDbEntity
8
0
100
AcDbLine
10
3.1264744316085773
20
80.16750544782299
30
-6.3285376996302799e-36
11
2.9971466367928068
21
80.188738441863791
31
-1.4997940249191208e-34
0
ARC
5
385
100
AcDbEntity
8
0
100
AcDbCircle
10
0.00017431647975558415
20
63.201240337249907
30
0
40
17.249838693245302
210
9.6514367272009812e-34
220
-1.614439897438821e-34
230
1
100
AcDbArc
50
79.994707190187526
51
81.358046697319807
0
LINE
5
386
100
AcDbEntity
8
0
100
AcDbLine
10
2.5921228952546524
20
80.255235104106433
30
5.0819033542294338e-33
11
2.5685684081910942
21
80.259102271904112
31
-2.331747550903645e-35
0
LINE
5
387
100
AcDbEntity
8
0
100
AcDbLine
10
2.5685684081910942
20
80.259102271904112
30
-2.331747550903645e-35
11
2.5585686840095119
21
80.260301073503086
31
1.6385961623563914e-35
0
ARC
5
388
100
AcDbEntity
8
0
100
AcDbCircle
10
0.00017431647975558415
20
63.201240337249907
30
0
40
17.249838693245302
210
-1.3571341806785599e-33
220
2.0257261144880461e-34
230
1
100
AcDbArc
50
81.470760967025043
51
84.856856580150847
0
LINE
5
389
100
AcDbEntity
8
0
100
AcDbLine
10
1.5465237770559592
20
80.381628525203013
30
-4.0988228304776614e-33
11
1.5376812091662142
21
80.382688602894405
31
-2.0289319750167481e-35
0
LINE
5
390
100
AcDbEntity
8
0
100
AcDbLine
10
1.5376812091662142
20
80.382688602894405
30
-2.0289319750167481e-35
11
1.5287844519965235
21
80.38321595114769
31
-4.528785814146448e-35
0
ARC
5
391
100
AcDbEntity
8
0
100
AcDbCircle
10
0.00017431647975558415
20
63.201240337249907
30
0
40
17.249838693245309
210
-1.2157329292741834e-32
220
1.0842236687132311e-33
230
1
100
AcDbArc
50
84.916013649372601
51
88.299600272805961
0
LINE
5
392
100
AcDbEntity
8
0
100
AcDbLine
10
0.51203253306102781
20
80.443483117964405
30
-9.3053359652048595e-33
11
0.50123162206377569
21
80.444123333431634
31
-4.0431414038998526e-36
0
LINE
5
393
100
AcDbEntity
8
0
100
AcDbLine
10
0.50123162206377569
20
80.444123333431634
30
-4.0431414038998526e-36
11
0.47543288047557264
21
80.444530749474922
31
1.0158982726053808e-34
0
ARC
5
394
100
AcDbEntity
8
0
100
AcDbCircle
10
0.00017431647975558415
20
63.201240337249907
30
0
40
17.249838693245295
210
-2.0027671532651636e-33
220
4.9308594455699444e-35
230
1
100
AcDbArc
50
88.421216767799805
51
89.769293457398177
0
LINE
5
395
100
AcDbEntity
8
0
100
AcDbLine
10
0.069632135628575481
20
80.450939191268844
30
-3.8361512862860066e-33
11
-0.064073343417658371
21
80.45305196739065
31
-5.043547917287126e-35
0
SPLINE
5
396
100
AcDbEntity
8
0
100
AcDbSpline
70
4
71
5
72
16
73
10
74
0
42
0.000000001
43
0.0000000001
44
0.0000000001
40
0.53511986474997331
40
0.53511986474997331
40
0.53511986474997331
40
0.53511986474997331
40
0.53511986474997331
40
0.53511986474997331
40
0.59999999999999998
40
0.69999999999999996
40
0.79999999999999993
40
0.89999999999999991
40
0.99990737672062779
40
0.99990737672062779
40
0.99990737672062779
40
0.99990737672062779
40
0.99990737672062779
40
0.99990737672062779
41
1
41
1
41
1
41
1
41
1
41
1
41
1
41
1
41
1
41
1
10
-1.3866156272829964
20
81.761664857091162
30
0
10
-1.3670442501160485
20
81.712295772726407
30
0
10
-1.3141169897102118
20
81.589276307715508
30
0
10
-1.215952042755847
20
81.401616080777487
30
0
10
-1.0514819912519016
20
81.164903654388979
30
0
10
-0.79273648000255703
20
80.899434164018061
30
0
10
-0.52668044109628664
20
80.702487322919922
30
0
10
-0.30414186396225024
20
80.571398841003344
30
0
10
-0.14574612425958033
20
80.491280984576889
30
0
10
-0.064072461955812274
20
80.453054126473162
30
0
0
SPLINE
5
397
100
AcDbEntity
8
0
100
AcDbSpline
70
4
71
5
72
12
73
6
74
0
42
0.000000001
43
0.0000000001
44
0.0000000001
40
0.52534471479679146
40
0.52534471479679146
40
0.52534471479679146
40
0.52534471479679146
40
0.52534471479679146
40
0.52534471479679146
40
0.53511986474997264
40
0.53511986474997264
40
0.53511986474997264
40
0.53511986474997264
40
0.53511986474997264
40
0.53511986474997264
41
1
41
1
41
1
41
1
41
1
41
1
10
-1.401074618229043
20
81.799073915379893
30
0
10
-1.3982396567482727
20
81.791548477658608
30
0
10
-1.3953763199365907
20
81.784044849569867
30
0
10
-1.3924845626991442
20
81.776563035727492
30
0
10
-1.3895643441107277
20
81.769103038298056
30
0
10
-1.3866156272829975
20
81.761664857091162
30
0
0
LINE
5
398
100
AcDbEntity
8
0
100
AcDbLine
10
-1.401074618229043
20
81.799073915379893
30
0
11
-1.5036259272742094
21
82.166947033370718
31
-3.9768744591478283e-34
0
LINE
5
399
100
AcDbEntity
8
0
100
AcDbLine
10
-1.5036259272742094
20
82.166947033370718
30
-3.9768744591478283e-34
11
-1.5657872222249059
21
82.51668031683235
31
1.5941677860317615e-34
0
SPLINE
5
400
100
AcDbEntity
8
0
100
AcDbSpline
70
4
71
5
72
15
73
9
74
0
42
0.000000001
43
0.0000000001
44
0.0000000001
40
0
40
0
40
0
40
0
40
0
40
0
40
0.10000000000000001
40
0.20000000000000001
40
0.30000000000000004
40
0.35565468849103898
40
0.35565468849103898
40
0.35565468849103898
40
0.35565468849103898
40
0.35565468849103898
40
0.35565468849103898
41
1
41
1
41
1
41
1
41
1
41
1
41
1
41
1
41
1
10
-1.5109965728825374
20
84.387046993986573
30
0
10
-1.5248447687836224
20
84.269733134745124
30
0
10
-1.549966299650257
20
84.038344287478139
30
0
10
-1.5799245213190298
20
83.700977038150214
30
0
10
-1.6007502049390785
20
83.318625764027388
30
0
10
-1.6000114386522799
20
82.958750283595165
30
0
10
-1.5858595996907396
20
82.71270919125952
30
0
10
-1.5716219843573451
20
82.567838229863085
30
0
10
-1.5657872222250633
20
82.516680316833728
30
0
0
ARC
5
401
100
AcDbEntity
8
0
100
AcDbCircle
10
-1.8089280085807031
20
84.422216009082618
30
0
40
0.29999999999999288
210
-2.3824453905268693e-34
220
-2.0182691318871744e-33
230
1
100
AcDbArc
50
-6.7322677163136051
51
18.648456547478869
0
ARC
5
402
100
AcDbEntity
8
0
100
AcDbCircle
10
-12.1885590084855
20
80.919308927851944
30
0
40
11.254775110148108
210
-6.4143094746856337e-34
220
2.9025038964256593e-33
230
1
100
AcDbArc
50
18.648456547477497
51
18.670076564249783
0
LINE
5
403
100
AcDbEntity
8
0
100
AcDbLine
10
-1.5260372583264425
20
84.522167890869341
30
3.332081391327834e-32
11
-1.5795753659430121
21
84.732580756554171
31
2.2332148435686102e-34
0
LINE
5
404
100
AcDbEntity
8
0
100
AcDbLine
10
-1.5795753659430121
20
84.732580756554171
30
2.2332148435686102e-34
11
-1.7208480173234875
21
85.156511342406588
31
-9.9234567289070366e-36
0
LINE
5
405
100
AcDbEntity
8
0
100
AcDbLine
10
-1.7208480173234875
20
85.156511342406588
30
-9.9234567289070366e-36
11
-1.9537962704933185
21
85.699237153813613
31
-8.4980567560803685e-34
0
LINE
5
406
100
AcDbEntity
8
0
100
AcDbLine
10
-1.9537962704933185
20
85.699237153813613
30
-8.4980567560803685e-34
11
-2.3004333433987521
21
86.350931341997367
31
1.8173567402882296e-34
0
LINE
5
407
100
AcDbEntity
8
0
100
AcDbLine
10
-2.3004333433987521
20
86.350931341997367
30
1.8173567402882296e-34
11
-2.5207576122317854
21
86.709950480096879
31
6.9417226115923699e-34
0
LINE
5
408
100
AcDbEntity
8
0
100
AcDbLine
10
-2.5207576122317854
20
86.709950480096879
30
6.9417226115923699e-34
11
-2.7690618585109572
21
87.07910082544322
31
8.8104463887128698e-34
0
ARC
5
409
100
AcDbEntity
8
0
100
AcDbCircle
10
-12.1885590084855
20
80.919308927851944
30
0
40
11.254775110148119
210
1.3839257899882069e-33
220
-2.2593181563298526e-33
230
1
100
AcDbArc
50
33.182303446874691
51
54.714379163513016
0
LINE
5
410
100
AcDbEntity
8
0
100
AcDbLine
10
-5.6872068188535678
20
90.106385856145181
30
4.7520398077000178e-33
11
-5.6873329672204171
21
90.106352324110958
31
-4.6141177061666028e-37
0
LINE
5
411
100
AcDbEntity
8
0
100
AcDbLine
10
-5.6873329672204171
20
90.106352324110958
30
-4.6141177061666028e-37
11
-5.68758643152748
21
90.106559800282113
31
-2.8084330564938541e-37
0
ARC
5
412
100
AcDbEntity
8
0
100
AcDbCircle
10
5.5081797929853562e-05
20
63.201156364988719
30
0
40
27.500000000000004
210
-7.2692133217149945e-33
220
-1.5366578209440551e-33
230
1
100
AcDbArc
50
101.93625578555056
51
107.83537268555057
0
LINE
5
413
100
AcDbEntity
8
0
100
AcDbLine
10
-8.4227291404755462
20
89.379519681762787
30
7.522088386942894e-33
11
-8.4248648176841012
21
89.373934483038994
31
6.912762269942327e-36
0
ARC
5
414
100
AcDbEntity
8
0
100
AcDbCircle
10
1.7826874418351177
20
84.63306540140492
30
0
40
11.254775110148127
210
-5.9040433276148247e-34
220
-1.272656076193468e-33
230
1
100
AcDbArc
50
155.08761991908403
51
176.46042057873757
0
LINE
5
415
100
AcDbEntity
8
0
100
AcDbLine
10
-9.4506179296475565
20
85.327913018532811
30
-1.2455500597446095e-31
11
-9.4514543999196583
21
85.320649089793733
31
-5.2821642932255685e-37
0
LINE
5
416
100
AcDbEntity
8
0
100
AcDbLine
10
-9.4514543999196583
20
85.320649089793733
30
-5.2821642932255685e-37
11
-9.4850065140797604
21
84.858753684832934
31
2.5575095133483676e-35
0
LINE
5
417
100
AcDbEntity
8
0
100
AcDbLine
10
-9.4850065140797604
20
84.858753684832934
30
2.5575095133483676e-35
11
-9.4979810928369286
21
84.437720131922575
31
5.5546355468050392e-35
0
LINE
5
418
100
AcDbEntity
8
0
100
AcDbLine
10
-9.4979810928369286
20
84.437720131922575
30
5.5546355468050392e-35
11
-9.4752716149167568
21
83.699921649583018
31
7.3682431029626188e-35
0
LINE
5
419
100
AcDbEntity
8
0
100
AcDbLine
10
-9.4752716149167568
20
83.699921649583018
30
7.3682431029626188e-35
11
-9.4079858300106132
21
83.113160453701894
31
6.7788715872131805e-35
0
LINE
5
420
100
AcDbEntity
8
0
100
AcDbLine
10
-9.4079858300106132
20
83.113160453701894
30
6.7788715872131805e-35
11
-9.3201122161945591
21
82.675035481161657
31
2.3998773280242816e-34
0
LINE
5
421
100
AcDbEntity
8
0
100
AcDbLine
10
-9.3201122161945591
20
82.675035481161657
30
2.3998773280242816e-34
11
-9.2610430123913474
21
82.46198263234578
31
6.054605207044673e-35
0
LINE
5
422
100
AcDbEntity
8
0
100
AcDbLine
10
-9.2610430123913474
20
82.46198263234578
30
6.054605207044673e-35
11
-9.260574372988934
21
82.461355598362118
31
-5.316839703984979e-37
0
ARC
5
423
100
AcDbEntity
8
0
100
AcDbCircle
10
-8.9662994634608246
20
82.519684644490283
30
0
40
0.2999999999999976
210
7.4604472166177327e-35
220
-3.8550104553544341e-34
230
1
100
AcDbArc
50
191.21143669097489
51
216.50388853090388
0
SPLINE
5
424
100
AcDbEntity
8
0
100
AcDbSpline
70
4
71
5
72
15
73
9
74
0
42
0.000000001
43
0.0000000001
44
0.0000000001
40
0
40
0
40
0
40
0
40
0
40
0
40
0.10000000000000001
40
0.20000000000000001
40
0.30000000000000004
40
0.35347493276818426
40
0.35347493276818426
40
0.35347493276818426
40
0.35347493276818426
40
0.35347493276818426
40
0.35347493276818426
41
1
41
1
41
1
41
1
41
1
41
1
41
1
41
1
41
1
10
-9.2074444103201074
20
82.341221442108861
30
0
10
-9.1371725138520716
20
82.246267902592805
30
0
10
-9.0004719721779516
20
82.057893669061187
30
0
10
-8.8069501783590294
20
81.779930593668539
30
0
10
-8.6002933610859209
20
81.460356858474526
30
0
10
-8.4231498382948207
20
81.149477114467729
30
0
10
-8.3138945808104978
20
80.930693136144839
30
0
10
-8.2548492981963388
20
80.799672142860317
30
0
10
-8.2351634230966315
20
80.754193748505912
30
0
0
LINE
5
425
100
AcDbEntity
8
0
100
AcDbLine
10
-8.2351634230966315
20
80.754193748505898
30
0
11
-8.1120863719843523
21
80.410323828891862
31
4.3297905222630002e-34
0
LINE
5
426
100
AcDbEntity
8
0
100
AcDbLine
10
-8.1120863719843523
20
80.410323828891862
30
4.3297905222630002e-34
11
-8.0176289991235965
21
80.036889517378441
31
-4.5191556023267035e-34
0
LINE
5
427
100
AcDbEntity
8
0
100
AcDbLine
10
-8.0176289991235965
20
80.036889517378441
30
-4.5191556023267035e-34
11
-8.0047530754914966
21
79.946946270283462
31
-1.1736727076602161e-35
0
SPLINE
5
428
100
AcDbEntity
8
0
100
AcDbSpline
70
4
71
5
72
16
73
10
74
0
42
0.000000001
43
0.0000000001
44
0.0000000001
40
0.54838451772430774
40
0.54838451772430774
40
0.54838451772430774
40
0.54838451772430774
40
0.54838451772430774
40
0.54838451772430774
40
0.59999999999999998
40
0.69999999999999996
40
0.79999999999999993
40
0.89999999999999991
40
0.99964975373784104
40
0.99964975373784104
40
0.99964975373784104
40
0.99964975373784104
40
0.99964975373784104
40
0.99964975373784104
41
1
41
1
41
1
41
1
41
1
41
1
41
1
41
1
41
1
41
1
10
-8.0047530754914948
20
79.946946270283448
30
0
10
-7.9997870284814976
20
79.905259443417194
30
0
10
-7.9881214029879306
20
79.783194222180242
30
0
10
-7.9830452502167093
20
79.582460802747505
30
0
10
-8.0090199031457239
20
79.305951739024664
30
0
10
-8.0990974804026656
20
78.957484521544714
30
0
10
-8.2321242915746407
20
78.654615378224236
30
0
10
-8.3600406623510199
20
78.430516382313371
30
0
10
-8.4575743851169118
20
78.282508623477085
30
0
10
-8.5093211803904314
20
78.208959473756067
30
0
0
LINE
5
429
100
AcDbEntity
8
0
100
AcDbLine
10
-8.5093211803904314
20
78.208959473756067
30
0
11
-8.5106094792382141
21
78.207840937996693
31
-7.5080493279225554e-36
0
LINE
5
430
100
AcDbEntity
8
0
100
AcDbLine
10
-8.5106094792382141
20
78.207840937996693
30
-7.5080493279225554e-36
11
-8.6309757582941096
21
78.136439811301614
31
-1.1352070513620346e-34
0
ARC
5
431
100
AcDbEntity
8
0
100
AcDbCircle
10
0.00017431647975558415
20
63.201240337249907
30
0
40
17.249838693245316
210
1.557459983285781e-34
220
9.7607520595114213e-35
230
1
100
AcDbArc
50
120.02390000971801
51
121.32883036989325
0
LINE
5
432
100
AcDbEntity
8
0
100
AcDbLine
10
-8.9688620079796859
20
77.936006109175509
30
-5.0443202709110433e-32
11
-8.9968678360255616
21
77.919393086888874
31
4.813507308584148e-35
0
LINE
5
433
100
AcDbEntity
8
0
100
AcDbLine
10
-8.9968678360255616
20
77.919393086888874
30
4.813507308584148e-35
11
-9.0081685363763899
21
77.912008297773895
31
-1.5938990237125367e-35
0
ARC
5
434
100
AcDbEntity
8
0
100
AcDbCircle
10
0.00017431647975558415
20
63.201240337249907
30
0
40
17.249838693245319
210
-8.1309015270899302e-35
220
-4.8707212177774681e-35
230
1
100
AcDbArc
50
121.48179732693424
51
124.84588155998543
0
LINE
5
435
100
AcDbEntity
8
0
100
AcDbLine
10
-9.8558823707354914
20
77.358043702465608
30
1.5573484080808862e-32
11
-9.8660126129740213
21
77.351423785089523
31
1.3464475618500156e-35
0
LINE
5
436
100
AcDbEntity
8
0
100
AcDbLine
10
-9.8660126129740213
20
77.351423785089523
30
1.3464475618500156e-35
11
-9.8757295977168074
21
77.344205260509113
31
-1.8748788718842859e-35
0
ARC
5
437
100
AcDbEntity
8
0
100
AcDbCircle
10
0.00017431647975558415
20
63.201240337249907
30
0
40
17.249838693245316
210
-6.8758791699102746e-33
220
-4.8000382937594331e-33
230
1
100
AcDbArc
50
124.92624703457427
51
128.28936968063164
0
LINE
5
438
100
AcDbEntity
8
0
100
AcDbLine
10
-10.688402199378972
20
76.740489467375866
30
5.8712887990875411e-32
11
-10.699468505813797
21
76.732268562730127
31
9.871903294716158e-36
0
LINE
5
439
100
AcDbEntity
8
0
100
AcDbLine
10
-10.699468505813797
20
76.732268562730127
30
9.871903294716158e-36
11
-10.725341092885534
21
76.711246042150663
31
-7.4434176312160719e-36
0
ARC
5
440
100
AcDbEntity
8
0
100
AcDbCircle
10
0.00017431647975558415
20
63.201240337249907
30
0
40
17.249838693245316
210
-6.1139648237263796e-33
220
-4.8532903644725052e-33
230
1
100
AcDbArc
50
128.44585764268919
51
129.74464421426293
0
LINE
5
441
100
AcDbEntity
8
0
100
AcDbLine
10
-11.02880555652871
20
76.464668925053189
30
-2.4996516951211809e-32
11
-11.138255448477736
21
76.375736473129663
31
-4.5127186515108421e-34
0
LINE
5
442
100
AcDbEntity
8
0
100
AcDbLine
10
-11.138255448477736
20
76.375736473129663
30
-4.5127186515108421e-34
11
-11.138702974868712
21
76.375490381034595
31
-3.101163184652537e-38
0
SPLINE
5
443
100
AcDbEntity
8
0
100
AcDbSpline
70
4
71
5
72
16
73
10
74
0
42
0.000000001
43
0.0000000001
44
0.0000000001
40
0.54130171314292919
40
0.54130171314292919
40
0.54130171314292919
40
0.54130171314292919
40
0.54130171314292919
40
0.54130171314292919
40
0.59999999999999998
40
0.69999999999999996
40
0.79999999999999993
40
0.89999999999999991
40
0.9998135288424802
40
0.9998135288424802
40
0.9998135288424802
40
0.9998135288424802
40
0.9998135288424802
40
0.9998135288424802
41
1
41
1
41
1
41
1
41
1
41
1
41
1
41
1
41
1
41
1
10
-12.970287332730233
20
76.516055326324249
30
0
10
-12.927894093137899
20
76.493753845460162
30
0
10
-12.812512351982745
20
76.436877853861915
30
0
10
-12.620980451162019
20
76.359277350394962
30
0
10
-12.347355501396875
20
76.285720469084112
30
0
10
-11.983484775537905
20
76.249177615488492
30
0
10
-11.653159633923236
20
76.269308174679168
30
0
10
-11.398507203586565
20
76.311903057591408
30
0
10
-11.225755679258967
20
76.352308119861249
30
0
10
-11.138702974868711
20
76.375490381034595
30
0
0
LINE
5
444
100
AcDbEntity
8
0
100
AcDbLine
10
-12.970287332730233
20
76.516055326324249
30
0
11
-13.014823151865929
21
76.540110800896173
31
-1.3200710262336741e-34
0
LINE
5
445
100
AcDbEntity
8
0
100
AcDbLine
10
-13.026363104507057
20
76.546549600698654
30
0
11
-13.014823151865929
21
76.540110800896173
31
-1.3200710262336741e-34
0
LINE
5
446
100
AcDbEntity
8
0
100
AcDbLine
10
-13.026363104507057
20
76.546549600698654
30
0
11
-13.342687748782339
21
76.763330458954755
31
-1.2882647240816395e-33
0
LINE
5
447
100
AcDbEntity
8
0
100
AcDbLine
10
-13.342687748782339
20
76.763330458954755
30
-1.2882647240816395e-33
11
-13.616666683836719
21
76.992587358138678
31
3.1348600496366503e-34
0
SPLINE
5
448
100
AcDbEntity
8
0
100
AcDbSpline
70
4
71
5
72
15
73
9
74
0
42
0.000000001
43
0.0000000001
44
0.0000000001
40
0
40
0
40
0
40
0
40
0
40
0
40
0.10000000000000001
40
0.20000000000000001
40
0.30000000000000004
40
0.35520189960591486
40
0.35520189960591486
40
0.35520189960591486
40
0.35520189960591486
40
0.35520189960591486
40
0.35520189960591486
41
1
41
1
41
1
41
1
41
1
41
1
41
1
41
1
41
1
10
-14.775423766084314
20
78.459147875835029
30
0
10
-14.710624204436652
20
78.360378797120546
30
0
10
-14.581134529516824
20
78.166976847694542
30
0
10
-14.387228370969892
20
77.889281767359634
30
0
10
-14.157703692150907
20
77.583387142198632
30
0
10
-13.92611212085993
20
77.308492251738869
30
0
10
-13.757426464872006
20
77.129362960497247
30
0
10
-13.653711055307667
20
77.027769040674315
30
0
10
-13.616666683837657
20
76.992587358139559
30
0
0
ARC
5
449
100
AcDbEntity
8
0
100
AcDbCircle
10
-15.026258693979983
20
78.294582269016445
30
0
40
0.29999999999999349
210
-2.1786430997227302e-34
220
3.3207411645360653e-34
230
1
100
AcDbArc
50
33.267732283680914
51
58.648456547474375
0
ARC
5
450
100
AcDbEntity
8
0
100
AcDbCircle
10
-20.725892073384216
20
68.939301564820454
30
0
40
11.254775110148108
210
8.9348166342336961e-33
220
-5.5742369808507561e-33
230
1
100
AcDbArc
50
58.648456547477409
51
58.66108658136541
0
LINE
5
451
100
AcDbEntity
8
0
100
AcDbLine
10
-14.872291276319022
20
78.552070182061129
30
4.2810671126777764e-32
11
-15.050026342308753
21
78.679900670963846
31
5.5771922100699575e-34
0
LINE
5
452
100
AcDbEntity
8
0
100
AcDbLine
10
-15.050026342308753
20
78.679900670963846
30
5.5771922100699575e-34
11
-15.430745032829392
21
78.913842381540405
31
-1.463201902425664e-33
0
LINE
5
453
100
AcDbEntity
8
0
100
AcDbLine
10
-15.430745032829392
20
78.913842381540405
30
-1.463201902425664e-33
11
-15.958051213666526
21
79.179858058900209
31
-1.493753706588912e-34
0
LINE
5
454
100
AcDbEntity
8
0
100
AcDbLine
10
-15.958051213666526
20
79.179858058900209
30
-1.493753706588912e-34
11
-16.642491550217578
21
79.456270259432571
31
2.2928700339291393e-34
0
LINE
5
455
100
AcDbEntity
8
0
100
AcDbLine
10
-16.642491550217578
20
79.456270259432571
30
2.2928700339291393e-34
11
-17.042042610321985
21
79.589673416755375
31
1.4962450027095304e-33
0
LINE
5
456
100
AcDbEntity
8
0
100
AcDbLine
10
-17.042042610321985
20
79.589673416755375
30
1.4962450027095304e-33
11
-17.48071017131992
21
79.716070895307382
31
4.0165719307847102e-34
0
ARC
5
457
100
AcDbEntity
8
0
100
AcDbCircle
10
-20.725892073384216
20
68.939301564820454
30
0
40
11.254775110148117
210
-5.2744615459776829e-33
220
1.5510149142541906e-33
230
1
100
AcDbArc
50
73.241505768190763
51
94.71190637591009
0
LINE
5
458
100
AcDbEntity
8
0
100
AcDbLine
10
-21.650422480192578
20
80.156039339543383
30
-2.6476582969247182e-32
11
-21.651272465371424
21
80.156028990801431
31
3.4245089543521462e-36
0
ARC
5
459
100
AcDbEntity
8
0
100
AcDbCircle
10
0.00017431647975558415
20
63.201240337249907
30
0
40
27.500000109707877
210
5.5399853404496795e-34
220
7.0726008522860524e-34
230
1
100
AcDbArc
50
141.93625767092925
51
147.83537481819272
0
LINE
5
460
100
AcDbEntity
8
0
100
AcDbLine
10
-23.279180952262656
20
77.840967940781638
30
5.0046127961709688e-32
11
-23.277564795168402
21
77.836293933729934
31
2.937826041988802e-36
0
ARC
5
461
100
AcDbEntity
8
0
100
AcDbCircle
10
-12.410453013263387
20
80.764748184625972
30
0
40
11.254775110148127
210
6.9078524724452842e-34
220
-2.5624107567189118e-33
230
1
100
AcDbArc
50
195.08172818569022
51
216.47076652668136
0
LINE
5
462
100
AcDbEntity
8
0
100
AcDbLine
10
-21.461095742046659
20
74.074768440566018
30
-1.0762460359187169e-31
11
-21.458238739563242
21
74.070440680959493
31
-7.0176937410285122e-37
0
LINE
5
463
100
AcDbEntity
8
0
100
AcDbLine
10
-21.458238739563242
20
74.070440680959493
30
-7.0176937410285122e-37
11
-21.18704032844412
21
73.69504153952802
31
-5.1721771525195435e-34
0
LINE
5
464
100
AcDbEntity
8
0
100
AcDbLine
10
-21.18704032844412
20
73.69504153952802
30
-5.1721771525195435e-34
11
-20.926344407866427
21
73.364171431427962
31
8.2823589954370631e-34
0
LINE
5
465
100
AcDbEntity
8
0
100
AcDbLine
10
-20.926344407866427
20
73.364171431427962
30
8.2823589954370631e-34
11
-20.43470023530795
21
72.813582119899365
31
-1.1742184687947275e-33
0
LINE
5
466
100
AcDbEntity
8
0
100
AcDbLine
10
-20.43470023530795
20
72.813582119899365
30
-1.1742184687947275e-33
11
-20.005993535509518
21
72.407347612152378
31
1.5845030184160945e-33
0
LINE
5
467
100
AcDbEntity
8
0
100
AcDbLine
10
-20.005993535509518
20
72.407347612152378
30
1.5845030184160945e-33
11
-19.657056801467011
21
72.128208544408352
31
-1.7858846583577009e-33
0
LINE
5
468
100
AcDbEntity
8
0
100
AcDbLine
10
-19.657056801467011
20
72.128208544408352
30
-1.7858846583577009e-33
11
-19.474859490989072
21
72.002969552478518
31
-1.5115821332383585e-34
0
LINE
5
469
100
AcDbEntity
8
0
100
AcDbLine
10
-19.474859490989072
20
72.002969552478518
30
-1.5115821332383585e-34
11
-19.474395798856179
21
72.002860573036571
31
5.0163327897388327e-37
0
ARC
5
470
100
AcDbEntity
8
0
100
AcDbCircle
10
-19.286199736129319
20
72.236489000189849
30
0
40
0.30000000000000798
210
-1.7908335821294824e-33
220
1.4447277094980467e-33
230
1
100
AcDbArc
50
231.14731200910381
51
256.50388853090499
0
SPLINE
5
471
100
AcDbEntity
8
0
100
AcDbSpline
70
4
71
5
72
15
73
9
74
0
42
0.000000001
43
0.0000000001
44
0.0000000001
40
0
40
0
40
0
40
0
40
0
40
0
40
0.10000000000000001
40
0.20000000000000001
40
0.30000000000000004
40
0.35394129604607938
40
0.35394129604607938
40
0.35394129604607938
40
0.35394129604607938
40
0.35394129604607938
40
0.35394129604607938
41
1
41
1
41
1
41
1
41
1
41
1
41
1
41
1
41
1
10
-19.356213547381337
20
71.944773271724671
30
0
10
-19.241347192887769
20
71.917204544782749
30
0
10
-19.015543879268634
20
71.860770924384624
30
0
10
-18.688626363678459
20
71.772232266358927
30
0
10
-18.324420131155016
20
71.660113292748179
30
0
10
-17.988485236862484
20
71.535651016405978
30
0
10
-17.763806514640457
20
71.438071127415498
30
0
10
-17.634021483930656
20
71.375435508679615
30
0
10
-17.589349651845598
20
71.353041986224682
30
0
0
LINE
5
472
100
AcDbEntity
8
0
100
AcDbLine
10
-17.589349651845602
20
71.353041986224667
30
0
11
-17.27592690510232
21
71.1698421665117
31
-3.6098296484417122e-34
0
LINE
5
473
100
AcDbEntity
8
0
100
AcDbLine
10
-17.27592690510232
20
71.1698421665117
30
-3.6098296484417122e-34
11
-16.963529114378492
21
70.944491444656038
31
-1.359709726740339e-33
0
LINE
5
474
100
AcDbEntity
8
0
100
AcDbLine
10
-16.963529114378492
20
70.944491444656038
30
-1.359709726740339e-33
11
-16.900100459518129
21
70.88767364396108
31
1.0963473633881503e-34
0
SPLINE
5
475
100
AcDbEntity
8
0
100
AcDbSpline
70
4
71
5
72
16
73
10
74
0
42
0.000000001
43
0.0000000001
44
0.0000000001
40
0.54696561607936012
40
0.54696561607936012
40
0.54696561607936012
40
0.54696561607936012
40
0.54696561607936012
40
0.54696561607936012
40
0.59999999999999998
40
0.69999999999999996
40
0.79999999999999993
40
0.89999999999999991
40
0.99966295296290741
40
0.99966295296290741
40
0.99966295296290741
40
0.99966295296290741
40
0.99966295296290741
40
0.99966295296290741
41
1
41
1
41
1
41
1
41
1
41
1
41
1
41
1
41
1
41
1
10
-16.900100459518104
20
70.887673643961065
30
0
10
-16.868563660622129
20
70.858202534706123
30
0
10
-16.780140268239329
20
70.771521430253898
30
0
10
-16.64624670049314
20
70.620312507401025
30
0
10
-16.487620677535077
20
70.390975599386593
30
0
10
-16.332141840420572
20
70.065102579106608
30
0
10
-16.239364162314459
20
69.747571896889937
30
0
10
-16.193305771271135
20
69.493666470436438
30
0
10
-16.172884070038208
20
69.317579469344935
30
0
10
-16.165248276426432
20
69.227962572195366
30
0
0
LINE
5
476
100
AcDbEntity
8
0
100
AcDbLine
10
-16.165248276426432
20
69.227962572195366
30
0
11
-16.165484505346409
21
69.226476882837687
31
6.8868595480889756e-37
0
LINE
5
477
100
AcDbEntity
8
0
100
AcDbLine
10
-16.165484505346409
20
69.226476882837687
30
6.8868595480889756e-37
11
-16.212180037876703
21
69.093311385002337
31
-1.9466367250750142e-34
0
ARC
5
478
100
AcDbEntity
8
0
100
AcDbCircle
10
0.00017431647975558415
20
63.201240337249907
30
0
40
17.249838693245312
210
7.334854902337707e-34
220
2.0512635126093091e-33
230
1
100
AcDbArc
50
160.02728990453403
51
161.32547003684087
0
LINE
5
479
100
AcDbEntity
8
0
100
AcDbLine
10
-16.341507085038611
20
68.72449878804251
30
-7.2336108626318011e-32
11
-16.35256906764868
21
68.692952420724978
31
-3.8995084346208237e-35
0
LINE
5
480
100
AcDbEntity
8
0
100
AcDbLine
10
-16.35256906764868
20
68.692952420724978
30
-3.8995084346208237e-35
11
-16.356572409019961
21
68.679722928336361
31
7.5757217301927467e-36
0
ARC
5
481
100
AcDbEntity
8
0
100
AcDbCircle
10
0.00017431647975558415
20
63.201240337249907
30
0
40
17.249838693245312
210
2.6826424616199157e-34
220
7.9955617918280719e-34
230
1
100
AcDbArc
50
161.48238682634093
51
164.84521350644295
0
LINE
5
482
100
AcDbEntity
8
0
100
AcDbLine
10
-16.64976835634392
20
67.710823902798808
30
6.4227773204513365e-32
11
-16.653289606337211
21
67.699187535658396
31
-7.8746929053999008e-36
0
LINE
5
483
100
AcDbEntity
8
0
100
AcDbLine
10
-16.653289606337211
20
67.699187535658396
30
-7.8746929053999008e-36
11
-16.656104699554358
21
67.687363862411132
31
6.896514830819805e-36
0
ARC
5
484
100
AcDbEntity
8
0
100
AcDbCircle
10
0.00017431647975558415
20
63.201240337249907
30
0
40
17.249838693245316
210
-1.2668054444354434e-33
220
-4.7049889148159664e-33
230
1
100
AcDbArc
50
164.92592882093757
51
168.28969091367281
0
LINE
5
485
100
AcDbEntity
8
0
100
AcDbLine
10
-16.890631543021431
20
66.702327648303921
30
9.0254861223412782e-32
11
-16.893768604287583
21
66.689151677027127
31
-4.0349144927196787e-37
0
LINE
5
486
100
AcDbEntity
8
0
100
AcDbLine
10
-16.893768604287583
20
66.689151677027127
30
-4.0349144927196787e-37
11
-16.899950473483557
21
66.657063976652054
31
-5.4134370365325002e-36
0
ARC
5
487
100
AcDbEntity
8
0
100
AcDbCircle
10
0.00017431647975558415
20
63.201240337249907
30
0
40
17.249838693245316
210
-1.0913677462415124e-34
220
-5.321485889262188e-34
230
1
100
AcDbArc
50
168.44318865699844
51
169.74733479718407
0
LINE
5
488
100
AcDbEntity
8
0
100
AcDbLine
10
-16.974226184666726
20
66.271527387292863
30
-1.7288623519243905e-31
11
-17.000724411924665
21
66.133985302561143
31
8.6132798832505451e-36
0
LINE
5
489
100
AcDbEntity
8
0
100
AcDbLine
10
-17.000724411924665
20
66.133985302561143
30
8.6132798832505451e-36
11
-17.000985444015722
21
66.133312108975147
31
1.0063565051395106e-37
0
SPLINE
5
490
100
AcDbEntity
8
0
100
AcDbSpline
70
4
71
5
72
16
73
10
74
0
42
0.000000001
43
0.0000000001
44
0.0000000001
40
0.54373526777619785
40
0.54373526777619785
40
0.54373526777619785
40
0.54373526777619785
40
0.54373526777619785
40
0.54373526777619785
40
0.59999999999999998
40
0.69999999999999996
40
0.79999999999999993
40
0.89999999999999991
40
0.99979810394943835
40
0.99979810394943835
40
0.99979810394943835
40
0.99979810394943835
40
0.99979810394943835
40
0.99979810394943835
41
1
41
1
41
1
41
1
41
1
41
1
41
1
41
1
41
1
41
1
10
-18.484680638768353
20
65.065855446884086
30
0
10
-18.439905788327664
20
65.075782912164897
30
0
10
-18.317071640651807
20
65.106293439091914
30
0
10
-18.122529563992767
20
65.169783427309085
30
0
10
-17.86751990452678
20
65.288787262000341
30
0
10
-17.566903721009691
20
65.493585673690092
30
0
10
-17.326808015048048
20
65.721324838352984
30
0
10
-17.15911975532039
20
65.917629111594579
30
0
10
-17.05276324412738
20
66.059610179215667
30
0
10
-17.000985444015726
20
66.133312108975161
30
0
0
LINE
5
491
100
AcDbEntity
8
0
100
AcDbLine
10
-18.484680638768353
20
65.065855446884086
30
0
11
-18.553785024547196
21
65.05163911430688
31
1.5384569481678385e-34
0
LINE
5
492
100
AcDbEntity
8
0
100
AcDbLine
10
-18.553785024547196
20
65.05163911430688
30
1.5384569481678385e-34
11
-18.555431513522741
21
65.05132690561588
31
6.2958176117025421e-36
0
LINE
5
493
100
AcDbEntity
8
0
100
AcDbLine
10
-18.555431513522741
20
65.05132690561588
30
6.2958176117025421e-36
11
-18.938558278637693
21
65.013917885212834
31
1.8811762255713391e-33
0
LINE
5
494
100
AcDbEntity
8
0
100
AcDbLine
10
-18.938558278637693
20
65.013917885212834
30
1.8811762255713391e-33
11
-19.298056762725345
21
65.013425596661648
31
-1.7177708527885451e-33
0
SPLINE
5
495
100
AcDbEntity
8
0
100
AcDbSpline
70
4
71
5
72
15
73
9
74
0
42
0.000000001
43
0.0000000001
44
0.0000000001
40
0
40
0
40
0
40
0
40
0
40
0
40
0.10000000000000001
40
0.20000000000000001
40
0.30000000000000004
40
0.35472160257980268
40
0.35472160257980268
40
0.35472160257980268
40
0.35472160257980268
40
0.35472160257980268
40
0.35472160257980268
41
1
41
1
41
1
41
1
41
1
41
1
41
1
41
1
41
1
10
-21.126184403973234
20
65.391904247625817
30
0
10
-21.013057519838672
20
65.357895099064848
30
0
10
-20.789546297144796
20
65.292974969039477
30
0
10
-20.462506604993184
20
65.20488867202333
30
0
10
-20.090558846736037
20
65.118212774038369
30
0
10
-19.736904430038624
20
65.056544855413961
30
0
10
-19.492963760581887
20
65.027748681550179
30
0
10
-19.348622113084861
20
65.016565968712314
30
0
10
-19.298056762726542
20
65.013425596661719
30
0
0
ARC
5
496
100
AcDbEntity
8
0
100
AcDbCircle
10
-21.212554373584318
20
65.104606095265979
30
0
40
0.29999999999999416
210
-5.8769162761461425e-33
220
1.7667676454176352e-33
230
1
100
AcDbArc
50
73.267732283683074
51
98.648456547477608
0
ARC
5
497
100
AcDbEntity
8
0
100
AcDbCircle
10
-19.565268329895638
20
54.274391581961581
30
0
40
11.254775110148108
210
-5.8562691801924943e-33
220
-7.8353727419377651e-34
230
1
100
AcDbArc
50
98.648456547477451
51
98.651966972259075
0
LINE
5
498
100
AcDbEntity
8
0
100
AcDbLine
10
-21.258347544774981
20
65.401091252221107
30
-6.2995052783348058e-33
11
-21.478402847952438
21
65.384640054606095
31
4.8016041727186483e-34
0
LINE
5
499
100
AcDbEntity
8
0
100
AcDbLine
10
-21.478402847952438
20
65.384640054606095
30
4.8016041727186483e-34
11
-21.920424820476455
21
65.319128385391906
31
-5.2511147837210331e-34
0
LINE
5
500
100
AcDbEntity
8
0
100
AcDbLine
10
-21.920424820476455
20
65.319128385391906
30
-5.2511147837210331e-34
11
-22.495356798466215
21
65.183962148658068
31
-3.0491287297646143e-33
0
LINE
5
501
100
AcDbEntity
8
0
100
AcDbLine
10
-22.495356798466215
20
65.183962148658068
30
-3.0491287297646143e-33
11
-23.197343045609582
21
64.955756698357646
31
2.5844868791109987e-33
0
LINE
5
502
100
AcDbEntity
8
0
100
AcDbLine
10
-23.197343045609582
20
64.955756698357646
30
2.5844868791109987e-33
11
-23.589166450504521
21
64.80112301275588
31
1.0147869678135735e-34
0
LINE
5
503
100
AcDbEntity
8
0
100
AcDbLine
10
-23.589166450504521
20
64.80112301275588
30
1.0147869678135735e-34
11
-24.012482778084348
21
64.613302827895907
31
-1.0527011663066226e-33
0
LINE
5
504
100
AcDbEntity
8
0
100
AcDbLine
10
-24.012482778084348
20
64.613302827895907
30
-1.0527011663066226e-33
11
-24.01310790829119
21
64.612993318408712
31
2.3706479381901272e-36
0
ARC
5
505
100
AcDbEntity
8
0
100
AcDbCircle
10
-19.565268329895638
20
54.274391581961581
30
0
40
11.254775110148113
210
-8.2996882376093794e-33
220
-3.5708941519018386e-33
230
1
100
AcDbArc
50
113.27818463933349
51
134.70592221799021
0
LINE
5
506
100
AcDbEntity
8
0
100
AcDbLine
10
-27.482644367477143
20
62.273461494116361
30
-4.4375332687033191e-32
11
-27.484087035800687
21
62.272220710763534
31
6.0845634884407592e-36
0
ARC
5
507
100
AcDbEntity
8
0
100
AcDbCircle
10
0.00021148488641915215
20
63.201378838186898
30
0
40
27.500000000000007
210
-8.8076606349028045e-36
220
2.6707718559721681e-34
230
1
100
AcDbArc
50
181.93625358555025
51
187.83537118555043
0
LINE
5
508
100
AcDbEntity
8
0
100
AcDbLine
10
-27.243044899871155
20
59.452381431630563
30
1.0373138512688605e-31
11
-27.240478284692138
21
59.450843764591085
31
-5.3967795214273783e-36
0
ARC
5
509
100
AcDbEntity
8
0
100
AcDbCircle
10
-20.796523012016131
20
68.678270449412864
30
0
40
11.254775110148131
210
-5.6485037377236024e-33
220
3.9440366103126211e-33
230
1
100
AcDbArc
50
235.07155310833986
51
256.48464199705114
0
LINE
5
510
100
AcDbEntity
8
0
100
AcDbLine
10
-23.426831450194861
20
57.73517032650183
30
5.9147959713474663e-32
11
-23.424474383470148
21
57.734469046186277
31
-1.2264895805724992e-35
0
LINE
5
511
100
AcDbEntity
8
0
100
AcDbLine
10
-23.424474383470148
20
57.734469046186277
30
-1.2264895805724992e-35
11
-22.975422533874415
21
57.621219691333124
31
-1.1975177798883422e-33
0
LINE
5
512
100
AcDbEntity
8
0
100
AcDbLine
10
-22.975422533874415
20
57.621219691333124
30
-1.1975177798883422e-33
11
-22.563038809284457
21
57.535330409735735
31
1.8273485929378299e-33
0
LINE
5
513
100
AcDbEntity
8
0
100
AcDbLine
10
-22.563038809284457
20
57.535330409735735
30
1.8273485929378299e-33
11
-21.832505568491491
21
57.429577648086195
31
2.8652949733809881e-33
0
LINE
5
514
100
AcDbEntity
8
0
100
AcDbLine
10
-21.832505568491491
20
57.429577648086195
30
2.8652949733809881e-33
11
-21.24297445162663
21
57.393950941136424
31
3.628578539399291e-33
0
LINE
5
515
100
AcDbEntity
8
0
100
AcDbLine
10
-21.24297445162663
20
57.393950941136424
30
3.628578539399291e-33
11
-20.796246374840997
21
57.404410286785406
31
-3.8187664511592737e-34
0
LINE
5
516
100
AcDbEntity
8
0
100
AcDbLine
10
-20.796246374840997
20
57.404410286785406
30
-3.8187664511592737e-34
11
-20.576173066724124
21
57.425585780982615
31
-2.9083625422648872e-35
0
LINE
5
517
100
AcDbEntity
8
0
100
AcDbLine
10
-20.576173066724124
20
57.425585780982615
30
-2.9083625422648872e-35
11
-20.576035309756826
21
57.425655288786331
31
3.0095909224110692e-37
0
ARC
5
518
100
AcDbEntity
8
0
100
AcDbCircle
10
-20.796523012016131
20
68.678270449412864
30
0
40
11.25477511014812
210
1.1849043184722998e-32
220
2.3220106860187479e-34
230
1
100
AcDbArc
50
271.12253002511568
51
271.12316426711027
0
ARC
5
519
100
AcDbEntity
8
0
100
AcDbCircle
10
-20.58179124541013
20
57.725600090896123
30
0
40
0.29999999999999422
210
7.5511638628125367e-33
220
-1.8208250571412998e-33
230
1
100
AcDbArc
50
271.12316426711197
51
296.50388853090618
0
SPLINE
5
520
100
AcDbEntity
8
0
100
AcDbSpline
70
4
71
5
72
15
73
9
74
0
42
0.000000001
43
0.0000000001
44
0.0000000001
40
0
40
0
40
0
40
0
40
0
40
0
40
0.10000000000000001
40
0.20000000000000001
40
0.30000000000000004
40
0.35438721412743679
40
0.35438721412743679
40
0.35438721412743679
40
0.35438721412743679
40
0.35438721412743679
40
0.35438721412743679
41
1
41
1
41
1
41
1
41
1
41
1
41
1
41
1
41
1
10
-20.44791368065323
20
57.457128867755252
30
0
10
-20.342200111998988
20
57.509844667115857
30
0
10
-20.132949906401528
20
57.611757578025333
30
0
10
-19.825605007868223
20
57.754071559454403
30
0
10
-19.474095863580811
20
57.902477432420305
30
0
10
-19.136344298758235
20
58.023185662107565
30
0
10
-18.90112021483209
20
58.092918880236155
30
0
10
-18.761056435576574
20
58.128404878266522
30
0
10
-18.712050668218225
20
58.140031857216798
30
0
0
LINE
5
521
100
AcDbEntity
8
0
100
AcDbLine
10
-18.712050668218225
20
58.140031857216798
30
0
11
-18.3561691157296
21
58.200820177838636
31
-4.6118379222043453e-34
0
LINE
5
522
100
AcDbEntity
8
0
100
AcDbLine
10
-18.3561691157296
20
58.200820177838636
30
-4.6118379222043453e-34
11
-17.972005842136415
21
58.228996616970754
31
-1.3605755561029054e-34
0
LINE
5
523
100
AcDbEntity
8
0
100
AcDbLine
10
-17.972005842136415
20
58.228996616970754
30
-1.3605755561029054e-34
11
-17.894173360064904
21
58.22647828742204
31
0
0
CIRCLE
5
524
100
AcDbEntity
8
0
100
AcDbCircle
10
-76.999720431989488
20
63.167921248433288
30
0
40
3.2499999999999951
210
1.4339899079850033e-32
220
2.7508924142542635e-33
230
1
0
LWPOLYLINE
5
525
100
AcDbEntity
8
0
100
AcDbPolyline
90
987
70
1
43
0.0
10
-19.778339948402639
20
68.820791058048854
42
0.015228578681771044
10
-20.228554174662825
20
72.293489905500749
10
-21.294418686453014
20
72.695767511782407
10
-22.351782372986207
20
73.045538284264865
10
-23.333595454105229
20
73.325333696694273
10
-24.24527958802809
20
73.544473041179842
10
-25.082961839685566
20
73.709055875078434
10
-25.834198775792064
20
73.824303861206445
10
-26.512529929545607
20
73.899555754675276
10
-27.108457053869092
20
73.940334562701381
10
-27.611501826519603
20
73.953641567397526
10
-28.364651084422295
20
73.928088137356013
10
-29.307708546833563
20
73.81374974635078
10
-29.831647290099127
20
73.801008776222844
10
-30.062292755694671
20
73.817220205508463
10
-30.271383064716247
20
73.847344403248798
10
-30.458436502639241
20
73.890426880907185
10
-30.623048011018238
20
73.945594973510168
10
-30.764688806387955
20
74.011908361672198
10
-30.883144906736561
20
74.088439861647402
10
-30.977874589862889
20
74.174199908856366
10
-31.048711631397804
20
74.268248573669226
10
-31.09528635193697
20
74.369651631601158
10
-31.154025570523395
20
74.602526347420849
10
-31.570633096684851
20
76.158707180857192
10
-32.039736322083513
20
77.69987666632457
10
-32.112993777538499
20
77.928599847400562
10
-32.127071042395016
20
78.039295659857075
10
-32.116664724790525
20
78.156576426764573
10
-32.081596717604441
20
78.279453340581824
10
-32.021509655750194
20
78.407040494601048
10
-31.936341211444731
20
78.538211554392575
10
-31.825782144526503
20
78.672066811380006
10
-31.689784424931503
20
78.807527991774833
10
-31.528230880632396
20
78.943640739660182
10
-31.341025292356093
20
79.079340087265933
10
-30.889560493295214
20
79.345522618096581
10
-30.02862633766172
20
79.74704954727558
10
-29.375829223253479
20
80.12353640921738
10
-28.955870463098819
20
80.400783602206928
10
-28.471595274889957
20
80.75045439135549
10
-27.93559949819894
20
81.172951699393536
10
-27.358865067457032
20
81.667943344673333
10
-26.734836333755009
20
82.250512856220922
10
-26.076837056450874
20
82.918514921046665
10
-25.391378669578994
20
83.675079352693714
10
-24.678786832371735
20
84.530982215590512
10
-23.986737803194018
20
85.435948190223769
42
0.015228577874988197
10
-25.440546032913637
20
88.621661684427195
10
-26.577630797465641
20
88.691897922187906
10
-27.691115441770343
20
88.714465783907343
10
-28.711780999727456
20
88.692436580758752
10
-29.647553581702081
20
88.633116404428534
10
-30.496531631700829
20
88.543476087080379
10
-31.248363283610917
20
88.432172896137132
10
-31.918738506499015
20
88.304140046695181
10
-32.500210434952209
20
88.167454500065588
10
-32.984828828232743
20
88.031895059585835
10
-33.696985469912491
20
87.785482490325549
10
-34.56444395235556
20
87.398252899707728
10
-35.061349856853596
20
87.231643990338284
10
-35.286527350151566
20
87.17915173324937
10
-35.495207477699601
20
87.146307069850593
10
-35.686649142267882
20
87.132340394303952
10
-35.86020868217588
20
87.136537533737453
10
-36.015102577738702
20
87.15815555786952
10
-36.150854487990756
20
87.19637087363644
10
-36.266653354558052
20
87.250399248570162
10
-36.362065194646071
20
87.319389918200358
10
-36.436459054086882
20
87.40255950149708
10
-36.561230147938232
20
87.60777457904652
10
-37.418021338263074
20
88.972021485286746
10
-38.320551054981252
20
90.306450918966888
10
-38.45797185969198
20
90.503419206584837
10
-38.504051466737678
20
90.605047791962008
10
-38.528676339786074
20
90.720185383727681
10
-38.531384957353502
20
90.847939915225083
10
-38.511574464095517
20
90.987569739177147
10
-38.468853095126178
20
91.138016944068525
10
-38.402660417555964
20
91.29851320706581
10
-38.312632765322448
20
91.468042350406478
10
-38.198376466116777
20
91.645726199498952
10
-38.059486120123694
20
91.830576675404259
10
-37.706536821549264
20
92.21800552984989
10
-37.002204315223509
20
92.855458022854805
10
-36.489380422575913
20
93.407634414645301
10
-36.169799341952611
20
93.796348855247771
10
-35.810106463829669
20
94.273227589062401
10
-35.422456745278829
20
94.834942255143602
10
-35.017245960956714
20
95.477938289693952
10
-34.592656577140637
20
96.218561528251016
10
-34.160787537627975
20
97.050834828354326
10
-33.728783376151988
20
97.975829523277326
10
-33.30013165877341
20
99.003747391405284
10
-32.905572014406403
20
100.07249295285254
42
0.015228578653979363
10
-35.23379759785054
20
102.68815649428673
10
-36.341067142996032
20
102.42011097534855
10
-37.411734864392685
20
102.11347102733539
10
-38.380561300835126
20
101.79157398113449
10
-39.257275486417484
20
101.45906555096347
10
-40.042113777249639
20
101.12316677857818
10
-40.727736742027474
20
100.79520226584279
10
-41.330590785551323
20
100.4752607688559
10
-41.845940676677671
20
100.17325586227642
10
-42.269072007375321
20
99.900875671100067
10
-42.876958264067284
20
99.45549816197601
10
-43.591739751512591
20
98.829784690547086
10
-44.01746075822976
20
98.524112247729207
10
-44.217161754904389
20
98.407579460096713
10
-44.406889558790176
20
98.314684583456824
10
-44.585709859488169
20
98.244909943849891
10
-44.752795441637836
20
98.197762805294602
10
-44.907179737508542
20
98.172764464519503
10
-45.048164882486716
20
98.169268782041968
10
-45.174744282168746
20
98.186764429976293
10
-45.286252393556779
20
98.224566794001888
10
-45.381856040919985
20
98.28211382923476
10
-45.561572135301127
20
98.441434852397606
10
-46.782417263828286
20
99.492528639912067
10
-48.038180024947998
20
100.50164727476896
10
-48.227552733009546
20
100.64935942140451
10
-48.301540789195059
20
100.7328911838254
10
-48.359009362504409
20
100.83565493425466
10
-48.399254132103408
20
100.95693528859093
10
-48.421480204247231
20
101.09620103601489
10
-48.425001721438115
20
101.2525564216814
10
-48.409057296099583
20
101.42543311891637
10
-48.372998361019128
20
101.61396633550729
10
-48.31619188766669
20
101.81743446984657
10
-48.237957483064228
20
102.03501114027563
10
-48.014885472184396
20
102.50926099167683
10
-47.529736400589016
20
103.32599896385403
10
-47.202453385582423
20
104.00480115094496
10
-47.011645615460921
20
104.47044442658766
10
-46.808495454283452
20
105.03215785290826
10
-46.603635685307545
20
105.68317876945039
10
-46.405954415844633
20
106.41704633001024
10
-46.218530741630389
20
107.24991573841501
10
-46.051165142653517
20
108.17250896594145
10
-45.911000809338219
20
109.18374414854362
10
-45.804377010152336
20
110.29234163223214
10
-45.742364959935699
20
111.42990436614227
42
0.015228579275494649
10
-48.738134304335901
20
113.24310516723385
10
-49.717203123215477
20
112.66059444386693
10
-50.649920374474775
20
112.05199293579997
10
-51.480823621049794
20
111.45883057949602
10
-52.220579389230089
20
110.88267854113526
10
-52.871541406321029
20
110.33036739580493
10
-53.430035220318537
20
109.81488283235733
10
-53.911801498121179
20
109.33146106951199
10
-54.315238370344751
20
108.89097126268589
10
-54.639285662898814
20
108.50597194327791
10
-55.0888877550329
20
107.9012038746523
10
-55.587481561909499
20
107.09260287158014
10
-55.904190239445867
20
106.6750277061989
10
-56.060670269238678
20
106.50480919578278
10
-56.214588024587599
20
106.36011797027271
10
-56.364897191999944
20
106.24073523621516
10
-56.510662739735253
20
106.14643331918441
10
-56.650820210473789
20
106.07704014618859
10
-56.784511004439899
20
106.03214368606959
10
-56.91062418256665
20
106.01155167432316
10
-57.028320537742175
20
106.01480721416291
10
-57.136639005127137
20
106.04161794130475
10
-57.355331507578711
20
106.14088847073799
10
-58.831753262116308
20
106.78543473698633
10
-60.329169110410213
20
107.37957853055377
10
-60.553667670109512
20
107.46490990189777
10
-60.648989708028544
20
107.52292149861306
10
-60.734195182391282
20
107.60418069993744
10
-60.808399956173538
20
107.70821072057053
10
-60.870687765880319
20
107.83473809304162
10
-60.92013992769877
20
107.9831090044553
10
-60.955859570797564
20
108.15300512171271
10
-60.976974235975248
20
108.34379084002958
10
-60.98266447606602
20
108.55496334100677
10
-60.972037704639924
20
108.78593399745755
10
-60.898663685736395
20
109.30486530998351
10
-60.675806622923588
20
110.22831859904555
10
-60.563143781544071
20
110.97343184607769
10
-60.518064071790995
20
111.47462923825449
10
-60.489507116445182
20
112.07126742538185
10
-60.4856407364788
20
112.75374863268812
10
-60.513053110620199
20
113.51327985579232
10
-60.579448841853861
20
114.36439162288009
10
-60.691458076947775
20
115.29532844730315
10
-60.855587230983048
20
116.30295126056248
10
-61.080465078836909
20
117.39372483182402
10
-61.356510554033392
20
118.49902746727169
42
0.015228579041297869
10
-64.753636494275284
20
119.34865445271022
10
-65.517510401025888
20
118.50343735489353
10
-66.229400875990251
20
117.64695082063864
10
-66.848552304095378
20
116.83522755905383
10
-67.385618513144266
20
116.06662570301752
10
-67.844863786409604
20
115.346977909336
10
-68.226603371637069
20
114.68977612090526
10
-68.544475133687854
20
114.08582815678004
10
-68.800152080185796
20
113.54599304410328
10
-68.996322026294351
20
113.08258340208852
10
-69.247691147960012
20
112.37216088191794
10
-69.485794533352575
20
111.45252105349493
10
-69.665350016533338
20
110.96014560301356
10
-69.764705787873694
20
110.75136641473115
10
-69.869136435549194
20
110.56773547279781
10
-69.977579360894921
20
110.40935171445287
10
-70.089073182619387
20
110.27627423294862
10
-70.202549701478759
20
110.16865210167413
10
-70.31706745924572
20
110.08634419070246
10
-70.431508184810596
20
110.02949446869403
10
-70.544935285960278
20
109.99791378154141
10
-70.656343901817209
20
109.9916058530505
10
-70.894580957411947
20
110.02200499524321
10
-72.495392940232364
20
110.2027333017447
10
-74.101409726018275
20
110.32910985603353
10
-74.341086247212147
20
110.34447818388404
10
-74.449272357254983
20
110.37181580075253
10
-74.554644626347297
20
110.42435030383939
10
-74.656215701707893
20
110.50188601104156
10
-74.753030922892961
20
110.60443274259426
10
-74.844018796277851
20
110.73163581460665
10
-74.928229766147425
20
110.88345497544819
10
-75.004641483326083
20
111.05954127037501
10
-75.072322827611814
20
111.2596544174292
10
-75.130247896935373
20
111.48349583673115
10
-75.213091418901911
20
112.00100023824929
10
-75.272327712493748
20
112.94911503658426
10
-75.384296647021202
20
113.69433320796364
10
-75.488950152840374
20
114.18655118504903
10
-75.637524031990296
20
114.76509989432019
10
-75.834994347389056
20
115.41839997299965
10
-76.08506443013367
20
116.13610744365903
10
-76.399380070043009
20
116.92983591580389
10
-76.780811170090914
20
117.78639846972483
10
-77.234650946848234
20
118.70087775688999
10
-77.771049315277295
20
119.67690748074878
10
-78.360624389765931
20
120.65173843569571
42
0.015228579024746091
10
-81.857257497756251
20
120.46229816763
10
-82.338062122768605
20
119.42947651298526
10
-82.765871769608154
20
118.40120799801593
10
-83.11825629009661
20
117.44304909732429
10
-83.404913256576876
20
116.55029093355969
10
-83.631635218065057
20
115.72725009523577
10
-83.802701302602941
20
114.98672615107387
10
-83.928434567918288
20
114.31591562688138
10
-84.013632991090802
20
113.72470167985591
10
-84.064495371843563
20
113.22405791626407
10
-84.095296440395117
20
112.47110540901718
10
-84.051752523128926
20
111.52214001471185
10
-84.07820128338679
20
110.99871448756703
10
-84.111603534383164
20
110.76992523859678
10
-84.157268824553313
20
110.56367087960787
10
-84.214209460662076
20
110.38035978551773
10
-84.281524632667981
20
110.22033159034865
10
-84.3582374098184
20
110.08404268379672
10
-84.443406953106077
20
109.97163671982939
10
-84.536006829448681
20
109.88358104347731
10
-84.635085804638791
20
109.81997023794452
10
-84.739685953355149
20
109.78110394856971
10
-84.976299202610875
20
109.73993136514767
10
-86.559261710975548
20
109.4407823975549
10
-88.131177941418329
20
109.08816285905556
10
-88.364736080272834
20
109.03220233538863
10
-88.476174216079045
20
109.02643711568021
10
-88.592349366477649
20
109.04557857567831
10
-88.712262153914594
20
109.08973106936892
10
-88.835001868998518
20
109.15918509572714
10
-88.959441661881584
20
109.25391733801283
10
-89.084660556540101
20
109.37417021613842
10
-89.209579846472892
20
109.51991064258196
10
-89.333238893972919
20
109.69118400121633
10
-89.454569020456702
20
109.88800733126746
10
-89.686269021881827
20
110.35810158980252
10
-90.022335479232595
20
111.24663441352934
10
-90.348986317079195
20
111.9257411950465
10
-90.594074387193757
20
112.36524429190419
10
-90.906577698680167
20
112.87429615544958
10
-91.287838923505689
20
113.44036666994143
10
-91.738346899585991
20
114.05247938970084
10
-92.272653765881344
20
114.71829848330202
10
-92.889615735386201
20
115.42437740823263
10
-93.592840074853171
20
116.16445744261239
10
-94.39309741484044
20
116.93901881412579
10
-95.243816061178592
20
117.69676038651411
42
0.01522857834995972
10
-98.529264958823802
20
116.48508586232934
10
-98.684279447578007
20
115.35642946604631
10
-98.789995029695888
20
114.24774502830491
10
-98.844301694023642
20
113.22828765157448
10
-98.855077697459919
20
112.29069837028632
10
-98.829132443105607
20
111.43739528196909
10
-98.77432499672544
20
110.67934800277632
10
-98.696747282584184
20
110.00127951801272
10
-98.603897317915084
20
109.41121895914253
10
-98.504932871490482
20
108.91782529398014
10
-98.312428211933906
20
108.18924552253229
10
-97.99110699062895
20
107.29527480335278
10
-97.862098051082398
20
106.78730794978523
10
-97.826579773789817
20
106.55883731598425
10
-97.809421770107576
20
106.34828636022738
10
-97.809800266196859
20
106.15633614577328
10
-97.82695618633241
20
105.98357565355852
10
-97.860088593996977
20
105.83072987526924
10
-97.908342234243719
20
105.69821371267224
10
-97.970872866546145
20
105.58677592219199
10
-98.046800782516854
20
105.49678667831897
10
-98.135297422715524
20
105.42881623998875
10
-98.349262667728681
20
105.31972982689942
10
-99.773723348942866
20
104.56728457309283
10
-101.17186705431553
20
103.76700030866935
10
-101.37855443132989
20
103.64468379559395
10
-101.48334222099325
20
103.6063276151536
10
-101.59999795555244
20
103.59037553569831
10
-101.72759763091031
20
103.59722162502464
10
-101.86535635891808
20
103.62741132134536
10
-102.01219074569423
20
103.68125650275769
10
-102.16729144964945
20
103.75925788019805
10
-102.32961874819394
20
103.86170251104075
10
-102.49826774493502
20
103.9889179544693
10
-102.67222192188684
20
104.14123414030084
10
-103.0321912845431
20
104.52214843924926
10
-103.61522657077244
20
105.27214876501048
10
-104.12753591465942
20
105.82480234059317
10
-104.49128101277486
20
106.1725388486154
10
-104.93994613106929
20
106.56686351289325
10
-105.47112134146717
20
106.99540600791886
10
-106.08203776235248
20
107.44753458708846
10
-106.78886067384335
20
107.92628359645227
10
-107.58653294295067
20
108.4191408791046
10
-108.47665766809031
20
108.91906186297061
10
-109.46966788882537
20
109.42333166191531
10
-110.50593950335551
20
109.89665560335197
42
0.015228578576587081
10
-113.28827776929072
20
107.77040920349262
10
-113.10372797076158
20
106.64620430792014
10
-112.87795648217318
20
105.55561566498926
10
-112.62936026701416
20
104.5654424276667
10
-112.36329829007674
20
103.66633148055662
10
-112.08698996621894
20
102.85858615574941
10
-111.81117921197936
20
102.15037139321194
10
-111.53718378826059
20
101.52529371678889
10
-111.27453564893513
20
100.98881596041741
10
-111.0345373148985
20
100.54651274764124
10
-110.63583256460478
20
99.907043251416056
10
-110.06528459813276
20
99.147500763332843
10
-109.79228098369072
20
98.700127392979198
10
-109.69099789513706
20
98.492276132320811
10
-109.61254103347932
20
98.296136851723276
10
-109.55632487520089
20
98.112602743613465
10
-109.52179596952027
20
97.942460492955391
10
-109.50840474264446
20
97.786639470447923
10
-109.51545471630521
20
97.64578759817114
10
-109.54236057000372
20
97.520869636413238
10
-109.58839050016635
20
97.41249825639882
10
-109.65292073698689
20
97.321462200943387
10
-109.82522636869311
20
97.154154684572106
10
-110.96461467437692
20
96.015271941278939
10
-112.06475519619774
20
94.838432188490245
10
-112.22620615688415
20
94.660627616707956
10
-112.31503303089326
20
94.593088803076299
10
-112.42180448974339
20
94.543460031771076
10
-112.54575274444066
20
94.512391411291617
10
-112.686290139167
20
94.500635238879283
10
-112.84247204001936
20
94.508807577062896
10
-113.01367361104087
20
94.537626721065124
10
-113.19898497333349
20
94.587673472393277
10
-113.39763869501972
20
94.659526803251751
10
-113.60876058978933
20
94.753801710018593
10
-114.0650139627206
20
95.011690949754041
10
-114.84321328479811
20
95.556518143008333
10
-115.4956594547685
20
95.933613101199199
10
-115.94574183798569
20
96.1586848704586
10
-116.49070309770458
20
96.403243988582602
10
-117.12459455252394
20
96.656181065192541
10
-117.84163739323903
20
96.908152020629359
10
-118.65817148103602
20
97.157292096285119
10
-119.56567800875979
20
97.393135176301868
10
-120.56361122772086
20
97.608477137303439
10
-121.66114082639048
20
97.797648498551808
10
-122.7908885008182
20
97.944497401229711
42
0.015228579002186021
10
-124.82289314272583
20
95.092605427479455
10
-124.31517706021468
20
94.072743409907787
10
-123.77797961530001
20
93.097153572420893
10
-123.24856898131728
20
92.224246293764651
10
-122.72930996400504
20
91.443503240940544
10
-122.2271897979612
20
90.753086828869257
10
-121.75488270830478
20
90.157633033783938
10
-121.30881497072663
20
89.641087582894642
10
-120.89970594063551
20
89.20586081479189
10
-120.53999947400243
20
88.853948411207071
10
-119.97052086214046
20
88.360409077786983
10
-119.2014411576761
20
87.802782669514144
10
-118.80870097462852
20
87.455754377757188
10
-118.65065225377791
20
87.286991262106923
10
-118.51786798825017
20
87.122690985714101
10
-118.41005177441909
20
86.963880681062989
10
-118.32690682142592
20
86.811475601908725
10
-118.2681813525582
20
86.666524321084751
10
-118.23340104258156
20
86.529852171294891
10
-118.22229174701762
20
86.402552976704641
10
-118.23433326488171
20
86.285428774835324
10
-118.26916360118506
20
86.179416885737936
10
-118.3844993188961
20
85.968754055639494
10
-119.13757633154107
20
84.544627741188435
10
-119.84196088188497
20
83.095799709786746
10
-119.94383060695463
20
82.87830598308301
10
-120.0088036066457
20
82.787585622560158
10
-120.09620308688889
20
82.708690577267561
10
-120.20548740635043
20
82.642467511640248
10
-120.33631551454033
20
82.589809183099518
10
-120.48796750271285
20
82.55158335062562
10
-120.66005750061235
20
82.528659843739689
10
-120.85188803154294
20
82.521861665940278
10
-121.06289513073895
20
82.531968294130934
10
-121.2924256454198
20
82.559825723994351
10
-121.80442287266997
20
82.671774386465714
10
-122.70863985598226
20
82.963018183504559
10
-123.44325033648489
20
83.131047849790605
10
-123.93967740139514
20
83.213456172001429
10
-124.53251323611219
20
83.286520366827418
10
-125.21279697704243
20
83.341377457629463
10
-125.97225297654813
20
83.37080196100311
10
-126.82594638863057
20
83.368195216768527
10
-127.76265072360036
20
83.326068440010701
10
-128.77972156744448
20
83.237697814660805
10
-129.88425065445117
20
83.09496217098868
10
-131.00709125890208
20
82.902288300884933
42
0.015228579927250695
10
-132.10820982177376
20
79.57815382667826
10
-131.32244047138227
20
78.753252919652383
10
-130.52154870810628
20
77.979347559069353
10
-129.75836445358391
20
77.301267504214181
10
-129.032046437139
20
76.708265218525028
10
-128.34873046145123
20
76.196524664007285
10
-127.72189360804506
20
75.766739879985295
10
-127.14338889539232
20
75.404623733988544
10
-126.62417018906523
20
75.109320306468121
10
-126.17671658038068
20
74.879068066795099
10
-125.48706512159846
20
74.575311674835973
10
-124.58779008751698
20
74.269149186867594
10
-124.11020975972318
20
74.053300315488542
10
-123.90943888668392
20
73.938620754800695
10
-123.73412569774437
20
73.820759243959174
10
-123.58428915124796
20
73.700783708561232
10
-123.45991584516875
20
73.579656357334571
10
-123.36107439657114
20
73.458454811826172
10
-123.28755477036857
20
73.338106270915688
10
-123.239416319242
20
73.219737454736617
10
-123.21640003808625
20
73.104267289485989
10
-123.21843528217426
20
72.992698681227438
10
-123.26655318674221
20
72.757399442532872
10
-123.56640458244611
20
71.174569789299639
10
-123.81244587744355
20
69.582488104926568
10
-123.84568178079292
20
69.344629977609983
10
-123.88102839247605
20
69.238789131583886
10
-123.94129021809901
20
69.137637908206031
10
-124.02619954830767
20
69.042144763826329
10
-124.13569450690785
20
68.953263570205891
10
-124.26934138558856
20
68.872035731253348
10
-124.42702927385315
20
68.799406350196818
10
-124.60833310335566
20
68.736366804941639
10
-124.81294509182428
20
68.683829236553237
10
-125.04048920521566
20
68.642793791469984
10
-125.56273734650324
20
68.598854756539041
10
-126.51262809628869
20
68.610637036806082
10
-127.26412916771103
20
68.55467161252173
10
-127.7627919317226
20
68.487094219372636
10
-128.35082539139711
20
68.38217067243265
10
-129.01705610890184
20
68.234073655038131
10
-129.75144460387077
20
68.038337359509541
10
-130.56644218404327
20
67.784216266497822
10
-131.44911427672292
20
67.467862412072421
10
-132.39495217414768
20
67.083630620543701
10
-133.40833783269841
20
66.621670763624394
10
-134.42450190634443
20
66.106593822270639
42
0.015228579620722684
10
-134.49689516818606
20
62.605580988578076
10
-133.50289165685408
20
62.048937699122433
10
-132.50946864219074
20
61.545481726432413
10
-131.58032285283457
20
61.122479472157501
10
-130.71148274686951
20
60.76990836902133
10
-129.90768638193796
20
60.482313986734781
10
-129.18201683873303
20
60.256386793673073
10
-128.52247803197878
20
60.080875725973122
10
-127.93928444069465
20
59.95173394309424
10
-127.44384148670807
20
59.863600581958643
10
-126.69529586779619
20
59.77661765887688
10
-125.74573023099605
20
59.749123179279493
10
-125.22574479426754
20
59.683633118275772
10
-125.0000913637946
20
59.633226577869024
10
-124.7978263543496
20
59.572275524110921
10
-124.61928310241831
20
59.501795529149234
10
-124.46473250265652
20
59.422709423458869
10
-124.33455747658502
20
59.336026350790206
10
-124.22883057871913
20
59.242694855207752
10
-124.14794115897708
20
59.143773665496951
10
-124.09191218683912
20
59.040217754119766
10
-124.0609714003233
20
58.933005964983579
10
-124.03759600474268
20
58.693977523409238
10
-123.85757861190747
20
57.093085712331202
10
-123.62341436073098
20
55.499213711205968
10
-123.58506428454689
20
55.262126645644223
10
-123.58764298176609
20
55.150569259870572
10
-123.61541271896576
20
55.036149356899713
10
-123.66840289402347
20
54.919871494228651
10
-123.74683481655995
20
54.802664930729684
10
-123.85060198614225
20
54.685652679162274
10
-123.97987612735596
20
54.569770426796076
10
-124.13454431137075
20
54.456091601355439
10
-124.31457992263176
20
54.345577603699624
10
-124.5199196173438
20
54.239295433155526
10
-125.00601454301801
20
54.043373189053916
10
-125.91717693379414
20
53.774646668898036
10
-126.6187952517393
20
53.499658835669337
10
-127.07538497188439
20
53.288100244593892
10
-127.60636711954501
20
53.014512372301041
10
-128.19934629969524
20
52.676619986461461
10
-128.84341376639722
20
52.273114743823811
10
-129.54729997905145
20
51.790058510414809
10
-130.29751043953158
20
51.227587375612146
10
-131.08807283789594
20
50.581635442963602
10
-131.92027164595029
20
49.841498735069123
10
-132.73946889569837
20
49.049785025296877
42
0.015228579620721772
10
-131.77670417049717
20
45.682974111398224
10
-130.66278833433225
20
45.444049039409826
10
-129.56510401514026
20
45.255776530101429
10
-128.55255516663686
20
45.125437636364076
10
-127.61839289652119
20
45.044625276557184
10
-126.76553732699156
20
45.006731172493772
10
-126.0055141831718
20
45.004736231809446
10
-125.32354366321898
20
45.031425282435301
10
-124.72819455874365
20
45.079920067718234
10
-124.22878494352298
20
45.141736671488133
10
-123.48785678586034
20
45.279255594720283
10
-122.57237339027958
20
45.532872256381495
10
-122.05618594205387
20
45.623560062415123
10
-121.8257001940156
20
45.641905395431564
10
-121.61445538511715
20
45.643281124592427
10
-121.42307015711958
20
45.62855844268438
10
-121.25207471484443
20
45.598540850856878
10
-121.10213287731679
20
45.55407855940858
10
-120.97359289146509
20
45.49605714460769
10
-120.86713968737045
20
45.425372985717722
10
-120.78307633469718
20
45.342932641494897
10
-120.72190865063881
20
45.249604285289834
10
-120.6291172453486
20
45.028084829922435
10
-119.98522616418742
20
43.551377450594593
10
-119.29166319885735
20
42.097337910629278
10
-119.18513430422036
20
41.882087686291015
10
-119.15471614282821
20
41.774726464125962
10
-119.14752641317921
20
41.657204482995532
10
-119.16388916742575
20
41.530473478920086
10
-119.20428917598933
20
41.395355952135766
10
-119.26895636407173
20
41.252956509089039
10
-119.35833026054635
20
41.104118136653717
10
-119.47261931227652
20
40.949900328296138
10
-119.61208184322876
20
40.791230065126285
10
-119.77697184481298
20
40.629144802137745
10
-120.18372177591093
20
40.298647906050881
10
-120.97519528564374
20
39.773290180922125
10
-121.56458881584966
20
39.303713406786201
10
-121.93853511459611
20
38.966971678672373
10
-122.36528582430735
20
38.549029085645287
10
-122.83232521180142
20
38.051364523633737
10
-123.3288432790397
20
37.475943625272421
10
-123.85907442776129
20
36.806874087261846
10
-124.41016410244518
20
36.048263685077842
10
-124.97520624983619
20
35.197987177808002
10
-125.55227368698928
20
34.245437810793319
10
-126.10171450088879
20
33.247435111295133
42
0.015228579707948334
10
-124.18933805013151
20
30.31398183979292
10
-123.05448572796553
20
30.414004073349957
10
-121.95007389492731
20
30.557644148062465
10
-120.94409216515356
20
30.731549950679625
10
-120.02761233978887
20
30.929677198100954
10
-119.20147682448919
20
31.144850029352966
10
-118.47463131354898
20
31.366964458893335
10
-117.83082602789543
20
31.593481616631621
10
-117.27622051531249
20
31.815304584114394
10
-116.81721932288667
20
32.021578352918546
10
-116.14974252487522
20
32.371380083807473
10
-115.34968615019633
20
32.883572527679561
10
-114.88316237755853
20
33.122380469977969
10
-114.66832370798281
20
33.207847654459407
10
-114.46686959301618
20
33.271427363545847
10
-114.27964732304056
20
33.313771069614944
10
-114.10740098651645
20
33.33548866844697
10
-113.95101486936807
20
33.337198097663709
10
-113.8110838933342
20
33.319642033085813
10
-113.68852544752852
20
33.283475968011665
10
-113.58389696229725
20
33.229476177301798
10
-113.49793807361387
20
33.158323215602593
10
-113.34397480172889
20
32.973996676678546
10
-112.29342298030728
20
31.752685442862109
10
-111.20208742532888
20
30.567675969091436
10
-111.03684523016348
20
30.393388354207545
10
-110.97613313741351
20
30.299762958342317
10
-110.93462281735769
20
30.189581425657096
10
-110.91290331598069
20
30.063657779540947
10
-110.91168215776719
20
29.92263489039572
10
-110.93150335131816
20
29.767500513829898
10
-110.97303600230889
20
29.598931743703467
10
-111.03679095186683
20
29.417878284098006
10
-111.12328857051197
20
29.225149448779529
10
-111.23307738361638
20
29.021662830340791
10
-111.52434094250994
20
28.58595762504638
10
-112.12579954211991
20
27.850649284295717
10
-112.55059807090279
20
27.228207983493071
10
-112.80867453182009
20
26.796203791088757
10
-113.09327501844272
20
26.271041814942908
10
-113.3928759641705
20
25.657824966950681
10
-113.69772703021754
20
24.961617356714179
10
-114.00718992635339
20
24.165984150317886
10
-114.31019161268165
20
23.278640012074163
10
-114.59950726103672
20
22.29958986416452
10
-114.87016805046422
20
21.219266133564759
10
-115.10103278297001
20
20.103651510712403
42
0.015228579218267153
10
-112.40896727576555
20
17.864206428687144
10
-111.35401507099472
20
18.294288445645453
10
-110.34100822689943
20
18.757077984948779
10
-109.43097871383742
20
19.219775677865155
10
-108.61361425998487
20
19.679237760992056
10
-107.88760550711162
20
20.128359108273244
10
-107.25852075653754
20
20.554847296151458
10
-106.71008481675416
20
20.9610659086878
10
-106.24550269521822
20
21.336506169183615
10
-105.8676934982077
20
21.668909032670477
10
-105.33297674095135
20
22.199912424101488
10
-104.71943618964174
20
22.925170203990803
10
-104.34402852797618
20
23.290879224723522
10
-104.16392647912122
20
23.435873929782861
10
-103.99016286929978
20
23.556008896370749
10
-103.82373980993025
20
23.651655870307877
10
-103.66554700100848
20
23.723178986757745
10
-103.51661234680869
20
23.770907825457613
10
-103.37772319317384
20
23.795377600872389
10
-103.24995004202793
20
23.7969431254608
10
-103.13405295880706
20
23.776181972623121
10
-103.03094012870423
20
23.733526971026834
10
-102.82948615101867
20
23.602770811218143
10
-101.4656193404828
20
22.745374581570054
10
-100.07348136319997
20
21.93468878157919
10
-99.864208332311392
20
21.816850611639609
10
-99.778597066217145
20
21.745279486353365
10
-99.706453957301761
20
21.652228520141151
10
-99.648583284770297
20
21.538301317973485
10
-99.605848891478828
20
21.403903685246888
10
-99.57906276321819
20
21.24981923001112
10
-99.569063574406997
20
21.076496851162872
10
-99.576619721485514
20
20.88469505259836
10
-99.602466964585233
20
20.675033380949394
10
-99.64739923586626
20
20.448226190627338
10
-99.797296468879111
20
19.946026304590845
10
-100.15529770391015
20
19.066103075572954
10
-100.37775559715999
20
18.346103630962002
10
-100.49703158522449
20
17.857222693469307
10
-100.61419390614174
20
17.271504827317173
10
-100.71973523327189
20
16.597222525867089
10
-100.80583176649785
20
15.84208869071154
10
-100.86702894262677
20
14.990587836211169
10
-100.89502010770755
20
14.05335469261113
10
-100.88290186689795
20
13.03252352814712
10
-100.82310735803733
20
11.920416982055714
10
-100.71488176604737
20
10.786317091620719
42
0.015228578877466658
10
-97.482329160181848
20
9.4398646748674064
10
-96.601014638753796
20
10.161791925597312
10
-95.769422505093047
20
10.902610291896055
10
-95.036205574849006
20
11.612987620938897
10
-94.390583417863553
20
12.292959223563379
10
-93.829209554347898
20
12.936122210322354
10
-93.353783308197009
20
13.529088490881474
10
-92.949447578162165
20
14.078914273835698
10
-92.61616859316419
20
14.574613222181071
10
-92.353122154550306
20
15.003609430261095
10
-91.998677151090959
20
15.668632420811782
10
-91.626168151002091
20
16.542513235616212
10
-91.375233022178548
20
17.002627576097812
10
-91.245870580852753
20
17.194266911620236
10
-91.115237197772828
20
17.360282490327776
10
-90.984399918128318
20
17.500734120779221
10
-90.854317251146
20
17.615707782983939
10
-90.726067746935982
20
17.705215913179707
10
-90.600561672926645
20
17.769536285481315
10
-90.478926136101791
20
17.808694200030278
10
-90.362059164404243
20
17.823016915231801
10
-90.250954702894873
20
17.812649848471342
10
-90.019909356751924
20
17.747082713306892
10
-88.463913524906644
20
17.329784623163707
10
-86.894669777687142
20
16.965454890485031
10
-86.65996086569541
20
16.914536345475327
10
-86.557057286964053
20
16.871379778216824
10
-86.46069208143453
20
16.8037272867642
10
-86.371811833923289
20
16.711918993426437
10
-86.291361565335194
20
16.596088507669865
10
-86.220348540354678
20
16.456744549560398
10
-86.159705540401035
20
16.294070212854749
10
-86.110391897703408
20
16.108562281131739
10
-86.073291784600272
20
15.90059669823825
10
-86.049375413822986
20
15.670621948015341
10
-86.044586904236567
20
15.146550673299579
10
-86.127321241942184
20
14.20019661515029
10
-86.127672617946416
20
13.44661423488327
10
-86.097549059167889
20
12.944295768484695
10
-86.03686292337386
20
12.350065365361765
10
-85.938967245245536
20
11.674630980713779
10
-85.798659331122721
20
10.927668315713216
10
-85.606152985326972
20
10.095958857077797
10
-85.356646230757732
20
9.1921136479513503
10
-85.04417139866861
20
8.2202072553026575
10
-84.659234133056529
20
7.1751329668735533
10
-84.221534892585424
20
6.1233182969273425
42
0.015228578311422977
10
-80.73572183969975
20
5.7894966397449288
10
-80.106352942437724
20
6.7391224774881495
10
-79.53006623889803
20
7.6921443889716077
10
-79.038811875057974
20
8.587081302342801
10
-78.622297750261311
20
9.427144099930798
10
-78.275439866306371
20
10.207200829350224
10
-77.99591530405273
20
10.913957815378772
10
-77.771607387176402
20
11.558536675844366
10
-77.599244424530355
20
12.130448494726327
10
-77.474332929449247
20
12.617919778656571
10
-77.331654468065111
20
13.357872241471274
10
-77.233275690086415
20
14.302728240361942
10
-77.129110464486359
20
14.816365377204367
10
-77.061981756322936
20
15.037621245793906
10
-76.986085830018652
20
15.23476568973518
10
-76.902460379281436
20
15.407542669932939
10
-76.812045856650599
20
15.555751105504015
10
-76.715876869821159
20
15.679083930629588
10
-76.614905765396088
20
15.777540700368542
10
-76.51021619439274
20
15.850811520025054
10
-76.402762836440658
20
15.898945052264192
10
-76.293538640696482
20
15.921787358064844
10
-76.05343176485006
20
15.927234614763462
10
-74.443563561880268
20
15.987114022974318
10
-72.836649359102211
20
16.101513116546236
10
-72.597359325172135
20
16.12203849134805
10
-72.486306222585043
20
16.111130330777705
10
-72.374281869293469
20
16.074887784304604
10
-72.262288932264497
20
16.013356318434493
10
-72.151271317332572
20
15.926384823023191
10
-72.042340698129394
20
15.814163450605697
10
-71.936443442084069
20
15.676591190344704
10
-71.834640563387012
20
15.51386022480343
10
-71.737889699112699
20
15.326069251669947
10
-71.647250026275316
20
15.113361281617266
10
-71.488201170182833
20
14.613984389118562
10
-71.288317620612986
20
13.685287474656489
10
-71.066530536907607
20
12.965081480863944
10
-70.889684552620679
20
12.493958718050637
10
-70.656542091876901
20
11.944015725126063
10
-70.363907573647168
20
11.327444032526799
10
-70.009661862613271
20
10.655023558886743
10
-69.580558265913226
20
9.9170065044299509
10
-69.075723034740093
20
9.1268604769348123
10
-68.490655856521599
20
8.2902364716457111
10
-67.81477898274386
20
7.4050541829059142
10
-67.086498055766356
20
6.5289830961000384
42
0.015228579024745179
10
-63.657154064381643
20
7.2374536145095281
10
-63.335653681590152
20
8.3303998502988836
10
-63.065877723469455
20
9.4109451588951174
10
-62.860235541549471
20
10.41092225995116
10
-62.709839372411899
20
11.336432975811332
10
-62.608317057267548
20
12.184072302714418
10
-62.549530881611908
20
12.941821103621443
10
-62.525181550740847
20
13.623878746605065
10
-62.529050430225546
20
14.221187576555309
10
-62.553373204062773
20
14.723819943120692
10
-62.635137910302703
20
15.472953908487872
10
-62.819630961088478
20
16.404829932169132
10
-62.871490778015513
20
16.926351182082101
10
-62.872560654380123
20
17.157563530402467
10
-62.858146039433905
20
17.368319917883852
10
-62.82916278108268
20
17.558070028604764
10
-62.786449944877852
20
17.726344086820337
10
-62.730907097604771
20
17.872543973103813
10
-62.663442138963497
20
17.996388628058224
10
-62.585000694557749
20
18.097261860586936
10
-62.496508368475077
20
18.174929726095957
10
-62.398869972874174
20
18.228951234837666
10
-62.171035973925093
20
18.304929450369386
10
-60.650339449694066
20
18.836665316088133
10
-59.148535457860902
20
19.419628861454701
10
-58.92592622203167
20
19.509773914719005
10
-58.816592178581317
20
19.532083925740928
10
-58.698861779649015
20
19.530471398689514
10
-58.573707615557396
20
19.504683692882605
10
-58.441987080663729
20
19.454299074795109
10
-58.304818188941773
20
19.379171592365086
10
-58.163075286150054
20
19.278924707753028
10
-58.017829271459334
20
19.153430173284537
10
-57.870024812327863
20
19.002499974616079
10
-57.720714607688564
20
18.825958813554212
10
-57.421538477280826
20
18.395647997084001
10
-56.956796799090696
20
17.567127744639755
10
-56.532578742674993
20
16.944290981833184
10
-56.224723748784868
20
16.546225099339566
10
-55.8398403860039
20
16.089434724108628
10
-55.378469437475047
20
15.586510824960961
10
-54.841762276253043
20
15.048380055780086
10
-54.214187874444434
20
14.469631804670994
10
-53.498881876591994
20
13.863392367286025
10
-52.693208312482547
20
13.236388976212501
10
-51.786446884684061
20
12.589750789309022
10
-50.832294435866899
20
11.967265520988173
42
0.01522857912252663
10
-47.764131994992155
20
13.655077754191023
10
-47.779066515898883
20
14.7942316023105
10
-47.839772279302935
20
15.906289083067479
10
-47.938014822084085
20
16.922453693646332
10
-48.067099159868818
20
17.851176835143264
10
-48.219933507709442
20
18.691082362760135
10
-48.387109236916871
20
19.43249411926945
10
-48.564881765868506
20
20.091426949814711
10
-48.744638484929069
20
20.661058539519701
10
-48.916034146361554
20
21.13419122006329
10
-49.21497767313933
20
21.825942211770691
10
-49.665949503062869
20
22.662037694440222
10
-49.869226262255012
20
23.145102920825174
10
-49.93839966293514
20
23.365727971648038
10
-49.986746917031255
20
23.571370250916232
10
-50.014981001550176
20
23.761232979935471
10
-50.023766053576665
20
23.934621002656591
10
-50.013783608909648
20
24.09069724832106
10
-49.985819712809423
20
24.228925204022506
10
-49.940595954424722
20
24.348438405479737
10
-49.878928571387164
20
24.448738777017184
10
-49.801550890518044
20
24.529139839011506
10
-49.606233783647021
20
24.66889775115262
10
-48.30982942194467
20
25.625243295982326
10
-47.046577824827224
20
26.624971503540117
10
-46.860429341312084
20
26.776727197757836
10
-46.762528606173788
20
26.830272986816198
10
-46.649553394611431
20
26.863433688462695
10
-46.52235844577141
20
26.875681530500685
10
-46.381638713528169
20
26.866360721528544
10
-46.228419382127413
20
26.835002061682282
10
-46.063425597814899
20
26.780988196791064
10
-45.88764274862244
20
26.703881303914827
10
-45.701916897270607
20
26.603222800593475
10
-45.507203973984716
20
26.47853431468679
10
-45.094483067214021
20
26.155525246262393
10
-44.406177739250701
20
25.500798477356255
10
-43.817222262685071
20
25.030673063552804
10
-43.405712252293071
20
24.741034262451468
10
-42.903287059978268
20
24.417983947616953
10
-42.314174259794406
20
24.073395126150267
10
-41.642694418951002
20
23.717369145683715
10
-40.872412475063129
20
23.349313612004984
10
-40.010192779489074
20
22.980847922384548
10
-39.055501227089458
20
22.61917704177376
10
-37.998424571181218
20
22.26854017840671
10
-36.903181921414742
20
21.954951270251833
42
0.015228579184289767
10
-34.468820653850159
20
24.472135443589131
10
-34.818863120744616
20
25.556277782562869
10
-35.204656404837898
20
26.601036394559806
10
-35.598053825236164
20
27.543098549881972
10
-35.995149390452667
20
28.392512830009089
10
-36.388760182567296
20
29.150054663470058
10
-36.767043805443521
20
29.809251888435494
10
-37.131142563345556
20
30.386510801934836
10
-37.470814657038979
20
30.877850633478307
10
-37.774054326151123
20
31.279443671723207
10
-38.263613362148043
20
31.852347268661639
10
-38.940993372336301
20
32.518370435423407
10
-39.277625337381245
20
32.920058079871147
10
-39.408755809929531
20
33.110491870853124
10
-39.515569043735695
20
33.292747708043919
10
-39.598512209520337
20
33.465853028028242
10
-39.65801339850465
20
33.628948661494327
10
-39.694479213023264
20
33.781033019933126
10
-39.708500945257661
20
33.921362409989698
10
-39.700513359503439
20
34.048895795037765
10
-39.671149611027026
20
34.162916826413195
10
-39.620908311946046
20
34.262554167093818
10
-39.47546302892394
20
34.453673424283835
10
-38.518542191548661
20
35.749652992960542
10
-37.606088371092802
20
37.077315978637046
10
-37.472940744535926
20
37.277197875124806
10
-37.395172300034922
20
37.357221544705347
10
-37.296990256441973
20
37.422208958464914
10
-37.179056922685163
20
37.471404191054205
10
-37.041841261370124
20
37.503975546420186
10
-36.886186199902838
20
37.5191719174545
10
-36.712601765125022
20
37.516190568913956
10
-36.521900500365852
20
37.494322146628704
10
-36.31475662512787
20
37.452879262744375
10
-36.091941554220085
20
37.391123106430967
10
-35.602347605305212
20
37.204115665283616
10
-34.751638297830986
20
36.781358527793458
10
-34.050276328947916
20
36.505717066266008
10
-33.571676028531968
20
36.350240881578443
10
-32.996351503954799
20
36.189635261184712
10
-32.331841801061913
20
36.033999744516841
10
-31.58525358679503
20
35.891712676368385
10
-30.740706798164105
20
35.76705374223409
10
-29.808186023432391
20
35.669101590497178
10
-28.789304099284003
20
35.604898810601867
10
-27.675838293701858
20
35.581418453757763
10
-26.536822405313689
20
35.60459019830904
42
0.015228578659618696
10
-24.952565549594574
20
38.727483125717313
10
-25.60661344523426
20
39.660283158964617
10
-26.283215135582594
20
40.54491166350541
10
-26.936812840718257
20
41.329164697295937
10
-27.566635763886623
20
42.02379610948956
10
-28.166048757563843
20
42.631663684995083
10
-28.72182867981649
20
43.150073135332661
10
-29.239901196005036
20
43.594366437502885
10
-29.709307789565091
20
43.96375748132953
10
-30.117446601238189
20
44.258127476117238
10
-30.754122826548411
20
44.66127818819119
10
-31.597722062508836
20
45.098050771342038
10
-32.037798130873455
20
45.382668723470864
10
-32.219234053602442
20
45.525990852243666
10
-32.375022814114928
20
45.66866500629579
10
-32.505304447981793
20
45.809632394316836
10
-32.610235676783994
20
45.947943486504208
10
-32.689909016781961
20
46.082522963839423
10
-32.744670449528165
20
46.212484992384603
10
-32.774629018991213
20
46.336706733810892
10
-32.780178529032369
20
46.454317330053541
10
-32.76153776484972
20
46.564336516843582
10
-32.678887291628641
20
46.789835703473656
10
-32.146476668969534
20
48.310296400733215
10
-31.665895993505142
20
49.84792541300321
10
-31.597579985532114
20
50.078173055703687
10
-31.54685394247586
20
50.177563671277312
10
-31.472189112133044
20
50.268603743964462
10
-31.373995826073088
20
50.35037489638998
10
-31.252476773352313
20
50.421943823460978
10
-31.108216218484706
20
50.482345397606778
10
-30.941464737119411
20
50.530661785457923
10
-30.752790497628695
20
50.565974818619864
10
-30.542633767199568
20
50.587429799453652
10
-30.311514891895364
20
50.594093583691581
10
-29.788550835726276
20
50.559704594734953
10
-28.851025778765571
20
50.406480111758782
10
-28.099576972270359
20
50.349815062610631
10
-27.59641188110421
20
50.342315726590883
10
-26.999308018711176
20
50.358425343340976
10
-26.31844640829226
20
50.405572108407746
10
-25.563087366164851
20
50.489666998884843
10
-24.719317603733664
20
50.61948111167996
10
-23.799354379466912
20
50.800745764858711
10
-22.806813960078497
20
51.039716438522973
10
-21.73589533481341
20
51.345478861893277
10
-20.654312451819781
20
51.703351848073339
42
0.015228580038006482
10
-20.060929061639207
20
55.154471735423556
10
-20.960867273246009
20
55.853045769324098
10
-21.86815803937316
20
56.498940732046151
10
-22.723880888107324
20
57.055700415860215
10
-23.530468842673255
20
57.53382767830545
10
-24.282423841601538
20
57.93800929077355
10
-24.966315542705438
20
58.269568446372077
10
-25.592329196630033
20
58.541418318599334
10
-26.149761218551149
20
58.756038121123339
10
-26.626534926270185
20
58.917029418649243
10
-27.35375578294882
20
59.114605367099699
10
-28.288618051413753
20
59.283318242105913
10
-28.793034716909848
20
59.425576570791101
10
-29.008654978773407
20
59.509052003682392
10
-29.199576656561067
20
59.599468488701739
10
-29.365621219841348
20
59.695771729218656
10
-29.506658604477845
20
59.797009040699621
10
-29.622460290878738
20
59.902125548722644
10
-29.713095868550795
20
60.010172431755244
10
-29.778338387394371
20
60.120044697647032
10
-29.818307490360464
20
60.230794598507401
10
-29.832923248698314
20
60.341420598568234
10
-29.820412477221033
20
60.581263107182309
10
-29.759818606542694
20
62.191104590636961
10
-29.753812878452898
20
63.802074655051292
10
-29.756399028177462
20
64.04222927378234
10
-29.737222008758032
20
64.152156643792878
10
-29.692709383114178
20
64.261159689460385
10
-29.622980380287807
20
64.368240802301699
10
-29.527956045571489
20
64.472448738707598
10
-29.407907851340006
20
64.572688508381376
10
-29.262806271911966
20
64.668009013938942
10
-29.092922826288977
20
64.757366181660728
10
-28.898426650732144
20
64.83981290573152
10
-28.679540138215287
20
64.914303414371687
10
-28.169673542546185
20
65.035589001459783
10
-27.228636525435444
20
65.165511969000406
10
-26.49386978414897
20
65.332857773744692
10
-26.010848697969031
20
65.47400220321515
10
-25.445021258757397
20
65.665395405089427
10
-24.808304721229341
20
65.911135211513908
10
-24.111291702834112
20
66.214139971649487
10
-23.343271679498269
20
66.586892312636436
10
-22.5176082453102
20
67.03126817358411
10
-21.639601696696197
20
67.552177858331774
10
-20.706386049105689
20
68.160015101328838
0
CIRCLE
5
526
100
AcDbEntity
8
0
100
AcDbCircle
10
-1.3657904075588735e-14
20
63.201360654600627
30
0
40
3.2499999999999996
210
9.0236844834982326e-33
220
3.5200102345785962e-33
230
1
0
LWPOLYLINE
5
527
100
AcDbEntity
8
0
100
AcDbPolyline
90
513
70
1
43
0.0
10
-5.6875864315274818
20
90.106559800282113
42
0.025745439218038704
10
-8.4227291404755515
20
89.379519681762773
10
-8.6532306031323056
20
88.77671488059849
10
-8.8713586421334103
20
88.127487782947725
10
-9.0519537038980573
20
87.504856996620504
10
-9.1982703378436135
20
86.907284679430475
10
-9.309262596149491
20
86.355736695214091
10
-9.3937653789113167
20
85.821621989451614
10
-9.4514543999196619
20
85.320649089793761
10
-9.4850065140797639
20
84.858753684832948
10
-9.4979810928369304
20
84.437720131922603
10
-9.4752716149167604
20
83.699921649583032
10
-9.4079858300106149
20
83.113160453701909
10
-9.3201122161945591
20
82.675035481161672
10
-9.2610430123913492
20
82.46198263234578
10
-8.9712530381577373
20
82.074247070557945
10
-8.6810510118678295
20
81.639499232462711
10
-8.4421057045877106
20
81.214971993645463
10
-8.2530182212280998
20
80.804078986596494
10
-8.1120863719843541
20
80.410323828891876
10
-8.0176289991236001
20
80.036889517378455
10
-7.9675337606005048
20
79.686955132439564
10
-7.959617679999945
20
79.363507088852316
10
-7.9915555669161398
20
79.069506827790661
10
-8.0608650666821582
20
78.807599564804903
10
-8.164825193808035
20
78.580352158376428
10
-8.3006418173948155
20
78.390140517388062
10
-8.5106094792382159
20
78.207840937996707
10
-8.9968678360255634
20
77.919393086888874
10
-9.8660126129740249
20
77.351423785089523
10
-10.699468505813801
20
76.732268562730127
10
-11.138255448477741
20
76.375736473129663
10
-11.381910576078997
20
76.241751970679303
10
-11.607350984145082
20
76.180080299571358
10
-11.856527264488292
20
76.161105816526472
10
-12.126245161545819
20
76.186629416294366
10
-12.413155139560166
20
76.258315680341695
10
-12.713916540033832
20
76.377579797985533
10
-13.024946618451899
20
76.545578866776125
10
-13.342687748782343
20
76.763330458954769
10
-13.663428142352284
20
77.031715866242692
10
-13.983598722755708
20
77.3512123064707
10
-14.299323486034233
20
77.722205676729473
10
-14.606915947335668
20
78.144828605954558
10
-14.870537825571848
20
78.550809066450483
10
-15.050026342308755
20
78.679900670963846
10
-15.430745032829396
20
78.913842381540405
10
-15.958051213666529
20
79.179858058900223
10
-16.642491550217585
20
79.456270259432571
10
-17.042042610321989
20
79.589673416755375
10
-17.487050027411318
20
79.717897658659908
10
-17.977070822566205
20
79.836984327301991
10
-18.507460027851195
20
79.942370391766943
10
-19.063366208429308
20
80.028928961327082
10
-19.67467292101081
20
80.098255326189616
10
-20.321343640528834
20
80.144081595820538
10
-21.005948822669566
20
80.163885937044327
10
-21.651272465371427
20
80.156028990801445
42
0.02574544102836504
10
-23.279180902154373
20
77.840967814380505
10
-23.068279853792689
20
77.231029030837732
10
-22.818060722561682
20
76.593482200128605
10
-22.556184921722341
20
76.000435546080837
10
-22.284158131997359
20
75.448617709984148
10
-22.014654673295652
20
74.954763006616787
10
-21.736065614280619
20
74.491290131736164
10
-21.458238739563246
20
74.070440680959493
10
-21.187040328444127
20
73.695041539528034
10
-20.926344407866427
20
73.364171431427977
10
-20.43470023530795
20
72.813582119899365
10
-20.005993535509528
20
72.407347612152392
10
-19.657056801467018
20
72.128208544408366
10
-19.474859490989079
20
72.002969552478518
10
-19.003636533713223
20
71.892220175322507
10
-18.501877890897607
20
71.745722240172938
10
-18.045954334674434
20
71.574106670892888
10
-17.636988292261073
20
71.380887413610523
10
-17.275926905102324
20
71.169842166511714
10
-16.963529114378495
20
70.944491444656052
10
-16.700220883181917
20
70.708626524701046
10
-16.486248311840058
20
70.465939678830466
10
-16.321734432106876
20
70.220192945811732
10
-16.206477515405776
20
69.975009095866824
10
-16.140044272296386
20
69.734103434704679
10
-16.121820012208449
20
69.501091323649277
10
-16.165484505346416
20
69.226476882837702
10
-16.352569067648687
20
68.692952420724978
10
-16.653289606337218
20
67.69918753565841
10
-16.89376860428759
20
66.689151677027127
10
-17.000724411924672
20
66.133985302561143
10
-17.101251556164854
20
65.874728946587155
10
-17.234306671979954
20
65.682575587010291
10
-17.41299026183421
20
65.507872547490919
10
-17.63601245947098
20
65.354053434593624
10
-17.901877315152586
20
65.22454603691051
10
-18.208935788955657
20
65.12258238899139
10
-18.555186223256264
20
65.051350856092398
10
-18.9385582786377
20
65.013917885212848
10
-19.356774381885341
20
65.01334519017054
10
-19.80740724205813
20
65.052292128159863
10
-20.287736578267172
20
65.133545701941074
10
-20.795022745942433
20
65.259576701849227
10
-21.257928445295057
20
65.401122583837576
10
-21.478402847952442
20
65.384640054606095
10
-21.920424820476462
20
65.319128385391906
10
-22.495356798466219
20
65.183962148658082
10
-23.197343045609585
20
64.955756698357661
10
-23.589166450504528
20
64.80112301275588
10
-24.012482778084348
20
64.613302827895922
10
-24.464407822446205
20
64.389549300715274
10
-24.93845080706452
20
64.129352472053952
10
-25.419938338343879
20
63.838330198055004
10
-25.932788282816666
20
63.498497098515685
10
-26.457623624084583
20
63.117929654352771
10
-26.994790988289846
20
62.693045359415891
10
-27.484087035800691
20
62.272220710763548
42
0.025745442274388724
10
-27.243044899871151
20
59.452381431630535
10
-26.689424749667282
20
59.120705898700749
10
-26.087938334390302
20
58.793154384069481
10
-25.506126736092408
20
58.507184404725379
10
-24.943040363967988
20
58.259323097685026
10
-24.419145302751421
20
58.054241851997162
10
-23.907818880494602
20
57.878274895149993
10
-23.424474383470155
20
57.734469046186277
10
-22.975422533874415
20
57.621219691333117
10
-22.56303880928446
20
57.535330409735749
10
-21.832505568491491
20
57.429577648086195
10
-21.242974451626637
20
57.393950941136424
10
-20.796246374841001
20
57.404410286785399
10
-20.576173066724127
20
57.425585780982615
10
-20.144006685065538
20
57.643643252911758
10
-19.665470414255893
20
57.853943413443318
10
-19.205900266874153
20
58.015540225402958
10
-18.768415054120386
20
58.1304042259505
10
-18.356169115729607
20
58.200820177838636
10
-17.972005842136422
20
58.228996616970754
10
-17.61868912063369
20
58.217564783934904
10
-17.298780368305671
20
58.169194724146536
10
-17.014792368532035
20
58.086689278965196
10
-16.768899362247311
20
57.972953216257459
10
-16.563157282416928
20
57.831111538365967
10
-16.39941959179777
20
57.664328052460746
10
-16.256349779861385
20
57.425894452872733
10
-16.056722038152778
20
56.896935251005225
10
-15.648307202388763
20
55.942367494411762
10
-15.183286316223048
20
55.014058356554322
10
-14.908365270294258
20
54.52002648409524
10
-14.818726489906904
20
54.256807104963173
10
-14.797138929062461
20
54.024082504379592
10
-14.821721788286389
20
53.775396863394079
10
-14.893693526564968
20
53.514208557015039
10
-15.014112213795679
20
53.244105479902544
10
-15.183791368547618
20
52.968623616719732
10
-15.403248048064491
20
52.691491593461102
10
-15.672866513645884
20
52.416389402416499
10
-15.992870637502545
20
52.147126555527578
10
-16.363110220865114
20
51.887300265650076
10
-16.78329244014288
20
51.640794378087911
10
-17.25290751356145
20
51.411262674791672
10
-17.698497772426421
20
51.222143231833918
10
-17.856795996722084
20
51.067798375473757
10
-18.153294475931638
20
50.733487106853595
10
-18.506834673130761
20
50.260385078783116
10
-18.897899520745518
20
49.634341352307032
10
-19.098657294016121
20
49.264025782189556
10
-19.302207890878272
20
48.848044851716715
10
-19.504576751203697
20
48.386147818417527
10
-19.700463099670504
20
47.882116451849576
10
-19.882238657163398
20
47.349686175477046
10
-20.05666380709939
20
46.759705364712985
10
-20.214087312524786
20
46.130816340369599
10
-20.352471004741609
20
45.460051212900645
10
-20.456792538580363
20
44.823167248603554
42
0.025745442684730956
10
-18.459585933200223
20
42.817983757613341
10
-17.822291041312209
20
42.919766363728527
10
-17.150980008373836
20
43.055475384454724
10
-16.521468302491211
20
43.210390610166208
10
-15.930796901606822
20
43.382462970717015
10
-15.397646379586792
20
43.562114654847122
10
-14.892838309116417
20
43.75599078256586
10
-14.430138394037655
20
43.956516778968712
10
-14.013349268945232
20
44.158407740235418
10
-13.642236507955911
20
44.357687633795038
10
-13.014639160284567
20
44.746254214860805
10
-12.540131249756834
20
45.097905937044288
10
-12.204640998418162
20
45.393069441316015
10
-12.049666700303941
20
45.550751408962931
10
-11.858772517517107
20
45.995584337351957
10
-11.627370591859989
20
46.46428063310718
10
-11.379191852326539
20
46.883477159474978
10
-11.117892049464169
20
47.252677987846674
10
-10.847355848745796
20
47.571606194652098
10
-10.571181237864455
20
47.840126109110571
10
-10.293176701171964
20
48.058476222714603
10
-10.017020497671407
20
48.227056301903716
10
-9.7464396108972693
20
48.346397289220619
10
-9.4849666316937693
20
48.417327545653919
10
-9.2361847333391687
20
48.440918737899835
10
-9.0035484348910124
20
48.418403629959002
10
-8.7406883214067204
20
48.327716665178912
10
-8.2477560670224843
20
48.050828527634756
10
-7.3213076859798409
20
47.582111148567478
10
-6.3683756592890894
20
47.169895135186636
10
-5.8402164674670125
20
46.968160524327857
10
-5.6023547603844879
20
46.824141472230458
10
-5.4362254220642923
20
46.659740102091561
10
-5.2952046360682425
20
46.453434379226053
10
-5.1824496342230422
20
46.207089931997913
10
-5.10107679816557
20
45.922775431899495
10
-5.0539823105712127
20
45.602676578912671
10
-5.0439589404748508
20
45.249316964450081
10
-5.0736667096802615
20
44.865269082098358
10
-5.1457250657328126
20
44.453306687039039
10
-5.2623316869271974
20
44.016282887772206
10
-5.4257590582921287
20
43.557360577323848
10
-5.6379650905773637
20
43.079666134709115
10
-5.8577432577634401
20
42.648372664746276
10
-5.8797958172252764
20
42.428385506788864
10
-5.892035620637551
20
41.98170256473972
10
-5.8587593759728795
20
41.392034351862755
10
-5.7559189406285398
20
40.661085361003309
10
-5.6716742392132211
20
40.248362425217763
10
-5.56021556231258
20
39.798862639984705
10
-5.4183375519765864
20
39.314948739877103
10
-5.2444098144205888
20
38.802925193873946
10
-5.0414184649408531
20
38.278216613491807
10
-4.7958032963287787
20
37.71414685937431
10
-4.5121550304943856
20
37.131200094882352
10
-4.1870036400441508
20
36.528413110724991
10
-3.8575373256210699
20
35.973474720918539
42
0.0257454409790045
10
-1.038681358988669
20
35.72119484795158
10
-0.61590960667406791
20
36.208809733011911
10
-0.18888716675265932
20
36.744279903188385
10
0.19376871138933238
20
37.267593905861382
10
0.53564348004690343
20
37.779085532642867
10
0.82858221832002532
20
38.259409343408272
10
1.0906668328797078
20
38.732411020442676
10
1.3162199938098407
20
39.183440715614651
10
1.5057255800524354
20
39.606005137045692
10
1.6619198412867056
20
39.997209437599423
10
1.8929218047437852
20
40.698280312604382
10
2.0303783925702144
20
41.272668539688965
10
2.0976512335667183
20
41.714426177000988
10
2.1150129785463982
20
41.934833390602336
10
1.975312993277736
20
42.398299185570202
10
1.8513046577782326
20
42.906083780928206
10
1.7719663981178466
20
43.386732974703989
10
1.7348160910921617
20
43.837517879688768
10
1.7370558510312775
20
44.255728484991799
10
1.7760162958698678
20
44.638948089837349
10
1.8486273740115133
20
44.984912001432704
10
1.9518145506791573
20
45.291561241352852
10
2.0823805444149461
20
45.556907764256479
10
2.2370873746536417
20
45.779315036654971
10
2.4125009225870029
20
45.957300813878696
10
2.6051832829687447
20
46.08958944001099
10
2.8648384939286471
20
46.189082351942545
10
3.4204266342464038
20
46.293824560748277
10
4.4314126719237326
20
46.530275710683604
10
5.4263686350797951
20
46.827032180644146
10
5.960634816544653
20
47.011988931527185
10
6.2354208687909676
20
47.054558652657768
10
6.4683581919379032
20
47.035405921908847
10
6.7089973752629675
20
46.968012485958859
10
6.9537199187309637
20
46.851779539334188
10
7.1988087767469464
20
46.686287443446133
10
7.4406411962982721
20
46.471349354484559
10
7.6754544959278252
20
46.207102649675718
10
7.8995587743215552
20
45.893809412102868
10
8.1091626527553302
20
45.531910082874759
10
8.3007502366743502
20
45.122176831486641
10
8.4705472619365345
20
44.665572838314098
10
8.6150440444849714
20
44.163234726456736
10
8.72391418730815
20
43.691573421023591
10
8.8484259725541108
20
43.508878312820443
10
9.1261720637968562
20
43.158832069635515
10
9.5306947440087342
20
42.728509540552444
10
10.079319787572736
20
42.234674666830081
10
10.409148365744144
20
41.972661878226774
10
10.783463709137779
20
41.699969499916335
10
11.203202273003702
20
41.420467429547834
10
11.665561108830822
20
41.140032862957263
10
12.15833769273245
20
40.868563345966422
10
12.709066511996046
20
40.594338986593442
10
13.301065116317199
20
40.330101735438227
10
13.93760951648434
20
40.077343170126682
10
14.546702696109314
20
39.864012801096401
42
0.025745439038714436
10
16.868233954762914
20
41.482680590373462
10
16.878663086400948
20
42.127968068893708
10
16.861587687828727
20
42.812646659682187
10
16.818339349363601
20
43.459495307652681
10
16.751450460720825
20
44.071072754406053
10
16.667108236410925
20
44.627319598428301
10
16.563836916975916
20
45.158125093306992
10
16.446704240167371
20
45.648616323504768
10
16.320254965310376
20
46.094131411081634
10
16.188445686348246
20
46.49421120179592
10
15.914763289490956
20
47.179747868120508
10
15.650851345321756
20
47.70811013091668
10
15.418429345570914
20
48.089758028436208
10
15.290054430330768
20
48.269759367041189
10
14.885127852364173
20
48.534998112132293
10
14.463734258759741
20
48.844272102518893
10
14.094002132268621
20
49.161473379212964
10
13.775784451262334
20
49.48291470766263
10
13.508679732430871
20
49.804721915485047
10
13.292196428024642
20
50.123329048802248
10
13.125438562377594
20
50.435026089304877
10
13.007373836560143
20
50.736260251688407
10
12.936831640684058
20
51.023453724088071
10
12.912383174408893
20
51.293271599333195
10
12.932350628186134
20
51.542370387462817
10
12.99492074358901
20
51.767563134778257
10
13.129875348252771
20
52.010682063106145
10
13.488153629961646
20
52.448044440892552
10
14.110625993222497
20
53.279025866495708
10
14.682054694159223
20
54.145900273815911
10
14.972438414867902
20
54.631004802649272
10
15.155573693689245
20
54.84024389599054
10
15.346325478373501
20
54.975301741096906
10
15.573985051071212
20
55.07835512637412
10
15.836166639884555
20
55.146619546039936
10
16.130292049848421
20
55.177385483399092
10
16.453705906505061
20
55.168179901302821
10
16.803437670755443
20
55.116691120121253
10
17.176492440920043
20
55.020745528014643
10
17.569682925014948
20
54.87824561978411
10
17.979818943908001
20
54.687521918459225
10
18.403390542974705
20
54.446886135251347
10
18.836977872488148
20
54.15495358902551
10
19.223555511679788
20
53.86362049930127
10
19.43637136266506
20
53.803702831773961
10
19.874142493255093
20
53.714083514541684
10
20.460630943624029
20
53.644459731205181
10
21.198332864144223
20
53.618809269497454
10
21.619414906247844
20
53.630105701515461
10
22.081440226194733
20
53.661815985312344
10
22.58263902078393
20
53.717508167255488
10
23.117086450077345
20
53.799881101723734
10
23.669072043594596
20
53.908673925180366
10
24.267222822430689
20
54.052608002726402
10
24.890568597507258
20
54.230719886118365
10
25.54066024675901
20
54.446258357263631
10
26.144378186336041
20
54.674355376108949
42
0.025745440964524247
10
26.882314803002714
20
57.406578574766094
10
26.475521644444477
20
57.907600719474857
10
26.022338440101599
20
58.42111924997355
10
25.573422006389222
20
58.888834357015163
10
25.129067239450379
20
59.314334313654399
10
24.706908975736241
20
59.686230613740676
10
24.286603477622087
20
60.026469645358546
10
23.88159279395726
20
60.326916095039429
10
23.498355783024959
20
60.586920538733516
10
23.140217357624277
20
60.808673534104535
10
22.489910321627153
20
61.157905888952477
10
21.948117533341531
20
61.393015783461287
10
21.52475321461268
20
61.535977041324237
10
21.310709259121129
20
61.591347712087568
10
20.830025555674805
20
61.534250555892001
10
20.308421603727773
20
61.500302098231998
10
19.821298010488327
20
61.50563302108705
10
19.370910270692232
20
61.547324989358721
10
18.959442220730111
20
61.622151940257915
10
18.58881023698801
20
61.727066337312841
10
18.260710672178021
20
61.858650155073597
10
17.976638177671305
20
62.013518573045864
10
17.737995631387481
20
62.188178057196232
10
17.545831487970283
20
62.379155306917191
10
17.401010137552756
20
62.582810613951516
10
17.304190462691377
20
62.795537362880708
10
17.251297800644888
20
63.06852436062627
10
17.244623903048002
20
63.633860349278265
10
17.187320509359413
20
64.670546576570786
10
17.067844618676972
20
65.701918476290714
10
16.978471915944706
20
66.260184966344383
10
16.984265336463437
20
66.538188520892149
10
17.043576406209326
20
66.764261562138984
10
17.151731900556488
20
66.989541768049349
10
17.308695249342943
20
67.210362825915212
10
17.514232391299821
20
67.4229910619663
10
17.767898850605
20
67.623825586903678
10
18.068905558926712
20
67.809186132575704
10
18.416354458462564
20
67.975482422748769
10
18.809153418490649
20
68.119058956946049
10
19.245930620088455
20
68.236586315984866
10
19.725082754731929
20
68.324515256174422
10
20.244880794744468
20
68.379586559158511
10
20.728281536909357
20
68.404900443010732
10
20.929822159533984
20
68.495795786049186
10
21.322780653466911
20
68.708537017521749
10
21.816810589639374
20
69.032189553038918
10
22.398410490846075
20
69.486726343366016
10
22.713716395961047
20
69.766045911423134
10
23.047265589723853
20
70.087321665157276
10
23.395407920968619
20
70.452148686217186
10
23.751869842271741
20
70.858786378161
10
24.104784883775721
20
71.296935935408868
10
24.470476217339542
20
71.791679778237977
10
24.833498671023175
20
72.328800273099006
10
25.192951798733954
20
72.911783159201121
10
25.508809706157194
20
73.474578764339043
42
0.025745440091281491
10
24.31786243153028
20
76.04191943202062
10
23.684189217298194
20
76.164242535972519
10
23.00694788931429
20
76.266319860484913
10
22.36241621033296
20
76.336052511859677
10
21.74851444154482
20
76.376379174748976
10
21.186072454975569
20
76.389909613776823
10
20.645398327826747
20
76.380380601217453
10
20.142018745753354
20
76.350200567227759
10
19.681314294817518
20
76.303035076822553
10
19.264424566579677
20
76.242701094774489
10
18.541778430564122
20
76.092219531298127
10
17.975615142939265
20
75.924065811960546
10
17.559405567900257
20
75.761447242392535
10
17.359846966016764
20
75.666279231126637
10
17.028322876455725
20
75.313562846077716
10
16.650573022713729
20
74.952276396274868
10
16.273987726150946
20
74.643242771779128
10
15.90217199076327
20
74.385677124076722
10
15.538871054071002
20
74.178511312298397
10
15.187512818508589
20
74.020642429308509
10
14.851593509170355
20
73.910543437668153
10
14.53443421473499
20
73.846581254024159
10
14.239354341266004
20
73.826981464139294
10
13.96939014075209
20
73.849757831280101
10
13.727543349709343
20
73.912677715218521
10
13.516636729239657
20
74.013401200141629
10
13.300646011417738
20
74.188522729021628
10
12.932142886976365
20
74.61730519273425
10
12.221876724007839
20
75.374619171033999
10
11.467399969207744
20
76.087898106130623
10
11.040089595379969
20
76.458107729713561
10
10.865830476968242
20
76.67479481813109
10
10.765948269636411
20
76.886100908456882
10
10.703993096976788
20
77.128196476777987
10
10.682292994314098
20
77.398249200279679
10
10.703068538405587
20
77.693248483445245
10
10.768294382251746
20
78.010150673900057
10
10.879731727328394
20
78.345628458033772
10
11.038999504316099
20
78.696354666486172
10
11.247611729129957
20
79.058826690756604
10
11.50665745895785
20
79.429613214560987
10
11.817189316330598
20
79.80496342354671
10
12.179978701457424
20
80.181270535495926
10
12.534013804412735
20
80.511385748535119
10
12.629976875398297
20
80.71056359637538
10
12.794253210253682
20
81.126121719180091
10
12.964661600883318
20
81.691610064185767
10
13.118022594057088
20
82.413650841782683
10
13.180018084760334
20
82.830297072819249
10
13.229019068946521
20
83.29080963598966
10
13.261205759848053
20
83.794064779964671
10
13.272889698233652
20
84.334696628790681
10
13.261600645611381
20
84.897188419780463
10
13.223721770820575
20
85.511245878692762
10
13.156558718172938
20
86.15605012043676
10
13.057181471805466
20
86.833693434259317
10
12.937384580047835
20
87.467848469610658
42
0.025745441970347907
10
10.374811416368281
20
88.669020057206836
10
9.8107616632662893
20
88.355407996207447
10
9.2263506465615173
20
87.99828092005022
10
8.6877873867287683
20
87.637402251423836
10
8.1915899032471238
20
87.273686111710802
10
7.7520370663404501
20
86.92252051337644
10
7.3439819635186563
20
86.567681975344911
10
6.9777701433027319
20
86.220996594110858
10
6.6551675685639999
20
85.888730861387131
10
6.374593122936175
20
85.574540352270233
10
5.9177422790004863
20
84.994756447595165
10
5.5921231063048413
20
84.502020891748799
10
5.3778170292700453
20
84.109913648580289
10
5.2861186363933124
20
83.908736815778084
10
5.2588788327013205
20
83.425440598757845
10
5.2017361554961106
20
82.905866447839685
10
5.111898134605477
20
82.427068359185981
10
4.9926306028579921
20
81.990763030188759
10
4.8474893832986963
20
81.59853987047822
10
4.679809414111733
20
81.25175629802888
10
4.4932505582560447
20
80.951491090562101
10
4.2914065317454755
20
80.698626987966961
10
4.0779607278479286
20
80.493938960748636
10
3.8565161878383654
20
80.337857148211242
10
3.6308066542307604
20
80.230600037973105
10
3.4044988482087106
20
80.172190776562914
10
3.1264744316085755
20
80.167505447823032
10
2.5685684081910933
20
80.259102271904112
10
1.5376812091662129
20
80.382688602894419
10
0.50123162206377447
20
80.444123333431676
10
-0.064073144573685153
20
80.453050677057377
10
-0.33684720378239008
20
80.507030962848191
10
-0.54918654931108024
20
80.604697718325411
10
-0.75226326278487132
20
80.75032997403369
10
-0.94247311331963624
20
80.943253860746935
10
-1.1161798360527915
20
81.182591000500267
10
-1.2699145379574959
20
81.467278445779357
10
-1.4001896226910036
20
81.795899250219549
10
-1.5036259272742112
20
82.166947033370747
10
-1.5768122875124566
20
82.578709788490215
10
-1.6167087230429349
20
83.029259779692595
10
-1.6200981028318591
20
83.516401450462638
10
-1.5840703589267475
20
84.037865699984721
10
-1.5250577392534153
20
84.518318232666715
10
-1.5795753659430134
20
84.732580756554171
10
-1.7208480173234888
20
85.156511342406617
10
-1.9537962704933194
20
85.699237153813613
10
-2.3004333433987534
20
86.350931341997409
10
-2.5207576122317872
20
86.709950480096879
10
-2.7792323353165131
20
87.094221126772851
10
-3.0780622695802764
20
87.500425978128874
10
-3.4166233504068844
20
87.922084410228564
10
-3.7868333864312387
20
88.345721863144476
10
-4.2105590153313468
20
88.791768596362488
10
-4.676481284982529
20
89.242545737313947
10
-5.1881892420174571
20
89.697772393637592
0
CIRCLE
5
528
100
AcDbEntity
8
0
100
AcDbCircle
10
0.00017431647975263203
20
63.201240337249914
30
0
40
3
210
0
220
0
230
1
0
CIRCLE
5
529
100
AcDbEntity
8
0
100
AcDbCircle
10
0
20
51.000000759959221
30
0
40
1.1000000000000032
210
0
220
0
230
1
0
CIRCLE
5
530
100
AcDbEntity
8
0
100
AcDbCircle
10
10.566844906313477
20
69.3017091633955
30
0
40
1.1000000000000032
210
0
220
0
230
1
0
CIRCLE
5
531
100
AcDbEntity
8
0
100
AcDbCircle
10
-10.566321956874214
20
69.302011088395034
30
0
40
1.1000000000000032
210
0
220
0
230
1
0
CIRCLE
5
532
100
AcDbEntity
8
0
100
AcDbCircle
10
-76.999648093102536
20
22.444122384886896
30
0
40
1.0999999999999988
210
0
220
0
230
1
0
CIRCLE
5
533
100
AcDbEntity
8
0
100
AcDbCircle
10
-41.732014514106069
20
83.529964388841321
30
0
40
1.0999999999999988
210
0
220
0
230
1
0
CIRCLE
5
534
100
AcDbEntity
8
0
100
AcDbCircle
10
-112.26772229059135
20
83.529709997636161
30
0
40
1.0999999999999988
210
0
220
0
230
1
0
CIRCLE
5
535
100
AcDbEntity
8
0
100
AcDbCircle
10
-76.999717171163994
20
63.1678455393386
30
0
40
2.9999999999999991
210
0
220
0
230
1
0
ENDSEC
0
SECTION
2
OBJECTS
0
DICTIONARY
5
C
100
AcDbDictionary
3
ACAD_GROUP
350
D
3
ACAD_MLINESTYLE
350
17
0
DICTIONARY
5
D
100
AcDbDictionary
0
DICTIONARY
5
1A
330
C
100
AcDbDictionary
0
DICTIONARY
5
17
100
AcDbDictionary
0
ENDSEC
0
EOF
