0
SECTION
2
HEADER
9
$INSUNITS
70
4
9
$ACADVER
1
AC1014
9
$HANDSEED
5
FFFF
0
ENDSEC
0
SECTION
2
TABLES
0
TABLE
2
VPORT
5
8
100
AcDbSymbolTable
0
ENDTAB
0
TABLE
2
LTYPE
5
5
100
AcDbSymbolTable
0
LTYPE
5
14
100
AcDbSymbolTableRecord
100
AcDbLinetypeTableRecord
2
BYBLOCK
70
0
0
LTYPE
5
15
100
AcDbSymbolTableRecord
100
AcDbLinetypeTableRecord
2
BYLAYER
70
0
0
ENDTAB
0
TABLE
2
LAYER
5
2
100
AcDbSymbolTable
70
2
0
LAYER
5
50
100
AcDbSymbolTableRecord
100
AcDbLayerTableRecord
2
0
70
0
6
CONTINUOUS
0
ENDTAB
0
TABLE
2
STYLE
5
3
100
AcDbSymbolTable
70
1
0
STYLE
5
11
100
AcDbSymbolTableRecord
100
AcDbTextStyleTableRecord
2
STANDARD
70
0
0
ENDTAB
0
TABLE
2
VIEW
5
6
100
AcDbSymbolTable
70
0
0
ENDTAB
0
TABLE
2
UCS
5
7
100
AcDbSymbolTable
70
0
0
ENDTAB
0
TABLE
2
APPID
5
9
100
AcDbSymbolTable
70
2
0
APPID
5
12
100
AcDbSymbolTableRecord
100
AcDbRegAppTableRecord
2
ACAD
70
0
0
ENDTAB
0
TABLE
2
DIMSTYLE
5
A
100
AcDbSymbolTable
70
1
0
ENDTAB
0
TABLE
2
BLOCK_RECORD
5
1
100
AcDbSymbolTable
70
1
0
BLOCK_RECORD
5
1F
100
AcDbSymbolTableRecord
100
AcDbBlockTableRecord
2
*MODEL_SPACE
0
BLOCK_RECORD
5
1B
100
AcDbSymbolTableRecord
100
AcDbBlockTableRecord
2
*PAPER_SPACE
0
ENDTAB
0
ENDSEC
0
SECTION
2
BLOCKS
0
BLOCK
5
20
100
AcDbEntity
100
AcDbBlockBegin
2
*MODEL_SPACE
0
ENDBLK
5
21
100
AcDbEntity
100
AcDbBlockEnd
0
BLOCK
5
1C
100
AcDbEntity
100
AcDbBlockBegin
2
*PAPER_SPACE
0
ENDBLK
5
1D
100
AcDbEntity
100
AcDbBlockEnd
0
ENDSEC
0
SECTION
2
ENTITIES
0
CIRCLE
5
100
100
AcDbEntity
8
0
100
AcDbCircle
10
15.800518183430071
20
168.13308999818111
30
1.1102230246251565e-15
40
2.0000000000000022
210
-5.3681341913403337e-18
220
-7.4371100297574431e-19
230
1
0
CIRCLE
5
101
100
AcDbEntity
8
0
100
AcDbCircle
10
107.16267199788483
20
151.5521607366077
30
0
40
2.0000000000000102
210
-3.246842662361923e-17
220
5.251797969568835e-18
230
1
0
LWPOLYLINE
5
102
100
AcDbEntity
8
0
100
AcDbPolyline
90
4
70
1
43
0.0
10
16.514793320461777
20
172.06879972180388
42
0.99999998946328772
10
15.086242929105072
20
164.19738029584539
10
106.44839675927417
20
147.61645103142013
42
0.99999999999999989
10
107.87694723649544
20
155.48787044179531
0
CIRCLE
5
103
100
AcDbEntity
8
0
100
AcDbCircle
10
80
20
180
30
0
40
3.0000000000000071
210
0
220
0
230
1
0
CIRCLE
5
104
100
AcDbEntity
8
0
100
AcDbCircle
10
80
20
180
30
0
40
6.0000000000000142
210
0
220
0
230
1
0
CIRCLE
5
105
100
AcDbEntity
8
0
100
AcDbCircle
10
130.00000193715096
20
195.00000290572643
30
0
40
8.9999999999999858
210
0
220
0
230
1
0
CIRCLE
5
106
100
AcDbEntity
8
0
100
AcDbCircle
10
130.00000193715096
20
195.00000290572643
30
0
40
3.0000000447034836
210
0
220
0
230
1
0
LWPOLYLINE
5
107
100
AcDbEntity
8
0
100
AcDbPolyline
90
4
70
1
43
0.0
10
131.50000193715093
20
201.00000301003456
10
128.50000193715087
20
201.00000301003456
10
128.50000193715087
20
203.00000301003453
10
131.5000019371509
20
203.00000301003453
0
LINE
5
108
100
AcDbEntity
8
0
100
AcDbLine
10
131.50000193715093
20
201.00000301003456
30
0
11
128.50000193715087
21
203.00000301003453
31
0
0
LINE
5
109
100
AcDbEntity
8
0
100
AcDbLine
10
128.50000193715087
20
201.00000301003456
30
0
11
131.5000019371509
21
203.00000301003453
31
0
0
LWPOLYLINE
5
110
100
AcDbEntity
8
0
100
AcDbPolyline
90
3
70
1
43
0.0
10
123.82179861654203
20
189.70096474789563
10
122.32179861654201
20
192.29904095924897
10
125.55384942411084
20
190.70096474789565
0
LINE
5
111
100
AcDbEntity
8
0
100
AcDbLine
10
124.05384942411088
20
193.299040959249
30
0
11
123.82179861654203
21
189.70096474789563
31
0
0
LINE
5
112
100
AcDbEntity
8
0
100
AcDbLine
10
122.32179861654201
20
192.29904095924897
30
0
11
124.05384942411088
21
193.299040959249
31
0
0
LINE
5
113
100
AcDbEntity
8
0
100
AcDbLine
10
124.05384942411088
20
193.299040959249
30
0
11
125.55384942411084
21
190.70096474789565
31
0
0
LWPOLYLINE
5
114
100
AcDbEntity
8
0
100
AcDbPolyline
90
3
70
1
43
0.0
10
137.67820525775997
20
192.29904095924917
10
136.17820525775994
20
189.7009647478958
10
135.94615445019113
20
193.29904095924906
0
LINE
5
115
100
AcDbEntity
8
0
100
AcDbLine
10
134.44615445019107
20
190.70096474789577
30
0
11
137.67820525775997
21
192.29904095924917
31
0
0
LINE
5
116
100
AcDbEntity
8
0
100
AcDbLine
10
136.17820525775994
20
189.7009647478958
30
0
11
134.44615445019107
21
190.70096474789577
31
0
0
LINE
5
117
100
AcDbEntity
8
0
100
AcDbLine
10
134.44615445019107
20
190.70096474789577
30
0
11
135.94615445019113
21
193.29904095924906
31
0
0
CIRCLE
5
118
100
AcDbEntity
8
0
100
AcDbCircle
10
130.00000193715096
20
195.00000290572643
30
0
40
8.9999999999999858
210
0
220
0
230
1
0
LWPOLYLINE
5
119
100
AcDbEntity
8
0
100
AcDbPolyline
90
3
70
1
43
0.0
10
158.67820525775997
20
192.29904095924911
10
157.17820525775994
20
189.7009647478958
10
156.9461544501911
20
193.29904095924914
0
LINE
5
120
100
AcDbEntity
8
0
100
AcDbLine
10
157.17820525775994
20
189.7009647478958
30
0
11
155.44615445019107
21
190.7009647478958
31
0
0
LWPOLYLINE
5
121
100
AcDbEntity
8
0
100
AcDbPolyline
90
3
70
1
43
0.0
10
149.50000193715087
20
201.00000301003459
10
152.5000019371509
20
203.00000301003456
10
152.50000193715093
20
201.00000301003459
0
LINE
5
122
100
AcDbEntity
8
0
100
AcDbLine
10
149.50000193715087
20
203.00000301003456
30
0
11
152.5000019371509
21
203.00000301003456
31
0
0
LWPOLYLINE
5
123
100
AcDbEntity
8
0
100
AcDbPolyline
90
4
70
1
43
0.0
10
146.55384942411089
20
190.70096474789568
10
143.321798616542
20
192.29904095924906
10
145.05384942411087
20
193.29904095924903
10
144.821798616542
20
189.70096474789568
0
LINE
5
124
100
AcDbEntity
8
0
100
AcDbLine
10
155.44615445019107
20
190.7009647478958
30
0
11
158.67820525775997
21
192.29904095924911
31
0
0
LINE
5
125
100
AcDbEntity
8
0
100
AcDbLine
10
155.44615445019107
20
190.7009647478958
30
0
11
156.9461544501911
21
193.29904095924914
31
0
0
LINE
5
126
100
AcDbEntity
8
0
100
AcDbLine
10
149.50000193715087
20
201.00000301003459
30
0
11
149.50000193715087
21
203.00000301003456
31
0
0
LINE
5
127
100
AcDbEntity
8
0
100
AcDbLine
10
144.821798616542
20
189.70096474789568
30
0
11
143.321798616542
21
192.29904095924906
31
0
0
CIRCLE
5
128
100
AcDbEntity
8
0
100
AcDbCircle
10
151.00000193715096
20
195.00000290572646
30
0
40
2
210
0
220
0
230
1
0
CIRCLE
5
129
100
AcDbEntity
8
0
100
AcDbCircle
10
151.00000193715096
20
195.00000290572646
30
0
40
8.9999999999999858
210
0
220
0
230
1
0
LINE
5
130
100
AcDbEntity
8
0
100
AcDbLine
10
152.50000193715093
20
201.00000301003459
30
0
11
149.50000193715087
21
203.00000301003456
31
0
0
CIRCLE
5
131
100
AcDbEntity
8
0
100
AcDbCircle
10
151.00000193715096
20
195.00000290572646
30
0
40
8.9999999999999858
210
0
220
0
230
1
0
LINE
5
132
100
AcDbEntity
8
0
100
AcDbLine
10
145.05384942411087
20
193.29904095924903
30
0
11
146.55384942411089
21
190.70096474789568
31
0
0
CIRCLE
5
133
100
AcDbEntity
8
0
100
AcDbCircle
10
108.11814093322195
20
140.70134668792909
30
1.1102230246251565e-15
40
3.2499999999999747
210
4.8623983719662908e-18
220
-4.3071226645253756e-18
230
1
0
LWPOLYLINE
5
134
100
AcDbEntity
8
0
100
AcDbPolyline
90
4
70
1
43
0.0
10
114.09501426075464
20
141.22764054750564
10
113.22726096672413
20
151.08230904419383
42
0.9999999925494194
10
101.27351431165874
20
150.02972132504073
10
102.14126760568925
20
140.17505282835253
42
0.99999999999999989
0
CIRCLE
5
135
100
AcDbEntity
8
0
100
AcDbCircle
10
107.16267199592866
20
151.55216073920607
30
0
40
2.0000000000000102
210
4.5580736046149525e-18
220
-8.5104840232243368e-19
230
1
0
CIRCLE
5
136
100
AcDbEntity
8
0
100
AcDbCircle
10
103.0000015348196
20
177.00000263750553
30
0
40
2.0000000000000031
210
0
220
0
230
1
0
CIRCLE
5
137
100
AcDbEntity
8
0
100
AcDbCircle
10
103.0000015348196
20
177.00000263750553
30
0
40
3.9999999999999858
210
0
220
0
230
1
0
ENDSEC
0
SECTION
2
OBJECTS
0
DICTIONARY
5
C
100
AcDbDictionary
3
ACAD_GROUP
350
D
3
ACAD_MLINESTYLE
350
17
0
DICTIONARY
5
D
100
AcDbDictionary
0
DICTIONARY
5
1A
330
C
100
AcDbDictionary
0
DICTIONARY
5
17
100
AcDbDictionary
0
ENDSEC
0
EOF
