0
SECTION
2
HEADER
9
$INSUNITS
70
4
9
$ACADVER
1
AC1014
9
$HANDSEED
5
FFFF
0
ENDSEC
0
SECTION
2
TABLES
0
TABLE
2
VPORT
5
8
100
AcDbSymbolTable
0
ENDTAB
0
TABLE
2
LTYPE
5
5
100
AcDbSymbolTable
0
LTYPE
5
14
100
AcDbSymbolTableRecord
100
AcDbLinetypeTableRecord
2
BYBLOCK
70
0
0
LTYPE
5
15
100
AcDbSymbolTableRecord
100
AcDbLinetypeTableRecord
2
BYLAYER
70
0
0
ENDTAB
0
TABLE
2
LAYER
5
2
100
AcDbSymbolTable
70
2
0
LAYER
5
50
100
AcDbSymbolTableRecord
100
AcDbLayerTableRecord
2
0
70
0
6
CONTINUOUS
0
ENDTAB
0
TABLE
2
STYLE
5
3
100
AcDbSymbolTable
70
1
0
STYLE
5
11
100
AcDbSymbolTableRecord
100
AcDbTextStyleTableRecord
2
STANDARD
70
0
0
ENDTAB
0
TABLE
2
VIEW
5
6
100
AcDbSymbolTable
70
0
0
ENDTAB
0
TABLE
2
UCS
5
7
100
AcDbSymbolTable
70
0
0
ENDTAB
0
TABLE
2
APPID
5
9
100
AcDbSymbolTable
70
2
0
APPID
5
12
100
AcDbSymbolTableRecord
100
AcDbRegAppTableRecord
2
ACAD
70
0
0
ENDTAB
0
TABLE
2
DIMSTYLE
5
A
100
AcDbSymbolTable
70
1
0
ENDTAB
0
TABLE
2
BLOCK_RECORD
5
1
100
AcDbSymbolTable
70
1
0
BLOCK_RECORD
5
1F
100
AcDbSymbolTableRecord
100
AcDbBlockTableRecord
2
*MODEL_SPACE
0
BLOCK_RECORD
5
1B
100
AcDbSymbolTableRecord
100
AcDbBlockTableRecord
2
*PAPER_SPACE
0
ENDTAB
0
ENDSEC
0
SECTION
2
BLOCKS
0
BLOCK
5
20
100
AcDbEntity
100
AcDbBlockBegin
2
*MODEL_SPACE
0
ENDBLK
5
21
100
AcDbEntity
100
AcDbBlockEnd
0
BLOCK
5
1C
100
AcDbEntity
100
AcDbBlockBegin
2
*PAPER_SPACE
0
ENDBLK
5
1D
100
AcDbEntity
100
AcDbBlockEnd
0
ENDSEC
0
SECTION
2
ENTITIES
0
CIRCLE
5
100
100
AcDbEntity
8
0
100
AcDbCircle
10
97.38814272079928
20
74.972460342730614
30
0
40
1.0999999999999943
210
0
220
-0
230
1
0
CIRCLE
5
101
100
AcDbEntity
8
0
100
AcDbCircle
10
77
20
63.20136065460062
30
0
40
2.9999999999999982
210
0
220
-0
230
1
0
CIRCLE
5
102
100
AcDbEntity
8
0
100
AcDbCircle
10
56.61185727920072
20
74.972460342730585
30
0
40
1.1000000000000032
210
0
220
-0
230
1
0
CIRCLE
5
103
100
AcDbEntity
8
0
100
AcDbCircle
10
77
20
39.659161278340669
30
0
40
1.1000000000000032
210
0
220
-0
230
1
0
LWPOLYLINE
5
104
100
AcDbEntity
8
0
100
AcDbPolyline
90
36
70
1
43
0.0
10
69.656319184058844
20
76.620390130444903
10
65.060052525344972
20
72.763664472325672
10
56.645797956638773
20
82.791382583583513
42
0.12193424112873487
10
49.85744232712598
20
71.033605733421112
10
62.748828237817662
20
68.760506578641198
10
61.706939171816082
20
62.851660060567966
10
48.815553261124393
20
65.124759215347851
42
0.12193424112873524
10
51.173124429964297
20
51.754308707051251
10
62.509618943233427
20
58.299436865953922
10
65.509618943233434
20
53.103284443247283
10
54.173124429964318
20
46.558156284344641
42
0.12193424112873487
10
64.573488645771747
20
37.831214506751245
10
69.050619987757273
20
50.13203177278902
10
74.688775712472705
20
48.079910912835011
10
70.211644370487193
20
35.779093646797236
42
0.12193424112873506
10
83.788355629512822
20
35.779093646797236
10
79.311224287527324
20
48.07991091283499
10
84.94938001224277
20
50.13203177278902
10
89.426511354228282
20
37.831214506751259
42
0.12193424112873487
10
99.82687557003571
20
46.558156284344669
10
88.49038105676658
20
53.103284443247304
10
91.490381056766594
20
58.299436865953922
10
102.8268755700357
20
51.754308707051287
42
0.12193424112873512
10
105.18444673887561
20
65.124759215347879
10
92.29306082818394
20
62.851660060567966
10
91.251171762182366
20
68.760506578641213
10
104.14255767287401
20
71.033605733421126
42
0.12193424112873474
10
97.354202043361212
20
82.791382583583513
10
88.939947474655014
20
72.763664472325672
10
84.343680815941156
20
76.620390130444903
10
92.75793538464734
20
86.648108241702744
42
0.12193424112873506
10
79.999999999999986
20
91.291616972405905
10
80
20
78.20136065460062
10
74
20
78.20136065460062
10
74
20
91.291616972405905
42
0.12193424112873506
10
61.242064615352653
20
86.648108241702744
0
CIRCLE
5
105
100
AcDbEntity
8
0
100
AcDbCircle
10
77
20
63.20136065460062
30
0
40
28.25
210
0
220
0
230
1
0
ENDSEC
0
SECTION
2
OBJECTS
0
DICTIONARY
5
C
100
AcDbDictionary
3
ACAD_GROUP
350
D
3
ACAD_MLINESTYLE
350
17
0
DICTIONARY
5
D
100
AcDbDictionary
0
DICTIONARY
5
1A
330
C
100
AcDbDictionary
0
DICTIONARY
5
17
100
AcDbDictionary
0
ENDSEC
0
EOF
