0
SECTION
2
HEADER
9
$INSUNITS
70
4
9
$ACADVER
1
AC1014
9
$HANDSEED
5
FFFF
0
ENDSEC
0
SECTION
2
TABLES
0
TABLE
2
VPORT
5
8
100
AcDbSymbolTable
0
ENDTAB
0
TABLE
2
LTYPE
5
5
100
AcDbSymbolTable
0
LTYPE
5
14
100
AcDbSymbolTableRecord
100
AcDbLinetypeTableRecord
2
BYBLOCK
70
0
0
LTYPE
5
15
100
AcDbSymbolTableRecord
100
AcDbLinetypeTableRecord
2
BYLAYER
70
0
0
ENDTAB
0
TABLE
2
LAYER
5
2
100
AcDbSymbolTable
70
2
0
LAYER
5
50
100
AcDbSymbolTableRecord
100
AcDbLayerTableRecord
2
0
70
0
6
CONTINUOUS
0
ENDTAB
0
TABLE
2
STYLE
5
3
100
AcDbSymbolTable
70
1
0
STYLE
5
11
100
AcDbSymbolTableRecord
100
AcDbTextStyleTableRecord
2
STANDARD
70
0
0
ENDTAB
0
TABLE
2
VIEW
5
6
100
AcDbSymbolTable
70
0
0
ENDTAB
0
TABLE
2
UCS
5
7
100
AcDbSymbolTable
70
0
0
ENDTAB
0
TABLE
2
APPID
5
9
100
AcDbSymbolTable
70
2
0
APPID
5
12
100
AcDbSymbolTableRecord
100
AcDbRegAppTableRecord
2
ACAD
70
0
0
ENDTAB
0
TABLE
2
DIMSTYLE
5
A
100
AcDbSymbolTable
70
1
0
ENDTAB
0
TABLE
2
BLOCK_RECORD
5
1
100
AcDbSymbolTable
70
1
0
BLOCK_RECORD
5
1F
100
AcDbSymbolTableRecord
100
AcDbBlockTableRecord
2
*MODEL_SPACE
0
BLOCK_RECORD
5
1B
100
AcDbSymbolTableRecord
100
AcDbBlockTableRecord
2
*PAPER_SPACE
0
ENDTAB
0
ENDSEC
0
SECTION
2
BLOCKS
0
BLOCK
5
20
100
AcDbEntity
100
AcDbBlockBegin
2
*MODEL_SPACE
0
ENDBLK
5
21
100
AcDbEntity
100
AcDbBlockEnd
0
BLOCK
5
1C
100
AcDbEntity
100
AcDbBlockBegin
2
*PAPER_SPACE
0
ENDBLK
5
1D
100
AcDbEntity
100
AcDbBlockEnd
0
ENDSEC
0
SECTION
2
ENTITIES
0
CIRCLE
5
100
100
AcDbEntity
8
0
100
AcDbCircle
10
-26.577270724104302
20
150.65794501491925
30
5.5511151231257827e-16
40
3.0000000000000018
210
2.8971918353860171e-17
220
2.6183402150511167e-18
230
1
0
LWPOLYLINE
5
101
100
AcDbEntity
8
0
100
AcDbPolyline
90
1369
70
1
43
0.0
10
-18.948339218451689
20
154.99383927261186
42
0.0096763747679540248
10
-19.121828520435329
20
155.2857908184215
10
-19.264330875510119
20
155.27098033450568
10
-19.340461058687684
20
155.2607604660231
10
-19.410541202040996
20
155.24985282649209
10
-19.542004994881811
20
155.22519772875069
10
-19.658546428242772
20
155.19824758001988
10
-19.761819259355903
20
155.1697495539525
10
-19.849281542723357
20
155.14163316775651
10
-19.922740375760334
20
155.11458517581448
10
-20.013797420809567
20
155.07719501533288
10
-20.037733666959028
20
155.06978182217992
10
-20.059046215007083
20
155.06526647671151
10
-20.07763623633252
20
155.06351077055734
10
-20.09338394969129
20
155.06441596935875
10
-20.106198376629287
20
155.06783815292641
10
-20.115987864862134
20
155.07368303680369
10
-20.119703917988573
20
155.07746728454418
10
-20.13208992609108
20
155.09536148495337
10
-20.213592412222962
20
155.21142975304701
10
-20.297144244084421
20
155.32603163301647
10
-20.310083274907605
20
155.34353011373898
10
-20.312465652886267
20
155.34826864193104
10
-20.314838213371637
20
155.35942062284894
10
-20.313941324959988
20
155.37265391617967
10
-20.309715625024893
20
155.38785096628283
10
-20.302053940301118
20
155.40487948989716
10
-20.290901568681946
20
155.42359419693514
10
-20.276159578909553
20
155.4438567817345
10
-20.211381850565267
20
155.51797319853134
10
-20.162072437029963
20
155.57877110089078
10
-20.107232319717028
20
155.65247820979641
10
-20.046928153966913
20
155.74102663402005
10
-19.983806431062302
20
155.84263311481959
10
-19.91804088534629
20
155.95910405461376
10
-19.885098565714767
20
156.02191329916059
10
-19.850854639898181
20
156.09067095068738
10
-19.790844153500984
20
156.22076706447152
42
0.0096763756116398578
10
-20.01117810631844
20
156.47919928641033
10
-20.149127607882967
20
156.44051887178381
10
-20.222435594050346
20
156.41757997834898
10
-20.289664314653169
20
156.39498556349938
10
-20.415070306172872
20
156.34846764007773
10
-20.525380849057679
20
156.30220950349411
10
-20.622351983769146
20
156.25666819048374
10
-20.703804532937099
20
156.21417506754915
10
-20.771635499950779
20
156.1751015739197
10
-20.855063863148132
20
156.12286057035183
10
-20.877402984755811
20
156.11150865038834
10
-20.897645835188499
20
156.10345642724442
10
-20.915671774800821
20
156.09858428204205
10
-20.931345894480874
20
156.09681509240113
10
-20.944554473004331
20
156.09802235210381
10
-20.955190907186505
20
156.10212878229783
10
-20.959493033768211
20
156.10523062475914
10
-20.974724940957344
20
156.12077413503164
10
-21.074670816565899
20
156.22139882718244
10
-21.176388648464513
20
156.3202319277207
10
-21.192098707222012
20
156.33529198774997
10
-21.195247681737719
20
156.33955986218459
10
-21.199470799452701
20
156.35015039035298
10
-21.200823276860888
20
156.36334486025632
10
-21.199226660232707
20
156.3790375306429
10
-21.194552999661408
20
156.39711598055666
10
-21.186723884873825
20
156.41744615747407
10
-21.175618384348581
20
156.43990875042689
10
-21.124298121707707
20
156.52390657365459
10
-21.085972952464704
20
156.59216330892656
10
-21.044378200880441
20
156.67407819450094
10
-20.999906095991964
20
156.77154432494549
10
-20.954863944612704
20
156.88235695498727
10
-20.909728105856043
20
157.00826698021285
10
-20.887874477616851
20
157.07574006839616
10
-20.865743100057472
20
157.14929595113421
10
-20.828582185899855
20
157.28766250406426
42
0.0096763772562391426
10
-21.089422095511303
20
157.5051408796852
10
-21.21885031913159
20
157.44370334345365
10
-21.287227186704296
20
157.40870521717818
10
-21.349670364189343
20
157.37507404443647
10
-21.465410928855423
20
157.3080315794551
10
-21.566317110233793
20
157.24379623459473
10
-21.654196865061909
20
157.18252185096014
10
-21.727296408076914
20
157.12687434682121
10
-21.787548349924158
20
157.07689939354015
10
-21.860947832657374
20
157.01131032380945
10
-21.881047133015482
20
156.99634646845482
10
-21.899637965399315
20
156.9849889116112
10
-21.916581282180157
20
156.97714043431466
10
-21.931730909156105
20
156.97274782375951
10
-21.944953477463706
20
156.97170550624503
10
-21.9561308905941
20
156.97395531687982
10
-21.960895359409854
20
156.97628542861827
10
-21.978535159991996
20
156.98903109384543
10
-22.094048943623861
20
157.07131751748395
10
-22.211006551529209
20
157.15153862039261
10
-22.229035798357579
20
157.16372697946395
10
-22.232860752208389
20
157.16740127779684
10
-22.238812944980445
20
157.17712579080543
10
-22.242375833104944
20
157.18990194274926
10
-22.243454248424133
20
157.20563864426705
10
-22.241903062014572
20
157.22424694185636
10
-22.237622458870256
20
157.24560786037455
10
-22.230472888868729
20
157.26962409425485
10
-22.194086445556461
20
157.36108690852208
10
-22.167847939596243
20
157.43483881561838
10
-22.140695208067697
20
157.52260495823461
10
-22.113334695497677
20
157.62618500082587
10
-22.087667886735005
20
157.74301581487026
10
-22.064460123222176
20
157.8747427358127
10
-22.054323839268886
20
157.94493857500476
10
-22.044941889763969
20
158.02117661398998
10
-22.031699555591015
20
158.16383313300884
42
0.0096763775252387708
10
-22.325541571897976
20
158.33410109463787
10
-22.442724998246653
20
158.25167381365875
10
-22.504203652712732
20
158.20562338059301
10
-22.560064901293799
20
158.1619230001167
10
-22.662810486865542
20
158.07628455757413
10
-22.751409354883098
20
157.99592003968041
10
-22.827669631105259
20
157.92067527302547
10
-22.890313199482097
20
157.85347435682317
10
-22.941252614930026
20
157.79403558146842
10
-23.002511789194159
20
157.71698544292522
10
-23.019793060808944
20
157.69883995722722
10
-23.036197120071517
20
157.68450397363173
10
-23.051570274183426
20
157.67390497335711
10
-23.065759627674652
20
157.66701523231183
10
-23.078615848270218
20
157.66375321196728
10
-23.090012695732103
20
157.66408167252879
10
-23.095102465756003
20
157.66557299172797
10
-23.114642485442761
20
157.6751543475637
10
-23.242401228054518
20
157.73673515607516
10
-23.371233936331141
20
157.79603635102052
10
-23.391063720562585
20
157.80500254382207
10
-23.395454589925592
20
157.80797756953069
10
-23.40296461889675
20
157.81655624344643
10
-23.408635457991814
20
157.82854648417663
10
-23.41235779855614
20
157.84387458644315
10
-23.413973795213202
20
157.86247734575954
10
-23.413364723569501
20
157.88425439894343
10
-23.410376798879145
20
157.90913352977822
10
-23.389971035078382
20
158.00543012029186
10
-23.376574160507051
20
158.08255536653084
10
-23.364644458722935
20
158.17364799370299
10
-23.355182688052892
20
158.28036204934423
10
-23.349629569111126
20
158.3998500163253
10
-23.349017552999229
20
158.53360433754719
10
-23.350890255552983
20
158.60450361308585
10
-23.354527519321252
20
158.68123051560727
10
-23.365584754276728
20
158.8240731031629
42
0.0096763767218654255
10
-23.683975512936236
20
158.94223237860442
10
-23.785543131905662
20
158.84118655493663
10
-23.838354842466259
20
158.78540855377611
10
-23.886027186740758
20
158.73289625760185
10
-23.972821874004381
20
158.63112550803842
10
-24.04656469737953
20
158.53694365218865
10
-24.109011555908417
20
158.44989310393646
10
-24.159397168011061
20
158.37307202023459
10
-24.199558629101944
20
158.30587939394644
10
-24.246915096479377
20
158.21958467452833
10
-24.260881115775096
20
158.19877973221836
10
-24.274626452802252
20
158.18187768097863
10
-24.287987232156212
20
158.16883298377195
10
-24.30080816495844
20
158.15964438991975
10
-24.312928115520883
20
158.15425658568017
10
-24.32421652524221
20
158.15265415445123
10
-24.329485203041294
20
158.15326397791699
10
-24.350363368838494
20
158.15940514605626
10
-24.486691620546431
20
158.19850892548777
10
-24.623693119923956
20
158.23518434657763
10
-24.644753039357589
20
158.24067022371617
10
-24.649583490178205
20
158.24286032222298
10
-24.658435285271199
20
158.25004644295686
10
-24.666050898663279
20
158.26090580983308
10
-24.67231024415943
20
158.27538441261407
10
-24.677046803930445
20
158.29344638833061
10
-24.680126833696107
20
158.31501328299936
10
-24.681386455379499
20
158.34003945961877
10
-24.67754844823823
20
158.4383994486208
10
-24.677378455564643
20
158.51667944669171
10
-24.681015175814224
20
158.60847794611041
10
-24.689724205813533
20
158.71525604825692
10
-24.704444476579464
20
158.8339637729681
10
-24.72644598855225
20
158.9658976451731
10
-24.740273646698469
20
159.03546047243654
10
-24.756825506481086
20
159.1104691459725
10
-24.791864243288227
20
159.2493883482569
42
0.009676377256237708
10
-25.125644266127839
20
159.31203975416292
10
-25.208674124507088
20
159.19528233208402
10
-25.251299630084869
20
159.13138143494126
10
-25.289411644895313
20
159.07156771094301
10
-25.357758585969208
20
158.95659262299523
10
-25.414523811706541
20
158.85130289082733
10
-25.46136093310654
20
158.75495085816584
10
-25.498038829619382
20
158.67071963797471
10
-25.526267078128086
20
158.59770612289543
10
-25.558358394184651
20
158.50464941764469
10
-25.568607509958841
20
158.48178346572251
10
-25.579298674626237
20
158.46280148802089
10
-25.59026267389083
20
158.44768650037003
10
-25.601346315841621
20
158.4364633053585
10
-25.612381413144817
20
158.42910468771936
10
-25.623236706256151
20
158.42561765759089
10
-25.628532563267935
20
158.42532823360995
10
-25.650148341047178
20
158.42785259898932
10
-25.791124238067027
20
158.44335435112856
10
-25.932353224264361
20
158.45634884459983
10
-25.954037346596891
20
158.45819664199882
10
-25.95916845079962
20
158.45953900343332
10
-25.969107395599671
20
158.46512580123093
10
-25.978448657981691
20
158.47454193836674
10
-25.987064910372325
20
158.48775440561366
10
-25.994785800859912
20
158.5047560527141
10
-26.001466314729665
20
158.52549213533055
10
-26.006937334977547
20
158.54994556665662
10
-26.019777407227565
20
158.64753929547595
10
-26.032839219970416
20
158.7247221095962
10
-26.051937651169158
20
158.81458553630961
10
-26.078567004909381
20
158.91835588142627
10
-26.113137255365181
20
159.0328683590408
10
-26.157119138941219
20
159.15918614650349
10
-26.182504238427462
20
159.22541153362786
10
-26.211494457637421
20
159.29654403395224
10
-26.269506656051085
20
159.42754336268217
42
0.0096763760528487328
10
-26.609073649624975
20
159.43288459127353
10
-26.671177137679017
20
159.30377446488532
10
-26.702390225716709
20
159.23358899621061
10
-26.729845504634699
20
159.16819465807782
10
-26.777778381321774
20
159.0433226586062
10
-26.815933070405876
20
158.92995406869917
10
-26.845812846657143
20
158.82707245351602
10
-26.867728104583712
20
158.73785425278845
10
-26.883210883370886
20
158.66112040493005
10
-26.899114056234804
20
158.56397873487842
10
-26.905351341915594
20
158.53970958955486
10
-26.912680718151393
20
158.51919380081168
10
-26.920932643330641
20
158.50244330355352
10
-26.929960107684234
20
158.48950834425074
10
-26.939592897169948
20
158.48039067213972
10
-26.949702639325785
20
158.47511922803943
10
-26.954873447556128
20
158.47393902760945
10
-26.976604877650768
20
158.47277408489757
10
-27.118172751070112
20
158.46422772964783
10
-27.259566382472915
20
158.45316743286941
10
-27.281250867318928
20
158.45132410240439
10
-27.286535036154337
20
158.45177995691944
10
-27.297275233727881
20
158.45560671437858
10
-27.30807350945101
20
158.46330870374544
10
-27.318798622588815
20
158.47487492822501
10
-27.32928189854438
20
158.49032730311689
10
-27.339370688294785
20
158.50963609702697
10
-27.348895647484746
20
158.53281313955097
10
-27.378044441834227
20
158.62683307585638
10
-27.403962388879801
20
158.70069825207591
10
-27.437973049717222
20
158.78604136657299
10
-27.481756577941159
20
158.88381866227616
10
-27.535182322356981
20
158.99084169190414
10
-27.599879417694009
20
159.10790950562048
10
-27.636091483593127
20
159.16889219260236
10
-27.676686177448119
20
159.23410207270143
10
-27.756002839164022
20
159.35341311040645
42
0.0096763784648181035
10
-28.09158821285294
20
159.30129029602409
10
-28.130978638932675
20
159.16354176521949
10
-28.149881345404282
20
159.08909084227733
10
-28.165889982267494
20
159.01999727046723
10
-28.192029999577461
20
158.88882068775641
10
-28.210476411340913
20
158.77063453959317
10
-28.222539430563792
20
158.66418316487312
10
-28.229061410841531
20
158.57254455268335
10
-28.231353451337679
20
158.49429785924872
10
-28.230610798123728
20
158.39586585302567
10
-28.232656846058255
20
158.37089165791352
10
-28.236413631609039
20
158.34943230216305
10
-28.241715976153607
20
158.33152821426276
10
-28.248427615682257
20
158.31725366210387
10
-28.256380907801571
20
158.3066392365007
10
-28.265454446961602
20
158.29973499963907
10
-28.270351358885918
20
158.29769791249922
10
-28.291573311054137
20
158.29287707891882
10
-28.429660578138719
20
158.26052853529654
10
-28.567151208351152
20
158.22573176122495
10
-28.588212246279546
20
158.22025019177647
10
-28.593497376961313
20
158.21980649934173
10
-28.604729872560878
20
158.22176303327853
10
-28.616674432191086
20
158.22752939937257
10
-28.629200005835827
20
158.23711670362559
10
-28.642143875971342
20
158.25057511223599
10
-28.655350794892996
20
158.26790117263866
10
-28.668655678598036
20
158.28913511072128
10
-28.713274616649457
20
158.37687649783027
10
-28.751303044683006
20
158.44529900327072
10
-28.79924757753118
20
158.52366667332041
10
-28.858925765712989
20
158.61263817299351
10
-28.92967007200102
20
158.70909262628794
10
-29.013221020703877
20
158.81354280447934
10
-29.059218298665339
20
158.86752840348154
10
-29.110249621652109
20
158.92493980165813
10
-29.208589104082058
20
159.02912999459505
42
0.0096763783343129482
10
-29.530538563057224
20
158.92104264922403
10
-29.546082741321861
20
158.77861862545484
10
-29.552131304345522
20
158.70204394397899
10
-29.556232849524569
20
158.63123875285521
10
-29.559827884286335
20
158.4975313334939
10
-29.558035492221411
20
158.37792781855501
10
-29.551934463218497
20
158.27096895852389
10
-29.542875749811511
20
158.17954628466461
10
-29.531911080802736
20
158.10203771246134
10
-29.514543981430283
20
158.00514711000534
10
-29.512339969099269
20
157.9801862935779
10
-29.512416124299833
20
157.95840077844133
10
-29.514616297652715
20
157.93985816149907
10
-29.518819015997614
20
157.92465462321343
10
-29.524864085461694
20
157.9128486653203
10
-29.532640239541401
20
157.90451038621615
10
-29.537122470392458
20
157.90167499546391
10
-29.557224432115966
20
157.89333693519569
10
-29.68785844496276
20
157.83811689621615
10
-29.817490809854998
20
157.78058459841347
10
-29.837322402670846
20
157.77162264037815
10
-29.842456579369561
20
157.77029206514675
10
-29.853858156201536
20
157.77032219278507
10
-29.866605438951698
20
157.77398685723458
10
-29.88057107508968
20
157.78131947365651
10
-29.895603259622622
20
157.79239672610501
10
-29.911548352681155
20
157.80724162850061
10
-29.928250399470009
20
157.82592157247356
10
-29.987055968866926
20
157.90486020810607
10
-30.036100786740803
20
157.9658716771051
10
-30.096599856383754
20
158.03500955746281
10
-30.170455987830405
20
158.11261552260825
10
-30.256483483782759
20
158.19572679973754
10
-30.356484824010728
20
158.28455429669555
10
-30.410944140967086
20
158.32998981212452
10
-30.470943931739832
20
158.37795107205761
10
-30.585477128866792
20
158.46402315173921
42
0.0096763778057700339
10
-30.884528795841671
20
158.30308087798474
10
-30.87577962086695
20
158.16007848442248
10
-30.868799949846235
20
158.08358308336724
10
-30.860876392550679
20
158.0131031539311
10
-30.84182299844759
20
157.88071143598091
10
-30.819843265148855
20
157.7631312077641
10
-30.795753979746721
20
157.65874196365095
10
-30.771374946348825
20
157.57016520940337
10
-30.747468968993182
20
157.49562462633105
10
-30.713977185062422
20
157.40306266794622
10
-30.707586426510851
20
157.37883339474013
10
-30.703979697366851
20
157.35734840425232
10
-30.70301453038693
20
157.33870063681059
10
-30.70458737263791
20
157.32300550086362
10
-30.708550236969007
20
157.31034778133468
10
-30.714805435882791
20
157.30081532008646
10
-30.718744016864736
20
157.2972631012378
10
-30.73714769349759
20
157.28564775367505
10
-30.856570461818297
20
157.20914481102997
10
-30.97461505734536
20
157.13053204368819
10
-30.992646888736385
20
157.11834742960951
10
-30.997482383823357
20
157.11616833299078
10
-31.008724999775417
20
157.11427112023136
10
-31.021908262433165
20
157.11572884589373
10
-31.036912277982864
20
157.1205957332516
10
-31.053600309706027
20
157.12897327255004
10
-31.071824797238627
20
157.14090982429937
10
-31.091443475938036
20
157.15649842344715
10
-31.162743890122545
20
157.22436350608552
10
-31.221394289292917
20
157.2762087127025
10
-31.292707519634178
20
157.33412770090408
10
-31.378616676279222
20
157.3981356182048
10
-31.477452683077303
20
157.46551269586399
10
-31.591027501532206
20
157.53616217847437
10
-31.652382068520154
20
157.5717405126733
10
-31.719624339264399
20
157.60887186500739
10
-31.84705630493745
20
157.67434969765046
42
0.0096763772508538844
10
-32.114606987962759
20
157.46518245727179
10
-32.081816128819106
20
157.32571553159994
10
-32.062009202331481
20
157.25150002612051
10
-32.042288408207284
20
157.18337299325219
10
-32.001134760790372
20
157.05610568804445
10
-31.959600005213996
20
156.94393135715657
10
-31.918215358539026
20
156.84511468521546
10
-31.879217452673828
20
156.7619321159095
10
-31.843057916809393
20
156.69250390910673
10
-31.794404852924998
20
156.60693350081237
10
-31.78401124061082
20
156.58413280561439
10
-31.77682538020893
20
156.56356638791016
10
-31.772722718268767
20
156.54534991743631
10
-31.771620338243366
20
156.52961485691085
10
-31.77338708587375
20
156.51646944981104
10
-31.777941290313102
20
156.50601691547985
10
-31.781222816470908
20
156.50185023560064
10
-31.797398846160789
20
156.48729166612517
10
-31.902174754651593
20
156.39170661534439
10
-32.005235806014738
20
156.29427503107306
10
-32.020949054121751
20
156.27921815050343
10
-32.025346694530221
20
156.2762532740106
10
-32.036106994812414
20
156.27248338134939
10
-32.049346877469908
20
156.27169209079221
10
-32.064957679325616
20
156.27395333253554
10
-32.082821442392856
20
156.27939000264669
10
-32.102801065535544
20
156.28807499089515
10
-32.124772089922871
20
156.30012376441664
10
-32.206516140370795
20
156.35496281101607
10
-32.273084762614971
20
156.39615031372071
10
-32.353160593407068
20
156.44118413833237
10
-32.448651387405228
20
156.48975269285111
10
-32.557452492410988
20
156.53945726304354
10
-32.681333510280879
20
156.5898963166328
10
-32.74781834343338
20
156.61459386952887
10
-32.82036865825566
20
156.63982712651642
10
-32.957033445163034
20
156.68282700412936
42
0.0096763748300118402
10
-33.185386129346313
20
156.43145219029014
10
-33.129497013215214
20
156.29953309657841
10
-33.097432386494781
20
156.2297324289423
10
-33.066481733376904
20
156.16591823059804
10
-33.004411792481214
20
156.04743650677798
10
-32.944516976672517
20
155.94389509280998
10
-32.887027464435434
20
155.85349389480893
10
-32.834532633932326
20
155.77809848333169
10
-32.787159782412793
20
155.71577986774565
10
-32.724745024230579
20
155.63966278771457
10
-32.710647690936412
20
155.61894651104518
10
-32.700089384705358
20
155.59989035419571
10
-32.692967076372931
20
155.58262931861532
10
-32.6892213778154
20
155.56730684255118
10
-32.688741097043298
20
155.55405194344971
10
-32.691463298691829
20
155.54298014438157
10
-32.693993536732087
20
155.53831876442717
10
-32.707476449830644
20
155.52123596136394
10
-32.794591302802843
20
155.4093185324615
10
-32.879703850968426
20
155.29587096449302
10
-32.892646434327027
20
155.27837515311012
10
-32.896479751951048
20
155.27470970676714
10
-32.906448123089369
20
155.26917554668825
10
-32.91936400122588
20
155.26615811947079
10
-32.935132288828143
20
155.26574859895592
10
-32.95365792230038
20
155.26808807590439
10
-32.974817994242485
20
155.2732714686548
10
-32.998509178269401
20
155.28143388663744
10
-33.088345266555919
20
155.32166927531091
10
-33.160917065417316
20
155.35101422655217
10
-33.247451854403458
20
155.38186738490981
10
-33.349777265088733
20
155.41359928598587
10
-33.46541344031629
20
155.44420148148083
10
-33.596036805100901
20
155.47297892425252
10
-33.66573913901599
20
155.48608535679494
10
-33.741510352142818
20
155.49869453374581
10
-33.883476259541951
20
155.5179794599959
42
0.0096763780834598044
10
-34.066061843481215
20
155.2316285798467
10
-33.988682201567649
20
155.11105235190783
10
-33.94528246801115
20
155.04767468490576
10
-33.903992328075468
20
154.99000898331718
10
-33.822791719043522
20
154.88372144108959
10
-33.746259858337709
20
154.79179166384782
10
-33.674319367588943
20
154.71240657187818
10
-33.609837714234217
20
154.6469673385418
10
-33.552614443107629
20
154.59355113389918
10
-33.47823364692821
20
154.52907707898487
10
-33.46083796640648
20
154.51104130095683
10
-33.447211071703748
20
154.49404358077911
10
-33.437274058102652
20
154.47823448078285
10
-33.430992761040621
20
154.463765468036
10
-33.428279248036475
20
154.45078244445338
10
-33.429091127671057
20
154.43940978727403
10
-33.430797237644271
20
154.43438790166212
10
-33.441199123015821
20
154.41527210655136
10
-33.508146765745643
20
154.29024202106032
10
-33.572862354376532
20
154.16404226479963
10
-33.582661990423269
20
154.14461085081942
10
-33.585820662077417
20
154.14035022041637
10
-33.594710456440779
20
154.13321100983345
10
-33.606930515937499
20
154.1280542128909
10
-33.622402840586922
20
154.12498565176514
10
-33.641057356179218
20
154.12416065451256
10
-33.662788978249395
20
154.12569347009475
10
-33.687518902044381
20
154.12973465817063
10
-33.782862574815269
20
154.15420893964071
10
-33.85934984494591
20
154.17086712746058
10
-33.949854084096273
20
154.18665202944518
10
-34.056070365920966
20
154.20063441647559
10
-34.175215093354183
20
154.21125371700734
10
-34.308822845218806
20
154.21754187694262
10
-34.379737682515611
20
154.21867993373689
10
-34.456549923690247
20
154.218302353572
10
-34.59973293239053
20
154.21331750061472
42
0.0096763763834937146
10
-34.731298673283916
20
153.90022847600497
10
-34.634654536604515
20
153.79446382167362
10
-34.581168265571819
20
153.73933244105214
10
-34.530726497628365
20
153.68947428567526
10
-34.432731161757161
20
153.59843849384998
10
-34.341763914035695
20
153.5207649631096
10
-34.257442113854793
20
153.45467978521958
10
-34.182828708636116
20
153.40107932947458
10
-34.117401172418951
20
153.35810229457161
10
-34.033194067541118
20
153.30712604739682
10
-34.013000482667749
20
153.29228958000692
10
-33.996697006956801
20
153.27783929555875
10
-33.984231244336769
20
153.26393695199405
10
-33.975594933267544
20
153.25073752543017
10
-33.970726395449887
20
153.23839982080213
10
-33.96960458955877
20
153.22705354671666
10
-33.970437414438322
20
153.22181562065668
10
-33.977459162575073
20
153.20121682298219
10
-34.022313628223813
20
153.06667103285338
10
-34.06477050852142
20
152.93134953612147
10
-34.071145232908378
20
152.91054145405391
10
-34.073538404289437
20
152.90580831128923
10
-34.081093717015392
20
152.89726936204164
10
-34.09226659653131
20
152.89012153774169
10
-34.106997762304857
20
152.88448236450776
10
-34.125244503021712
20
152.88051664256318
10
-34.146922570531679
20
152.87835466979433
10
-34.171979771364136
20
152.87815829876254
10
-34.27008823469756
20
152.88616741698578
10
-34.348290482839488
20
152.88965957377459
10
-34.440160607839523
20
152.88992213199367
10
-34.547212121942856
20
152.88575281686008
10
-34.666437616045364
20
152.87608381370805
10
-34.799186344047115
20
152.859701633208
10
-34.869273385222755
20
152.8488387253218
10
-34.94491695535185
20
152.8354852414702
10
-35.085198016751335
20
152.80637402943333
42
0.0096763789358806987
10
-35.16195908122333
20
152.47555371564627
10
-35.048830733496921
20
152.38764333123834
10
-34.986796455664852
20
152.34234418938217
10
-34.92865420748528
20
152.30172791357944
10
-34.816683338777636
20
152.22856287043345
10
-34.713897652663178
20
152.16738015176435
10
-34.619620313713057
20
152.11649604328457
10
-34.537021626960275
20
152.07627625587381
10
-34.46527203650102
20
152.04497473411416
10
-34.373661076854177
20
152.00896278341398
10
-34.351250701112576
20
151.99775245005586
10
-34.332739621010049
20
151.98626531738586
10
-34.31810362555288
20
151.97466969249766
10
-34.307360841100667
20
151.96311974605999
10
-34.300477212058254
20
151.95178224769364
10
-34.297454055944065
20
151.94078880919201
10
-34.297389611491035
20
151.93548543739263
10
-34.300829186512146
20
151.91399624777102
10
-34.322300146934332
20
151.77380531656246
10
-34.341276813091625
20
151.63325501177377
10
-34.3440433596666
20
151.61166897283263
10
-34.345602142878072
20
151.60659940719052
10
-34.351605764676513
20
151.59690651151629
10
-34.361409842727667
20
151.58797322792813
10
-34.374976132249394
20
151.57992562345828
10
-34.392290156195934
20
151.57293314548846
10
-34.413291110909803
20
151.56713866989216
10
-34.43795468543297
20
151.56271050643537
10
-34.536005472868887
20
151.55402400358057
10
-34.61367300948902
20
151.54424961165472
10
-34.70426597675683
20
151.52898235321112
10
-34.809073025820588
20
151.506781177134
10
-34.924949594769252
20
151.47710202091997
10
-35.05302023287814
20
151.43852092483394
10
-35.120263305868264
20
151.4159694417788
10
-35.192562091792524
20
151.39002414344623
10
-35.32590547889852
20
151.33762411542625
42
0.0096763776926136191
10
-35.345653452116409
20
150.99858970675493
10
-35.2192954597068
20
150.93106264605004
10
-35.15049793695993
20
150.89689891434674
10
-35.086327829433969
20
150.86669293811511
10
-34.963602626513591
20
150.81350351559377
10
-34.85195549321827
20
150.7705717182061
10
-34.750434799585008
20
150.7363524244638
10
-34.66222700133973
20
150.71067042047812
10
-34.586219456742953
20
150.69194487470855
10
-34.489840269506772
20
150.67193325888942
10
-34.465857650970129
20
150.66467155054178
10
-34.445671488232605
20
150.65647805715167
10
-34.429286324186052
20
150.64752271800859
10
-34.416746152979627
20
150.63795441062882
10
-34.408045521076424
20
150.62794334153079
10
-34.403207895310153
20
150.61761892983108
10
-34.402248160188009
20
150.61240271391384
10
-34.402006548609386
20
150.59064139906741
10
-34.399476257913165
20
150.44883837502002
10
-34.39442686716005
20
150.30710269266365
10
-34.393505498423224
20
150.28535954938465
10
-34.394185177623811
20
150.28009950792242
10
-34.398464294920586
20
150.269531383436
10
-34.406617641969461
20
150.25906976635736
10
-34.41862869988897
20
150.24884514471867
10
-34.434512007999778
20
150.2390271905806
10
-34.454231589020672
20
150.2297669192908
10
-34.47779198584351
20
150.22123427013889
10
-34.572964367219271
20
150.19610201350983
10
-34.647862911745023
20
150.17334237977104
10
-34.734572624593135
20
150.14298440391963
10
-34.834120099786766
20
150.10339006742339
10
-34.943314071479186
20
150.05455464845278
10
-35.063022259748493
20
149.99488438985369
10
-35.125486912225462
20
149.96129315750161
10
-35.192360921114187
20
149.92350259472266
10
-35.314930648688843
20
149.84932108525217
42
0.009676377067256537
10
-35.277097441451247
20
149.51182598070179
10
-35.141144936267956
20
149.46662487372018
10
-35.067563237683203
20
149.44457931668316
10
-34.999211351682305
20
149.42565261773007
10
-34.869262366749481
20
149.39396901572917
10
-34.75196563636046
20
149.37052315074334
10
-34.64612213988093
20
149.35395317773049
10
-34.55484288061254
20
149.34354780766574
10
-34.476764057286537
20
149.33793689595839
10
-34.378389217357579
20
149.33450132939655
10
-34.353524285833565
20
149.33139718375466
10
-34.332243745521069
20
149.32673299568617
10
-34.31458086489193
20
149.32067553571841
10
-34.30060399414873
20
149.31336422712707
10
-34.290336642675143
20
149.30496750182385
10
-34.283823735976611
20
149.29560920349638
10
-34.281996328897321
20
149.29063015898296
10
-34.278080462749941
20
149.26922275723879
10
-34.251621760595356
20
149.1298870507062
10
-34.222691526736369
20
148.99104346639842
10
-34.218108767719151
20
148.96976873333992
10
-34.217889778476909
20
148.96446949289984
10
-34.2203212737002
20
148.95333023825876
10
-34.226589346240537
20
148.94164116281931
10
-34.236699712045009
20
148.92953376079413
10
-34.250695288020204
20
148.91717274414123
10
-34.268566210525087
20
148.9047130317704
10
-34.290345648067245
20
148.89232139688116
10
-34.379901766869224
20
148.85146640813102
10
-34.44987654568228
20
148.81637624817694
10
-34.530208452323606
20
148.77180092845828
10
-34.621632571924721
20
148.71595256688462
10
-34.721002666090286
20
148.64936573095375
10
-34.828904648277074
20
148.57032295001923
10
-34.884793862601498
20
148.52665833498992
10
-34.944319357800588
20
148.47810960379792
10
-35.05258924470786
20
148.38428060575114
42
0.0096763750743722003
10
-34.958263306180676
20
148.05803396955773
10
-34.816627276643374
20
148.03645908329756
10
-34.740378310056222
20
148.02716605756626
10
-34.669810999698015
20
148.02006318368956
10
-34.536376621045115
20
148.01079672711035
10
-34.416804824968629
20
148.00751135818405
10
-34.309683451877689
20
148.00906740690149
10
-34.217958565802611
20
148.0142379077337
10
-34.14005458256171
20
148.02190316498258
10
-34.042514141047796
20
148.03514245581067
10
-34.017482236106133
20
148.0362850887924
10
-33.99571962270641
20
148.0352843914184
10
-33.977287067023425
20
148.03229919656314
10
-33.962275658268084
20
148.02745511491744
10
-33.950736851485345
20
148.02091442940824
10
-33.942736121574249
20
148.01279133113664
10
-33.940093491984427
20
148.00819280761914
10
-33.932616164987103
20
147.98775502468374
10
-33.882990141705001
20
147.85489512864442
10
-33.831011400809601
20
147.72293792639709
10
-33.822899155533122
20
147.7027436972931
10
-33.821787675011628
20
147.69755774726053
10
-33.822301684728878
20
147.6861677438325
10
-33.826504106330376
20
147.67358755032629
10
-33.834422880992193
20
147.65994556592685
10
-33.846128083346642
20
147.64539707349184
10
-33.861636242997022
20
147.63009638641091
10
-33.881008323374388
20
147.61420223224962
10
-33.962371668807435
20
147.55879988295038
10
-34.025409638563112
20
147.51238865162023
10
-34.097052783504807
20
147.45487840142721
10
-34.177723440121724
20
147.38438257258966
10
-34.264410925626905
20
147.30195989735711
10
-34.357402560069183
20
147.20581855781208
10
-34.405108529056697
20
147.15333667394904
10
-34.455572921871742
20
147.095426438446
10
-34.546428386743905
20
146.98464945684782
42
0.0096763764043984474
10
-34.398323262756456
20
146.67903670524919
10
-34.255078388520992
20
146.68170878549944
10
-34.178355679728007
20
146.68543556916853
10
-34.107602927468086
20
146.69036074629693
10
-33.974521953309491
20
146.70377814659244
10
-33.856114745663263
20
146.72074778996949
10
-33.750797197496141
20
146.74038499241269
10
-33.661265554080359
20
146.76098269282122
10
-33.585777517064322
20
146.78170355141697
10
-33.491877596703972
20
146.81123677588093
10
-33.467398900173279
20
146.81659343044589
10
-33.445780209050092
20
146.8192851056734
10
-33.427108259442221
20
146.81945793591123
10
-33.411494089675273
20
146.81722039263147
10
-33.399015972542749
20
146.81272383821312
10
-33.389757450353365
20
146.8060697764131
10
-33.386375658574082
20
146.8019839885562
10
-33.375551862297897
20
146.7831038892426
10
-33.304186265641079
20
146.66054191509923
10
-33.230654294412425
20
146.53926719245598
10
-33.219245971434248
20
146.52073443743075
10
-33.217273995395814
20
146.51581087603233
10
-33.215855671765752
20
146.50449783762789
10
-33.217871669154128
20
146.49138838269263
10
-33.223370963501019
20
146.47660444599308
10
-33.232449156757951
20
146.46028702312088
10
-33.245148457078379
20
146.44258553951494
10
-33.261555700534387
20
146.42364612685074
10
-33.332385628134574
20
146.35529023497935
10
-33.386673319955065
20
146.29889307021324
10
-33.447566676646233
20
146.23010225694657
10
-33.515163136620373
20
146.14698700181754
10
-33.586674187900989
20
146.05109967631745
10
-33.662080231477461
20
145.94062565614942
10
-33.700230511621676
20
145.88083631829954
10
-33.740182200947686
20
145.81523046438849
10
-33.811009340862725
20
145.69069240892767
42
0.0096763781289844909
10
-33.61338574694318
20
145.4145054464619
10
-33.472652926247889
20
145.44134749945587
10
-33.39766359825547
20
145.45798687352271
10
-33.328761048468721
20
145.47479855279883
10
-33.199861727177677
20
145.51051367019801
10
-33.086025680865411
20
145.54725021808105
10
-32.985541744755913
20
145.58440370784652
10
-32.900778929444698
20
145.61983606912878
10
-32.829878583422889
20
145.65301638087112
10
-32.742320445417214
20
145.69799395005074
10
-32.719099188813175
20
145.70741045203658
10
-32.698246269806404
20
145.71371695454567
10
-32.679872085659539
20
145.71704285365374
10
-32.664104439406707
20
145.71747636559769
10
-32.651045796885143
20
145.71515330069457
10
-32.640795990923976
20
145.71015962182139
10
-32.636772315441974
20
145.70670421207498
10
-32.622913473552408
20
145.68992486818377
10
-32.531861356167845
20
145.58118661156269
10
-32.438891544001365
20
145.47408328516136
10
-32.424515209756429
20
145.45774522775548
10
-32.421739543319717
20
145.45322568757399
10
-32.418429699903434
20
145.44231513978849
10
-32.418201129208441
20
145.42905351186249
10
-32.421122848730072
20
145.41355279944477
10
-32.427312784626878
20
145.39593589509457
10
-32.43683790363513
20
145.37634285928544
10
-32.44980830045229
20
145.3549029961456
10
-32.508067231852657
20
145.27556001395129
10
-32.552042946253394
20
145.21079942831005
10
-32.600434674243111
20
145.13270707296363
10
-32.653012240777635
20
145.03936351338621
10
-32.707289637190385
20
144.93276999760826
10
-32.762940840667738
20
144.81114130036252
10
-32.790437907227059
20
144.74576465186038
10
-32.818727519084028
20
144.6743505681643
10
-32.867488813992345
20
144.53963391523556
42
0.0096763749777237576
10
-32.626032140302065
20
144.30081825037985
10
-32.491859882250914
20
144.35105826290081
10
-32.420761315328861
20
144.38013160499693
10
-32.355690946295866
20
144.40834594943874
10
-32.234681650706293
20
144.46533151863284
10
-32.128691489432384
20
144.52077798345809
10
-32.035931935464589
20
144.574378929104
10
-31.958376479696557
20
144.62362662262171
10
-31.894103444842784
20
144.66831184207084
10
-31.815406012667111
20
144.72743988097392
10
-31.79411009407724
20
144.74064528545139
10
-31.774623016614285
20
144.75038531490478
10
-31.757075230381751
20
144.756768622132
10
-31.741607534964118
20
144.75986066793814
10
-31.728344285808742
20
144.7597778707613
10
-31.717397940743549
20
144.75658824969389
10
-31.712848177592797
20
144.75386255912963
10
-31.696352932115225
20
144.73966669018142
10
-31.588233627208822
20
144.64788047210783
10
-31.478500568569189
20
144.55802976941479
10
-31.461569825582778
20
144.54435622475265
10
-31.458070374230289
20
144.5403708169477
10
-31.452964229808597
20
144.53017652731259
10
-31.450497689771947
20
144.51714428632118
10
-31.450757822991594
20
144.5013728024922
10
-31.453881379500363
20
144.48296315756744
10
-31.459958181040868
20
144.46204219654894
10
-31.469118783025465
20
144.43871876949092
10
-31.513130614805359
20
144.35067120243554
10
-31.545529186703611
20
144.27941027013222
10
-31.580027224569754
20
144.19426297492211
10
-31.616073315929288
20
144.09337639042434
10
-31.651555646163793
20
143.97914320491304
10
-31.685851044736623
20
143.84985896261225
10
-31.701903870563232
20
143.78077561359592
10
-31.717717418737259
20
143.70560788591575
10
-31.743010198051664
20
143.56458822869396
42
0.0096763774758152031
10
-31.464666542614808
20
143.37001403663902
10
-31.340914812458767
20
143.44220667583625
10
-31.27575238449834
20
143.48287752883078
10
-31.216386278688361
20
143.52168302116897
10
-31.106748239459101
20
143.59829952809886
10
-31.011653127734355
20
143.67086085774309
10
-30.92928640057886
20
143.73936720000665
10
-30.861169442056774
20
143.80101349736262
10
-30.805372727213758
20
143.8559181545852
10
-30.737799953547519
20
143.92749565638186
10
-30.719042142165897
20
143.94411015274713
10
-30.701481413890278
20
143.95700333063002
10
-30.685264800727428
20
143.96626049137274
10
-30.670542236034311
20
143.97192204275262
10
-30.657455683527331
20
143.97408202467199
10
-30.646127762755349
20
143.97278817743074
10
-30.641182751907138
20
143.97087053759981
10
-30.622525690326675
20
143.95966670715023
10
-30.500449668430562
20
143.88747294980033
10
-30.377110163054159
20
143.81745963506486
10
-30.358112201342283
20
143.80684412455412
10
-30.353989462213594
20
143.80350740446144
10
-30.347233909190663
20
143.7943227523584
10
-30.342600444541915
20
143.78189483367791
10
-30.340191309345812
20
143.76630614570402
10
-30.340158809172667
20
143.74763344580285
10
-30.342612514951256
20
143.72598644510225
10
-30.347699655944634
20
143.70145033963556
10
-30.376198326056787
20
143.60723122515904
10
-30.396087702904563
20
143.53151988540932
10
-30.415699553857358
20
143.44176714748642
10
-30.434177261488028
20
143.33623998378715
10
-30.449843679182401
20
143.21765338209866
10
-30.46179660813673
20
143.08443278947851
10
-30.465943338756645
20
143.01363019179519
10
-30.468826144387251
20
142.93687114267487
10
-30.469922677584886
20
142.79360554930989
42
0.0096763776926121862
10
-30.162699525618905
20
142.64887045472199
10
-30.052928438763654
20
142.74093876124982
10
-29.995576753100288
20
142.7920371124826
10
-29.943622686010411
20
142.84031731731307
10
-29.848509930331701
20
142.93436069012807
10
-29.767045662358363
20
143.02194943078268
10
-29.697441244779213
20
143.10339044644363
10
-29.640722390274775
20
143.17566184792253
10
-29.595007260937049
20
143.23920648152236
10
-29.540503109989139
20
143.32117416245251
10
-29.524822925260917
20
143.34071976248572
10
-29.509693719546203
20
143.35639535670799
10
-29.495274825413983
20
143.36825990834907
10
-29.481720892859002
20
143.37632818998924
10
-29.469187607038201
20
143.38066866572058
10
-29.457803923855561
20
143.3813078989545
10
-29.45260599167807
20
143.38025352620346
10
-29.432323915016504
20
143.37236390442962
10
-29.299802933630822
20
143.32183960522036
10
-29.166405271228697
20
143.27367777715074
10
-29.14588654460621
20
143.26642560699543
10
-29.141259229822964
20
143.26383373662509
10
-29.133048695113033
20
143.25592282071938
10
-29.126381506004289
20
143.24445669251548
10
-29.121372515212556
20
143.2294994056914
10
-29.118184813372334
20
143.2111008197993
10
-29.116944838757462
20
143.18935048802405
10
-29.117812129210098
20
143.16430756817931
10
-29.129977879290362
20
143.06662748059802
10
-29.136785861040131
20
142.98864380207516
10
-29.140947224788864
20
142.89686772329688
10
-29.141325081217989
20
142.78973566684985
10
-29.136724892232508
20
142.67020721117359
10
-29.125991445813529
20
142.53688282707537
10
-29.118112870864856
20
142.46639789379378
10
-29.107981814023084
20
142.39025573303482
10
-29.084850590770692
20
142.24886559711516
42
0.0096763781289866419
10
-28.757586198396353
20
142.15813335040201
10
-28.664953704986459
20
142.26742866187362
10
-28.617062567810471
20
142.32748449877863
10
-28.574015256760838
20
142.38385047691162
10
-28.496164066032684
20
142.49261532810709
10
-28.430674041743838
20
142.59271165746611
10
-28.375834541124956
20
142.68474449438105
10
-28.332145409903564
20
142.76556175585515
10
-28.29782688373172
20
142.83591827190619
10
-28.257959404375001
20
142.92591818709721
10
-28.24580798229082
20
142.94783263434627
10
-28.233545600065813
20
142.96583955131302
10
-28.221339255061878
20
142.97997028654001
10
-28.209343788795664
20
142.99021309802055
10
-28.197724366607964
20
142.99660938684409
10
-28.186612444702867
20
142.99916324158059
10
-28.181311157359833
20
142.99900254993025
10
-28.159987337188102
20
142.99465403115673
10
-28.020833997866752
20
142.96725262539499
10
-27.881215674679293
20
142.94232782979518
10
-27.859766471026646
20
142.93864770032638
10
-27.854767718156033
20
142.93687514845166
10
-27.8453382674696
20
142.93046554165545
10
-27.836829240717105
20
142.92029119400337
10
-27.8293645447113
20
142.90639560988319
10
-27.823113216780648
20
142.88880037983884
10
-27.818215294207384
20
142.86757238555379
10
-27.814837879662274
20
142.84274317282683
10
-27.810320574934501
20
142.74441207224882
10
-27.803851345375634
20
142.66639958894001
10
-27.792442731319849
20
142.57524030528697
10
-27.774709595155478
20
142.46958545450229
10
-27.749975233157969
20
142.35255363378167
10
-27.716864217772592
20
142.22296097574579
10
-27.697187003329841
20
142.15482137381363
10
-27.674333627072656
20
142.0814866928466
10
-27.627640008562526
20
141.94603941045938
42
0.0096763782451904159
10
-27.289749186291061
20
141.91192023493187
10
-27.216920193537597
20
142.03529850847747
10
-27.179867426781755
20
142.10258409465649
10
-27.146965183619926
20
142.16541437575671
10
-27.088615037320753
20
142.28577154247409
10
-27.040983484239899
20
142.39549608024137
10
-27.002486407034077
20
142.49547293729026
10
-26.973083922082168
20
142.58251123990073
10
-26.951149364332689
20
142.6576556303323
10
-26.927065375979904
20
142.75309860880594
10
-26.91879229348217
20
142.77675143641105
10
-26.909749517943343
20
142.79657166374184
10
-26.900106783872936
20
142.81256205598868
10
-26.890014933826297
20
142.82468476868698
10
-26.879643572357018
20
142.83295267410938
10
-26.869123165236104
20
142.83734777940734
10
-26.863870898190683
20
142.83808529856211
10
-26.842118900627099
20
142.8374031312558
10
-26.700336296134324
20
142.83391282620559
10
-26.558514010081819
20
142.83294218138326
10
-26.536751378336987
20
142.83293994106876
10
-26.531524900975366
20
142.83203768545172
10
-26.52114796195422
20
142.82731390032629
10
-26.51104180313698
20
142.81872389846595
10
-26.501336159853199
20
142.80628972083861
10
-26.492201096496913
20
142.79000402020779
10
-26.48378609737712
20
142.76990911703376
10
-26.476261099604219
20
142.74600787112652
10
-26.455190681204517
20
142.64985459538397
10
-26.435630379057379
20
142.57405753458318
10
-26.408979787029931
20
142.48613761752432
10
-26.373646060665479
20
142.38499931838535
10
-26.329488955461983
20
142.2738311235783
10
-26.274953038906204
20
142.15169836497128
10
-26.244043168648879
20
142.08786426968541
10
-26.209124881978685
20
142.0194466540155
10
-26.140212170421989
20
141.89383894399131
42
0.0096763760848102114
10
-25.801415509679305
20
141.91731441903897
10
-25.750485030779792
20
142.051226086892
10
-25.72533659090988
20
142.12380584567055
10
-25.703525950973052
20
142.19129289006608
10
-25.666355626001977
20
142.31978007407253
10
-25.637952773464075
20
142.43597597638285
10
-25.616905559556088
20
142.54102083248233
10
-25.602635511572625
20
142.6317762800625
10
-25.593715977104736
20
142.70954670922762
10
-25.58610835425009
20
142.80768705482896
10
-25.581951613994818
20
142.83239785968473
10
-25.576388501873751
20
142.85346124429805
10
-25.569586980461917
20
142.87085111090289
10
-25.561688932551007
20
142.88450504569136
10
-25.552864084737017
20
142.89440680727753
10
-25.54323781916662
20
142.90051663088695
10
-25.538185761282207
20
142.90213121309068
10
-25.516631330495333
20
142.90513488251554
10
-25.376298304119246
20
142.92565621558697
10
-25.236351960008708
20
142.94866770467468
10
-25.214901922958155
20
142.95234332436391
10
-25.209598166659116
20
142.9523372539096
10
-25.198572076847686
20
142.94943516653663
10
-25.187159593501043
20
142.94267662749979
10
-25.175492163223705
20
142.93206162416095
10
-25.163736279118027
20
142.91755399442852
10
-25.152046239422798
20
142.89917032092907
10
-25.140590109349617
20
142.87688460318864
10
-25.103572914273933
20
142.78567533706342
10
-25.071484110920366
20
142.7142742439525
10
-25.030358402604573
20
142.63212290395725
10
-24.978440404059874
20
142.53841083661183
10
-24.916130968965028
20
142.43630426066707
10
-24.841738903243705
20
142.32514493465044
10
-24.80048567111881
20
142.26745283735193
10
-24.75450703033831
20
142.20592054523317
10
-24.665357793605761
20
142.09376589047915
42
0.0096763772562384262
10
-24.335401741956591
20
142.17416058115523
10
-24.307835042928204
20
142.31475337949519
10
-24.295314288839922
20
142.39053923493637
10
-24.285222892017352
20
142.46074147690098
10
-24.270301594584794
20
142.59366238589209
10
-24.261944509686671
20
142.71298702462832
10
-24.258952719778843
20
142.82007791824066
10
-24.260225684475053
20
142.9119396066128
10
-24.264577676332163
20
142.99009872100368
10
-24.273665251554245
20
143.08811317765108
10
-24.273744494925275
20
143.11317090866285
10
-24.271821112149354
20
143.13487155675702
10
-24.268056309014078
20
143.15316079464716
10
-24.262579447245159
20
143.16795313488441
10
-24.255554890806593
20
143.17920386922185
10
-24.247099668794419
20
143.1868526487516
10
-24.242393126685357
20
143.18929769434945
10
-24.221656377889285
20
143.19590089841253
10
-24.086809994341365
20
143.23984347671487
10
-23.952765636085736
20
143.28617497571292
10
-23.932245391376522
20
143.29342282437608
10
-23.927016819295673
20
143.29431326494418
10
-23.915658919362667
20
143.29331622482871
10
-23.903268426228678
20
143.28858364455397
10
-23.889974888369668
20
143.28009315422119
10
-23.875936256104815
20
143.26778091014091
10
-23.861307529705424
20
143.2516373668486
10
-23.846249917631354
20
143.23160829702204
10
-23.794350643909933
20
143.14796692574495
10
-23.750656662178351
20
143.08301596004861
10
-23.696238715128271
20
143.00899653120086
10
-23.629230221304812
20
142.92540664038481
10
-23.550560893594845
20
142.83529913321524
10
-23.458452893460784
20
142.73831088900391
10
-23.408043077377219
20
142.68842056829396
10
-23.352326759343832
20
142.63554378614339
10
-23.245505647888397
20
142.54006876790021
42
0.0096763768198653635
10
-22.933882478767941
20
142.67506985076886
10
-22.930472657808867
20
142.81829911391134
10
-22.930939854076975
20
142.89511076007193
10
-22.932857740488899
20
142.96600882773578
10
-22.940614934494583
20
143.09953941955058
10
-22.952543970090513
20
143.21856004588486
10
-22.967693607047757
20
143.32461617854904
10
-22.984473048983464
20
143.41494134025996
10
-23.001971337181338
20
143.4912406834147
10
-23.02749276598928
20
143.58630952800877
10
-23.031805633106664
20
143.61099349086481
10
-23.033577310945311
20
143.63270690080606
10
-23.032957506337596
20
143.65136942854554
10
-23.030059412038106
20
143.66687451118969
10
-23.025037271177375
20
143.67915060136471
10
-23.017996298462755
20
143.68811825905954
10
-23.013770646059729
20
143.69132362541907
10
-22.994448217335481
20
143.70133645240332
10
-22.868967778439831
20
143.76743605829014
10
-22.744681563573394
20
143.83575464349821
10
-22.725681351675419
20
143.84636627376139
10
-22.720678527257085
20
143.84812739263569
10
-22.709315505633509
20
143.84906428003131
10
-22.69630336764483
20
143.84649378402986
10
-22.681766183630124
20
143.84037197342411
10
-22.665848716249613
20
143.8306094478103
10
-22.648702161397303
20
143.81717035399276
10
-22.630476117924424
20
143.799974065464
10
-22.565187900973317
20
143.72630684746036
10
-22.511145620907364
20
143.66967448897933
10
-22.445001198518355
20
143.60591639000961
10
-22.364829759636045
20
143.53485342478874
10
-22.272063819843162
20
143.45933723073327
10
-22.164889598816679
20
143.37931045682001
10
-22.106773365609264
20
143.33865697253404
10
-22.042922193887602
20
143.29595691152386
10
-21.921502286609709
20
143.21990804415503
42
0.0096763775508738048
10
-21.637176846349227
20
143.40563190889657
10
-21.658021914336082
20
143.54737714788214
10
-21.671463611132356
20
143.6230050551126
10
-21.685335750221299
20
143.69255909057682
10
-21.715548102486398
20
143.82285796148082
10
-21.747420138094689
20
143.93815062182185
10
-21.780275513527506
20
144.04012094680158
10
-21.812078520187633
20
144.12631105868556
10
-21.842219872643621
20
144.19855579460096
10
-21.883440904226987
20
144.28794397170398
10
-21.891863371148588
20
144.31154392704195
10
-21.897279104008987
20
144.33264563883992
10
-21.899822254906169
20
144.35114448480297
10
-21.899586139838529
20
144.36691632692541
10
-21.896710927960484
20
144.37986458499111
10
-21.891286784904167
20
144.38989321521436
10
-21.887663599586769
20
144.39376662048051
10
-21.870311286401755
20
144.4069008149811
10
-21.757806669196079
20
144.49325600304888
10
-21.646854157427455
20
144.58159642333541
10
-21.629920509300177
20
144.59526632120489
10
-21.625287335403677
20
144.59784765486307
10
-21.614246086103684
20
144.60069142455757
10
-21.600986715027467
20
144.60035703389809
10
-21.585624042457148
20
144.59678009155903
10
-21.568285606320874
20
144.58984804916457
10
-21.549114529066138
20
144.57949996030368
10
-21.528244465641801
20
144.56563131600714
10
-21.451445606411337
20
144.50405741443723
10
-21.388609721121483
20
144.45737289910667
10
-21.312641518269736
20
144.40571033953626
10
-21.221613587485763
20
144.34921859486823
10
-21.117419640446208
20
144.29046607687948
10
-20.998262521807078
20
144.22970300011718
10
-20.934111724718679
20
144.19945599320189
10
-20.86396268037705
20
144.16816100255153
10
-20.731436904701571
20
144.11372613588219
42
0.0096763772562391426
10
-20.482588685370729
20
144.34482971881567
10
-20.527088993653525
20
144.48101326801861
10
-20.553118610681867
20
144.55328168985974
10
-20.578545891439099
20
144.6194908439814
10
-20.630344223157437
20
144.74280958231327
10
-20.681242397302139
20
144.85105749336188
10
-20.73085827968152
20
144.9460084223345
10
-20.776770066573611
20
145.02558404462172
10
-20.818687230928607
20
145.09169570652736
10
-20.874421923134157
20
145.17283168960066
10
-20.886711664708734
20
145.19466887064837
10
-20.895615772013365
20
145.21455172771061
10
-20.901248629460557
20
145.23235465925009
10
-20.903681373351937
20
145.24793961499847
10
-20.903035764572152
20
145.2611874986209
10
-20.899384495394997
20
145.27198852836423
10
-20.896468036773705
20
145.27641854662608
10
-20.881585024840263
20
145.29229643408121
10
-20.785292795409639
20
145.39642282669828
10
-20.690865710342528
20
145.50224358235295
10
-20.67648599622002
20
145.51857868351473
10
-20.672355735254136
20
145.52190594427
10
-20.661953885318304
20
145.52657477913135
10
-20.648828671532719
20
145.52848600535623
10
-20.633082416074558
20
145.52755675900767
10
-20.614821918938773
20
145.52365463879755
10
-20.594177776162311
20
145.51669542474531
10
-20.571264064247945
20
145.50655322343763
10
-20.485163791187894
20
145.45884413396243
10
-20.415342134306954
20
145.42345043083856
10
-20.331735650461287
20
145.38536973859624
10
-20.232469890383573
20
145.34507431659654
10
-20.119845476304775
20
145.30477577536811
10
-19.992133293750616
20
145.26502431834135
10
-19.923793445934454
20
145.24605398210937
10
-19.849364610765171
20
145.22706445438294
10
-19.709545554727004
20
145.19580946230411
42
0.0096763756809157952
10
-19.503333491246838
20
145.46564431730133
10
-19.570208863922907
20
145.59234845393792
10
-19.60807737609213
20
145.65917836404483
10
-19.644328337309062
20
145.72013790336476
10
-19.716222612916418
20
145.83292886024853
10
-19.784682682697884
20
145.9310178386734
10
-19.849631570562355
20
146.01621794315966
10
-19.908331291385156
20
146.08688985515766
10
-19.960818511220381
20
146.14496648512591
10
-20.029463517889475
20
146.2155161866678
10
-20.04526701580696
20
146.234962216051
10
-20.057403324356624
20
146.2530543598443
10
-20.065963844284951
20
146.26964922434649
10
-20.070995437201788
20
146.28459880442418
10
-20.072598055846594
20
146.29776527983256
10
-20.070824697452618
20
146.30902809127807
10
-20.06869888597231
20
146.3138871343742
10
-20.056713221089705
20
146.33205191302858
10
-19.979403520389504
20
146.45095401426141
10
-19.904218582768284
20
146.57121091950523
10
-19.892806292761872
20
146.58974130649011
10
-19.889297726868001
20
146.59371868592493
10
-19.879834493094602
20
146.60007824203757
10
-19.867221204029732
20
146.60418017049696
10
-19.851544343750199
20
146.60592542482686
10
-19.832887071591543
20
146.60516542970996
10
-19.811363722672148
20
146.60179519228598
10
-19.7870656004465
20
146.59567142149032
10
-19.694140972554759
20
146.56319954003695
10
-19.619341970386163
20
146.54011484177528
10
-19.530502437200376
20
146.51671143330768
10
-19.425854547546159
20
146.49377163542763
10
-19.308039704185557
20
146.47308640179688
10
-19.175446430848307
20
146.45549019372686
10
-19.104883618596613
20
146.44834228356439
10
-19.028316152682603
20
146.44220439582037
10
-18.885226092125112
20
146.43502841464374
42
0.009676377256237708
10
-18.727582537545416
20
146.73583202500819
10
-18.814909097272206
20
146.84941167176325
10
-18.863527236057539
20
146.90888039191512
10
-18.909558945190483
20
146.96283676037797
10
-18.999480915918067
20
147.06185514662471
10
-19.083533271982013
20
147.1469634183737
10
-19.161946893647972
20
147.21996144860739
10
-19.231745915018095
20
147.27969654942433
10
-19.293293004005811
20
147.3280674073481
10
-19.372873684327597
20
147.38600127067838
10
-19.391736228789135
20
147.40249679980374
10
-19.406755503173986
20
147.41827767700855
10
-19.417997440399549
20
147.43318708437155
10
-19.425483240155735
20
147.44707130047871
10
-19.429287844417725
20
147.45977746807517
10
-19.429443454681458
20
147.47117798107311
10
-19.428169382113769
20
147.47632646660696
10
-19.419426021958426
20
147.49625553156054
10
-19.363322934440923
20
147.62651268585225
10
-19.309542967939336
20
147.75774620830984
10
-19.301426468922386
20
147.77793861576507
10
-19.298640478720834
20
147.78245177722536
10
-19.290388272248343
20
147.79031920967793
10
-19.278649480579389
20
147.7964937091939
10
-19.263493135810755
20
147.80086329104395
10
-19.244975867253768
20
147.80326738458595
10
-19.223192425146603
20
147.80358311393795
10
-19.198208945007526
20
147.8016537557985
10
-19.101133181404187
20
147.7853532798386
10
-19.023508749962744
20
147.77524171819204
10
-18.931991873847181
20
147.76718893809451
10
-18.824972466433895
20
147.76226474776925
10
-18.705356402744972
20
147.76178776473321
10
-18.571696629193809
20
147.76685304951326
10
-18.500940769737642
20
147.771733093557
10
-18.42443737898332
20
147.77862344618819
10
-18.282192801163923
20
147.79573314308035
42
0.009676377041440011
10
-18.177652852450528
20
148.11885184653897
10
-18.282918261000617
20
148.21603945660291
10
-18.34088741111551
20
148.2664362509083
10
-18.39537571148789
20
148.31183707942915
10
-18.500738331044779
20
148.39423431111371
10
-18.597965079942757
20
148.46391341490022
10
-18.687587515301956
20
148.52260950568919
10
-18.766477798069683
20
148.56968934224653
10
-18.835314336746784
20
148.60696284189248
10
-18.92354123368133
20
148.65061415270981
10
-18.944920151739012
20
148.66368471392664
10
-18.962390405007898
20
148.676700306345
10
-18.975990282323004
20
148.68949534764366
10
-18.985714836576985
20
148.70191471462596
10
-18.991612222584617
20
148.71379516215779
10
-18.993692134932882
20
148.72500538427977
10
-18.993306555805411
20
148.73029517716196
10
-18.988057069250878
20
148.75141520101974
10
-18.954774436169238
20
148.88928024367425
10
-18.92394659854331
20
149.02771479047323
10
-18.919359457307539
20
149.04898856945681
10
-18.917376300393876
20
149.05390762184075
10
-18.910572255369836
20
149.06305651286428
10
-18.900045938612159
20
149.07112608831267
10
-18.885846106097347
20
149.07799430169979
10
-18.868001377936977
20
149.08349312820849
10
-18.846584724529613
20
149.08748576900484
10
-18.821634426693411
20
149.08980634187481
10
-18.723200258762297
20
149.09014630904849
10
-18.644983569972318
20
149.09329881109801
10
-18.553422180877742
20
149.10082828525506
10
-18.447109835936025
20
149.11406118443972
10
-18.329133753522243
20
149.13380639811564
10
-18.198252656581072
20
149.16138736942548
10
-18.129339326398494
20
149.17815502106183
10
-18.055100700783186
20
149.19787543449081
10
-17.917793810735866
20
149.23877837927171
42
0.0096763776926121862
10
-17.86936490419572
20
149.57491667479994
10
-17.989540998808469
20
149.65291638376124
10
-18.055193323165316
20
149.69279150391807
10
-18.11657065015012
20
149.72833061589699
10
-18.234342990811367
20
149.79173624164125
10
-18.34194697112007
20
149.84398180991116
10
-18.440199975021269
20
149.88668735639038
10
-18.525912011580512
20
149.91975739276543
10
-18.600057741414886
20
149.94486136947924
10
-18.694392592059856
20
149.97297440906965
10
-18.717673010892991
20
149.9822437992089
10
-18.73709155846192
20
149.99211970632135
10
-18.752658200058001
20
150.00243230345686
10
-18.76434176477337
20
150.01302966933812
10
-18.772162035777924
20
150.02374251484505
10
-18.776106712843013
20
150.03444002195755
10
-18.776620559919174
20
150.03971877562697
10
-18.775015865369138
20
150.06142220844418
10
-18.765511240211886
20
150.20292893444952
10
-18.758522431680184
20
150.34458228291751
10
-18.757596534419818
20
150.36632519040441
10
-18.75647325054835
20
150.37150865892116
10
-18.751313305351182
20
150.38167587850629
10
-18.742302164625649
20
150.39140825788826
10
-18.729467210203548
20
150.40057751953478
10
-18.712808484188823
20
150.40901310140958
10
-18.692374666254533
20
150.41656765002801
10
-18.66817552710803
20
150.42307154371318
10
-18.571214602243707
20
150.44004208068338
10
-18.494655731584643
20
150.45636778545372
10
-18.405683882891644
20
150.47926294699758
10
-18.303137225427662
20
150.51027246450857
10
-18.190195049749576
20
150.54967157643767
10
-18.065857774786821
20
150.59897493539631
10
-18.000769392099937
20
150.62714784641835
10
-17.93093143236004
20
150.65913094057476
10
-17.802512199209865
20
150.7226505581807
42
0.0096763759886295021
10
-17.811587526407852
20
151.06213827582371
10
-17.943216999281866
20
151.11870615831151
10
-18.014663965804342
20
151.14691236165734
10
-18.081164573232275
20
151.17156757789988
10
-18.207958382227069
20
151.21415759023091
10
-18.322844215480249
20
151.2474663035868
10
-18.4269011493253
20
151.27295280299467
10
-18.516969139033094
20
151.29106179280544
10
-18.594290894849447
20
151.30327389296534
10
-18.692020017382251
20
151.31503988992989
10
-18.71653207626446
20
151.32024161443766
10
-18.737340324690205
20
151.32669366199272
10
-18.754425943580461
20
151.33422717519289
10
-18.767732450177345
20
151.34269761180187
10
-18.777250689870296
20
151.35193465563407
10
-18.782946466489733
20
151.36181167528736
10
-18.784345081675223
20
151.36692772728892
10
-18.786431308340031
20
151.38859011335379
10
-18.800978206223292
20
151.52966775984277
10
-18.818029494022944
20
151.670464581499
10
-18.820791439500113
20
151.69205128337379
10
-18.820560352702305
20
151.69734995094328
10
-18.817192842030813
20
151.70824293067554
10
-18.809956092123873
20
151.71935828709019
10
-18.79885539646752
20
151.7305647318442
10
-18.783861955587675
20
151.7416942745501
10
-18.764998779220583
20
151.75259354554976
10
-18.742246843014062
20
151.763093492857
10
-18.649548710791997
20
151.79620638043508
10
-18.576850100452724
20
151.82523586465817
10
-18.493027302968699
20
151.86283798080783
10
-18.397196242986478
20
151.9107318678748
10
-18.29253725378689
20
151.96865174323588
10
-18.178320671994342
20
152.03825899892431
10
-18.118929743180146
20
152.07702654105219
10
-18.055501581264544
20
152.12035229756017
10
-17.939664392330062
20
152.20466121745699
42
0.0096763776926121862
10
-18.005982891311771
20
152.53773203485494
10
-18.145278985440996
20
152.5712407069646
10
-18.220465178129054
20
152.58696663040763
10
-18.290175924791615
20
152.6000285222307
10
-18.422343654220018
20
152.62057755657932
10
-18.54120616172672
20
152.6339914968666
10
-18.648073658742554
20
152.64152557872239
10
-18.739906552432831
20
152.64415247622327
10
-18.818179957891498
20
152.64312161622169
10
-18.916491702903929
20
152.63820208508744
10
-18.941530346625306
20
152.63918633157783
10
-18.963129725832324
20
152.6420290488644
10
-18.981242751841208
20
152.64656663686813
10
-18.995789249761359
20
152.65266639070245
10
-19.00673166334569
20
152.66016205460562
10
-19.014014785711247
20
152.66893436127253
10
-19.01625791896446
20
152.67374043460825
10
-19.021975096532845
20
152.69473875400794
10
-19.060155006036901
20
152.83132855534899
10
-19.100755778266784
20
152.9672185143059
10
-19.107126140546121
20
152.98802791125223
10
-19.107793785156723
20
152.99328954889407
10
-19.106315768567491
20
153.00459488313777
10
-19.101061538466112
20
153.01677344057788
10
-19.092014398867565
20
153.02969462073932
10
-19.079117542084234
20
153.04319798439175
10
-19.062367620437392
20
153.05712836558197
10
-19.041717553260128
20
153.07132246412377
10
-18.955948809764951
20
153.11962510295467
10
-18.889201985308446
20
153.16052307671711
10
-18.812939696000598
20
153.21175052009434
10
-18.726581200170944
20
153.27515101056295
10
-18.633216037621505
20
153.34992510118178
10
-18.532406111879105
20
153.4378338280579
10
-18.48042124956104
20
153.48608094400927
10
-18.425227426905838
20
153.53950286069153
10
-18.325304774439243
20
153.64217564828007
42
0.0096763770414392929
10
-18.446958597478098
20
153.95924763463233
10
-18.589914117553135
20
153.96873324270729
10
-18.666676372974639
20
153.97152643065195
10
-18.737591901718147
20
153.97261925281455
10
-18.87133140034911
20
153.97053630260183
10
-18.990751141630277
20
153.96366930925774
10
-19.097354617898855
20
153.9530344580173
10
-19.188310553761617
20
153.9401037344266
10
-19.265283892597505
20
153.92585939716596
10
-19.361350129427748
20
153.90439576427295
10
-19.386194848271195
20
153.90113437679517
10
-19.407964047076234
20
153.90028583778826
10
-19.426583311572283
20
153.90169718118958
10
-19.441951461993046
20
153.90525076880419
10
-19.45400337114712
20
153.91078928483847
10
-19.462664122556617
20
153.91820459265966
10
-19.465687257057692
20
153.92256246204258
10
-19.474870977574327
20
153.94229239241756
10
-19.535585508158622
20
154.07046519760445
10
-19.598567677687818
20
154.19753891241032
10
-19.608363294522601
20
154.21697238527432
10
-19.609910614018641
20
154.22204544811419
10
-19.610364317789109
20
154.23343799234533
10
-19.60724399596613
20
154.24632928011269
10
-19.600510675472602
20
154.26059360799843
10
-19.590081354708715
20
154.27608234096479
10
-19.575926651434667
20
154.29264310977618
10
-19.557972348636117
20
154.31012284306098
10
-19.481600542649979
20
154.37222569687032
10
-19.422725652132215
20
154.42381572813278
10
-19.356217768852407
20
154.48719464509639
10
-19.281816183424137
20
154.56427779868088
10
-19.202430927225386
20
154.65375515658923
10
-19.117927611013538
20
154.75743635634905
10
-19.074844356276667
20
154.8137749852344
10
-19.029472872653507
20
154.87575627732551
0
ENDSEC
0
SECTION
2
OBJECTS
0
DICTIONARY
5
C
100
AcDbDictionary
3
ACAD_GROUP
350
D
3
ACAD_MLINESTYLE
350
17
0
DICTIONARY
5
D
100
AcDbDictionary
0
DICTIONARY
5
1A
330
C
100
AcDbDictionary
0
DICTIONARY
5
17
100
AcDbDictionary
0
ENDSEC
0
EOF
