0
SECTION
2
HEADER
9
$INSUNITS
70
4
9
$ACADVER
1
AC1014
9
$HANDSEED
5
FFFF
0
ENDSEC
0
SECTION
2
TABLES
0
TABLE
2
VPORT
5
8
100
AcDbSymbolTable
0
ENDTAB
0
TABLE
2
LTYPE
5
5
100
AcDbSymbolTable
0
LTYPE
5
14
100
AcDbSymbolTableRecord
100
AcDbLinetypeTableRecord
2
BYBLOCK
70
0
0
LTYPE
5
15
100
AcDbSymbolTableRecord
100
AcDbLinetypeTableRecord
2
BYLAYER
70
0
0
ENDTAB
0
TABLE
2
LAYER
5
2
100
AcDbSymbolTable
70
2
0
LAYER
5
50
100
AcDbSymbolTableRecord
100
AcDbLayerTableRecord
2
0
70
0
6
CONTINUOUS
0
ENDTAB
0
TABLE
2
STYLE
5
3
100
AcDbSymbolTable
70
1
0
STYLE
5
11
100
AcDbSymbolTableRecord
100
AcDbTextStyleTableRecord
2
STANDARD
70
0
0
ENDTAB
0
TABLE
2
VIEW
5
6
100
AcDbSymbolTable
70
0
0
ENDTAB
0
TABLE
2
UCS
5
7
100
AcDbSymbolTable
70
0
0
ENDTAB
0
TABLE
2
APPID
5
9
100
AcDbSymbolTable
70
2
0
APPID
5
12
100
AcDbSymbolTableRecord
100
AcDbRegAppTableRecord
2
ACAD
70
0
0
ENDTAB
0
TABLE
2
DIMSTYLE
5
A
100
AcDbSymbolTable
70
1
0
ENDTAB
0
TABLE
2
BLOCK_RECORD
5
1
100
AcDbSymbolTable
70
1
0
BLOCK_RECORD
5
1F
100
AcDbSymbolTableRecord
100
AcDbBlockTableRecord
2
*MODEL_SPACE
0
BLOCK_RECORD
5
1B
100
AcDbSymbolTableRecord
100
AcDbBlockTableRecord
2
*PAPER_SPACE
0
ENDTAB
0
ENDSEC
0
SECTION
2
BLOCKS
0
BLOCK
5
20
100
AcDbEntity
100
AcDbBlockBegin
2
*MODEL_SPACE
0
ENDBLK
5
21
100
AcDbEntity
100
AcDbBlockEnd
0
BLOCK
5
1C
100
AcDbEntity
100
AcDbBlockBegin
2
*PAPER_SPACE
0
ENDBLK
5
1D
100
AcDbEntity
100
AcDbBlockEnd
0
ENDSEC
0
SECTION
2
ENTITIES
0
CIRCLE
5
100
100
AcDbEntity
8
0
100
AcDbCircle
10
94.886251449584933
20
77
30
0
40
2.9999999999999982
210
-0
220
0
230
1
0
CIRCLE
5
101
100
AcDbEntity
8
0
100
AcDbCircle
10
0
20
0
30
0
40
2.0000000000000009
210
0
220
-0
230
1
0
LWPOLYLINE
5
102
100
AcDbEntity
8
0
100
AcDbPolyline
90
4
70
1
43
0.0
10
114.57480939920302
20
24.910746337599843
10
115.35126653451059
20
22.012968858732627
10
112.45348905564336
20
21.23651172342505
10
111.67703192033579
20
24.134289202292265
0
LWPOLYLINE
5
103
100
AcDbEntity
8
0
100
AcDbPolyline
90
4
70
1
43
0.0
10
100.08592200486697
20
21.028460661062027
10
100.86237914017453
20
18.130683182194836
10
97.964601661307313
20
17.35422604688727
10
97.188144525999775
20
20.252003525754478
0
LWPOLYLINE
5
104
100
AcDbEntity
8
0
100
AcDbPolyline
90
4
70
1
43
0.0
10
87.916447753643496
20
124.40110644537391
10
88.692904888951063
20
121.50332896650669
10
85.79512741008385
20
120.72687183119912
10
85.018670274776284
20
123.62464931006633
0
LWPOLYLINE
5
105
100
AcDbEntity
8
0
100
AcDbPolyline
90
4
70
1
43
0.0
10
73.427560359307464
20
120.51882076883609
10
74.204017494615016
20
117.62104328996891
10
71.306240015747804
20
116.84458615466134
10
70.529782880440251
20
119.74236363352856
0
LWPOLYLINE
5
106
100
AcDbEntity
8
0
100
AcDbPolyline
90
4
70
1
43
0.0
10
74.5
20
70.999999999999972
10
74.5
20
67.999999999999972
10
71.5
20
67.999999999999972
10
71.5
20
70.999999999999972
0
LWPOLYLINE
5
107
100
AcDbEntity
8
0
100
AcDbPolyline
90
4
70
1
43
0.0
10
74.5
20
82.999999999999972
10
71.5
20
82.999999999999972
10
71.5
20
85.999999999999972
10
74.5
20
85.999999999999972
0
LWPOLYLINE
5
108
100
AcDbEntity
8
0
100
AcDbPolyline
90
4
70
1
43
0.0
10
45.499999999999986
20
70.999999999999972
10
45.499999999999986
20
67.999999999999972
10
42.5
20
67.999999999999972
10
42.5
20
70.999999999999972
0
LWPOLYLINE
5
109
100
AcDbEntity
8
0
100
AcDbPolyline
90
4
70
1
43
0.0
10
45.499999999999986
20
82.999999999999972
10
42.5
20
82.999999999999972
10
42.5
20
85.999999999999972
10
45.499999999999986
20
85.999999999999972
0
LWPOLYLINE
5
110
100
AcDbEntity
8
0
100
AcDbPolyline
90
4
70
1
43
0.0
10
36.78482097160623
20
-54.943760524175538
10
39.682598450473449
20
-54.167303388867964
10
40.459055585781023
20
-57.065080867735183
10
37.561278106913797
20
-57.841538003042757
0
LWPOLYLINE
5
111
100
AcDbEntity
8
0
100
AcDbPolyline
90
4
70
1
43
0.0
10
25.19371105613741
20
-58.049589065405783
10
25.970168191444959
20
-60.947366544272974
10
23.072390712577754
20
-61.723823679580541
10
22.295933577270205
20
-58.826046200713336
0
LWPOLYLINE
5
112
100
AcDbEntity
8
0
100
AcDbPolyline
90
4
70
1
43
0.0
10
3.1383451082786835
20
70.626596893403374
10
6.0361225871459077
20
71.403054028710926
10
6.8125797224534379
20
68.505276549843742
10
3.9148022435862146
20
67.72881941453619
0
LWPOLYLINE
5
113
100
AcDbEntity
8
0
100
AcDbPolyline
90
4
70
1
43
0.0
10
-8.4527648071901531
20
67.52076835217315
10
-7.6763076718825696
20
64.622990873305952
10
-10.574085150749791
20
63.846533737998392
10
-11.350542286057358
20
66.744311216865583
0
LWPOLYLINE
5
114
100
AcDbEntity
8
0
100
AcDbPolyline
90
4
70
1
43
0.0
10
-70.500000000000014
20
70.999999999999972
10
-70.500000000000014
20
67.999999999999972
10
-73.5
20
67.999999999999972
10
-73.5
20
70.999999999999972
0
LWPOLYLINE
5
115
100
AcDbEntity
8
0
100
AcDbPolyline
90
4
70
1
43
0.0
10
-70.500000000000014
20
82.999999999999972
10
-73.5
20
82.999999999999972
10
-73.5
20
85.999999999999972
10
-70.500000000000014
20
85.999999999999972
0
LWPOLYLINE
5
116
100
AcDbEntity
8
0
100
AcDbPolyline
90
4
70
1
43
0.0
10
-56.000000000000014
20
70.999999999999972
10
-56.000000000000014
20
67.999999999999972
10
-59
20
67.999999999999972
10
-59
20
70.999999999999972
0
LWPOLYLINE
5
117
100
AcDbEntity
8
0
100
AcDbPolyline
90
4
70
1
43
0.0
10
-56.000000000000014
20
82.999999999999972
10
-59
20
82.999999999999972
10
-59
20
85.999999999999972
10
-56.000000000000014
20
85.999999999999972
0
LWPOLYLINE
5
118
100
AcDbEntity
8
0
100
AcDbPolyline
90
4
70
1
43
0.0
10
-70.500000000000014
20
-6.0000000000000275
10
-70.500000000000014
20
-9.0000000000000249
10
-73.5
20
-9.0000000000000249
10
-73.5
20
-6.0000000000000275
0
LWPOLYLINE
5
119
100
AcDbEntity
8
0
100
AcDbPolyline
90
4
70
1
43
0.0
10
-70.500000000000014
20
5.9999999999999654
10
-73.5
20
5.9999999999999654
10
-73.5
20
8.9999999999999716
10
-70.500000000000014
20
8.9999999999999716
0
LWPOLYLINE
5
120
100
AcDbEntity
8
0
100
AcDbPolyline
90
4
70
1
43
0.0
10
-62.999999999999986
20
5.9999999999999654
10
-62.999999999999986
20
8.9999999999999734
10
-59.999999999999993
20
8.9999999999999734
10
-59.999999999999993
20
5.9999999999999654
0
LWPOLYLINE
5
121
100
AcDbEntity
8
0
100
AcDbPolyline
90
4
70
1
43
0.0
10
-62.999999999999986
20
-6.0000000000000275
10
-59.999999999999993
20
-6.0000000000000275
10
-59.999999999999993
20
-9.0000000000000249
10
-62.999999999999986
20
-9.0000000000000249
0
LWPOLYLINE
5
122
100
AcDbEntity
8
0
100
AcDbPolyline
90
4
70
1
43
0.0
10
140
20
-75
10
140
20
140
10
-90
20
140
10
-90
20
-75
0
ENDSEC
0
SECTION
2
OBJECTS
0
DICTIONARY
5
C
100
AcDbDictionary
3
ACAD_GROUP
350
D
3
ACAD_MLINESTYLE
350
17
0
DICTIONARY
5
D
100
AcDbDictionary
0
DICTIONARY
5
1A
330
C
100
AcDbDictionary
0
DICTIONARY
5
17
100
AcDbDictionary
0
ENDSEC
0
EOF
