0
SECTION
2
HEADER
9
$INSUNITS
70
4
9
$ACADVER
1
AC1014
9
$HANDSEED
5
FFFF
0
ENDSEC
0
SECTION
2
TABLES
0
TABLE
2
VPORT
5
8
100
AcDbSymbolTable
0
ENDTAB
0
TABLE
2
LTYPE
5
5
100
AcDbSymbolTable
0
LTYPE
5
14
100
AcDbSymbolTableRecord
100
AcDbLinetypeTableRecord
2
BYBLOCK
70
0
0
LTYPE
5
15
100
AcDbSymbolTableRecord
100
AcDbLinetypeTableRecord
2
BYLAYER
70
0
0
ENDTAB
0
TABLE
2
LAYER
5
2
100
AcDbSymbolTable
70
2
0
LAYER
5
50
100
AcDbSymbolTableRecord
100
AcDbLayerTableRecord
2
0
70
0
6
CONTINUOUS
0
ENDTAB
0
TABLE
2
STYLE
5
3
100
AcDbSymbolTable
70
1
0
STYLE
5
11
100
AcDbSymbolTableRecord
100
AcDbTextStyleTableRecord
2
STANDARD
70
0
0
ENDTAB
0
TABLE
2
VIEW
5
6
100
AcDbSymbolTable
70
0
0
ENDTAB
0
TABLE
2
UCS
5
7
100
AcDbSymbolTable
70
0
0
ENDTAB
0
TABLE
2
APPID
5
9
100
AcDbSymbolTable
70
2
0
APPID
5
12
100
AcDbSymbolTableRecord
100
AcDbRegAppTableRecord
2
ACAD
70
0
0
ENDTAB
0
TABLE
2
DIMSTYLE
5
A
100
AcDbSymbolTable
70
1
0
ENDTAB
0
TABLE
2
BLOCK_RECORD
5
1
100
AcDbSymbolTable
70
1
0
BLOCK_RECORD
5
1F
100
AcDbSymbolTableRecord
100
AcDbBlockTableRecord
2
*MODEL_SPACE
0
BLOCK_RECORD
5
1B
100
AcDbSymbolTableRecord
100
AcDbBlockTableRecord
2
*PAPER_SPACE
0
ENDTAB
0
ENDSEC
0
SECTION
2
BLOCKS
0
BLOCK
5
20
100
AcDbEntity
100
AcDbBlockBegin
2
*MODEL_SPACE
0
ENDBLK
5
21
100
AcDbEntity
100
AcDbBlockEnd
0
BLOCK
5
1C
100
AcDbEntity
100
AcDbBlockBegin
2
*PAPER_SPACE
0
ENDBLK
5
1D
100
AcDbEntity
100
AcDbBlockEnd
0
ENDSEC
0
SECTION
2
ENTITIES
0
CIRCLE
5
100
100
AcDbEntity
8
0
100
AcDbCircle
10
-26.419055179354395
20
150.58096178039747
30
1.2212453270876722e-14
40
3.000000000000008
210
5.0064995035268739e-17
220
-6.5796651695526801e-17
230
1
0
LWPOLYLINE
5
101
100
AcDbEntity
8
0
100
AcDbPolyline
90
1351
70
1
43
0.0
10
-27.85876963841671
20
141.92487737645371
42
0.0096763747679554594
10
-27.522747333422359
20
141.8756508231547
10
-27.444462591059676
20
141.9956415342489
10
-27.404431807656366
20
142.06119904245784
10
-27.368747024719692
20
142.12249177742152
10
-27.30506205340086
20
142.24011331924461
10
-27.252561339923357
20
142.34759304426657
10
-27.209622697955993
20
142.44574439760345
10
-27.176349365531145
20
142.53137772951291
10
-27.151069460206443
20
142.60546362834677
10
-27.122732675723867
20
142.69973152425587
10
-27.113407950421976
20
142.72298983052471
10
-27.103486022738306
20
142.74238489175272
10
-27.093136485790343
20
142.75792704353245
10
-27.08251148095421
20
142.76958547966822
10
-27.071780090704429
20
142.77738023055758
10
-27.061073277812145
20
142.78129952961342
10
-27.05579329413176
20
142.78180088191945
10
-27.034093698154781
20
142.78014463935381
10
-26.89260990010731
20
142.77030426364999
10
-26.750973594332788
20
142.76297921167148
10
-26.729232851409364
20
142.76200174383195
10
-26.724052130049344
20
142.76086618209874
10
-26.713897275198729
20
142.75568210603711
10
-26.704186157203054
20
142.74664780205316
10
-26.695047465322638
20
142.73379124020741
10
-26.686651449241793
20
142.71711254291833
10
-26.679145398770764
20
142.6966607738365
10
-26.672699047246198
20
142.67244625015292
10
-26.655958658099404
20
142.57544544242708
10
-26.639814622321794
20
142.4988479665985
10
-26.617130739557489
20
142.40982202749723
10
-26.586364647887962
20
142.30720203216163
10
-26.547233662737742
20
142.19416666228079
10
-26.498225571817105
20
142.06971267944306
10
-26.470207313899344
20
142.00455767313881
10
-26.438389960862846
20
141.93464403252014
10
-26.375175281999631
20
141.80607435617463
42
0.0096763756116391396
10
-26.035666995124643
20
141.81434401418409
10
-25.978786863024979
20
141.94583884309347
10
-25.950411111029101
20
142.01721860469712
10
-25.925598187812199
20
142.08366051389399
10
-25.882707438829904
20
142.21035291129903
10
-25.84912606470159
20
142.32515936749112
10
-25.82339273770792
20
142.42915555992033
10
-25.805070075374495
20
142.51918035265939
10
-25.792674404315505
20
142.59647281884736
10
-25.780676495575108
20
142.69417371150152
10
-25.77541665127502
20
142.71867343556119
10
-25.768915238501783
20
142.73946629306448
10
-25.761341157198579
20
142.75653396983057
10
-25.752839297656461
20
142.76982029528406
10
-25.743579549077808
20
142.77931666716287
10
-25.733689088693467
20
142.78498899423698
10
-25.728569757533648
20
142.78637541706428
10
-25.706902471789842
20
142.78841022337107
10
-25.565790738121539
20
142.80262237812428
10
-25.424953804397006
20
142.81933935115256
10
-25.403360671895232
20
142.82205006748055
10
-25.398062427747806
20
142.82180634295469
10
-25.387177593947484
20
142.81841305498295
10
-25.376079377834877
20
142.81114994061736
10
-25.364899322925982
20
142.80002270103364
10
-25.353805345609221
20
142.78500281016466
10
-25.342950946928333
20
142.76611384086704
10
-25.3325049716222
20
142.74333705830267
10
-25.299612174544826
20
142.65056061967226
10
-25.270755252018141
20
142.57779332942604
10
-25.233352242824267
20
142.49388154991169
10
-25.185685948718604
20
142.39793709148242
10
-25.128014695550469
20
142.29314080845833
10
-25.058678701242037
20
142.17875943634806
10
-25.02005217632955
20
142.1192767475269
10
-24.976877102482145
20
142.05574581996936
10
-24.892843364925803
20
141.93970889712543
42
0.0096763772562362734
10
-24.559616107248811
20
142.00523673128674
10
-24.525776806189192
20
142.14445288563496
10
-24.509872486126426
20
142.2196015214522
10
-24.496645277525161
20
142.28928112497451
10
-24.475782554028527
20
142.42139969743238
10
-24.462086604539557
20
142.54023007207329
10
-24.454298835040504
20
142.64707927443192
10
-24.451454044782412
20
142.73890571438403
10
-24.45229909812284
20
142.81718137047619
10
-24.45698537544083
20
142.9155045566458
10
-24.455941585243931
20
142.94054071737352
10
-24.453047783214984
20
142.96213328683615
10
-24.448467073031797
20
142.98023554287309
10
-24.442332875919199
20
142.99476750250639
10
-24.434811205373816
20
143.00569211740378
10
-24.426021637360655
20
143.01295432824634
10
-24.421210282415849
20
143.01518601984804
10
-24.400198513690405
20
143.02085348150993
10
-24.263518436011985
20
143.05870907673693
10
-24.1275324650173
20
143.09898714882897
10
-24.106708091893555
20
143.1053081710607
10
-24.101444874100146
20
143.10596336466492
10
-24.090143108668226
20
143.10445842274848
10
-24.077977032341408
20
143.09917535384014
10
-24.065077341991255
20
143.09009764801047
10
-24.051604554422251
20
143.07716865293852
10
-24.037713948818023
20
143.06038582006781
10
-24.023569012710738
20
143.03970209159536
10
-23.975470058743277
20
142.95381897172985
10
-23.934730520552154
20
142.88697517603168
10
-23.883684353032002
20
142.81059156914705
10
-23.820488934288502
20
142.72408283016003
10
-23.745936584148208
20
142.63054048001371
10
-23.658267414893317
20
142.52952217102765
10
-23.610143872027752
20
142.47742298951462
10
-23.556853024164425
20
142.42210260359019
10
-23.454417690624542
20
142.32193652013126
42
0.0096763775252373362
10
-23.137057864967719
20
142.44283751418715
10
-23.12723300991226
20
142.58576996076096
10
-23.124257597780655
20
142.66252550950594
10
-23.122996599296421
20
142.7334382180259
10
-23.12476212278813
20
142.86718230620329
10
-23.13134556757371
20
142.98661795165737
10
-23.141727419528159
20
143.09324638027016
10
-23.154442286991255
20
143.18423270859924
10
-23.168503895990927
20
143.26123961227802
10
-23.189739361974027
20
143.35735654765119
10
-23.192941783859382
20
143.38220902225447
10
-23.19373866574152
20
143.40398007103965
10
-23.192283157960393
20
143.42259603653355
10
-23.188693123503093
20
143.43795565686625
10
-23.183125969514936
20
143.44999434372164
10
-23.175690153809057
20
143.45863752966193
10
-23.171325196158111
20
143.4616503251338
10
-23.151573387305525
20
143.47078710772186
10
-23.023256984202753
20
143.53119731369259
10
-22.896034130176062
20
143.59387780393595
10
-22.876577451183518
20
143.60362719358869
10
-22.871500684932219
20
143.60516243173294
10
-22.86010717464049
20
143.60558916880916
10
-22.847223246190925
20
143.60243818856222
10
-22.832975006403156
20
143.59567104726619
10
-22.817510989063436
20
143.58520499418509
10
-22.800983934514587
20
143.57101107007722
10
-22.783546816074768
20
143.55301535543273
10
-22.721625365827748
20
143.47649632159045
10
-22.670175226596641
20
143.41749917734771
10
-22.606954407407436
20
143.35084100057375
10
-22.530047927347105
20
143.27625676564205
10
-22.440759257418364
20
143.19665937368976
10
-22.337278941088027
20
143.11191023126685
10
-22.281042710604101
20
143.06869332869712
10
-22.219169291750205
20
143.02317490058741
10
-22.101279165595361
20
142.94176123208112
42
0.0096763767218647091
10
-21.808916655976915
20
143.11455721739975
10
-21.823388862266878
20
143.25709421241831
10
-21.833428057024548
20
143.33324850812392
10
-21.84416942644129
20
143.4033542613912
10
-21.868512472399907
20
143.53487619612969
10
-21.895185938869922
20
143.65148130818366
10
-21.92343883082696
20
143.75482143682297
10
-21.951347474431572
20
143.8423502687599
10
-21.978221088215367
20
143.91587306023743
10
-22.015394970751228
20
144.00701863642811
10
-22.022751397639286
20
144.03097230635427
10
-22.027216107536663
20
144.05229553293077
10
-22.02892771401125
20
144.07088975121056
10
-22.027985030319975
20
144.08663516077519
10
-22.02453253585935
20
144.09944148414135
10
-22.018664462652616
20
144.1092170504534
10
-22.014871300489087
20
144.11292417483909
10
-21.996947825153764
20
144.12526762593973
10
-21.880686446485104
20
144.20649440483456
10
-21.765886601836939
20
144.28977401225779
10
-21.748357471304661
20
144.30267147857148
10
-21.743613269659619
20
144.3050426254145
10
-21.732455736647967
20
144.30738869972356
10
-21.719224646129042
20
144.30646044330953
10
-21.704037601433313
20
144.30219863407635
10
-21.687027368701578
20
144.29449655983223
10
-21.668339138352096
20
144.2832997935395
10
-21.648111603263022
20
144.26850983115986
10
-21.574149076408077
20
144.20355629117526
10
-21.513468430884561
20
144.15410281552045
10
-21.439891617694368
20
144.09908788308866
10
-21.351486621421977
20
144.03857369520171
10
-21.250030294185429
20
143.97521105683177
10
-21.133715646629732
20
143.90916928271804
10
-21.070984828777057
20
143.87607796122398
10
-21.002308655910092
20
143.84167086241808
10
-20.872355306002213
20
143.78135183815465
42
0.0096763772562384262
10
-20.613400787562721
20
144.00107179557452
10
-20.651753708961927
20
144.13911275476107
10
-20.674518647265021
20
144.2124749791376
10
-20.696953513105704
20
144.27975710192038
10
-20.743173565092853
20
144.40527316462578
10
-20.789169756711207
20
144.51569313070803
10
-20.834480792858262
20
144.61277217140338
10
-20.876780471686583
20
144.69432524442033
10
-20.915692950349047
20
144.76224892513952
10
-20.967735836911579
20
144.84580095034897
10
-20.979034615496342
20
144.86816685596341
10
-20.987038803271648
20
144.88842887603712
10
-20.99186820513539
20
144.90646630959068
10
-20.993600081647767
20
144.92214456934443
10
-20.992361535536542
20
144.93535019805267
10
-20.988229825145588
20
144.94597685024871
10
-20.985117842252862
20
144.95027166458758
10
-20.969538224950814
20
144.96546672280698
10
-20.868676507943626
20
145.06517340213344
10
-20.76960232148457
20
145.16665635134348
10
-20.754505026534368
20
145.18233076366892
10
-20.750229697720854
20
145.18546950993078
10
-20.73962913234169
20
145.18966747932225
10
-20.726431500536915
20
145.1909885910494
10
-20.710742659995422
20
145.18935476778063
10
-20.692675495935006
20
145.18463822912773
10
-20.672363888328157
20
145.17676085746808
10
-20.649927660474084
20
145.16560209204124
10
-20.566051896998538
20
145.11408258445778
10
-20.497886367076902
20
145.07559546611731
10
-20.416070340866401
20
145.03380643178946
10
-20.31871003132304
20
144.98910322013896
10
-20.208004719184824
20
144.94379821367849
10
-20.082202142768914
20
144.89836363126074
10
-20.014781052665104
20
144.87634995857951
10
-19.941277921265407
20
144.8540440157239
10
-19.802999921586665
20
144.81655489600467
42
0.0096763760528480146
10
-19.584903029891578
20
145.07687780640754
10
-19.646033320944422
20
145.20645155174293
10
-19.680869058910289
20
145.27491123504859
10
-19.714351943133106
20
145.33743409698252
10
-19.781119551176335
20
145.45333346469317
10
-19.845115163378807
20
145.55439176022327
10
-19.90618092420269
20
145.6424167602319
10
-19.961654624288403
20
145.71564813649817
10
-20.011486571246667
20
145.77601846785785
10
-20.076901185671353
20
145.84957350294877
10
-20.091817316496282
20
145.86970815438886
10
-20.103130718320319
20
145.88832600289314
10
-20.110938945378575
20
145.90528787241766
10
-20.115295604823711
20
145.92044794508564
10
-20.116306584170886
20
145.93367294031287
10
-20.114030292607666
20
145.94484493682552
10
-20.111688824391717
20
145.94960389232054
10
-20.098901243475517
20
145.96721326254757
10
-20.016340922427492
20
146.08253150204581
10
-19.935842567784604
20
146.1992983811935
10
-19.923611362394045
20
146.21729872466059
10
-19.91992800332099
20
146.22111488890747
10
-19.910189343067149
20
146.22704400461134
10
-19.897404807220969
20
146.23057657336477
10
-19.881665625425697
20
146.23161760984149
10
-19.863061055439339
20
146.23002232297608
10
-19.84171036372727
20
146.22569090700597
10
-19.817711062017203
20
146.21848440541655
10
-19.726334949347823
20
146.18188103578569
10
-19.652645509208863
20
146.15546757995335
10
-19.56494402736265
20
146.12810661643528
10
-19.461429334864413
20
146.10050036106162
10
-19.344659715517544
20
146.0745562859243
10
-19.212988212442852
20
146.05103603015567
10
-19.142816612130936
20
146.04073319860927
10
-19.066601076873866
20
146.03117025883122
10
-18.92397634109691
20
146.01758934249435
42
0.0096763784648181035
10
-18.753011404199814
20
146.31102642461735
10
-18.835160484338363
20
146.42840526443931
10
-18.881064866929446
20
146.48999292471166
10
-18.924632489539896
20
146.54595773847686
10
-19.010026787903794
20
146.64890631866905
10
-19.090180930488025
20
146.73769567135955
10
-19.165244472551919
20
146.81413438056754
10
-19.232296487172896
20
146.87693723723885
10
-19.291614242651466
20
146.92801758931353
10
-19.368518806665737
20
146.9894594269868
10
-19.386623189928084
20
147.00678363087439
10
-19.400920275247408
20
147.02322171891018
10
-19.411482741411767
20
147.03861995029359
10
-19.418338771393302
20
147.05282571663656
10
-19.421570235688275
20
147.0656895622875
10
-19.421214752237759
20
147.07708566824726
10
-19.419711265454509
20
147.08217182572642
10
-19.410083643570793
20
147.10168901269338
10
-19.348199742803804
20
147.22930133353753
10
-19.288592917108865
20
147.35799288420259
10
-19.279579771156754
20
147.37780142080393
10
-19.276594342570338
20
147.38218510480888
10
-19.26799781087848
20
147.38967487285007
10
-19.255994135820671
20
147.3953171479051
10
-19.240657263112094
20
147.39900316655547
10
-19.222050759142896
20
147.40057496376056
10
-19.20027512108647
20
147.39991415840649
10
-19.1754031254426
20
147.39686721082055
10
-19.079155381027139
20
147.37623295920852
10
-19.002062019077158
20
147.36265304268829
10
-18.910998024995521
20
147.35050730594855
10
-18.804306742798101
20
147.34079215274284
10
-18.684832257288214
20
147.33495556601358
10
-18.55107973668391
20
147.33402605788686
10
-18.480176355743836
20
147.33573047883269
10
-18.403440921434161
20
147.33918557473231
10
-18.260572556326007
20
147.3499038003385
42
0.0096763783343122318
10
-18.141657970382685
20
147.66801329345947
10
-18.242462450588917
20
147.76982036980917
10
-18.298114965073516
20
147.82276434575851
10
-18.350513971969644
20
147.87056122682023
10
-18.452078372043704
20
147.95759725904131
10
-18.546084917596776
20
148.03156335159889
10
-18.632987070511721
20
148.09421665249198
10
-18.709688246031465
20
148.14478438190571
10
-18.776785404588583
20
148.18510527035102
10
-18.862967480811484
20
148.2326663334469
10
-18.883739288205955
20
148.246681755119
10
-18.900608685698423
20
148.26046717849377
10
-18.913621565637865
20
148.27385875650128
10
-18.922779775758642
20
148.28670156013891
10
-18.928138819487526
20
148.2988343321598
10
-18.929714367538793
20
148.31012650285587
10
-18.929092073440621
20
148.31539362580631
10
-18.92290139437868
20
148.33625717312987
10
-18.883474216628088
20
148.4724922481729
10
-18.846473709406869
20
148.60940637375307
10
-18.840937863452702
20
148.63045306411072
10
-18.8387362479111
20
148.63527831952646
10
-18.831529120614551
20
148.64411314708912
10
-18.820651738821795
20
148.65170297899598
10
-18.806158394580088
20
148.65792786686819
10
-18.788085186434138
20
148.66262161174339
10
-18.766511046163846
20
148.66565040545996
10
-18.741481902920999
20
148.66685068138614
10
-18.643131373238401
20
148.66277925672517
10
-18.56485195752262
20
148.66242346901234
10
-18.473045116813157
20
148.66584223004085
10
-18.366246633572988
20
148.67429787643931
10
-18.247504293146005
20
148.68873640253508
10
-18.115518637605014
20
148.71042462502172
10
-18.04592312798335
20
148.72408728604188
10
-17.970875412830221
20
148.7404609782777
10
-17.831873445041076
20
148.77516989781699
42
0.0096763778057714685
10
-17.768430053808601
20
149.10880030876697
10
-17.884990048848035
20
149.19210697226802
10
-17.94878963001748
20
149.23488401789729
10
-18.008512650806523
20
149.27313795888864
10
-18.123325329867729
20
149.34175754454347
10
-18.228480039666557
20
149.39877250530398
10
-18.324720543058145
20
149.44583813463828
10
-18.4088645347267
20
149.48271586949997
10
-18.481810785824763
20
149.51111725553713
10
-18.574791081291945
20
149.54342948829404
10
-18.597632735524684
20
149.55373280362801
10
-18.616589218513468
20
149.56446896048587
10
-18.631678121727216
20
149.57546876855992
10
-18.642875070646255
20
149.58657909979007
10
-18.650207467657623
20
149.59763161585872
10
-18.653668649265171
20
149.60849511220104
10
-18.653945537339354
20
149.61379171600862
10
-18.651369841026867
20
149.63540137591144
10
-18.635533554489335
20
149.7763400500057
10
-18.622203974798435
20
149.9175378404542
10
-18.620304624764145
20
149.93921742146972
10
-18.61895011097409
20
149.94434536132917
10
-18.613339801219272
20
149.95427109828697
10
-18.60390150579245
20
149.96359000154035
10
-18.590668658880869
20
149.97217480426289
10
-18.573648601976803
20
149.9798553791419
10
-18.552896753671675
20
149.98648666901727
10
-18.528430504306549
20
149.99189958129287
10
-18.430806498544541
20
150.00450799131852
10
-18.353592937512012
20
150.01738668553335
10
-18.263684422608307
20
150.03627173157005
10
-18.159851215999918
20
150.06265471620145
10
-18.045256960014303
20
150.09695316119226
10
-17.918835136234325
20
150.14063509398289
10
-17.852549693452335
20
150.16586287291494
10
-17.781348631233438
20
150.19468420251474
10
-17.650211913581789
20
150.25238527465797
42
0.0096763772508553191
10
-17.644064922765864
20
150.59193868273815
10
-17.773027294681334
20
150.65434838094023
10
-17.8431384416367
20
150.68572803458798
10
-17.90846736137474
20
150.71333844157866
10
-18.03322530678366
20
150.76156752749063
10
-18.146503037750797
20
150.79999111527042
10
-18.249313399402574
20
150.83011507867096
10
-18.338479413304153
20
150.8522419506395
10
-18.415176222070357
20
150.86790679851174
10
-18.512279869560448
20
150.88404052235728
10
-18.536534229278097
20
150.89033535461365
10
-18.55703248590309
20
150.89771340328764
10
-18.573763293700768
20
150.90600506789482
10
-18.586676809067669
20
150.91506313017814
10
-18.595771612012591
20
150.92471754286888
10
-18.601019006243749
20
150.93483985020478
10
-18.602187036571586
20
150.94001337321075
10
-18.603300439268597
20
150.96174759084411
10
-18.611510692669896
20
151.10333531867363
10
-18.62223532902242
20
151.2447548226213
10
-18.624027273876052
20
151.26644363891455
10
-18.623558828427264
20
151.27172665818779
10
-18.619706624473391
20
151.28245776612397
10
-18.611979111644228
20
151.29323766310887
10
-18.600387344833923
20
151.30393538674593
10
-18.584910211184749
20
151.31438190515286
10
-18.565577491282866
20
151.32442482818331
10
-18.542377937105275
20
151.33389475648084
10
-18.44828903572148
20
151.36282034121061
10
-18.374362642204101
20
151.38856291660719
10
-18.288938999668442
20
151.42237098268819
10
-18.191058063568086
20
151.46592231532628
10
-18.083908604856997
20
151.51909390780213
10
-17.966687466657213
20
151.58351292265493
10
-17.905619013916716
20
151.6195801687135
10
-17.840312917814295
20
151.66001999130054
10
-17.720814014025649
20
151.73905330989774
42
0.0096763748300111221
10
-17.772140279524752
20
152.07476130783095
10
-17.909794836525005
20
152.11447860286353
10
-17.984200818994374
20
152.13355799651049
10
-18.053256177611864
20
152.14973057468936
10
-18.184370364627963
20
152.17618178270101
10
-18.302512295145906
20
152.19490870505209
10
-18.408934791366988
20
152.20722426088028
10
-18.500557682351335
20
152.21396378230597
10
-18.578798705955307
20
152.21644151010648
10
-18.677232200270041
20
152.21593248319911
10
-18.702201504352235
20
152.21803789971398
10
-18.723651838422768
20
152.22184553843141
10
-18.741543283154584
20
152.22719033316071
10
-18.755801871005289
20
152.23393579110839
10
-18.76639747258919
20
152.24191427761181
10
-18.773280032678827
20
152.25100413366306
10
-18.775305578857225
20
152.25590594254339
10
-18.780075994315165
20
152.27713927112086
10
-18.812096643725027
20
152.41530289336589
10
-18.846567092998622
20
152.5528757273851
10
-18.851998669738222
20
152.5739496889031
10
-18.85242980651693
20
152.57923589188613
10
-18.850446597996243
20
152.59046363586671
10
-18.844651918914458
20
152.60239453983036
10
-18.835034886506392
20
152.61489731106803
10
-18.821545834011065
20
152.62780923233163
10
-18.804188492919543
20
152.6409750560899
10
-18.782923047321077
20
152.65422941731248
10
-18.695076000215451
20
152.69864006440471
10
-18.626563462099533
20
152.73650593656217
10
-18.548082148749646
20
152.78426439696861
10
-18.458969339805009
20
152.84373128271028
10
-18.362347151529541
20
152.91424633162347
10
-18.257699061282501
20
152.99754928383871
10
-18.203604373201049
20
153.04341821284925
10
-18.146072038266837
20
153.09431318823096
10
-18.041648754799262
20
153.19240500804273
42
0.0096763780834583681
10
-18.148971662744284
20
153.51461009095556
10
-18.291358424674446
20
153.53049233744929
10
-18.367918525138919
20
153.53672263152492
10
-18.438713860602938
20
153.54099220669684
10
-18.572412306394352
20
153.54490451201488
10
-18.69201972242627
20
153.54339597730225
10
-18.798992795687681
20
153.53754887261599
10
-18.890436765181384
20
153.52870707855323
10
-18.967971089974057
20
153.51792644054834
10
-19.064902658485408
20
153.50078941562253
10
-19.089868613620816
20
153.49864463729662
10
-19.111653893455351
20
153.49877243796391
10
-19.13019129501015
20
153.50101668073063
10
-19.145384723544328
20
153.50525540129547
10
-19.157176283166713
20
153.51132838868574
10
-19.165496098994609
20
153.51912435844258
10
-19.168320847229879
20
153.52361333869953
10
-19.176611214615239
20
153.54373503471692
10
-19.23152104896069
20
153.67449978240191
10
-19.288745521123214
20
153.80426821337736
10
-19.29766043608408
20
153.82412109747915
10
-19.298978829289204
20
153.82925841364684
10
-19.298921584062544
20
153.84065988261159
10
-19.295226627485931
20
153.85339839526839
10
-19.287860929173103
20
153.86734670648531
10
-19.276748021564924
20
153.88235253391809
10
-19.261865395497072
20
153.89826229075891
10
-19.243145787081819
20
153.91491991942416
10
-19.164067775918589
20
153.97353795880954
10
-19.102940049331995
20
154.02243784383839
10
-19.033658867999982
20
154.08277272883947
10
-18.955877811707985
20
154.15644438521986
10
-18.872562577163908
20
154.24227449247709
10
-18.783498015542101
20
154.34206465319849
10
-18.737933325215142
20
154.39641599464937
10
-18.689829845100434
20
154.45630187079644
10
-18.603486226020067
20
154.57063035448959
42
0.0096763763834929965
10
-18.763718247491202
20
154.87006311956915
10
-18.906741071284738
20
154.86165341479048
10
-18.983252751152129
20
154.85485538845342
10
-19.053751312922532
20
154.84709907495071
10
-19.186187890787465
20
154.82835996907045
10
-19.303819953156715
20
154.80665938293879
10
-19.408266103681129
20
154.78281785691533
10
-19.496900418165556
20
154.75864912938826
10
-19.57149750153205
20
154.73492017707864
10
-19.664138658498853
20
154.70164811186197
10
-19.688383073652989
20
154.69531486873666
10
-19.709876580567023
20
154.69175914076249
10
-19.728526580229886
20
154.69083832217811
10
-19.744217932392445
20
154.69244835255384
10
-19.756866179583692
20
154.69644127866871
10
-19.766383854944813
20
154.70271903621426
10
-19.769926593960776
20
154.70666599288421
10
-19.781498281382724
20
154.72509725607313
10
-19.857717598160413
20
154.84470122122462
10
-19.936049918214145
20
154.96293210465774
10
-19.948191790750457
20
154.98099278907586
10
-19.950359424680229
20
154.98583337507722
10
-19.952229946000173
20
154.99708048824604
10
-19.950740898166384
20
155.01026029725253
10
-19.945838367718437
20
155.02525271917219
10
-19.937421291159609
20
155.04192075203551
10
-19.92544156842418
20
155.06011687745831
10
-19.909806399373164
20
155.07969858739096
10
-19.841772291476929
20
155.15083772370232
10
-19.789788001409349
20
155.20936481452065
10
-19.731699984447182
20
155.28054045002708
10
-19.667488247409064
20
155.36629744791674
10
-19.599876856384249
20
155.46497321935851
10
-19.528958020161134
20
155.57838009433877
10
-19.493234155122614
20
155.63965000192158
10
-19.455943355232137
20
155.70680401502861
10
-19.447298255132196
20
155.72353119981022
10
-19.856141799246114
20
156.03751563976496
10
-19.880675233979495
20
156.03047698767381
10
-20.008039905404956
20
155.98962555623763
10
-20.120312531655181
20
155.94835716968527
10
-20.219227038732427
20
155.90720708554235
10
-20.302501939048881
20
155.86840675912705
10
-20.372015792940374
20
155.83241213296296
10
-20.457701444530265
20
155.78396218319762
10
-20.480526734028231
20
155.77362280825452
10
-20.501110161162647
20
155.76648580391503
10
-20.51933628280247
20
155.76242632494098
10
-20.535073958077703
20
155.76136130971537
10
-20.548215140507015
20
155.76315923695529
10
-20.558656797806414
20
155.76773820581536
10
-20.562815696023002
20
155.77102962969479
10
-20.577335811793613
20
155.78724018751765
10
-20.672671943887792
20
155.89224266964021
10
-20.769858711816546
20
155.99553465468358
10
-20.784878086722092
20
156.01128359860266
10
-20.787832685933658
20
156.01568821486279
10
-20.791576961582496
20
156.02645743494205
10
-20.792336832498926
20
156.0396992663218
10
-20.790038498954008
20
156.05530457990423
10
-20.784559499316757
20
156.07315537082104
10
-20.775827194629805
20
156.09311440138831
10
-20.763726202670941
20
156.11505674705762
10
-20.708693295046757
20
156.19667041825966
10
-20.667347947881666
20
156.26314106779733
10
-20.622124186962935
20
156.34310972632764
10
-20.573329116155161
20
156.43848504188423
10
-20.523366500842428
20
156.54716792285453
10
-20.522504689722293
20
156.54927027545634
10
-21.065181337066502
20
156.96603611570507
10
-21.118008379175585
20
156.93564474847815
10
-21.208545730581267
20
156.87836997828703
10
-21.284065526553505
20
156.82605419275041
10
-21.346496386463922
20
156.77882940444124
10
-21.422761388899438
20
156.71659547556391
10
-21.443511017729033
20
156.70254729762388
10
-21.462592204266599
20
156.69203431420723
10
-21.479870121101115
20
156.68495298030334
10
-21.495201439338043
20
156.68124365676414
10
-21.508457422449304
20
156.68079486755477
10
-21.519522785354578
20
156.6835432932449
10
-21.524178094428258
20
156.68608457194438
10
-21.541228913018074
20
156.69960798813327
10
-21.652939246653666
20
156.78698819961747
10
-21.766184482800476
20
156.87236979300883
10
-21.783649481433002
20
156.88535389955365
10
-21.787305885697783
20
156.88919586621833
10
-21.792816363324327
20
156.89917738595869
10
-21.795803117729452
20
156.91210030351328
10
-21.796175227364824
20
156.92786957535506
10
-21.793791773936402
20
156.94638958749744
10
-21.788558155613469
20
156.96753725259907
10
-21.780339544984997
20
156.9912090256492
10
-21.739891047736954
20
157.08094938206915
10
-21.710373938164878
20
157.1534513347498
10
-21.679315463734042
20
157.23991261027837
10
-21.647340794858113
20
157.34216246040185
10
-21.631609101767424
20
157.40104238408063
10
-22.174285749111636
20
157.81780822432933
10
-22.176094546543375
20
157.8164331400701
10
-22.268205796747253
20
157.74011964761453
10
-22.347761344829102
20
157.66836782170006
10
-22.413353403421041
20
157.60404164702408
10
-22.466905231277888
20
157.54694535366497
10
-22.531555616061198
20
157.47271773080112
10
-22.549632634738096
20
157.45536486545805
10
-22.566662694160943
20
157.4417783603009
10
-22.582495328621537
20
157.43187897348062
10
-22.596979204954359
20
157.42563193614563
10
-22.609968716173235
20
157.42294938131954
10
-22.621339386402674
20
157.42378816602562
10
-22.626357211315259
20
157.42550622715575
10
-22.645448219676009
20
157.43595344003236
10
-22.77031902529508
20
157.50319765122327
10
-22.896364902109255
20
157.56821254392267
10
-22.915773073289856
20
157.57805829622225
10
-22.920026136557329
20
157.58122710646791
10
-22.927144242649277
20
157.5901337179809
10
-22.932272015793338
20
157.60236601787025
10
-22.935303743717039
20
157.61784559494123
10
-22.936084480140096
20
157.63650199679711
10
-22.934500138664852
20
157.65822995495313
10
-22.930400314491926
20
157.68295014824992
10
-22.905699797456663
20
157.77823557724537
10
-22.888860157883769
20
157.85468304636368
10
-22.872860487397443
20
157.94514953130135
10
-22.858626001329281
20
158.0513323384863
10
-22.847723919229605
20
158.1704514676791
10
-22.841118766762417
20
158.30404402337956
10
-22.840648639587791
20
158.3295628600207
10
-23.249492183701726
20
158.64354729997547
10
-23.263422332282872
20
158.63087893674404
10
-23.318680550207468
20
158.57752357539536
10
-23.368658210519008
20
158.52720032452376
10
-23.459926309957339
20
158.42942131527877
10
-23.537815515214312
20
158.33863871909222
10
-23.604100580593027
20
158.25447399983145
10
-23.657878085914493
20
158.17998796942481
10
-23.701010242656157
20
158.11466260047595
10
-23.752186165559795
20
158.03057668330001
10
-23.767070583862125
20
158.01041841038437
10
-23.781559524026953
20
157.99414931851911
10
-23.795491358937664
20
157.98171652022785
10
-23.808711154440985
20
157.97311160729049
10
-23.821060470922575
20
157.96827228798526
10
-23.832409380702373
20
157.96717745856935
10
-23.837645357842703
20
157.96802271183086
10
-23.858227366925906
20
157.97509337604563
10
-23.992666342830571
20
158.02026699578192
10
-24.127886703051789
20
158.06304487454727
10
-24.148679621854118
20
158.06946904299227
10
-24.153407037609909
20
158.07187341545966
10
-24.161928000880014
20
158.07944900580162
10
-24.16904925903658
20
158.09063870187603
10
-24.174653499894116
20
158.10538330139283
10
-24.178575988144036
20
158.12363938202969
10
-24.180686478147368
20
158.14532255229688
10
-24.180823300280018
20
158.17038014424728
10
-24.172581406066392
20
158.26846931524847
10
-24.168903699519298
20
158.34666306499264
10
-24.168423036013408
20
158.43853220048979
10
-24.172338310211359
20
158.54559333886621
10
-24.181724296599679
20
158.6648414868402
10
-24.197791387851773
20
158.79762872201152
10
-24.20848795506663
20
158.8677414245744
10
-24.221661882807958
20
158.94341637383818
10
-24.250440098539741
20
159.08376618484067
42
0.0096763764044013167
10
-24.581077235256437
20
159.16131207779961
10
-24.669255800123501
20
159.04839274949131
10
-24.714702069897619
20
158.9864661839103
10
-24.755456276819714
20
158.92842047829606
10
-24.828886727720551
20
158.81662360358933
10
-24.890313287256461
20
158.71398339021027
10
-24.941421040274264
20
158.61982711982321
10
-24.981836783249292
20
158.53732410075952
10
-25.013308506988846
20
158.46564894245245
10
-25.049537732446559
20
158.3741238114028
10
-25.060801226411652
20
158.35174002182936
10
-25.072332201661936
20
158.33325625784073
10
-25.083962529287476
20
158.31864779961367
10
-25.095538015233917
20
158.30793252908308
10
-25.106891803238668
20
158.30107586030348
10
-25.117892434246521
20
158.29807871349368
10
-25.123195970368506
20
158.29802691916223
10
-25.144676864189989
20
158.30151746590309
10
-25.284816404556373
20
158.323321023365
10
-25.42532129561738
20
158.34263124689824
10
-25.446900751490908
20
158.34544903436421
10
-25.451966579210232
20
158.34701987358517
10
-25.461645271031216
20
158.35304643184793
10
-25.470555112097564
20
158.36287174539723
10
-25.478570556856191
20
158.37645701933528
10
-25.485521880804374
20
158.3937876562932
10
-25.491266454855243
20
158.41480228499452
10
-25.4956360891901
20
158.43947626492618
10
-25.504089907888616
20
158.53754735927512
10
-25.513679945756628
20
158.61523793045683
10
-25.528732182719178
20
158.70586688301299
10
-25.55068456953013
20
158.81072640689857
10
-25.580088566783022
20
158.92667300923074
10
-25.618365656163142
20
159.05483480138628
10
-25.640757475482424
20
159.12213127397723
10
-25.666531062744632
20
159.19449139937126
10
-25.718614480311473
20
159.32795873103356
42
0.0096763781289866419
10
-26.057601082168329
20
159.348511270324
10
-26.125427877523965
20
159.22231401020491
10
-26.159754828816027
20
159.1535977203088
10
-26.190112913255867
20
159.08949950944188
10
-26.243593525157642
20
158.96690086022116
10
-26.286790113883868
20
158.85535591810012
10
-26.321250235218464
20
158.75391675773582
10
-26.347141561726527
20
158.66577013955239
10
-26.366047447055386
20
158.58980725616016
10
-26.386287747520228
20
158.4934758516369
10
-26.393606328481365
20
158.46951055087442
10
-26.401847750382764
20
158.44934386621773
10
-26.410841974235495
20
158.43297999793339
10
-26.420439972185545
20
158.42046260857654
10
-26.430471721624148
20
158.41178569793675
10
-26.440807567568051
20
158.40697262827652
10
-26.446026016552228
20
158.40602520487624
10
-26.467787859652411
20
158.40583529747082
10
-26.609596477889795
20
158.4036415958484
10
-26.751343775115657
20
158.39892861063066
10
-26.773088994171271
20
158.39805880930624
10
-26.778347459218338
20
158.39875098917338
10
-26.788905379916422
20
158.4030551066152
10
-26.799347613066885
20
158.41123329630744
10
-26.809543703786836
20
158.42326858876129
10
-26.819323919652746
20
158.43917512838831
10
-26.828537304361305
20
158.45891667054065
10
-26.837014080960287
20
158.482497238463
10
-26.861920385009871
20
158.57772899750373
10
-26.884502189026719
20
158.65268137596496
10
-26.914654305336384
20
158.73946285546046
10
-26.954012281770563
20
158.83910406334297
10
-27.0025884104966
20
158.94841359213731
10
-27.061974410444876
20
159.06826307879581
10
-27.095417228995537
20
159.1308072449996
10
-27.133049018195983
20
159.19777083160267
10
-27.206939461728609
20
159.32051627067071
42
0.0096763749777244758
10
-27.544523338994075
20
159.28348421887145
10
-27.590047043011975
20
159.14763928499045
10
-27.61226705716545
20
159.07411013152034
10
-27.631355964450304
20
159.00580335457224
10
-27.663347937526943
20
158.87592988393979
10
-27.687072063253879
20
158.7586891461095
10
-27.703893173641458
20
158.6528853348749
10
-27.714515203022614
20
158.56163098414009
10
-27.720311402303427
20
158.48356565303581
10
-27.723980441860117
20
158.38519925143291
10
-27.727143691036581
20
158.3603418036426
10
-27.731858264414679
20
158.33907240873671
10
-27.73795759645537
20
158.32142390847531
10
-27.745302141197946
20
158.30746439518421
10
-27.753723142781229
20
158.29721708500716
10
-27.763096925767798
20
158.29072644980243
10
-27.768080186040063
20
158.28891072657498
10
-27.789496955858755
20
158.28504578296696
10
-27.9288950278989
20
158.25891780116214
10
-28.067806859202818
20
158.23031717080838
10
-28.089092413609549
20
158.22578494670785
10
-28.094392133498776
20
158.22557853877296
10
-28.105525635225209
20
158.22803646296384
10
-28.117199805294977
20
158.23433224553571
10
-28.12928313331156
20
158.24447130641448
10
-28.141610963619847
20
158.25849614977938
10
-28.154028202158518
20
158.27639660547115
10
-28.166368063859224
20
158.2982054727425
10
-28.207010444291214
20
158.38785820451247
10
-28.241934393943545
20
158.45791607826311
10
-28.286318896173913
20
158.53835358481308
10
-28.341950252795492
20
158.62990999253188
10
-28.408301019470144
20
158.72943783884946
10
-28.487087416491008
20
158.83752712284667
10
-28.530619258757618
20
158.89351981020144
10
-28.579026640568806
20
158.95316024092281
10
-28.672598320254714
20
159.06165267922685
42
0.0096763774758173542
10
-28.999067997673777
20
158.96810132187872
10
-29.02097894473529
20
158.82651679493551
10
-29.030452845777475
20
158.75029012309392
10
-29.037723220410626
20
158.67973984026426
10
-29.047306306344915
20
158.54632787211989
10
-29.050875423827719
20
158.42676413081816
10
-29.049573704969781
20
158.31963942684817
10
-29.044620825886245
20
158.2279025476513
10
-29.037140565927629
20
158.14998053225798
10
-29.024132811986082
20
158.05240893371723
10
-29.023049584203019
20
158.02737448555334
10
-29.024101878793608
20
158.00561429507661
10
-29.027130815945373
20
157.98718879353063
10
-29.03201054957232
20
157.97218895103478
10
-29.038578607349145
20
157.96066575723057
10
-29.046720658642027
20
157.95268435193799
10
-29.051325464760662
20
157.95005257774181
10
-29.071780873443554
20
157.9426237138195
10
-29.204758201123497
20
157.89331322765901
10
-29.336838398693367
20
157.84164777269493
10
-29.357051741054612
20
157.83358350563606
10
-29.362240438982411
20
157.83248437292607
10
-29.373629148425117
20
157.83302532405992
10
-29.386199339347261
20
157.83725763519695
10
-29.399822530593021
20
157.8452087222561
10
-29.414343154424611
20
157.85694849488598
10
-29.429606978697262
20
157.87249291446193
10
-29.445455081091151
20
157.89190263175698
10
-29.500664227563021
20
157.97339720750745
10
-29.546925711232632
20
158.03654520357045
10
-29.604265797801652
20
158.10832467929094
10
-29.674569981465517
20
158.18916235440011
10
-29.756786669592877
20
158.27604523497374
10
-29.852707013276341
20
158.36926479556215
10
-29.905075536501037
20
158.41709513100739
10
-29.962865852521325
20
158.46769692509056
10
-30.073426799544659
20
158.55881503317329
42
0.0096763776926121862
10
-30.379390248854339
20
158.4114356574255
10
-30.377058183035146
20
158.26818473754957
10
-30.373513414097189
20
158.19145344041266
10
-30.368756206532822
20
158.12068923871547
10
-30.355654719552213
20
157.98757671750832
10
-30.338966098014637
20
157.86912966453923
10
-30.319578972795
20
157.76376575537611
10
-30.299193704104127
20
157.67418548551484
10
-30.278652082701591
20
157.59864850583031
10
-30.249341833427252
20
157.50467876349217
10
-30.244043374695671
20
157.48018743831693
10
-30.241402987807419
20
157.45856232613548
10
-30.241274495465042
20
157.43989000481866
10
-30.243548986617292
20
157.42428125899053
10
-30.248075204248362
20
157.41181384799239
10
-30.254751270165954
20
157.40257117490535
10
-30.258845069455944
20
157.39919908235126
10
-30.277750718728264
20
157.38842015888775
10
-30.400481790421171
20
157.31734555470933
10
-30.521930668496843
20
157.24410166055071
10
-30.540490414246211
20
157.23273733250682
10
-30.545418619991036
20
157.23077707174443
10
-30.556734951740982
20
157.2293856313342
10
-30.569839649539258
20
157.23143267852856
10
-30.584610608327118
20
157.23696704338616
10
-30.600906352375699
20
157.24608395798228
10
-30.618577675521443
20
157.25882518271376
10
-30.63747812002881
20
157.27527733225432
10
-30.705665657025367
20
157.34626933731997
10
-30.761933834730414
20
157.40069079365122
10
-30.830579939325332
20
157.46174714391972
10
-30.913534469162563
20
157.52954070020303
10
-31.009251821927361
20
157.60127912668946
10
-31.119546650031189
20
157.67694714609496
10
-31.179245214727182
20
157.71523917054085
10
-31.244756066951993
20
157.75534646661725
10
-31.369125697239909
20
157.82646903045307
42
0.0096763781289859255
10
-31.645780915118571
20
157.62950148609545
10
-31.61927292241414
20
157.48870528491165
10
-31.602811526091038
20
157.41367671037193
10
-31.586163538028636
20
157.34473442310957
10
-31.550754292219306
20
157.21575075722671
10
-31.514288187240552
20
157.10182779369353
10
-31.477373207750844
20
157.00125593784901
10
-31.442142145238968
20
156.916409357639
10
-31.409130208870337
20
156.84543039845641
10
-31.364360536510837
20
156.75776582704086
10
-31.354999218013621
20
156.73452220914487
10
-31.348742175251729
20
156.71365442314934
10
-31.345459845592302
20
156.69527239800473
10
-31.345063787018667
20
156.67950377296714
10
-31.347417784959205
20
156.66645072058901
10
-31.352435838541986
20
156.65621274614676
10
-31.355900776850191
20
156.65219731692684
10
-31.372712974737897
20
156.63837831101378
10
-31.481666950108789
20
156.5475844778924
10
-31.588990702180265
20
156.45486914018244
10
-31.605362867024908
20
156.44053164010256
10
-31.609888867122322
20
156.43776671812751
10
-31.620807364434455
20
156.43448281557494
10
-31.634069416640354
20
156.43428569198915
10
-31.64956317141268
20
156.43724415570449
10
-31.667165358308928
20
156.44347586796351
10
-31.686735808295616
20
156.45304743388658
10
-31.708144739210535
20
156.46606873991669
10
-31.78734922063844
20
156.52451582286037
10
-31.852005269596987
20
156.56864510810453
10
-31.929982501021112
20
156.61722208670793
10
-32.023201016169097
20
156.6700209507693
10
-32.129665458696103
20
156.72455129280036
10
-32.251161760483136
20
156.78049094786471
10
-32.316472982612432
20
156.80814311565814
10
-32.387819592503824
20
156.83660209483691
10
-32.522420179144078
20
156.88568307273826
42
0.0096763782451918506
10
-32.761808275604722
20
156.64479375129184
10
-32.711886775033726
20
156.5105026333826
10
-32.682982295149884
20
156.43933530468212
10
-32.654922450680907
20
156.37419816507196
10
-32.598224357126355
20
156.25305398097444
10
-32.543029544735553
20
156.14693248587434
10
-32.489648910054633
20
156.0540459704923
10
-32.440585431669589
20
155.97637392061964
10
-32.396052804725763
20
155.91199496928863
10
-32.337111740289615
20
155.83315746832599
10
-32.32395689027436
20
155.81183025404923
10
-32.314263174046829
20
155.79232012676644
10
-32.307921500583973
20
155.77475715030315
10
-32.304866217143832
20
155.75928230479082
10
-32.304980466004352
20
155.74601918502219
10
-32.308196017492357
20
155.73508043988397
10
-32.310932570899041
20
155.73053714602682
10
-32.325167470237915
20
155.7140756032361
10
-32.417210065053681
20
155.60617449153801
10
-32.507321038360054
20
155.49665501627308
10
-32.521034645659284
20
155.47975681754295
10
-32.525028304831977
20
155.47626671479054
10
-32.535234668850194
20
155.471184870353
10
-32.548272705731797
20
155.46874926523844
10
-32.564043558065855
20
155.46904675721751
10
-32.58244577971076
20
155.47221403776891
10
-32.603352322230002
20
155.47834052319297
10
-32.626653893472671
20
155.48755637502683
10
-32.714596734961837
20
155.53177708961138
10
-32.785780637663294
20
155.56434473985394
10
-32.870845796353677
20
155.59904466273613
10
-32.971646528663634
20
155.63533019893578
10
-33.085795202238316
20
155.67108348966198
10
-33.21499764991448
20
155.70568557679596
10
-33.284042763510698
20
155.72190236096469
10
-33.359172737837945
20
155.73789435382133
10
-33.500131945322764
20
155.76352169189738
42
0.0096763760848094932
10
-33.695366079954006
20
155.48564058794483
10
-33.623467468027506
20
155.36171787787458
10
-33.582951340676779
20
155.2964590942762
10
-33.544286892756276
20
155.23700099438477
10
-33.467930835286772
20
155.12718140596778
10
-33.395595405940888
20
155.03191443683707
10
-33.327284710052233
20
154.94938531571336
10
-33.265800294867923
20
154.88112220543869
10
-33.211028129351035
20
154.82519539941291
10
-33.139611267013301
20
154.75745298187351
10
-33.123041290376001
20
154.73865568844045
10
-33.110189796244363
20
154.72106439836767
10
-33.100971223343571
20
154.70482598503008
10
-33.0953446433045
20
154.6900899511989
10
-33.093215729505914
20
154.67699832992847
10
-33.094536362114994
20
154.66567354017843
10
-33.096465693976654
20
154.66073311073077
10
-33.107713904272835
20
154.642102671077
10
-33.180197111488674
20
154.52019833122557
10
-33.250502971645567
20
154.39702530703789
10
-33.261163609132012
20
154.37805256137597
10
-33.264510033099455
20
154.373937793538
10
-33.273710778283473
20
154.3672040682905
10
-33.286149675359233
20
154.36260010634581
10
-33.301743914265941
20
154.36022798955256
10
-33.320416674969088
20
154.36023979135453
10
-33.342057862468415
20
154.36274488277581
10
-33.366581775270006
20
154.3678901555927
10
-33.460732884963342
20
154.39661247273256
10
-33.536396898810068
20
154.41668146390558
10
-33.626102772603815
20
154.43650626540241
10
-33.731585885356353
20
154.45523440100311
10
-33.850134969598209
20
154.47118222776479
10
-33.983326739672293
20
154.48345119623374
10
-34.05411931821768
20
154.48776606289934
10
-34.130871285094273
20
154.49083101999295
10
-34.274133943899834
20
154.49226753833696
42
0.0096763772562391426
10
-34.419597727441328
20
154.18538875121311
10
-34.327790238559437
20
154.07539946616419
10
-34.276828180666371
20
154.01792656974163
10
-34.228671383975524
20
153.96585821083565
10
-34.134854021798752
20
153.87052240581838
10
-34.047458863377031
20
153.78885052227224
10
-33.966183245633999
20
153.71905307058506
10
-33.894046682633501
20
153.66216276817616
10
-33.830610765284696
20
153.61629697061846
10
-33.748772604917541
20
153.5615984035164
10
-33.729264281290867
20
153.54587194580185
10
-33.713624659691085
20
153.53070554328755
10
-33.701794357481766
20
153.51625860884158
10
-33.69375825304116
20
153.50268545998256
10
-33.689447504283351
20
153.49014190141898
10
-33.68883523879451
20
153.47875683494837
10
-33.689901983148744
20
153.47356146748464
10
-33.697839808901676
20
153.45329805274662
10
-33.748678481482685
20
153.32089742316347
10
-33.797156727532865
20
153.18761442560015
10
-33.804457547704757
20
153.16711296765229
10
-33.80706042175968
20
153.16249172354878
10
-33.814990878493624
20
153.15430003044713
10
-33.826472741831978
20
153.14766011701101
10
-33.841441759022871
20
153.14268667763375
10
-33.859847988477959
20
153.13954259312379
10
-33.881601182446495
20
153.1383542420532
10
-33.906641878981844
20
153.1392809763812
10
-34.004292869542866
20
153.15167846178645
10
-34.082260098848863
20
153.15867153970655
10
-34.174026168715493
20
153.16305072105976
10
-34.281156969818866
20
153.16368281763121
10
-34.400696058201333
20
153.15936630059269
10
-34.534045565972249
20
153.1489493921672
10
-34.604548973752166
20
153.14123815688754
10
-34.680714935952935
20
153.13128786102124
10
-34.822159572445656
20
153.10849216474864
42
0.0096763768198667964
10
-34.91366826368904
20
152.78144407755758
10
-34.804593049755553
20
152.68855249341419
10
-34.744651171712611
20
152.64051897891716
10
-34.68838741043762
20
152.59733792457675
10
-34.579807685057851
20
152.51922879421605
10
-34.479867035336476
20
152.45350149458704
10
-34.38796467955904
20
152.39844359980185
10
-34.307251209901118
20
152.35456284860547
10
-34.236976465910999
20
152.32007748630741
10
-34.147071306530989
20
152.27999643270724
10
-34.12518577261477
20
152.26779306226086
10
-34.107208113375165
20
152.25548799087122
10
-34.093106382922976
20
152.24324808492247
10
-34.082892013115909
20
152.2312283849339
10
-34.076523380373573
20
152.21959374674429
10
-34.073995881166773
20
152.20847592640666
10
-34.074169212409842
20
152.20317493895053
10
-34.078568207518686
20
152.18186152068756
10
-34.106299852884057
20
152.04277358343501
10
-34.131555927824927
20
151.90321491129586
10
-34.135286909217633
20
151.88177442326835
10
-34.137071428842056
20
151.8767798981097
10
-34.143503335507511
20
151.86736572820172
10
-34.153697924862513
20
151.85888082793048
10
-34.167611139010283
20
151.85144922270359
10
-34.185221191318902
20
151.84523965493622
10
-34.206460660115127
20
151.84039212451401
10
-34.231297898349318
20
151.83707360123736
10
-34.329639435619576
20
151.83278963947603
10
-34.407667010415992
20
151.82650556172021
10
-34.49885315967763
20
151.81531333315553
10
-34.604549777591188
20
151.79783106785391
10
-34.721639868667317
20
151.77337445888901
10
-34.851310767502696
20
151.74057116346273
10
-34.919496920409863
20
151.72105576189037
10
-34.992885710018349
20
151.69837641224572
10
-35.128443300083973
20
151.65200439603927
42
0.009676377550874523
10
-35.163364253963103
20
151.31419551975858
10
-35.040159296918276
20
151.24107392107507
10
-34.972961866850198
20
151.20386149093315
10
-34.910209850328954
20
151.17081025018823
10
-34.789991489693747
20
151.11217469992704
10
-34.680380382567336
20
151.06428284908736
10
-34.580495068375335
20
151.0255485376818
10
-34.49352682211525
20
150.99593957347079
10
-34.418434703910791
20
150.9738267541361
10
-34.323049058102008
20
150.9495162990963
10
-34.299415988122142
20
150.94118720284729
10
-34.279617347843903
20
150.93209730480862
10
-34.26364985642352
20
150.92241669861946
10
-34.251551117185357
20
150.9122960631104
10
-34.24330781313369
20
150.90190509739051
10
-34.238937716169559
20
150.89137433271867
10
-34.238212693467666
20
150.8861202788284
10
-34.238946513384874
20
150.86437007546431
10
-34.242773228508902
20
150.72259608754632
10
-34.244080399319785
20
150.58077655070934
10
-34.244134436655088
20
150.55901393076996
10
-34.2450491208008
20
150.553789666542
10
-34.249797514754377
20
150.54342390718526
10
-34.258411445949505
20
150.53333812869201
10
-34.270868572777722
20
150.52366206460655
10
-34.287175936689877
20
150.5145656663278
10
-34.30729068875732
20
150.50619847471734
10
-34.331209773370091
20
150.49873012595427
10
-34.42741278565552
20
150.47788808764582
10
-34.50325597750102
20
150.45850761545097
10
-34.591239043345198
20
150.43206582975955
10
-34.692460781099939
20
150.39697222344219
10
-34.803733548634156
20
150.35307907847653
10
-34.925995367968369
20
150.29883317583781
10
-34.98990261416894
20
150.26807492365293
10
-35.058402948651924
20
150.23331907468372
10
-35.184173763215362
20
150.16470465832865
42
0.0096763772562398608
10
-35.161502486400863
20
149.82585319305747
10
-35.027712084733011
20
149.77460512058326
10
-34.955192233041657
20
149.74928443993056
10
-34.887757171622866
20
149.72731375064566
10
-34.759358615952792
20
149.68983856826571
10
-34.643230357008989
20
149.66115997254826
10
-34.538235697744057
20
149.63986358264538
10
-34.44751443892801
20
149.62537824395918
10
-34.369765389623836
20
149.61627407789149
10
-34.271643377619455
20
149.60843351511014
10
-34.246942543419678
20
149.6042181842908
10
-34.225892493899096
20
149.59860511498511
10
-34.208518694411175
20
149.59176226866407
10
-34.194883526390271
20
149.58383186630596
10
-34.185002755967929
20
149.57498349882766
10
-34.178915832509439
20
149.56534278449053
10
-34.177313292519642
20
149.56028683173446
10
-34.174360698293214
20
149.53872544166836
10
-34.154172461928667
20
149.3983440532985
10
-34.13149331875654
20
149.2583434704905
10
-34.12786856839697
20
149.23688483835699
10
-34.127887140667021
20
149.23158112504925
10
-34.130815430787017
20
149.22056197725902
10
-34.137601017063119
20
149.20916549352543
10
-34.14824377727183
20
149.19752334102387
10
-34.162779235736984
20
149.18580187588557
10
-34.181190508897672
20
149.17415557553733
10
-34.203503482764653
20
149.16275234624595
10
-34.294800371229869
20
149.12595163434878
10
-34.366277255179376
20
149.09403247002248
10
-34.448526034453096
20
149.05310177774058
10
-34.542361003996234
20
149.00140641384039
10
-34.644615213035337
20
148.93933945156959
10
-34.755950859293527
20
148.86521149610903
10
-34.813740663801234
20
148.82409523471222
10
-34.875381827747518
20
148.77826270723142
10
-34.987747721642975
20
148.68937992571369
42
0.0096763756809157952
10
-34.908136422969953
20
148.35923404096013
10
-34.767609448987685
20
148.33133380270365
10
-34.69185356248456
20
148.31863314292011
10
-34.621675430748311
20
148.30837509977056
10
-34.488790399383397
20
148.29313845778452
10
-34.369485852459107
20
148.28449820743472
10
-34.262402337030814
20
148.28125220022309
10
-34.170537961732023
20
148.28230715097556
10
-34.092368637293092
20
148.28647367365792
10
-33.99433298936242
20
148.29532856287574
10
-33.969275092165518
20
148.29534839391118
10
-33.94757911161345
20
148.29337353185667
10
-33.929298810630883
20
148.2895653006035
10
-33.914519595657012
20
148.28405334300788
10
-33.90328551328075
20
148.27700211230942
10
-33.895656791237705
20
148.26852872328027
10
-33.893222936284502
20
148.26381642826331
10
-33.886668957350771
20
148.24306406197951
10
-33.843046531419638
20
148.10811376203236
10
-33.797033304117932
20
147.97395981681564
10
-33.789834151436381
20
147.9534223436101
10
-33.788956170704068
20
147.94819178612227
10
-33.789980154798045
20
147.93683624985246
10
-33.794742021769579
20
147.92445701316092
10
-33.803264194855139
20
147.91118364031146
10
-33.8156096533477
20
147.8971743201428
10
-33.831787890143929
20
147.88258399104558
10
-33.851852649767089
20
147.86757383669206
10
-33.935616982921829
20
147.81587329467294
10
-34.000671450360272
20
147.77233353944217
10
-34.074819853813722
20
147.7180915220583
10
-34.158568532411465
20
147.65128153800657
10
-34.248862479542545
20
147.5728263322014
10
-34.346069034892743
20
147.48094876002148
10
-34.396078833699548
20
147.43065737789829
10
-34.449087627826636
20
147.37506674696425
10
-34.544816089109418
20
147.26847255464298
42
0.0096763772562384262
10
-34.410554926676554
20
146.95652986347841
10
-34.267334105472706
20
146.95278012156427
10
-34.190521535394474
20
146.9530650310698
10
-34.119619159344758
20
146.95481460641955
10
-33.986070499952
20
146.96225484894487
10
-33.867021874226957
20
146.97390135885044
10
-33.760930134632503
20
146.98879938793465
10
-33.670565380676514
20
147.00536431764513
10
-33.594224697145229
20
147.02268147956946
10
-33.499095602086975
20
147.04797718027632
10
-33.474401496520088
20
147.05223149748838
10
-33.452683857684761
20
147.0539516288261
10
-33.4340229193661
20
147.05328757945514
10
-33.418524695610323
20
147.05035266628519
10
-33.406260668286443
20
147.04530139492252
10
-33.397309639927421
20
147.03823917130057
10
-33.394114369912515
20
147.03400592033572
10
-33.384147485550983
20
147.01465972709636
10
-33.318345837493368
20
146.88902284642006
10
-33.25032228126571
20
146.76457479295323
10
-33.239755937117707
20
146.74554946124849
10
-33.238006629338713
20
146.7405424371758
10
-33.23709665760471
20
146.72917725541291
10
-33.23969809489202
20
146.71617124917887
10
-33.245854407419351
20
146.70164858246932
10
-33.255654604993779
20
146.68575440026098
10
-33.269134407182939
20
146.668639699913
10
-33.286373846644011
20
146.65045458430279
10
-33.360195879176125
20
146.58534147572612
10
-33.416956357044107
20
146.5314337379908
10
-33.480871243350137
20
146.46544075965417
10
-33.552124245313706
20
146.38543819141648
10
-33.627860510799827
20
146.29285175452927
10
-33.708141416165702
20
146.18586779120162
10
-33.748932628584811
20
146.12784810948392
10
-33.791784067774927
20
146.06409860034361
10
-33.868120956985983
20
145.94285941116647
42
0.0096763770414392929
10
-33.683072463215417
20
145.6580939772476
10
-33.541278119841834
20
145.67860256019287
10
-33.465618543677927
20
145.69186482907864
10
-33.396031708488103
20
145.70557185195435
10
-33.2656614745177
20
145.73547481976141
10
-33.150293533927744
20
145.76707318189924
10
-33.048245580695642
20
145.79968648033352
10
-32.961980094803508
20
145.83128479783988
10
-32.889664157082855
20
145.86125458236501
10
-32.800178395753122
20
145.9022633716425
10
-32.776558445258381
20
145.91062971173039
10
-32.755443892363786
20
145.91599544106955
10
-32.736939194346732
20
145.9184946201583
10
-32.721167927973084
20
145.91822114501855
10
-32.708226519388688
20
145.91531526492273
10
-32.69821082504469
20
145.90986723938977
10
-32.69434601543999
20
145.90623490863396
10
-32.68125293410219
20
145.88885147577619
10
-32.595165072350461
20
145.77614218729477
10
-32.507088286241057
20
145.66498032751917
10
-32.493458487048706
20
145.64801435831799
10
-32.4908881507112
20
145.64337503090854
10
-32.488070636315925
20
145.63232700627597
10
-32.488436528715198
20
145.6190685178571
10
-32.492049882779376
20
145.60371432393538
10
-32.49902314441001
20
145.58639251576415
10
-32.509416567649446
20
145.56724595009126
10
-32.523334847705769
20
145.54640887014148
10
-32.585090750253087
20
145.46975634575685
10
-32.631924278325187
20
145.40703147570704
10
-32.683766926719471
20
145.33118610167887
10
-32.740474680336114
20
145.24029245510451
10
-32.79947425452108
20
145.13623823976073
10
-32.860520024261923
20
145.01722569625517
10
-32.890919090386525
20
144.95314685421661
10
-32.922380492291474
20
144.88307226232169
10
-32.977129848204846
20
144.75067611066584
42
0.0096763776926121862
10
-32.746617495804898
20
144.50128010408125
10
-32.610328676712314
20
144.54545709022528
10
-32.537998731147908
20
144.57131500730361
10
-32.471729405817747
20
144.5965851728815
10
-32.348288034491077
20
144.64809075943131
10
-32.239919648667723
20
144.69873174022911
10
-32.144851216824307
20
144.74812212130209
10
-32.06516679061199
20
144.79384490267188
10
-31.998955871352081
20
144.83560508789989
10
-31.917687832840631
20
144.89114708064164
10
-31.895821584902041
20
144.90338500104048
10
-31.87591757974235
20
144.91224186897347
10
-31.858101416441038
20
144.91783242489225
10
-31.842510708030183
20
144.92022818350438
10
-31.829264450042007
20
144.9195511703945
10
-31.818471978180529
20
144.91587425773724
10
-31.81404904422909
20
144.91294732514811
10
-31.798206465949036
20
144.89802664305611
10
-31.694308996868806
20
144.80148749388411
10
-31.588712541775124
20
144.70680960180508
10
-31.572411623473812
20
144.69239116311513
10
-31.56909418103757
20
144.68825296444882
10
-31.564450001768574
20
144.67784004039035
10
-31.562569997065193
20
144.66471047650097
10
-31.563536527566125
20
144.64896635909318
10
-31.567482015427395
20
144.63071518599287
10
-31.574490215557528
20
144.61008760127879
10
-31.584686690233209
20
144.58719806496441
10
-31.632600008593506
20
144.50121124039629
10
-31.668159450993116
20
144.43147376575698
10
-31.706438410629048
20
144.34795790180792
10
-31.746969236108619
20
144.24878805094968
10
-31.787535034075518
20
144.13625964963245
10
-31.82758941309708
20
144.00864215133791
10
-31.846721844965479
20
143.94034749175862
10
-31.86588804856116
20
143.86596392117892
10
-31.897474795421651
20
143.72621944477123
42
0.0096763759886295021
10
-31.628130082224377
20
143.51936757152163
10
-31.501267618867047
20
143.5859420324594
10
-31.434348084214193
20
143.62365190933932
10
-31.373302568872759
20
143.65975807962843
10
-31.260341298372822
20
143.73138440521342
10
-31.162090147770716
20
143.79961150007367
10
-31.076736187426739
20
143.86435799485832
10
-31.005925118335909
20
143.92288978772496
10
-30.94772418811317
20
143.97523900962983
10
-30.877011713169122
20
144.04371649470988
10
-30.857528167801583
20
144.05947372887107
10
-30.839407333834309
20
144.07156701198738
10
-30.82279219346929
20
144.08008812134301
10
-30.807830577704024
20
144.08508426664241
10
-30.794660512306912
20
144.08665564916919
10
-30.783401877755789
20
144.08485550012699
10
-30.778547827361042
20
144.08271814024027
10
-30.760411604199899
20
144.07068947775565
10
-30.641693316264732
20
143.99309770830405
10
-30.521615172909939
20
143.91762764210162
10
-30.503111975126075
20
143.90617138999102
10
-30.49914293377439
20
143.90265343748018
10
-30.492805820995894
20
143.89317513925724
10
-30.488733894589167
20
143.88055210028963
10
-30.487025770304133
20
143.86487115135449
10
-30.487830045364298
20
143.84621577325893
10
-30.491251320216016
20
143.82470046686163
10
-30.497432857499366
20
143.80041697264406
10
-30.530125117746401
20
143.70756966163748
10
-30.553387320396116
20
143.63282563961963
10
-30.577001467736856
20
143.54404189920308
10
-30.600189599871467
20
143.43944874931358
10
-30.62115429236254
20
143.32168331444038
10
-30.639065138736903
20
143.1891321953089
10
-30.646380623424861
20
143.11858654745004
10
-30.652700178895024
20
143.04203384586711
10
-30.660215644435699
20
142.89896125557772
42
0.0096763776926143373
10
-30.359787021575922
20
142.74060420560551
10
-30.246000549043202
20
142.82766092053765
10
-30.186416528505777
20
142.87613785046992
10
-30.132351127613788
20
142.92204137587524
10
-30.033119697143057
20
143.01172802327412
10
-29.947812122657528
20
143.09557817068134
10
-29.87462814217271
20
143.17381837331547
10
-29.814727573213645
20
143.24347541023488
10
-29.766210764570005
20
143.30490755128073
10
-29.7080882228191
20
143.38435043097664
10
-29.691547946169543
20
143.40317386501292
10
-29.675731447217743
20
143.41815560672097
10
-29.660795437312466
20
143.42936216837921
10
-29.646893482823241
20
143.43681490344491
10
-29.63417835129702
20
143.44058939979155
10
-29.622777442787111
20
143.44071793305093
10
-29.617632002942869
20
143.43943168404343
10
-29.597723721573601
20
143.43064101456486
10
-29.467600108433849
20
143.3742289181352
10
-29.336494652386563
20
143.32013767073227
10
-29.316321528671526
20
143.31197326037889
10
-29.311814983635976
20
143.3091765423305
10
-29.30396715636261
20
143.30090570667215
10
-29.297820493196546
20
143.2891522932444
10
-29.293486930520128
20
143.27398562366241
10
-29.291126848750409
20
143.25546267144466
10
-29.290862850112006
20
143.23367860157705
10
-29.292851408022933
20
143.20869974361125
10
-29.309382215867746
20
143.11166287087329
10
-29.319678020378504
20
143.03406274688899
10
-29.327947911059226
20
142.94256522433471
10
-29.333126176361738
20
142.83555775935179
10
-29.333887010689189
20
142.71594321451343
10
-29.329138923668175
20
142.58227182244013
10
-29.324426814015865
20
142.51150455507394
10
-29.317718104098091
20
142.43498493371749
10
-29.300946055598338
20
142.29270023258522
42
0.0096763770414392929
10
-28.978076368014591
20
142.18739371792972
10
-28.880639152312174
20
142.29242821929307
10
-28.830104930000921
20
142.35027749008958
10
-28.784574930635486
20
142.4046578692261
10
-28.701927883516412
20
142.50982467852518
10
-28.632018224252825
20
142.60688584350325
10
-28.573109544181197
20
142.69636862746569
10
-28.525842670727059
20
142.77514697826791
10
-28.488405816027598
20
142.84389490875134
10
-28.444545289393869
20
142.93201791141863
10
-28.431424113547408
20
142.95336577892564
10
-28.418367034946908
20
142.9708051233365
10
-28.405539724064269
20
142.98437453732865
10
-28.393097281773517
20
142.99406957018735
10
-28.381202904836471
20
142.99993876701481
10
-28.369987768186775
20
143.00199208505853
10
-28.364698926489798
20
143.00159393775613
10
-28.343591456619425
20
142.99629435373464
10
-28.205805728532546
20
142.96268460293055
10
-28.067444731515494
20
142.93152826846045
10
-28.04618193921257
20
142.92689063542051
10
-28.041267578385085
20
142.92489583671957
10
-28.032134919895555
20
142.91807011623865
10
-28.024090290847997
20
142.90752470718698
10
-28.017255860862157
20
142.89330854660582
10
-28.011799347758206
20
142.8754508299196
10
-28.007857585450214
20
142.8540247430555
10
-28.005596201902673
20
142.82906909822029
10
-28.005489875873423
20
142.73063431831184
10
-28.002523014173782
20
142.6524103974769
10
-27.995210860559403
20
142.56083137114791
10
-27.982230327279154
20
142.45448799224482
10
-27.962765201941725
20
142.33646542925115
10
-27.935494897874044
20
142.20551913434176
10
-27.918890794518152
20
142.13656616707314
10
-27.899346655310644
20
142.06228104933015
0
CIRCLE
5
102
100
AcDbEntity
8
0
100
AcDbCircle
10
-26.419055061717248
20
155.5809642022119
30
1.2212453270876722e-14
40
1.1000000000000016
210
0
220
0
230
1
0
LINE
5
103
100
AcDbEntity
8
0
100
AcDbLine
10
-20.830962252686398
20
166.06966571080645
30
1.3877787807814457e-14
11
-20.421197894117256
21
150.7412990428063
31
1.2723250318951058e-14
0
ARC
5
104
100
AcDbEntity
8
0
100
AcDbCircle
10
-26.881935393763968
20
167.133460595294
30
1.443289932012706e-14
40
6.0000000000002887
210
6.534866540565938e-17
220
-7.3397341879888613e-17
230
1
100
AcDbArc
50
1.5312902324547288
51
181.53129023245472
0
LINE
5
105
100
AcDbEntity
8
0
100
AcDbLine
10
-32.757964236059124
20
162.41579437349253
30
1.3877787807814457e-14
11
-32.87979267504528
21
166.97312334639579
31
1.4813082960878948e-14
0
LINE
5
106
100
AcDbEntity
8
0
100
AcDbLine
10
-32.416912456679903
20
150.42062454500933
30
1.27675647831893e-14
11
-32.737586954476768
21
162.41633910757264
31
1.3679388066400664e-14
0
ARC
5
107
100
AcDbEntity
8
0
100
AcDbCircle
10
-26.419055175398576
20
150.58096179390753
30
1.3877787807814432e-14
40
6.0000000000003064
210
-1.8296373653880956e-16
220
-8.0035333670612063e-17
230
1
100
AcDbArc
50
-178.46870976754525
51
1.5312902324599655
0
CIRCLE
5
108
100
AcDbEntity
8
0
100
AcDbCircle
10
-26.90865826856453
20
168.13310347550711
30
1.3877787807814457e-14
40
2.0000000000002145
210
6.5348473978309148e-17
220
-7.3397342032345942e-17
230
1
0
ENDSEC
0
SECTION
2
OBJECTS
0
DICTIONARY
5
C
100
AcDbDictionary
3
ACAD_GROUP
350
D
3
ACAD_MLINESTYLE
350
17
0
DICTIONARY
5
D
100
AcDbDictionary
0
DICTIONARY
5
1A
330
C
100
AcDbDictionary
0
DICTIONARY
5
17
100
AcDbDictionary
0
ENDSEC
0
EOF
