0
SECTION
2
HEADER
9
$INSUNITS
70
4
9
$ACADVER
1
AC1014
9
$HANDSEED
5
FFFF
0
ENDSEC
0
SECTION
2
TABLES
0
TABLE
2
VPORT
5
8
100
AcDbSymbolTable
0
ENDTAB
0
TABLE
2
LTYPE
5
5
100
AcDbSymbolTable
0
LTYPE
5
14
100
AcDbSymbolTableRecord
100
AcDbLinetypeTableRecord
2
BYBLOCK
70
0
0
LTYPE
5
15
100
AcDbSymbolTableRecord
100
AcDbLinetypeTableRecord
2
BYLAYER
70
0
0
ENDTAB
0
TABLE
2
LAYER
5
2
100
AcDbSymbolTable
70
2
0
LAYER
5
50
100
AcDbSymbolTableRecord
100
AcDbLayerTableRecord
2
0
70
0
6
CONTINUOUS
0
ENDTAB
0
TABLE
2
STYLE
5
3
100
AcDbSymbolTable
70
1
0
STYLE
5
11
100
AcDbSymbolTableRecord
100
AcDbTextStyleTableRecord
2
STANDARD
70
0
0
ENDTAB
0
TABLE
2
VIEW
5
6
100
AcDbSymbolTable
70
0
0
ENDTAB
0
TABLE
2
UCS
5
7
100
AcDbSymbolTable
70
0
0
ENDTAB
0
TABLE
2
APPID
5
9
100
AcDbSymbolTable
70
2
0
APPID
5
12
100
AcDbSymbolTableRecord
100
AcDbRegAppTableRecord
2
ACAD
70
0
0
ENDTAB
0
TABLE
2
DIMSTYLE
5
A
100
AcDbSymbolTable
70
1
0
ENDTAB
0
TABLE
2
BLOCK_RECORD
5
1
100
AcDbSymbolTable
70
1
0
BLOCK_RECORD
5
1F
100
AcDbSymbolTableRecord
100
AcDbBlockTableRecord
2
*MODEL_SPACE
0
BLOCK_RECORD
5
1B
100
AcDbSymbolTableRecord
100
AcDbBlockTableRecord
2
*PAPER_SPACE
0
ENDTAB
0
ENDSEC
0
SECTION
2
BLOCKS
0
BLOCK
5
20
100
AcDbEntity
100
AcDbBlockBegin
2
*MODEL_SPACE
0
ENDBLK
5
21
100
AcDbEntity
100
AcDbBlockEnd
0
BLOCK
5
1C
100
AcDbEntity
100
AcDbBlockBegin
2
*PAPER_SPACE
0
ENDBLK
5
1D
100
AcDbEntity
100
AcDbBlockEnd
0
ENDSEC
0
SECTION
2
ENTITIES
0
LWPOLYLINE
5
100
100
AcDbEntity
8
0
100
AcDbPolyline
90
56
70
1
43
0.0
10
3.9999999999999822
20
162.92237366002462
10
3.9999999999999121
20
138.88694466002454
10
6.4068582999999268
20
138.8869446600246
10
6.4068582999999348
20
141.8869446600246
10
7.3568582999999332
20
142.23271646002462
10
7.3568582999999341
20
142.61200156002459
10
6.4068582999999251
20
142.95777326002462
10
6.4068582999999322
20
143.30066136002458
10
7.3568582999999377
20
143.64643316002457
10
7.3568582999999368
20
144.02571826002463
10
6.4068582999999411
20
144.3714899600246
10
6.4068582999999428
20
144.71437806002461
10
7.3568582999999466
20
145.06014986002464
10
7.3568582999999501
20
145.43943496002464
10
6.4068582999999411
20
145.78520666002458
10
6.4068582999999446
20
146.12809476002462
10
7.3568582999999412
20
146.47386646002462
10
7.3568582999999466
20
146.85315166002459
10
6.4068582999999446
20
147.19892336002459
10
6.4068582999999402
20
147.5418114600246
10
7.356858299999951
20
147.8875831600246
10
7.3568582999999457
20
148.26686836002463
10
6.4068582999999517
20
148.6126400600246
10
6.4068582999999437
20
148.95552816002461
10
7.3568582999999528
20
149.30129986002456
10
7.3568582999999474
20
149.68058506002461
10
6.4068582999999446
20
150.02635676002458
10
6.4068582999999579
20
150.36924486002459
10
7.3568582999999554
20
150.71501656002459
10
7.3568582999999519
20
151.09430176002459
10
6.4068582999999517
20
151.44007346002462
10
6.4068582999999615
20
151.78296156002457
10
7.356858299999959
20
152.1287332600246
10
7.3568582999999599
20
152.50801846002463
10
6.4068582999999579
20
152.8537901600246
10
6.4068582999999606
20
153.19667826002461
10
7.3568582999999554
20
153.54244996002458
10
7.3568582999999679
20
153.92173516002461
10
6.4068582999999659
20
154.26750686002461
10
6.4068582999999624
20
154.61039496002459
10
7.3568582999999634
20
154.95616666002459
10
7.356858299999959
20
155.33545186002459
10
6.4068582999999766
20
155.68122356002459
10
6.4068582999999668
20
156.02411166002463
10
7.3568582999999705
20
156.36988336002463
10
7.3568582999999697
20
156.74916846002458
10
6.406858299999973
20
157.0949402600246
10
6.4068582999999704
20
157.43782836002461
10
7.3568582999999821
20
157.78360006002458
10
7.3568582999999776
20
158.16288516002464
10
6.4068582999999677
20
158.50865696002461
10
6.4068582999999668
20
158.85154506002465
10
7.3568582999999732
20
159.19731676002453
10
7.3568582999999679
20
159.57660186002465
10
6.4068582999999695
20
159.92237366002459
10
6.4068582999999757
20
162.92237366002462
0
ENDSEC
0
SECTION
2
OBJECTS
0
DICTIONARY
5
C
100
AcDbDictionary
3
ACAD_GROUP
350
D
3
ACAD_MLINESTYLE
350
17
0
DICTIONARY
5
D
100
AcDbDictionary
0
DICTIONARY
5
1A
330
C
100
AcDbDictionary
0
DICTIONARY
5
17
100
AcDbDictionary
0
ENDSEC
0
EOF
