0
SECTION
2
HEADER
9
$INSUNITS
70
4
9
$ACADVER
1
AC1014
9
$HANDSEED
5
FFFF
0
ENDSEC
0
SECTION
2
TABLES
0
TABLE
2
VPORT
5
8
100
AcDbSymbolTable
0
ENDTAB
0
TABLE
2
LTYPE
5
5
100
AcDbSymbolTable
0
LTYPE
5
14
100
AcDbSymbolTableRecord
100
AcDbLinetypeTableRecord
2
BYBLOCK
70
0
0
LTYPE
5
15
100
AcDbSymbolTableRecord
100
AcDbLinetypeTableRecord
2
BYLAYER
70
0
0
ENDTAB
0
TABLE
2
LAYER
5
2
100
AcDbSymbolTable
70
2
0
LAYER
5
50
100
AcDbSymbolTableRecord
100
AcDbLayerTableRecord
2
0
70
0
6
CONTINUOUS
0
ENDTAB
0
TABLE
2
STYLE
5
3
100
AcDbSymbolTable
70
1
0
STYLE
5
11
100
AcDbSymbolTableRecord
100
AcDbTextStyleTableRecord
2
STANDARD
70
0
0
ENDTAB
0
TABLE
2
VIEW
5
6
100
AcDbSymbolTable
70
0
0
ENDTAB
0
TABLE
2
UCS
5
7
100
AcDbSymbolTable
70
0
0
ENDTAB
0
TABLE
2
APPID
5
9
100
AcDbSymbolTable
70
2
0
APPID
5
12
100
AcDbSymbolTableRecord
100
AcDbRegAppTableRecord
2
ACAD
70
0
0
ENDTAB
0
TABLE
2
DIMSTYLE
5
A
100
AcDbSymbolTable
70
1
0
ENDTAB
0
TABLE
2
BLOCK_RECORD
5
1
100
AcDbSymbolTable
70
1
0
BLOCK_RECORD
5
1F
100
AcDbSymbolTableRecord
100
AcDbBlockTableRecord
2
*MODEL_SPACE
0
BLOCK_RECORD
5
1B
100
AcDbSymbolTableRecord
100
AcDbBlockTableRecord
2
*PAPER_SPACE
0
ENDTAB
0
ENDSEC
0
SECTION
2
BLOCKS
0
BLOCK
5
20
100
AcDbEntity
100
AcDbBlockBegin
2
*MODEL_SPACE
0
ENDBLK
5
21
100
AcDbEntity
100
AcDbBlockEnd
0
BLOCK
5
1C
100
AcDbEntity
100
AcDbBlockBegin
2
*PAPER_SPACE
0
ENDBLK
5
1D
100
AcDbEntity
100
AcDbBlockEnd
0
ENDSEC
0
SECTION
2
ENTITIES
0
LWPOLYLINE
5
100
100
AcDbEntity
8
0
100
AcDbPolyline
90
8
70
1
43
0.0
10
-298.00000251738771
20
55.000002878754785
10
-295.00000251738766
20
55.000002901318197
10
-295.00000272045844
20
82.000002901318183
10
-298.00000272045838
20
82.000002878754756
10
-298.00000274302181
20
85.000002878754785
10
-300.00000274302175
20
85.000002863712524
10
-300.00000249482434
20
52.000002863712496
10
-298.00000249482429
20
52.000002878754771
0
LWPOLYLINE
5
101
100
AcDbEntity
8
0
100
AcDbPolyline
90
8
70
1
43
0.0
10
-283.00000226166895
20
21.000002991571826
10
-281.00000226166901
20
21.000003006614101
10
-281.00000272045844
20
82.000003006614122
10
-283.00000272045838
20
82.000002991571847
10
-283.00000274302181
20
85.000002991571861
10
-285.00000274302181
20
85.000002976529572
10
-285.00000223910558
20
18.000002976529554
10
-283.00000223910558
20
18.000002991571836
0
LWPOLYLINE
5
102
100
AcDbEntity
8
0
100
AcDbPolyline
90
8
70
1
43
0.0
10
-268.0000030848575
20
130.45000310438888
10
-270.00000308485744
20
130.45000308934664
10
-270.00000223910553
20
18.000003089346581
10
-268.00000223910558
20
18.00000310438886
10
-268.00000226166895
20
21.000003104388867
10
-266.00000226166895
20
21.000003119431128
10
-266.00000306229413
20
127.45000311943116
10
-268.00000306229413
20
127.45000310438888
0
LWPOLYLINE
5
103
100
AcDbEntity
8
0
100
AcDbPolyline
90
8
70
1
43
0.0
10
-257.50000266781046
20
75.000003183360832
10
-257.50000223910558
20
18.000003183360811
10
-255.50000223910564
20
18.000003198403089
10
-255.50000226166901
20
21.000003198403089
10
-253.50000226166907
20
21.000003213445368
10
-253.50000264524706
20
72.000003213445353
10
-255.50000264524704
20
72.000003198403107
10
-255.50000266781046
20
75.000003198403107
0
LWPOLYLINE
5
104
100
AcDbEntity
8
0
100
AcDbPolyline
90
8
70
1
43
0.0
10
-241.00000226166907
20
21.000003307459583
10
-241.00000269789507
20
79.000003307459608
10
-243.00000269789504
20
79.000003292417318
10
-243.00000272045847
20
82.000003292417318
10
-245.00000272045841
20
82.000003277375058
10
-245.00000223910558
20
18.000003277375043
10
-243.00000223910561
20
18.000003292417333
10
-243.00000226166901
20
21.000003292417311
0
ENDSEC
0
SECTION
2
OBJECTS
0
DICTIONARY
5
C
100
AcDbDictionary
3
ACAD_GROUP
350
D
3
ACAD_MLINESTYLE
350
17
0
DICTIONARY
5
D
100
AcDbDictionary
0
DICTIONARY
5
1A
330
C
100
AcDbDictionary
0
DICTIONARY
5
17
100
AcDbDictionary
0
ENDSEC
0
EOF
