0
SECTION
2
HEADER
9
$INSUNITS
70
4
9
$ACADVER
1
AC1014
9
$HANDSEED
5
FFFF
0
ENDSEC
0
SECTION
2
TABLES
0
TABLE
2
VPORT
5
8
100
AcDbSymbolTable
0
ENDTAB
0
TABLE
2
LTYPE
5
5
100
AcDbSymbolTable
0
LTYPE
5
14
100
AcDbSymbolTableRecord
100
AcDbLinetypeTableRecord
2
BYBLOCK
70
0
0
LTYPE
5
15
100
AcDbSymbolTableRecord
100
AcDbLinetypeTableRecord
2
BYLAYER
70
0
0
ENDTAB
0
TABLE
2
LAYER
5
2
100
AcDbSymbolTable
70
2
0
LAYER
5
50
100
AcDbSymbolTableRecord
100
AcDbLayerTableRecord
2
0
70
0
6
CONTINUOUS
0
ENDTAB
0
TABLE
2
STYLE
5
3
100
AcDbSymbolTable
70
1
0
STYLE
5
11
100
AcDbSymbolTableRecord
100
AcDbTextStyleTableRecord
2
STANDARD
70
0
0
ENDTAB
0
TABLE
2
VIEW
5
6
100
AcDbSymbolTable
70
0
0
ENDTAB
0
TABLE
2
UCS
5
7
100
AcDbSymbolTable
70
0
0
ENDTAB
0
TABLE
2
APPID
5
9
100
AcDbSymbolTable
70
2
0
APPID
5
12
100
AcDbSymbolTableRecord
100
AcDbRegAppTableRecord
2
ACAD
70
0
0
ENDTAB
0
TABLE
2
DIMSTYLE
5
A
100
AcDbSymbolTable
70
1
0
ENDTAB
0
TABLE
2
BLOCK_RECORD
5
1
100
AcDbSymbolTable
70
1
0
BLOCK_RECORD
5
1F
100
AcDbSymbolTableRecord
100
AcDbBlockTableRecord
2
*MODEL_SPACE
0
BLOCK_RECORD
5
1B
100
AcDbSymbolTableRecord
100
AcDbBlockTableRecord
2
*PAPER_SPACE
0
ENDTAB
0
ENDSEC
0
SECTION
2
BLOCKS
0
BLOCK
5
20
100
AcDbEntity
100
AcDbBlockBegin
2
*MODEL_SPACE
0
ENDBLK
5
21
100
AcDbEntity
100
AcDbBlockEnd
0
BLOCK
5
1C
100
AcDbEntity
100
AcDbBlockBegin
2
*PAPER_SPACE
0
ENDBLK
5
1D
100
AcDbEntity
100
AcDbBlockEnd
0
ENDSEC
0
SECTION
2
ENTITIES
0
LWPOLYLINE
5
100
100
AcDbEntity
8
0
100
AcDbPolyline
90
8
70
1
43
0.0
10
114.65003481124026
20
17.907141515534938
10
113.14555266889208
20
15.311658230411433
10
107.95458609864508
20
18.320622515107743
42
-0.61803398874989213
10
102.76361952839807
20
21.329586799804066
10
97.572652958151082
20
24.338551084500377
10
99.077135100499234
20
26.934034369623888
10
104.26810167074623
20
23.925070084927576
42
-0.6180339887498959
10
109.45906824099323
20
20.91610580023125
0
LWPOLYLINE
5
101
100
AcDbEntity
8
0
100
AcDbPolyline
90
8
70
1
43
0.0
10
0.9590682409932505
20
67.416105800231236
10
6.150034811240257
20
64.407141515534931
10
4.6455526688921012
20
61.811658230411425
10
-0.54541390135492063
20
64.820622515107743
42
-0.61803398874989179
10
-5.7363804716019118
20
67.829586799804062
10
-10.927347041848918
20
70.838551084500367
10
-9.4228648995007447
20
73.434034369623888
10
-4.2318983292537684
20
70.425070084927569
42
-0.61803398874989823
0
CIRCLE
5
102
100
AcDbEntity
8
0
100
AcDbCircle
10
70
20
99.499999999999972
30
0
40
1.0999999999999999
210
0
220
-0
230
1
0
CIRCLE
5
103
100
AcDbEntity
8
0
100
AcDbCircle
10
-20.000000000000149
20
99.499999999999915
30
0
40
1.0999999999999943
210
0
220
-0
230
1
0
CIRCLE
5
104
100
AcDbEntity
8
0
100
AcDbCircle
10
69.999999999999986
20
-34.499999999999972
30
0
40
1.0999999999999999
210
0
220
-0
230
1
0
LWPOLYLINE
5
105
100
AcDbEntity
8
0
100
AcDbPolyline
90
8
70
1
43
0.0
10
34.959068240993247
20
-58.583894199768721
10
40.150034811240253
20
-61.592858484465026
10
38.645552668892087
20
-64.188341769588547
10
33.454586098645073
20
-61.179377484892214
42
-0.61803398874989124
10
28.263619528398081
20
-58.170413200195924
10
23.072652958151068
20
-55.161448915499619
10
24.577135100499241
20
-52.565965630376098
10
29.768101670746226
20
-55.574929915072396
42
-0.61803398874989668
0
CIRCLE
5
106
100
AcDbEntity
8
0
100
AcDbCircle
10
-20.000000000000028
20
-34.500000000000014
30
0
40
1.0999999999999943
210
0
220
-0
230
1
0
LWPOLYLINE
5
107
100
AcDbEntity
8
0
100
AcDbPolyline
90
9
70
1
43
0.0
10
-73.845819058039851
20
74.197776215090059
42
0.61803398874989346
10
-68.654852487792866
20
77.206740499786378
10
-63.463885917545859
20
80.215704784482668
10
-64.968368059894033
20
82.811188069606175
10
-70.159334630141018
20
79.80222378490987
42
0.6166678356524965
10
-75.35109299301439
20
76.80650684659264
10
-76.112032898919821
20
76.351718711155073
10
-80.541267770635017
20
73.784295215517247
10
-79.03678562828685
20
71.18881193039374
0
LWPOLYLINE
5
108
100
AcDbEntity
8
0
100
AcDbPolyline
90
9
70
1
43
0.0
10
42.154180941960163
20
74.197776215090059
42
0.61803398874989268
10
47.345147512207156
20
77.206740499786378
10
52.536114082454134
20
80.215704784482668
10
51.031631940105989
20
82.811188069606175
10
45.840665369859011
20
79.80222378490987
42
0.61666783565249894
10
40.648907006988594
20
76.806506846592811
10
39.8879671010802
20
76.351718711155073
10
35.458732229365005
20
73.784295215517247
10
36.963214371713164
20
71.18881193039374
0
LWPOLYLINE
5
109
100
AcDbEntity
8
0
100
AcDbPolyline
90
9
70
1
43
0.0
10
-71.228912717866578
20
3.2636549786694724
42
0.61666783565249805
10
-75.082974203753082
20
-1.3270840616116173
10
-75.642477114931495
20
-2.0147018921844317
10
-78.926485887654138
20
-5.9421783511147552
10
-76.625027555208078
20
-7.8665716435616329
10
-72.776240970314291
20
-3.2636549786695408
42
0.61803398874988835
10
-68.927454385420504
20
1.3392616862225459
10
-65.078667800526731
20
5.9421783511146664
10
-67.380126132972791
20
7.8665716435615707
0
LWPOLYLINE
5
110
100
AcDbEntity
8
0
100
AcDbPolyline
90
8
70
1
43
0.0
10
82.959068240993261
20
120.41610580023125
10
88.150034811240246
20
117.40714151553493
10
86.645552668892094
20
114.81165823041145
10
81.45458609864508
20
117.82062251510777
42
-0.61803398874989435
10
76.263619528398081
20
120.82958679980406
10
71.072652958151082
20
123.83855108450038
10
72.577135100499234
20
126.4340343696239
10
77.768101670746248
20
123.4250700849276
42
-0.61803398874989413
0
LWPOLYLINE
5
111
100
AcDbEntity
8
0
100
AcDbPolyline
90
9
70
1
43
0.0
10
-60.728912717866564
20
3.2636549786694773
42
0.61666783565249972
10
-64.58297420375311
20
-1.32708406161162
10
-65.142477114931481
20
-2.0147018921844317
10
-68.426485887654138
20
-5.9421783511147552
10
-66.125027555208078
20
-7.8665716435616329
10
-62.276240970314277
20
-3.2636549786695399
42
0.61803398874988691
10
-58.427454385420496
20
1.3392616862225637
10
-54.578667800526723
20
5.9421783511146664
10
-56.880126132972784
20
7.8665716435615707
0
CIRCLE
5
112
100
AcDbEntity
8
0
100
AcDbCircle
10
94.886251449584933
20
77
30
0
40
2.9999999999999982
210
0
220
-0
230
1
0
LWPOLYLINE
5
113
100
AcDbEntity
8
0
100
AcDbPolyline
90
9
70
1
43
0.0
10
-59.350327858864496
20
74.204155912471549
42
0.61803398874989102
10
-54.149005064113879
20
77.195182690153075
10
-48.947682269363355
20
80.186209467834587
10
-50.44319565820409
20
82.786870865209892
10
-54.881267063557111
20
80.234752694795532
10
-55.655595095138509
20
79.803153473246866
42
0.6166678356524995
10
-60.845841247708208
20
76.804817309846669
10
-66.047164042455819
20
73.813790532165314
10
-64.551650653615056
20
71.213129134790023
0
CIRCLE
5
114
100
AcDbEntity
8
0
100
AcDbCircle
10
0
20
0
30
0
40
2.0000000000000018
210
0
220
-0
230
1
0
LWPOLYLINE
5
115
100
AcDbEntity
8
0
100
AcDbPolyline
90
9
70
1
43
0.0
10
76.351092993014362
20
76.80650684659264
10
77.112032898919793
20
76.351718711155073
10
81.541267770634988
20
73.784295215517247
10
80.036785628286822
20
71.18881193039374
10
74.845819058039822
20
74.197776215090073
42
-0.61803398874989213
10
69.654852487792851
20
77.206740499786378
10
64.463885917545852
20
80.215704784482668
10
65.968368059894004
20
82.811188069606175
10
71.159334630139341
20
79.802223784912371
42
-0.61666783565249772
0
LWPOLYLINE
5
116
100
AcDbEntity
8
0
100
AcDbPolyline
90
4
70
1
43
0.0
10
-90
20
-75.000000000000014
10
140
20
-75.000000000000014
10
140
20
140
10
-90
20
140
0
ENDSEC
0
SECTION
2
OBJECTS
0
DICTIONARY
5
C
100
AcDbDictionary
3
ACAD_GROUP
350
D
3
ACAD_MLINESTYLE
350
17
0
DICTIONARY
5
D
100
AcDbDictionary
0
DICTIONARY
5
1A
330
C
100
AcDbDictionary
0
DICTIONARY
5
17
100
AcDbDictionary
0
ENDSEC
0
EOF
